%TF.GenerationSoftware,KiCad,Pcbnew,(5.1.6)-1*%
%TF.CreationDate,2020-08-18T15:16:58+05:00*%
%TF.ProjectId,attiny2313_tm1637_ds1302,61747469-6e79-4323-9331-335f746d3136,1*%
%TF.SameCoordinates,Original*%
%TF.FileFunction,Copper,L1,Top*%
%TF.FilePolarity,Positive*%
%FSLAX46Y46*%
G04 Gerber Fmt 4.6, Leading zero omitted, Abs format (unit mm)*
G04 Created by KiCad (PCBNEW (5.1.6)-1) date 2020-08-18 15:16:58*
%MOMM*%
%LPD*%
G01*
G04 APERTURE LIST*
%ADD10C,0.100000*%
%ADD11C,0.150000*%
%ADD12C,0.300000*%
%ADD13C,0.400000*%
%TA.AperFunction,ComponentPad*%
%ADD14C,1.524000*%
%TD*%
%TA.AperFunction,ComponentPad*%
%ADD15R,1.524000X1.524000*%
%TD*%
%TA.AperFunction,SMDPad,CuDef*%
%ADD16C,1.524000*%
%TD*%
%TA.AperFunction,SMDPad,CuDef*%
%ADD17R,1.524000X1.524000*%
%TD*%
%TA.AperFunction,ComponentPad*%
%ADD18R,2.400000X2.400000*%
%TD*%
%TA.AperFunction,ComponentPad*%
%ADD19O,2.400000X2.400000*%
%TD*%
%TA.AperFunction,ComponentPad*%
%ADD20R,2.000000X2.000000*%
%TD*%
%TA.AperFunction,ComponentPad*%
%ADD21C,2.000000*%
%TD*%
%TA.AperFunction,ComponentPad*%
%ADD22C,1.440000*%
%TD*%
%TA.AperFunction,ComponentPad*%
%ADD23O,1.600000X1.600000*%
%TD*%
%TA.AperFunction,ComponentPad*%
%ADD24R,1.600000X1.600000*%
%TD*%
%TA.AperFunction,ComponentPad*%
%ADD25C,1.000000*%
%TD*%
%TA.AperFunction,ComponentPad*%
%ADD26C,1.600000*%
%TD*%
%TA.AperFunction,ComponentPad*%
%ADD27R,1.714500X1.800000*%
%TD*%
%TA.AperFunction,ComponentPad*%
%ADD28O,1.714500X1.800000*%
%TD*%
%TA.AperFunction,Conductor*%
%ADD29C,0.250000*%
%TD*%
%TA.AperFunction,Conductor*%
%ADD30C,0.254000*%
%TD*%
G04 APERTURE END LIST*
D10*
D11*
X177002200Y-166007200D02*
X177002200Y-198007200D01*
X285002200Y-198007200D01*
X285002200Y-166007200D01*
X177002200Y-166007200D01*
D10*
D11*
X10000000Y-10000000D02*
X10000000Y-200007200D01*
X287002200Y-200007200D01*
X287002200Y-10000000D01*
X10000000Y-10000000D01*
D10*
D11*
X12000000Y-12000000D02*
X12000000Y-198007200D01*
X285002200Y-198007200D01*
X285002200Y-12000000D01*
X12000000Y-12000000D01*
D10*
D11*
X60000000Y-12000000D02*
X60000000Y-10000000D01*
D10*
D11*
X110000000Y-12000000D02*
X110000000Y-10000000D01*
D10*
D11*
X160000000Y-12000000D02*
X160000000Y-10000000D01*
D10*
D11*
X210000000Y-12000000D02*
X210000000Y-10000000D01*
D10*
D11*
X260000000Y-12000000D02*
X260000000Y-10000000D01*
D10*
D11*
X36065476Y-11588095D02*
X35322619Y-11588095D01*
X35694047Y-11588095D02*
X35694047Y-10288095D01*
X35570238Y-10473809D01*
X35446428Y-10597619D01*
X35322619Y-10659523D01*
D10*
D11*
X85322619Y-10411904D02*
X85384523Y-10350000D01*
X85508333Y-10288095D01*
X85817857Y-10288095D01*
X85941666Y-10350000D01*
X86003571Y-10411904D01*
X86065476Y-10535714D01*
X86065476Y-10659523D01*
X86003571Y-10845238D01*
X85260714Y-11588095D01*
X86065476Y-11588095D01*
D10*
D11*
X135260714Y-10288095D02*
X136065476Y-10288095D01*
X135632142Y-10783333D01*
X135817857Y-10783333D01*
X135941666Y-10845238D01*
X136003571Y-10907142D01*
X136065476Y-11030952D01*
X136065476Y-11340476D01*
X136003571Y-11464285D01*
X135941666Y-11526190D01*
X135817857Y-11588095D01*
X135446428Y-11588095D01*
X135322619Y-11526190D01*
X135260714Y-11464285D01*
D10*
D11*
X185941666Y-10721428D02*
X185941666Y-11588095D01*
X185632142Y-10226190D02*
X185322619Y-11154761D01*
X186127380Y-11154761D01*
D10*
D11*
X236003571Y-10288095D02*
X235384523Y-10288095D01*
X235322619Y-10907142D01*
X235384523Y-10845238D01*
X235508333Y-10783333D01*
X235817857Y-10783333D01*
X235941666Y-10845238D01*
X236003571Y-10907142D01*
X236065476Y-11030952D01*
X236065476Y-11340476D01*
X236003571Y-11464285D01*
X235941666Y-11526190D01*
X235817857Y-11588095D01*
X235508333Y-11588095D01*
X235384523Y-11526190D01*
X235322619Y-11464285D01*
D10*
D11*
X285941666Y-10288095D02*
X285694047Y-10288095D01*
X285570238Y-10350000D01*
X285508333Y-10411904D01*
X285384523Y-10597619D01*
X285322619Y-10845238D01*
X285322619Y-11340476D01*
X285384523Y-11464285D01*
X285446428Y-11526190D01*
X285570238Y-11588095D01*
X285817857Y-11588095D01*
X285941666Y-11526190D01*
X286003571Y-11464285D01*
X286065476Y-11340476D01*
X286065476Y-11030952D01*
X286003571Y-10907142D01*
X285941666Y-10845238D01*
X285817857Y-10783333D01*
X285570238Y-10783333D01*
X285446428Y-10845238D01*
X285384523Y-10907142D01*
X285322619Y-11030952D01*
D10*
D11*
X60000000Y-198007200D02*
X60000000Y-200007200D01*
D10*
D11*
X110000000Y-198007200D02*
X110000000Y-200007200D01*
D10*
D11*
X160000000Y-198007200D02*
X160000000Y-200007200D01*
D10*
D11*
X210000000Y-198007200D02*
X210000000Y-200007200D01*
D10*
D11*
X260000000Y-198007200D02*
X260000000Y-200007200D01*
D10*
D11*
X36065476Y-199595295D02*
X35322619Y-199595295D01*
X35694047Y-199595295D02*
X35694047Y-198295295D01*
X35570238Y-198481009D01*
X35446428Y-198604819D01*
X35322619Y-198666723D01*
D10*
D11*
X85322619Y-198419104D02*
X85384523Y-198357200D01*
X85508333Y-198295295D01*
X85817857Y-198295295D01*
X85941666Y-198357200D01*
X86003571Y-198419104D01*
X86065476Y-198542914D01*
X86065476Y-198666723D01*
X86003571Y-198852438D01*
X85260714Y-199595295D01*
X86065476Y-199595295D01*
D10*
D11*
X135260714Y-198295295D02*
X136065476Y-198295295D01*
X135632142Y-198790533D01*
X135817857Y-198790533D01*
X135941666Y-198852438D01*
X136003571Y-198914342D01*
X136065476Y-199038152D01*
X136065476Y-199347676D01*
X136003571Y-199471485D01*
X135941666Y-199533390D01*
X135817857Y-199595295D01*
X135446428Y-199595295D01*
X135322619Y-199533390D01*
X135260714Y-199471485D01*
D10*
D11*
X185941666Y-198728628D02*
X185941666Y-199595295D01*
X185632142Y-198233390D02*
X185322619Y-199161961D01*
X186127380Y-199161961D01*
D10*
D11*
X236003571Y-198295295D02*
X235384523Y-198295295D01*
X235322619Y-198914342D01*
X235384523Y-198852438D01*
X235508333Y-198790533D01*
X235817857Y-198790533D01*
X235941666Y-198852438D01*
X236003571Y-198914342D01*
X236065476Y-199038152D01*
X236065476Y-199347676D01*
X236003571Y-199471485D01*
X235941666Y-199533390D01*
X235817857Y-199595295D01*
X235508333Y-199595295D01*
X235384523Y-199533390D01*
X235322619Y-199471485D01*
D10*
D11*
X285941666Y-198295295D02*
X285694047Y-198295295D01*
X285570238Y-198357200D01*
X285508333Y-198419104D01*
X285384523Y-198604819D01*
X285322619Y-198852438D01*
X285322619Y-199347676D01*
X285384523Y-199471485D01*
X285446428Y-199533390D01*
X285570238Y-199595295D01*
X285817857Y-199595295D01*
X285941666Y-199533390D01*
X286003571Y-199471485D01*
X286065476Y-199347676D01*
X286065476Y-199038152D01*
X286003571Y-198914342D01*
X285941666Y-198852438D01*
X285817857Y-198790533D01*
X285570238Y-198790533D01*
X285446428Y-198852438D01*
X285384523Y-198914342D01*
X285322619Y-199038152D01*
D10*
D11*
X10000000Y-60000000D02*
X12000000Y-60000000D01*
D10*
D11*
X10000000Y-110000000D02*
X12000000Y-110000000D01*
D10*
D11*
X10000000Y-160000000D02*
X12000000Y-160000000D01*
D10*
D11*
X10690476Y-35216666D02*
X11309523Y-35216666D01*
X10566666Y-35588095D02*
X11000000Y-34288095D01*
X11433333Y-35588095D01*
D10*
D11*
X11092857Y-84907142D02*
X11278571Y-84969047D01*
X11340476Y-85030952D01*
X11402380Y-85154761D01*
X11402380Y-85340476D01*
X11340476Y-85464285D01*
X11278571Y-85526190D01*
X11154761Y-85588095D01*
X10659523Y-85588095D01*
X10659523Y-84288095D01*
X11092857Y-84288095D01*
X11216666Y-84350000D01*
X11278571Y-84411904D01*
X11340476Y-84535714D01*
X11340476Y-84659523D01*
X11278571Y-84783333D01*
X11216666Y-84845238D01*
X11092857Y-84907142D01*
X10659523Y-84907142D01*
D10*
D11*
X11402380Y-135464285D02*
X11340476Y-135526190D01*
X11154761Y-135588095D01*
X11030952Y-135588095D01*
X10845238Y-135526190D01*
X10721428Y-135402380D01*
X10659523Y-135278571D01*
X10597619Y-135030952D01*
X10597619Y-134845238D01*
X10659523Y-134597619D01*
X10721428Y-134473809D01*
X10845238Y-134350000D01*
X11030952Y-134288095D01*
X11154761Y-134288095D01*
X11340476Y-134350000D01*
X11402380Y-134411904D01*
D10*
D11*
X10659523Y-185588095D02*
X10659523Y-184288095D01*
X10969047Y-184288095D01*
X11154761Y-184350000D01*
X11278571Y-184473809D01*
X11340476Y-184597619D01*
X11402380Y-184845238D01*
X11402380Y-185030952D01*
X11340476Y-185278571D01*
X11278571Y-185402380D01*
X11154761Y-185526190D01*
X10969047Y-185588095D01*
X10659523Y-185588095D01*
D10*
D11*
X287002200Y-60000000D02*
X285002200Y-60000000D01*
D10*
D11*
X287002200Y-110000000D02*
X285002200Y-110000000D01*
D10*
D11*
X287002200Y-160000000D02*
X285002200Y-160000000D01*
D10*
D11*
X285692676Y-35216666D02*
X286311723Y-35216666D01*
X285568866Y-35588095D02*
X286002200Y-34288095D01*
X286435533Y-35588095D01*
D10*
D11*
X286095057Y-84907142D02*
X286280771Y-84969047D01*
X286342676Y-85030952D01*
X286404580Y-85154761D01*
X286404580Y-85340476D01*
X286342676Y-85464285D01*
X286280771Y-85526190D01*
X286156961Y-85588095D01*
X285661723Y-85588095D01*
X285661723Y-84288095D01*
X286095057Y-84288095D01*
X286218866Y-84350000D01*
X286280771Y-84411904D01*
X286342676Y-84535714D01*
X286342676Y-84659523D01*
X286280771Y-84783333D01*
X286218866Y-84845238D01*
X286095057Y-84907142D01*
X285661723Y-84907142D01*
D10*
D11*
X286404580Y-135464285D02*
X286342676Y-135526190D01*
X286156961Y-135588095D01*
X286033152Y-135588095D01*
X285847438Y-135526190D01*
X285723628Y-135402380D01*
X285661723Y-135278571D01*
X285599819Y-135030952D01*
X285599819Y-134845238D01*
X285661723Y-134597619D01*
X285723628Y-134473809D01*
X285847438Y-134350000D01*
X286033152Y-134288095D01*
X286156961Y-134288095D01*
X286342676Y-134350000D01*
X286404580Y-134411904D01*
D10*
D11*
X285661723Y-185588095D02*
X285661723Y-184288095D01*
X285971247Y-184288095D01*
X286156961Y-184350000D01*
X286280771Y-184473809D01*
X286342676Y-184597619D01*
X286404580Y-184845238D01*
X286404580Y-185030952D01*
X286342676Y-185278571D01*
X286280771Y-185402380D01*
X286156961Y-185526190D01*
X285971247Y-185588095D01*
X285661723Y-185588095D01*
D10*
D11*
X200434342Y-193785771D02*
X200434342Y-192285771D01*
X200791485Y-192285771D01*
X201005771Y-192357200D01*
X201148628Y-192500057D01*
X201220057Y-192642914D01*
X201291485Y-192928628D01*
X201291485Y-193142914D01*
X201220057Y-193428628D01*
X201148628Y-193571485D01*
X201005771Y-193714342D01*
X200791485Y-193785771D01*
X200434342Y-193785771D01*
X202577200Y-193785771D02*
X202577200Y-193000057D01*
X202505771Y-192857200D01*
X202362914Y-192785771D01*
X202077200Y-192785771D01*
X201934342Y-192857200D01*
X202577200Y-193714342D02*
X202434342Y-193785771D01*
X202077200Y-193785771D01*
X201934342Y-193714342D01*
X201862914Y-193571485D01*
X201862914Y-193428628D01*
X201934342Y-193285771D01*
X202077200Y-193214342D01*
X202434342Y-193214342D01*
X202577200Y-193142914D01*
X203077200Y-192785771D02*
X203648628Y-192785771D01*
X203291485Y-192285771D02*
X203291485Y-193571485D01*
X203362914Y-193714342D01*
X203505771Y-193785771D01*
X203648628Y-193785771D01*
X204720057Y-193714342D02*
X204577200Y-193785771D01*
X204291485Y-193785771D01*
X204148628Y-193714342D01*
X204077200Y-193571485D01*
X204077200Y-193000057D01*
X204148628Y-192857200D01*
X204291485Y-192785771D01*
X204577200Y-192785771D01*
X204720057Y-192857200D01*
X204791485Y-193000057D01*
X204791485Y-193142914D01*
X204077200Y-193285771D01*
X205434342Y-193642914D02*
X205505771Y-193714342D01*
X205434342Y-193785771D01*
X205362914Y-193714342D01*
X205434342Y-193642914D01*
X205434342Y-193785771D01*
X205434342Y-192857200D02*
X205505771Y-192928628D01*
X205434342Y-193000057D01*
X205362914Y-192928628D01*
X205434342Y-192857200D01*
X205434342Y-193000057D01*
X207220057Y-192428628D02*
X207291485Y-192357200D01*
X207434342Y-192285771D01*
X207791485Y-192285771D01*
X207934342Y-192357200D01*
X208005771Y-192428628D01*
X208077200Y-192571485D01*
X208077200Y-192714342D01*
X208005771Y-192928628D01*
X207148628Y-193785771D01*
X208077200Y-193785771D01*
X209005771Y-192285771D02*
X209148628Y-192285771D01*
X209291485Y-192357200D01*
X209362914Y-192428628D01*
X209434342Y-192571485D01*
X209505771Y-192857200D01*
X209505771Y-193214342D01*
X209434342Y-193500057D01*
X209362914Y-193642914D01*
X209291485Y-193714342D01*
X209148628Y-193785771D01*
X209005771Y-193785771D01*
X208862914Y-193714342D01*
X208791485Y-193642914D01*
X208720057Y-193500057D01*
X208648628Y-193214342D01*
X208648628Y-192857200D01*
X208720057Y-192571485D01*
X208791485Y-192428628D01*
X208862914Y-192357200D01*
X209005771Y-192285771D01*
X210077200Y-192428628D02*
X210148628Y-192357200D01*
X210291485Y-192285771D01*
X210648628Y-192285771D01*
X210791485Y-192357200D01*
X210862914Y-192428628D01*
X210934342Y-192571485D01*
X210934342Y-192714342D01*
X210862914Y-192928628D01*
X210005771Y-193785771D01*
X210934342Y-193785771D01*
X211862914Y-192285771D02*
X212005771Y-192285771D01*
X212148628Y-192357200D01*
X212220057Y-192428628D01*
X212291485Y-192571485D01*
X212362914Y-192857200D01*
X212362914Y-193214342D01*
X212291485Y-193500057D01*
X212220057Y-193642914D01*
X212148628Y-193714342D01*
X212005771Y-193785771D01*
X211862914Y-193785771D01*
X211720057Y-193714342D01*
X211648628Y-193642914D01*
X211577200Y-193500057D01*
X211505771Y-193214342D01*
X211505771Y-192857200D01*
X211577200Y-192571485D01*
X211648628Y-192428628D01*
X211720057Y-192357200D01*
X211862914Y-192285771D01*
X213005771Y-193214342D02*
X214148628Y-193214342D01*
X215148628Y-192285771D02*
X215291485Y-192285771D01*
X215434342Y-192357200D01*
X215505771Y-192428628D01*
X215577200Y-192571485D01*
X215648628Y-192857200D01*
X215648628Y-193214342D01*
X215577200Y-193500057D01*
X215505771Y-193642914D01*
X215434342Y-193714342D01*
X215291485Y-193785771D01*
X215148628Y-193785771D01*
X215005771Y-193714342D01*
X214934342Y-193642914D01*
X214862914Y-193500057D01*
X214791485Y-193214342D01*
X214791485Y-192857200D01*
X214862914Y-192571485D01*
X214934342Y-192428628D01*
X215005771Y-192357200D01*
X215148628Y-192285771D01*
X216505771Y-192928628D02*
X216362914Y-192857200D01*
X216291485Y-192785771D01*
X216220057Y-192642914D01*
X216220057Y-192571485D01*
X216291485Y-192428628D01*
X216362914Y-192357200D01*
X216505771Y-192285771D01*
X216791485Y-192285771D01*
X216934342Y-192357200D01*
X217005771Y-192428628D01*
X217077200Y-192571485D01*
X217077200Y-192642914D01*
X217005771Y-192785771D01*
X216934342Y-192857200D01*
X216791485Y-192928628D01*
X216505771Y-192928628D01*
X216362914Y-193000057D01*
X216291485Y-193071485D01*
X216220057Y-193214342D01*
X216220057Y-193500057D01*
X216291485Y-193642914D01*
X216362914Y-193714342D01*
X216505771Y-193785771D01*
X216791485Y-193785771D01*
X216934342Y-193714342D01*
X217005771Y-193642914D01*
X217077200Y-193500057D01*
X217077200Y-193214342D01*
X217005771Y-193071485D01*
X216934342Y-193000057D01*
X216791485Y-192928628D01*
X217720057Y-193214342D02*
X218862914Y-193214342D01*
X220362914Y-193785771D02*
X219505771Y-193785771D01*
X219934342Y-193785771D02*
X219934342Y-192285771D01*
X219791485Y-192500057D01*
X219648628Y-192642914D01*
X219505771Y-192714342D01*
X221220057Y-192928628D02*
X221077200Y-192857200D01*
X221005771Y-192785771D01*
X220934342Y-192642914D01*
X220934342Y-192571485D01*
X221005771Y-192428628D01*
X221077200Y-192357200D01*
X221220057Y-192285771D01*
X221505771Y-192285771D01*
X221648628Y-192357200D01*
X221720057Y-192428628D01*
X221791485Y-192571485D01*
X221791485Y-192642914D01*
X221720057Y-192785771D01*
X221648628Y-192857200D01*
X221505771Y-192928628D01*
X221220057Y-192928628D01*
X221077200Y-193000057D01*
X221005771Y-193071485D01*
X220934342Y-193214342D01*
X220934342Y-193500057D01*
X221005771Y-193642914D01*
X221077200Y-193714342D01*
X221220057Y-193785771D01*
X221505771Y-193785771D01*
X221648628Y-193714342D01*
X221720057Y-193642914D01*
X221791485Y-193500057D01*
X221791485Y-193214342D01*
X221720057Y-193071485D01*
X221648628Y-193000057D01*
X221505771Y-192928628D01*
D10*
D11*
X177002200Y-194507200D02*
X285002200Y-194507200D01*
D10*
D11*
X178434342Y-196585771D02*
X178434342Y-195085771D01*
X179291485Y-196585771D02*
X178648628Y-195728628D01*
X179291485Y-195085771D02*
X178434342Y-195942914D01*
X179934342Y-196585771D02*
X179934342Y-195585771D01*
X179934342Y-195085771D02*
X179862914Y-195157200D01*
X179934342Y-195228628D01*
X180005771Y-195157200D01*
X179934342Y-195085771D01*
X179934342Y-195228628D01*
X181505771Y-196442914D02*
X181434342Y-196514342D01*
X181220057Y-196585771D01*
X181077200Y-196585771D01*
X180862914Y-196514342D01*
X180720057Y-196371485D01*
X180648628Y-196228628D01*
X180577200Y-195942914D01*
X180577200Y-195728628D01*
X180648628Y-195442914D01*
X180720057Y-195300057D01*
X180862914Y-195157200D01*
X181077200Y-195085771D01*
X181220057Y-195085771D01*
X181434342Y-195157200D01*
X181505771Y-195228628D01*
X182791485Y-196585771D02*
X182791485Y-195800057D01*
X182720057Y-195657200D01*
X182577200Y-195585771D01*
X182291485Y-195585771D01*
X182148628Y-195657200D01*
X182791485Y-196514342D02*
X182648628Y-196585771D01*
X182291485Y-196585771D01*
X182148628Y-196514342D01*
X182077200Y-196371485D01*
X182077200Y-196228628D01*
X182148628Y-196085771D01*
X182291485Y-196014342D01*
X182648628Y-196014342D01*
X182791485Y-195942914D01*
X184148628Y-196585771D02*
X184148628Y-195085771D01*
X184148628Y-196514342D02*
X184005771Y-196585771D01*
X183720057Y-196585771D01*
X183577200Y-196514342D01*
X183505771Y-196442914D01*
X183434342Y-196300057D01*
X183434342Y-195871485D01*
X183505771Y-195728628D01*
X183577200Y-195657200D01*
X183720057Y-195585771D01*
X184005771Y-195585771D01*
X184148628Y-195657200D01*
X186005771Y-195800057D02*
X186505771Y-195800057D01*
X186720057Y-196585771D02*
X186005771Y-196585771D01*
X186005771Y-195085771D01*
X186720057Y-195085771D01*
X187362914Y-196442914D02*
X187434342Y-196514342D01*
X187362914Y-196585771D01*
X187291485Y-196514342D01*
X187362914Y-196442914D01*
X187362914Y-196585771D01*
X188077200Y-196585771D02*
X188077200Y-195085771D01*
X188434342Y-195085771D01*
X188648628Y-195157200D01*
X188791485Y-195300057D01*
X188862914Y-195442914D01*
X188934342Y-195728628D01*
X188934342Y-195942914D01*
X188862914Y-196228628D01*
X188791485Y-196371485D01*
X188648628Y-196514342D01*
X188434342Y-196585771D01*
X188077200Y-196585771D01*
X189577200Y-196442914D02*
X189648628Y-196514342D01*
X189577200Y-196585771D01*
X189505771Y-196514342D01*
X189577200Y-196442914D01*
X189577200Y-196585771D01*
X190220057Y-196157200D02*
X190934342Y-196157200D01*
X190077200Y-196585771D02*
X190577200Y-195085771D01*
X191077200Y-196585771D01*
X191577200Y-196442914D02*
X191648628Y-196514342D01*
X191577200Y-196585771D01*
X191505771Y-196514342D01*
X191577200Y-196442914D01*
X191577200Y-196585771D01*
X194577200Y-196585771D02*
X194577200Y-195085771D01*
X194720057Y-196014342D02*
X195148628Y-196585771D01*
X195148628Y-195585771D02*
X194577200Y-196157200D01*
X195791485Y-196585771D02*
X195791485Y-195585771D01*
X195791485Y-195085771D02*
X195720057Y-195157200D01*
X195791485Y-195228628D01*
X195862914Y-195157200D01*
X195791485Y-195085771D01*
X195791485Y-195228628D01*
X197148628Y-196514342D02*
X197005771Y-196585771D01*
X196720057Y-196585771D01*
X196577200Y-196514342D01*
X196505771Y-196442914D01*
X196434342Y-196300057D01*
X196434342Y-195871485D01*
X196505771Y-195728628D01*
X196577200Y-195657200D01*
X196720057Y-195585771D01*
X197005771Y-195585771D01*
X197148628Y-195657200D01*
X198434342Y-196585771D02*
X198434342Y-195800057D01*
X198362914Y-195657200D01*
X198220057Y-195585771D01*
X197934342Y-195585771D01*
X197791485Y-195657200D01*
X198434342Y-196514342D02*
X198291485Y-196585771D01*
X197934342Y-196585771D01*
X197791485Y-196514342D01*
X197720057Y-196371485D01*
X197720057Y-196228628D01*
X197791485Y-196085771D01*
X197934342Y-196014342D01*
X198291485Y-196014342D01*
X198434342Y-195942914D01*
X199791485Y-196585771D02*
X199791485Y-195085771D01*
X199791485Y-196514342D02*
X199648628Y-196585771D01*
X199362914Y-196585771D01*
X199220057Y-196514342D01*
X199148628Y-196442914D01*
X199077200Y-196300057D01*
X199077200Y-195871485D01*
X199148628Y-195728628D01*
X199220057Y-195657200D01*
X199362914Y-195585771D01*
X199648628Y-195585771D01*
X199791485Y-195657200D01*
X202077200Y-197157200D02*
X202005771Y-197085771D01*
X201862914Y-196871485D01*
X201791485Y-196728628D01*
X201720057Y-196514342D01*
X201648628Y-196157200D01*
X201648628Y-195871485D01*
X201720057Y-195514342D01*
X201791485Y-195300057D01*
X201862914Y-195157200D01*
X202005771Y-194942914D01*
X202077200Y-194871485D01*
X203362914Y-195085771D02*
X202648628Y-195085771D01*
X202577200Y-195800057D01*
X202648628Y-195728628D01*
X202791485Y-195657200D01*
X203148628Y-195657200D01*
X203291485Y-195728628D01*
X203362914Y-195800057D01*
X203434342Y-195942914D01*
X203434342Y-196300057D01*
X203362914Y-196442914D01*
X203291485Y-196514342D01*
X203148628Y-196585771D01*
X202791485Y-196585771D01*
X202648628Y-196514342D01*
X202577200Y-196442914D01*
X204077200Y-196442914D02*
X204148628Y-196514342D01*
X204077200Y-196585771D01*
X204005771Y-196514342D01*
X204077200Y-196442914D01*
X204077200Y-196585771D01*
X205577200Y-196585771D02*
X204720057Y-196585771D01*
X205148628Y-196585771D02*
X205148628Y-195085771D01*
X205005771Y-195300057D01*
X204862914Y-195442914D01*
X204720057Y-195514342D01*
X206220057Y-196442914D02*
X206291485Y-196514342D01*
X206220057Y-196585771D01*
X206148628Y-196514342D01*
X206220057Y-196442914D01*
X206220057Y-196585771D01*
X207577200Y-195085771D02*
X207291485Y-195085771D01*
X207148628Y-195157200D01*
X207077200Y-195228628D01*
X206934342Y-195442914D01*
X206862914Y-195728628D01*
X206862914Y-196300057D01*
X206934342Y-196442914D01*
X207005771Y-196514342D01*
X207148628Y-196585771D01*
X207434342Y-196585771D01*
X207577200Y-196514342D01*
X207648628Y-196442914D01*
X207720057Y-196300057D01*
X207720057Y-195942914D01*
X207648628Y-195800057D01*
X207577200Y-195728628D01*
X207434342Y-195657200D01*
X207148628Y-195657200D01*
X207005771Y-195728628D01*
X206934342Y-195800057D01*
X206862914Y-195942914D01*
X208220057Y-197157200D02*
X208291485Y-197085771D01*
X208434342Y-196871485D01*
X208505771Y-196728628D01*
X208577200Y-196514342D01*
X208648628Y-196157200D01*
X208648628Y-195871485D01*
X208577200Y-195514342D01*
X208505771Y-195300057D01*
X208434342Y-195157200D01*
X208291485Y-194942914D01*
X208220057Y-194871485D01*
X209362914Y-196014342D02*
X210505771Y-196014342D01*
X212005771Y-196585771D02*
X211148628Y-196585771D01*
X211577200Y-196585771D02*
X211577200Y-195085771D01*
X211434342Y-195300057D01*
X211291485Y-195442914D01*
X211148628Y-195514342D01*
D10*
D11*
X177002200Y-191507200D02*
X285002200Y-191507200D01*
D10*
D12*
X264411485Y-193785771D02*
X263911485Y-193071485D01*
X263554342Y-193785771D02*
X263554342Y-192285771D01*
X264125771Y-192285771D01*
X264268628Y-192357200D01*
X264340057Y-192428628D01*
X264411485Y-192571485D01*
X264411485Y-192785771D01*
X264340057Y-192928628D01*
X264268628Y-193000057D01*
X264125771Y-193071485D01*
X263554342Y-193071485D01*
X265625771Y-193714342D02*
X265482914Y-193785771D01*
X265197200Y-193785771D01*
X265054342Y-193714342D01*
X264982914Y-193571485D01*
X264982914Y-193000057D01*
X265054342Y-192857200D01*
X265197200Y-192785771D01*
X265482914Y-192785771D01*
X265625771Y-192857200D01*
X265697200Y-193000057D01*
X265697200Y-193142914D01*
X264982914Y-193285771D01*
X266197200Y-192785771D02*
X266554342Y-193785771D01*
X266911485Y-192785771D01*
X267482914Y-193642914D02*
X267554342Y-193714342D01*
X267482914Y-193785771D01*
X267411485Y-193714342D01*
X267482914Y-193642914D01*
X267482914Y-193785771D01*
X267482914Y-192857200D02*
X267554342Y-192928628D01*
X267482914Y-193000057D01*
X267411485Y-192928628D01*
X267482914Y-192857200D01*
X267482914Y-193000057D01*
X270125771Y-193785771D02*
X269268628Y-193785771D01*
X269697200Y-193785771D02*
X269697200Y-192285771D01*
X269554342Y-192500057D01*
X269411485Y-192642914D01*
X269268628Y-192714342D01*
D10*
D11*
X178362914Y-193714342D02*
X178577200Y-193785771D01*
X178934342Y-193785771D01*
X179077200Y-193714342D01*
X179148628Y-193642914D01*
X179220057Y-193500057D01*
X179220057Y-193357200D01*
X179148628Y-193214342D01*
X179077200Y-193142914D01*
X178934342Y-193071485D01*
X178648628Y-193000057D01*
X178505771Y-192928628D01*
X178434342Y-192857200D01*
X178362914Y-192714342D01*
X178362914Y-192571485D01*
X178434342Y-192428628D01*
X178505771Y-192357200D01*
X178648628Y-192285771D01*
X179005771Y-192285771D01*
X179220057Y-192357200D01*
X179862914Y-193785771D02*
X179862914Y-192785771D01*
X179862914Y-192285771D02*
X179791485Y-192357200D01*
X179862914Y-192428628D01*
X179934342Y-192357200D01*
X179862914Y-192285771D01*
X179862914Y-192428628D01*
X180434342Y-192785771D02*
X181220057Y-192785771D01*
X180434342Y-193785771D01*
X181220057Y-193785771D01*
X182362914Y-193714342D02*
X182220057Y-193785771D01*
X181934342Y-193785771D01*
X181791485Y-193714342D01*
X181720057Y-193571485D01*
X181720057Y-193000057D01*
X181791485Y-192857200D01*
X181934342Y-192785771D01*
X182220057Y-192785771D01*
X182362914Y-192857200D01*
X182434342Y-193000057D01*
X182434342Y-193142914D01*
X181720057Y-193285771D01*
X183077200Y-193642914D02*
X183148628Y-193714342D01*
X183077200Y-193785771D01*
X183005771Y-193714342D01*
X183077200Y-193642914D01*
X183077200Y-193785771D01*
X183077200Y-192857200D02*
X183148628Y-192928628D01*
X183077200Y-193000057D01*
X183005771Y-192928628D01*
X183077200Y-192857200D01*
X183077200Y-193000057D01*
X184862914Y-193357200D02*
X185577200Y-193357200D01*
X184720057Y-193785771D02*
X185220057Y-192285771D01*
X185720057Y-193785771D01*
X186862914Y-192785771D02*
X186862914Y-193785771D01*
X186505771Y-192214342D02*
X186148628Y-193285771D01*
X187077200Y-193285771D01*
D10*
D11*
X263434342Y-196585771D02*
X263434342Y-195085771D01*
X264791485Y-196585771D02*
X264791485Y-195085771D01*
X264791485Y-196514342D02*
X264648628Y-196585771D01*
X264362914Y-196585771D01*
X264220057Y-196514342D01*
X264148628Y-196442914D01*
X264077200Y-196300057D01*
X264077200Y-195871485D01*
X264148628Y-195728628D01*
X264220057Y-195657200D01*
X264362914Y-195585771D01*
X264648628Y-195585771D01*
X264791485Y-195657200D01*
X265505771Y-196442914D02*
X265577200Y-196514342D01*
X265505771Y-196585771D01*
X265434342Y-196514342D01*
X265505771Y-196442914D01*
X265505771Y-196585771D01*
X265505771Y-195657200D02*
X265577200Y-195728628D01*
X265505771Y-195800057D01*
X265434342Y-195728628D01*
X265505771Y-195657200D01*
X265505771Y-195800057D01*
X268148628Y-196585771D02*
X267291485Y-196585771D01*
X267720057Y-196585771D02*
X267720057Y-195085771D01*
X267577200Y-195300057D01*
X267434342Y-195442914D01*
X267291485Y-195514342D01*
X269862914Y-195014342D02*
X268577200Y-196942914D01*
X271148628Y-196585771D02*
X270291485Y-196585771D01*
X270720057Y-196585771D02*
X270720057Y-195085771D01*
X270577200Y-195300057D01*
X270434342Y-195442914D01*
X270291485Y-195514342D01*
D10*
D11*
X177002200Y-187507200D02*
X285002200Y-187507200D01*
D10*
D13*
X178714580Y-188211961D02*
X179857438Y-188211961D01*
X179036009Y-190211961D02*
X179286009Y-188211961D01*
X180274104Y-190211961D02*
X180440771Y-188878628D01*
X180524104Y-188211961D02*
X180416961Y-188307200D01*
X180500295Y-188402438D01*
X180607438Y-188307200D01*
X180524104Y-188211961D01*
X180500295Y-188402438D01*
X181107438Y-188878628D02*
X181869342Y-188878628D01*
X181476485Y-188211961D02*
X181262200Y-189926247D01*
X181333628Y-190116723D01*
X181512200Y-190211961D01*
X181702676Y-190211961D01*
X182655057Y-190211961D02*
X182476485Y-190116723D01*
X182405057Y-189926247D01*
X182619342Y-188211961D01*
X184190771Y-190116723D02*
X183988390Y-190211961D01*
X183607438Y-190211961D01*
X183428866Y-190116723D01*
X183357438Y-189926247D01*
X183452676Y-189164342D01*
X183571723Y-188973866D01*
X183774104Y-188878628D01*
X184155057Y-188878628D01*
X184333628Y-188973866D01*
X184405057Y-189164342D01*
X184381247Y-189354819D01*
X183405057Y-189545295D01*
X185155057Y-190021485D02*
X185238390Y-190116723D01*
X185131247Y-190211961D01*
X185047914Y-190116723D01*
X185155057Y-190021485D01*
X185131247Y-190211961D01*
X185286009Y-188973866D02*
X185369342Y-189069104D01*
X185262200Y-189164342D01*
X185178866Y-189069104D01*
X185286009Y-188973866D01*
X185262200Y-189164342D01*
X189000295Y-188211961D02*
X188750295Y-190211961D01*
X187857438Y-188211961D02*
X187607438Y-190211961D01*
X188940771Y-190211961D01*
X188881247Y-190688152D01*
X189869342Y-188878628D02*
X189702676Y-190211961D01*
X190821723Y-188878628D01*
X190655057Y-190211961D01*
X192428866Y-188211961D02*
X192095533Y-190878628D01*
X192155057Y-188878628D02*
X192536009Y-188878628D01*
X192714580Y-188973866D01*
X192881247Y-189164342D01*
X192952676Y-189354819D01*
X192905057Y-189735771D01*
X192786009Y-189926247D01*
X192571723Y-190116723D01*
X192369342Y-190211961D01*
X191988390Y-190211961D01*
X191809819Y-190116723D01*
X191643152Y-189926247D01*
X191571723Y-189735771D01*
X191619342Y-189354819D01*
X191738390Y-189164342D01*
X191952676Y-188973866D01*
X192155057Y-188878628D01*
X193869342Y-188878628D02*
X193619342Y-190878628D01*
X193857438Y-188973866D02*
X194059819Y-188878628D01*
X194440771Y-188878628D01*
X194619342Y-188973866D01*
X194702676Y-189069104D01*
X194774104Y-189259580D01*
X194702676Y-189831009D01*
X194583628Y-190021485D01*
X194476485Y-190116723D01*
X194274104Y-190211961D01*
X193893152Y-190211961D01*
X193714580Y-190116723D01*
X195797914Y-190211961D02*
X195619342Y-190116723D01*
X195536009Y-190021485D01*
X195464580Y-189831009D01*
X195536009Y-189259580D01*
X195655057Y-189069104D01*
X195762200Y-188973866D01*
X195964580Y-188878628D01*
X196250295Y-188878628D01*
X196428866Y-188973866D01*
X196512200Y-189069104D01*
X196583628Y-189259580D01*
X196512200Y-189831009D01*
X196393152Y-190021485D01*
X196286009Y-190116723D01*
X196083628Y-190211961D01*
X195797914Y-190211961D01*
X197881247Y-189545295D02*
X198155057Y-189640533D01*
X198226485Y-189831009D01*
X198214580Y-189926247D01*
X198095533Y-190116723D01*
X197893152Y-190211961D01*
X197321723Y-190211961D01*
X197488390Y-188878628D01*
X197964580Y-188878628D01*
X198143152Y-188973866D01*
X198214580Y-189164342D01*
X198202676Y-189259580D01*
X198083628Y-189450057D01*
X197881247Y-189545295D01*
X197405057Y-189545295D01*
X199893152Y-190211961D02*
X200024104Y-189164342D01*
X199952676Y-188973866D01*
X199774104Y-188878628D01*
X199393152Y-188878628D01*
X199190771Y-188973866D01*
X199905057Y-190116723D02*
X199702676Y-190211961D01*
X199226485Y-190211961D01*
X199047914Y-190116723D01*
X198976485Y-189926247D01*
X199000295Y-189735771D01*
X199119342Y-189545295D01*
X199321723Y-189450057D01*
X199797914Y-189450057D01*
X200000295Y-189354819D01*
X201619342Y-190116723D02*
X201416961Y-190211961D01*
X201036009Y-190211961D01*
X200857438Y-190116723D01*
X200786009Y-189926247D01*
X200881247Y-189164342D01*
X201000295Y-188973866D01*
X201202676Y-188878628D01*
X201583628Y-188878628D01*
X201762200Y-188973866D01*
X201833628Y-189164342D01*
X201809819Y-189354819D01*
X200833628Y-189545295D01*
X204916961Y-188878628D02*
X204750295Y-190211961D01*
X204155057Y-188878628D02*
X204095533Y-189354819D01*
X204166961Y-189545295D01*
X204345533Y-189640533D01*
X204821723Y-189640533D01*
X206655057Y-190211961D02*
X206786009Y-189164342D01*
X206714580Y-188973866D01*
X206536009Y-188878628D01*
X206155057Y-188878628D01*
X205952676Y-188973866D01*
X206666961Y-190116723D02*
X206464580Y-190211961D01*
X205988390Y-190211961D01*
X205809819Y-190116723D01*
X205738390Y-189926247D01*
X205762200Y-189735771D01*
X205881247Y-189545295D01*
X206083628Y-189450057D01*
X206559819Y-189450057D01*
X206762200Y-189354819D01*
X208476485Y-190116723D02*
X208274104Y-190211961D01*
X207893152Y-190211961D01*
X207714580Y-190116723D01*
X207631247Y-190021485D01*
X207559819Y-189831009D01*
X207631247Y-189259580D01*
X207750295Y-189069104D01*
X207857438Y-188973866D01*
X208059819Y-188878628D01*
X208440771Y-188878628D01*
X208619342Y-188973866D01*
X210821723Y-188878628D02*
X210655057Y-190211961D01*
X209488390Y-188878628D02*
X209321723Y-190211961D01*
X209797914Y-190211961D01*
X210000295Y-190116723D01*
X210119342Y-189926247D01*
X210155057Y-189640533D01*
X210083628Y-189450057D01*
X209905057Y-189354819D01*
X209428866Y-189354819D01*
X214000295Y-190116723D02*
X213797914Y-190211961D01*
X213416961Y-190211961D01*
X213238390Y-190116723D01*
X213155057Y-190021485D01*
X213083628Y-189831009D01*
X213155057Y-189259580D01*
X213274104Y-189069104D01*
X213381247Y-188973866D01*
X213583628Y-188878628D01*
X213964580Y-188878628D01*
X214143152Y-188973866D01*
X217583628Y-188116723D02*
X217476485Y-188211961D01*
X217274104Y-188307200D01*
X216893152Y-188307200D01*
X216690771Y-188402438D01*
X216583628Y-188497676D01*
X216464580Y-188688152D01*
X216321723Y-189831009D01*
X216393152Y-190021485D01*
X216476485Y-190116723D01*
X216655057Y-190211961D01*
X216940771Y-190211961D01*
X217143152Y-190116723D01*
X217250295Y-190021485D01*
X217369342Y-189831009D01*
X217440771Y-189259580D01*
X217369342Y-189069104D01*
X217286009Y-188973866D01*
X217107438Y-188878628D01*
X216726485Y-188878628D01*
X216524104Y-188973866D01*
X216416961Y-189069104D01*
X218155057Y-188878628D02*
X218464580Y-190211961D01*
X219107438Y-188878628D02*
X218464580Y-190211961D01*
X218214580Y-190688152D01*
X218107438Y-190783390D01*
X217905057Y-190878628D01*
X220797914Y-189069104D02*
X220714580Y-188973866D01*
X220536009Y-188878628D01*
X220155057Y-188878628D01*
X219952676Y-188973866D01*
X219845533Y-189069104D01*
X219726485Y-189259580D01*
X219655057Y-189831009D01*
X219726485Y-190021485D01*
X219809819Y-190116723D01*
X219988390Y-190211961D01*
X220274104Y-190211961D01*
X220476485Y-190116723D01*
X220583628Y-190021485D01*
X220702676Y-189831009D01*
X220857438Y-188592914D01*
X220786009Y-188402438D01*
X220702676Y-188307200D01*
X220524104Y-188211961D01*
X220143152Y-188211961D01*
X219940771Y-188307200D01*
X221678866Y-188878628D02*
X221512200Y-190211961D01*
X222631247Y-188878628D01*
X222464580Y-190211961D01*
X224178866Y-190211961D02*
X224345533Y-188878628D01*
X224059819Y-188878628D01*
X223857438Y-188973866D01*
X223738390Y-189164342D01*
X223547914Y-189926247D01*
X223428866Y-190116723D01*
X223226485Y-190211961D01*
X225297914Y-188878628D02*
X225131247Y-190211961D01*
X225607438Y-190211961D01*
X225809819Y-190116723D01*
X225928866Y-189926247D01*
X225964580Y-189640533D01*
X225893152Y-189450057D01*
X225714580Y-189354819D01*
X225238390Y-189354819D01*
X226833628Y-189545295D02*
X227690771Y-189545295D01*
X226916961Y-188878628D02*
X226750295Y-190211961D01*
X227774104Y-188878628D02*
X227607438Y-190211961D01*
X228726485Y-188878628D02*
X228559819Y-190211961D01*
X229678866Y-188878628D01*
X229512199Y-190211961D01*
X230631247Y-188878628D02*
X230464580Y-190211961D01*
X230750295Y-189450057D02*
X231226485Y-190211961D01*
X231393152Y-188878628D02*
X230536009Y-189640533D01*
X232369342Y-190211961D02*
X232190771Y-190116723D01*
X232107438Y-190021485D01*
X232036009Y-189831009D01*
X232107438Y-189259580D01*
X232226485Y-189069104D01*
X232333628Y-188973866D01*
X232536009Y-188878628D01*
X232821723Y-188878628D01*
X233000295Y-188973866D01*
X233083628Y-189069104D01*
X233155057Y-189259580D01*
X233083628Y-189831009D01*
X232964580Y-190021485D01*
X232857438Y-190116723D01*
X232655057Y-190211961D01*
X232369342Y-190211961D01*
X233893152Y-190211961D02*
X234059819Y-188878628D01*
X234500295Y-189926247D01*
X235202676Y-188878628D01*
X235036009Y-190211961D01*
D10*
D11*
X178934342Y-185600057D02*
X178434342Y-185600057D01*
X178434342Y-186385771D02*
X178434342Y-184885771D01*
X179148628Y-184885771D01*
X179720057Y-186385771D02*
X179720057Y-185385771D01*
X179720057Y-184885771D02*
X179648628Y-184957200D01*
X179720057Y-185028628D01*
X179791485Y-184957200D01*
X179720057Y-184885771D01*
X179720057Y-185028628D01*
X180648628Y-186385771D02*
X180505771Y-186314342D01*
X180434342Y-186171485D01*
X180434342Y-184885771D01*
X181791485Y-186314342D02*
X181648628Y-186385771D01*
X181362914Y-186385771D01*
X181220057Y-186314342D01*
X181148628Y-186171485D01*
X181148628Y-185600057D01*
X181220057Y-185457200D01*
X181362914Y-185385771D01*
X181648628Y-185385771D01*
X181791485Y-185457200D01*
X181862914Y-185600057D01*
X181862914Y-185742914D01*
X181148628Y-185885771D01*
X182505771Y-186242914D02*
X182577200Y-186314342D01*
X182505771Y-186385771D01*
X182434342Y-186314342D01*
X182505771Y-186242914D01*
X182505771Y-186385771D01*
X182505771Y-185457200D02*
X182577200Y-185528628D01*
X182505771Y-185600057D01*
X182434342Y-185528628D01*
X182505771Y-185457200D01*
X182505771Y-185600057D01*
X185005771Y-186385771D02*
X185005771Y-185600057D01*
X184934342Y-185457200D01*
X184791485Y-185385771D01*
X184505771Y-185385771D01*
X184362914Y-185457200D01*
X185005771Y-186314342D02*
X184862914Y-186385771D01*
X184505771Y-186385771D01*
X184362914Y-186314342D01*
X184291485Y-186171485D01*
X184291485Y-186028628D01*
X184362914Y-185885771D01*
X184505771Y-185814342D01*
X184862914Y-185814342D01*
X185005771Y-185742914D01*
X185505771Y-185385771D02*
X186077200Y-185385771D01*
X185720057Y-184885771D02*
X185720057Y-186171485D01*
X185791485Y-186314342D01*
X185934342Y-186385771D01*
X186077200Y-186385771D01*
X186362914Y-185385771D02*
X186934342Y-185385771D01*
X186577200Y-184885771D02*
X186577200Y-186171485D01*
X186648628Y-186314342D01*
X186791485Y-186385771D01*
X186934342Y-186385771D01*
X187434342Y-186385771D02*
X187434342Y-185385771D01*
X187434342Y-184885771D02*
X187362914Y-184957200D01*
X187434342Y-185028628D01*
X187505771Y-184957200D01*
X187434342Y-184885771D01*
X187434342Y-185028628D01*
X188148628Y-185385771D02*
X188148628Y-186385771D01*
X188148628Y-185528628D02*
X188220057Y-185457200D01*
X188362914Y-185385771D01*
X188577200Y-185385771D01*
X188720057Y-185457200D01*
X188791485Y-185600057D01*
X188791485Y-186385771D01*
X189362914Y-185385771D02*
X189720057Y-186385771D01*
X190077200Y-185385771D02*
X189720057Y-186385771D01*
X189577200Y-186742914D01*
X189505771Y-186814342D01*
X189362914Y-186885771D01*
X190577200Y-185028628D02*
X190648628Y-184957200D01*
X190791485Y-184885771D01*
X191148628Y-184885771D01*
X191291485Y-184957200D01*
X191362914Y-185028628D01*
X191434342Y-185171485D01*
X191434342Y-185314342D01*
X191362914Y-185528628D01*
X190505771Y-186385771D01*
X191434342Y-186385771D01*
X191934342Y-184885771D02*
X192862914Y-184885771D01*
X192362914Y-185457200D01*
X192577200Y-185457200D01*
X192720057Y-185528628D01*
X192791485Y-185600057D01*
X192862914Y-185742914D01*
X192862914Y-186100057D01*
X192791485Y-186242914D01*
X192720057Y-186314342D01*
X192577200Y-186385771D01*
X192148628Y-186385771D01*
X192005771Y-186314342D01*
X191934342Y-186242914D01*
X194291485Y-186385771D02*
X193434342Y-186385771D01*
X193862914Y-186385771D02*
X193862914Y-184885771D01*
X193720057Y-185100057D01*
X193577200Y-185242914D01*
X193434342Y-185314342D01*
X194791485Y-184885771D02*
X195720057Y-184885771D01*
X195220057Y-185457200D01*
X195434342Y-185457200D01*
X195577200Y-185528628D01*
X195648628Y-185600057D01*
X195720057Y-185742914D01*
X195720057Y-186100057D01*
X195648628Y-186242914D01*
X195577200Y-186314342D01*
X195434342Y-186385771D01*
X195005771Y-186385771D01*
X194862914Y-186314342D01*
X194791485Y-186242914D01*
X196005771Y-186528628D02*
X197148628Y-186528628D01*
X197291485Y-185385771D02*
X197862914Y-185385771D01*
X197505771Y-184885771D02*
X197505771Y-186171485D01*
X197577200Y-186314342D01*
X197720057Y-186385771D01*
X197862914Y-186385771D01*
X198362914Y-186385771D02*
X198362914Y-185385771D01*
X198362914Y-185528628D02*
X198434342Y-185457200D01*
X198577200Y-185385771D01*
X198791485Y-185385771D01*
X198934342Y-185457200D01*
X199005771Y-185600057D01*
X199005771Y-186385771D01*
X199005771Y-185600057D02*
X199077200Y-185457200D01*
X199220057Y-185385771D01*
X199434342Y-185385771D01*
X199577200Y-185457200D01*
X199648628Y-185600057D01*
X199648628Y-186385771D01*
X201148628Y-186385771D02*
X200291485Y-186385771D01*
X200720057Y-186385771D02*
X200720057Y-184885771D01*
X200577200Y-185100057D01*
X200434342Y-185242914D01*
X200291485Y-185314342D01*
X202434342Y-184885771D02*
X202148628Y-184885771D01*
X202005771Y-184957200D01*
X201934342Y-185028628D01*
X201791485Y-185242914D01*
X201720057Y-185528628D01*
X201720057Y-186100057D01*
X201791485Y-186242914D01*
X201862914Y-186314342D01*
X202005771Y-186385771D01*
X202291485Y-186385771D01*
X202434342Y-186314342D01*
X202505771Y-186242914D01*
X202577200Y-186100057D01*
X202577200Y-185742914D01*
X202505771Y-185600057D01*
X202434342Y-185528628D01*
X202291485Y-185457200D01*
X202005771Y-185457200D01*
X201862914Y-185528628D01*
X201791485Y-185600057D01*
X201720057Y-185742914D01*
X203077200Y-184885771D02*
X204005771Y-184885771D01*
X203505771Y-185457200D01*
X203720057Y-185457200D01*
X203862914Y-185528628D01*
X203934342Y-185600057D01*
X204005771Y-185742914D01*
X204005771Y-186100057D01*
X203934342Y-186242914D01*
X203862914Y-186314342D01*
X203720057Y-186385771D01*
X203291485Y-186385771D01*
X203148628Y-186314342D01*
X203077200Y-186242914D01*
X204505771Y-184885771D02*
X205505771Y-184885771D01*
X204862914Y-186385771D01*
X205720057Y-186528628D02*
X206862914Y-186528628D01*
X207862914Y-186385771D02*
X207862914Y-184885771D01*
X207862914Y-186314342D02*
X207720057Y-186385771D01*
X207434342Y-186385771D01*
X207291485Y-186314342D01*
X207220057Y-186242914D01*
X207148628Y-186100057D01*
X207148628Y-185671485D01*
X207220057Y-185528628D01*
X207291485Y-185457200D01*
X207434342Y-185385771D01*
X207720057Y-185385771D01*
X207862914Y-185457200D01*
X208505771Y-186314342D02*
X208648628Y-186385771D01*
X208934342Y-186385771D01*
X209077200Y-186314342D01*
X209148628Y-186171485D01*
X209148628Y-186100057D01*
X209077200Y-185957200D01*
X208934342Y-185885771D01*
X208720057Y-185885771D01*
X208577200Y-185814342D01*
X208505771Y-185671485D01*
X208505771Y-185600057D01*
X208577200Y-185457200D01*
X208720057Y-185385771D01*
X208934342Y-185385771D01*
X209077200Y-185457200D01*
X210577200Y-186385771D02*
X209720057Y-186385771D01*
X210148628Y-186385771D02*
X210148628Y-184885771D01*
X210005771Y-185100057D01*
X209862914Y-185242914D01*
X209720057Y-185314342D01*
X211077200Y-184885771D02*
X212005771Y-184885771D01*
X211505771Y-185457200D01*
X211720057Y-185457200D01*
X211862914Y-185528628D01*
X211934342Y-185600057D01*
X212005771Y-185742914D01*
X212005771Y-186100057D01*
X211934342Y-186242914D01*
X211862914Y-186314342D01*
X211720057Y-186385771D01*
X211291485Y-186385771D01*
X211148628Y-186314342D01*
X211077200Y-186242914D01*
X212934342Y-184885771D02*
X213077200Y-184885771D01*
X213220057Y-184957200D01*
X213291485Y-185028628D01*
X213362914Y-185171485D01*
X213434342Y-185457200D01*
X213434342Y-185814342D01*
X213362914Y-186100057D01*
X213291485Y-186242914D01*
X213220057Y-186314342D01*
X213077200Y-186385771D01*
X212934342Y-186385771D01*
X212791485Y-186314342D01*
X212720057Y-186242914D01*
X212648628Y-186100057D01*
X212577200Y-185814342D01*
X212577200Y-185457200D01*
X212648628Y-185171485D01*
X212720057Y-185028628D01*
X212791485Y-184957200D01*
X212934342Y-184885771D01*
X214005771Y-185028628D02*
X214077200Y-184957200D01*
X214220057Y-184885771D01*
X214577200Y-184885771D01*
X214720057Y-184957200D01*
X214791485Y-185028628D01*
X214862914Y-185171485D01*
X214862914Y-185314342D01*
X214791485Y-185528628D01*
X213934342Y-186385771D01*
X214862914Y-186385771D01*
X215505771Y-186242914D02*
X215577200Y-186314342D01*
X215505771Y-186385771D01*
X215434342Y-186314342D01*
X215505771Y-186242914D01*
X215505771Y-186385771D01*
X216220057Y-186385771D02*
X216220057Y-184885771D01*
X216362914Y-185814342D02*
X216791485Y-186385771D01*
X216791485Y-185385771D02*
X216220057Y-185957200D01*
X217434342Y-186385771D02*
X217434342Y-185385771D01*
X217434342Y-184885771D02*
X217362914Y-184957200D01*
X217434342Y-185028628D01*
X217505771Y-184957200D01*
X217434342Y-184885771D01*
X217434342Y-185028628D01*
X218791485Y-186314342D02*
X218648628Y-186385771D01*
X218362914Y-186385771D01*
X218220057Y-186314342D01*
X218148628Y-186242914D01*
X218077200Y-186100057D01*
X218077200Y-185671485D01*
X218148628Y-185528628D01*
X218220057Y-185457200D01*
X218362914Y-185385771D01*
X218648628Y-185385771D01*
X218791485Y-185457200D01*
X220077200Y-186385771D02*
X220077200Y-185600057D01*
X220005771Y-185457200D01*
X219862914Y-185385771D01*
X219577200Y-185385771D01*
X219434342Y-185457200D01*
X220077200Y-186314342D02*
X219934342Y-186385771D01*
X219577200Y-186385771D01*
X219434342Y-186314342D01*
X219362914Y-186171485D01*
X219362914Y-186028628D01*
X219434342Y-185885771D01*
X219577200Y-185814342D01*
X219934342Y-185814342D01*
X220077200Y-185742914D01*
X221434342Y-186385771D02*
X221434342Y-184885771D01*
X221434342Y-186314342D02*
X221291485Y-186385771D01*
X221005771Y-186385771D01*
X220862914Y-186314342D01*
X220791485Y-186242914D01*
X220720057Y-186100057D01*
X220720057Y-185671485D01*
X220791485Y-185528628D01*
X220862914Y-185457200D01*
X221005771Y-185385771D01*
X221291485Y-185385771D01*
X221434342Y-185457200D01*
X221791485Y-186528628D02*
X222934342Y-186528628D01*
X223291485Y-185385771D02*
X223291485Y-186885771D01*
X223291485Y-185457200D02*
X223434342Y-185385771D01*
X223720057Y-185385771D01*
X223862914Y-185457200D01*
X223934342Y-185528628D01*
X224005771Y-185671485D01*
X224005771Y-186100057D01*
X223934342Y-186242914D01*
X223862914Y-186314342D01*
X223720057Y-186385771D01*
X223434342Y-186385771D01*
X223291485Y-186314342D01*
X225291485Y-186314342D02*
X225148628Y-186385771D01*
X224862914Y-186385771D01*
X224720057Y-186314342D01*
X224648628Y-186242914D01*
X224577200Y-186100057D01*
X224577200Y-185671485D01*
X224648628Y-185528628D01*
X224720057Y-185457200D01*
X224862914Y-185385771D01*
X225148628Y-185385771D01*
X225291485Y-185457200D01*
X225934342Y-186385771D02*
X225934342Y-184885771D01*
X225934342Y-185457200D02*
X226077200Y-185385771D01*
X226362914Y-185385771D01*
X226505771Y-185457200D01*
X226577200Y-185528628D01*
X226648628Y-185671485D01*
X226648628Y-186100057D01*
X226577200Y-186242914D01*
X226505771Y-186314342D01*
X226362914Y-186385771D01*
X226077200Y-186385771D01*
X225934342Y-186314342D01*
D10*
D11*
X177002200Y-181507200D02*
X285002200Y-181507200D01*
D10*
D11*
X178362914Y-183614342D02*
X178577200Y-183685771D01*
X178934342Y-183685771D01*
X179077200Y-183614342D01*
X179148628Y-183542914D01*
X179220057Y-183400057D01*
X179220057Y-183257200D01*
X179148628Y-183114342D01*
X179077200Y-183042914D01*
X178934342Y-182971485D01*
X178648628Y-182900057D01*
X178505771Y-182828628D01*
X178434342Y-182757200D01*
X178362914Y-182614342D01*
X178362914Y-182471485D01*
X178434342Y-182328628D01*
X178505771Y-182257200D01*
X178648628Y-182185771D01*
X179005771Y-182185771D01*
X179220057Y-182257200D01*
X179862914Y-183685771D02*
X179862914Y-182185771D01*
X180505771Y-183685771D02*
X180505771Y-182900057D01*
X180434342Y-182757200D01*
X180291485Y-182685771D01*
X180077200Y-182685771D01*
X179934342Y-182757200D01*
X179862914Y-182828628D01*
X181791485Y-183614342D02*
X181648628Y-183685771D01*
X181362914Y-183685771D01*
X181220057Y-183614342D01*
X181148628Y-183471485D01*
X181148628Y-182900057D01*
X181220057Y-182757200D01*
X181362914Y-182685771D01*
X181648628Y-182685771D01*
X181791485Y-182757200D01*
X181862914Y-182900057D01*
X181862914Y-183042914D01*
X181148628Y-183185771D01*
X183077200Y-183614342D02*
X182934342Y-183685771D01*
X182648628Y-183685771D01*
X182505771Y-183614342D01*
X182434342Y-183471485D01*
X182434342Y-182900057D01*
X182505771Y-182757200D01*
X182648628Y-182685771D01*
X182934342Y-182685771D01*
X183077200Y-182757200D01*
X183148628Y-182900057D01*
X183148628Y-183042914D01*
X182434342Y-183185771D01*
X183577200Y-182685771D02*
X184148628Y-182685771D01*
X183791485Y-182185771D02*
X183791485Y-183471485D01*
X183862914Y-183614342D01*
X184005771Y-183685771D01*
X184148628Y-183685771D01*
X184648628Y-183542914D02*
X184720057Y-183614342D01*
X184648628Y-183685771D01*
X184577200Y-183614342D01*
X184648628Y-183542914D01*
X184648628Y-183685771D01*
X184648628Y-182757200D02*
X184720057Y-182828628D01*
X184648628Y-182900057D01*
X184577200Y-182828628D01*
X184648628Y-182757200D01*
X184648628Y-182900057D01*
D10*
D11*
X178934342Y-173900057D02*
X179148628Y-173971485D01*
X179220057Y-174042914D01*
X179291485Y-174185771D01*
X179291485Y-174400057D01*
X179220057Y-174542914D01*
X179148628Y-174614342D01*
X179005771Y-174685771D01*
X178434342Y-174685771D01*
X178434342Y-173185771D01*
X178934342Y-173185771D01*
X179077200Y-173257200D01*
X179148628Y-173328628D01*
X179220057Y-173471485D01*
X179220057Y-173614342D01*
X179148628Y-173757200D01*
X179077200Y-173828628D01*
X178934342Y-173900057D01*
X178434342Y-173900057D01*
X180505771Y-174614342D02*
X180362914Y-174685771D01*
X180077200Y-174685771D01*
X179934342Y-174614342D01*
X179862914Y-174471485D01*
X179862914Y-173900057D01*
X179934342Y-173757200D01*
X180077200Y-173685771D01*
X180362914Y-173685771D01*
X180505771Y-173757200D01*
X180577200Y-173900057D01*
X180577200Y-174042914D01*
X179862914Y-174185771D01*
X181220057Y-173685771D02*
X181220057Y-175185771D01*
X181220057Y-173757200D02*
X181362914Y-173685771D01*
X181648628Y-173685771D01*
X181791485Y-173757200D01*
X181862914Y-173828628D01*
X181934342Y-173971485D01*
X181934342Y-174400057D01*
X181862914Y-174542914D01*
X181791485Y-174614342D01*
X181648628Y-174685771D01*
X181362914Y-174685771D01*
X181220057Y-174614342D01*
X183291485Y-173114342D02*
X183220057Y-173185771D01*
X183077200Y-173257200D01*
X182791485Y-173257200D01*
X182648628Y-173328628D01*
X182577200Y-173400057D01*
X182505771Y-173542914D01*
X182505771Y-174400057D01*
X182577200Y-174542914D01*
X182648628Y-174614342D01*
X182791485Y-174685771D01*
X183005771Y-174685771D01*
X183148628Y-174614342D01*
X183220057Y-174542914D01*
X183291485Y-174400057D01*
X183291485Y-173971485D01*
X183220057Y-173828628D01*
X183148628Y-173757200D01*
X183005771Y-173685771D01*
X182720057Y-173685771D01*
X182577200Y-173757200D01*
X182505771Y-173828628D01*
X183934342Y-173685771D02*
X183934342Y-174685771D01*
X184077200Y-174114342D02*
X184505771Y-174685771D01*
X184505771Y-173685771D02*
X183934342Y-174257200D01*
X185148628Y-173685771D02*
X185148628Y-174685771D01*
X185862914Y-173685771D01*
X185862914Y-174685771D01*
X186577200Y-174185771D02*
X187220057Y-174185771D01*
X186577200Y-173685771D02*
X186577200Y-174685771D01*
X187220057Y-173685771D02*
X187220057Y-174685771D01*
X189077200Y-174685771D02*
X189077200Y-173185771D01*
X189577200Y-174257200D01*
X190077200Y-173185771D01*
X190077200Y-174685771D01*
X190791485Y-174542914D02*
X190862914Y-174614342D01*
X190791485Y-174685771D01*
X190720057Y-174614342D01*
X190791485Y-174542914D01*
X190791485Y-174685771D01*
X192362914Y-174542914D02*
X192291485Y-174614342D01*
X192077200Y-174685771D01*
X191934342Y-174685771D01*
X191720057Y-174614342D01*
X191577200Y-174471485D01*
X191505771Y-174328628D01*
X191434342Y-174042914D01*
X191434342Y-173828628D01*
X191505771Y-173542914D01*
X191577200Y-173400057D01*
X191720057Y-173257200D01*
X191934342Y-173185771D01*
X192077200Y-173185771D01*
X192291485Y-173257200D01*
X192362914Y-173328628D01*
X193005771Y-174542914D02*
X193077200Y-174614342D01*
X193005771Y-174685771D01*
X192934342Y-174614342D01*
X193005771Y-174542914D01*
X193005771Y-174685771D01*
D10*
D11*
X197002200Y-191507200D02*
X197002200Y-194507200D01*
D10*
D11*
X261002200Y-191507200D02*
X261002200Y-198007200D01*
D14*
%TO.P,U3,3*%
%TO.N,Net-(U1-Pad13)*%
X109220000Y-84836000D03*
%TO.P,U3,1*%
%TO.N,Net-(BZ1-Pad1)*%
X109220000Y-89916000D03*
D15*
%TO.P,U3,2*%
%TO.N,GND*%
X109220000Y-87376000D03*
D14*
%TO.P,U3,4*%
%TO.N,Net-(U1-Pad12)*%
X109220000Y-82296000D03*
X166624000Y-82296000D03*
%TO.P,U3,3*%
%TO.N,Net-(U1-Pad13)*%
X166624000Y-84836000D03*
D15*
%TO.P,U3,2*%
%TO.N,GND*%
X166624000Y-87376000D03*
D14*
%TO.P,U3,1*%
%TO.N,Net-(BZ1-Pad1)*%
X166624000Y-89916000D03*
%TD*%
D16*
%TO.P,J3,1*%
%TO.N,Net-(J3-Pad1)*%
X174752000Y-85344000D03*
%TO.P,J3,2*%
%TO.N,Net-(J3-Pad2)*%
X174752000Y-87884000D03*
%TO.P,J3,3*%
%TO.N,Net-(J3-Pad3)*%
X174752000Y-90424000D03*
%TO.P,J3,4*%
%TO.N,Net-(J3-Pad4)*%
X174752000Y-92964000D03*
%TD*%
%TO.P,J2,4*%
%TO.N,GND*%
X166624000Y-97028000D03*
%TO.P,J2,3*%
%TO.N,Net-(D2-Pad1)*%
X164084000Y-97028000D03*
%TO.P,J2,2*%
%TO.N,Net-(D1-Pad2)*%
X161544000Y-97028000D03*
%TO.P,J2,1*%
%TO.N,Net-(D1-Pad1)*%
X159004000Y-97028000D03*
%TD*%
D17*
%TO.P,J1,2*%
%TO.N,GND*%
X107188000Y-94996000D03*
D16*
%TO.P,J1,1*%
%TO.N,Net-(BZ1-Pad1)*%
X109728000Y-94996000D03*
%TD*%
D18*
%TO.P,D2,1*%
%TO.N,Net-(D2-Pad1)*%
X161036000Y-83312000D03*
D19*
%TO.P,D2,2*%
%TO.N,Net-(D1-Pad2)*%
X161036000Y-88392000D03*
%TD*%
D18*
%TO.P,D1,1*%
%TO.N,Net-(D1-Pad1)*%
X166624000Y-75692000D03*
D19*
%TO.P,D1,2*%
%TO.N,Net-(D1-Pad2)*%
X161544000Y-75692000D03*
%TD*%
D20*
%TO.P,BZ1,1*%
%TO.N,Net-(BZ1-Pad1)*%
X146304000Y-90932000D03*
D21*
%TO.P,BZ1,2*%
%TO.N,Net-(BZ1-Pad2)*%
X153904000Y-90932000D03*
%TD*%
D22*
%TO.P,R3,1*%
%TO.N,GND*%
X137414000Y-90932000D03*
%TO.P,R3,2*%
%TO.N,Net-(Q1-Pad1)*%
X134874000Y-88392000D03*
%TO.P,R3,3*%
%TO.N,N/C*%
X132334000Y-90932000D03*
%TD*%
D21*
%TO.P,SW_1,1*%
%TO.N,Net-(J3-Pad1)*%
X184150000Y-79906000D03*
%TO.P,SW_1,2*%
%TO.N,Net-(J3-Pad4)*%
X179650000Y-79906000D03*
%TO.P,SW_1,1*%
%TO.N,Net-(J3-Pad1)*%
X184150000Y-73406000D03*
%TO.P,SW_1,2*%
%TO.N,Net-(J3-Pad4)*%
X179650000Y-73406000D03*
%TD*%
%TO.P,SW_2,2*%
%TO.N,Net-(J3-Pad4)*%
X179650000Y-84836000D03*
%TO.P,SW_2,1*%
%TO.N,Net-(J3-Pad3)*%
X184150000Y-84836000D03*
%TO.P,SW_2,2*%
%TO.N,Net-(J3-Pad4)*%
X179650000Y-91336000D03*
%TO.P,SW_2,1*%
%TO.N,Net-(J3-Pad3)*%
X184150000Y-91336000D03*
%TD*%
%TO.P,SW_3,1*%
%TO.N,Net-(J3-Pad2)*%
X184150000Y-102766000D03*
%TO.P,SW_3,2*%
%TO.N,Net-(J3-Pad4)*%
X179650000Y-102766000D03*
%TO.P,SW_3,1*%
%TO.N,Net-(J3-Pad2)*%
X184150000Y-96266000D03*
%TO.P,SW_3,2*%
%TO.N,Net-(J3-Pad4)*%
X179650000Y-96266000D03*
%TD*%
D23*
%TO.P,U1,20*%
%TO.N,Net-(BZ1-Pad1)*%
X145034000Y-82042000D03*
%TO.P,U1,10*%
%TO.N,GND*%
X122174000Y-74422000D03*
%TO.P,U1,19*%
%TO.N,Net-(U1-Pad19)*%
X142494000Y-82042000D03*
%TO.P,U1,9*%
%TO.N,Net-(U1-Pad9)*%
X124714000Y-74422000D03*
%TO.P,U1,18*%
%TO.N,Net-(U1-Pad18)*%
X139954000Y-82042000D03*
%TO.P,U1,8*%
%TO.N,Net-(U1-Pad8)*%
X127254000Y-74422000D03*
%TO.P,U1,17*%
%TO.N,I\u005CO*%
X137414000Y-82042000D03*
%TO.P,U1,7*%
%TO.N,Net-(D2-Pad1)*%
X129794000Y-74422000D03*
%TO.P,U1,16*%
%TO.N,SCLK*%
X134874000Y-82042000D03*
%TO.P,U1,6*%
%TO.N,Net-(D1-Pad1)*%
X132334000Y-74422000D03*
%TO.P,U1,15*%
%TO.N,RST*%
X132334000Y-82042000D03*
%TO.P,U1,5*%
%TO.N,Net-(U1-Pad5)*%
X134874000Y-74422000D03*
%TO.P,U1,14*%
%TO.N,Net-(R2-Pad2)*%
X129794000Y-82042000D03*
%TO.P,U1,4*%
%TO.N,Net-(U1-Pad4)*%
X137414000Y-74422000D03*
%TO.P,U1,13*%
%TO.N,Net-(U1-Pad13)*%
X127254000Y-82042000D03*
%TO.P,U1,3*%
%TO.N,Net-(U1-Pad3)*%
X139954000Y-74422000D03*
%TO.P,U1,12*%
%TO.N,Net-(U1-Pad12)*%
X124714000Y-82042000D03*
%TO.P,U1,2*%
%TO.N,Net-(U1-Pad2)*%
X142494000Y-74422000D03*
%TO.P,U1,11*%
%TO.N,Net-(U1-Pad11)*%
X122174000Y-82042000D03*
D24*
%TO.P,U1,1*%
%TO.N,Net-(R1-Pad2)*%
X145034000Y-74422000D03*
%TD*%
%TO.P,U2,1*%
%TO.N,Net-(U2-Pad1)*%
X119634000Y-87122000D03*
D23*
%TO.P,U2,5*%
%TO.N,RST*%
X127254000Y-94742000D03*
%TO.P,U2,2*%
%TO.N,Net-(U2-Pad2)*%
X119634000Y-89662000D03*
%TO.P,U2,6*%
%TO.N,I\u005CO*%
X127254000Y-92202000D03*
%TO.P,U2,3*%
%TO.N,Net-(U2-Pad3)*%
X119634000Y-92202000D03*
%TO.P,U2,7*%
%TO.N,SCLK*%
X127254000Y-89662000D03*
%TO.P,U2,4*%
%TO.N,GND*%
X119634000Y-94742000D03*
%TO.P,U2,8*%
%TO.N,Net-(U2-Pad8)*%
X127254000Y-87122000D03*
%TD*%
D25*
%TO.P,Y1,1*%
%TO.N,Net-(U2-Pad3)*%
X117094000Y-90932000D03*
%TO.P,Y1,2*%
%TO.N,Net-(U2-Pad2)*%
X114554000Y-90932000D03*
%TD*%
D26*
%TO.P,R1,1*%
%TO.N,Net-(BZ1-Pad1)*%
X113284000Y-76962000D03*
D23*
%TO.P,R1,2*%
%TO.N,Net-(R1-Pad2)*%
X108204000Y-76962000D03*
%TD*%
D27*
%TO.P,Q1,1*%
%TO.N,Net-(Q1-Pad1)*%
X150368000Y-82042000D03*
D28*
%TO.P,Q1,2*%
%TO.N,Net-(Q1-Pad2)*%
X152654000Y-82042000D03*
%TO.P,Q1,3*%
%TO.N,Net-(BZ1-Pad2)*%
X154940000Y-82042000D03*
%TD*%
D26*
%TO.P,R2,1*%
%TO.N,Net-(Q1-Pad2)*%
X155194000Y-75692000D03*
D23*
%TO.P,R2,2*%
%TO.N,Net-(R2-Pad2)*%
X150114000Y-75692000D03*
%TD*%
D29*
%TO.N,Net-(BZ1-Pad1)*%
X109728000Y-90424000D02*
X109220000Y-89916000D01*
X109728000Y-94996000D02*
X109728000Y-90424000D01*
X145034000Y-89662000D02*
X146304000Y-90932000D01*
X145034000Y-82042000D02*
X145034000Y-89662000D01*
%TO.N,Net-(D1-Pad1)*%
X168656000Y-77724000D02*
X166624000Y-75692000D01*
X168656000Y-98044000D02*
X168656000Y-77724000D01*
X167640000Y-99060000D02*
X168656000Y-98044000D01*
X159004000Y-97028000D02*
X161036000Y-99060000D01*
X161036000Y-99060000D02*
X167640000Y-99060000D01*
%TO.N,Net-(D1-Pad2)*%
X159510999Y-94994999D02*
X161544000Y-97028000D01*
X159510999Y-77725001D02*
X159510999Y-94994999D01*
X161544000Y-75692000D02*
X159510999Y-77725001D01*
X161036000Y-96520000D02*
X161544000Y-97028000D01*
X161036000Y-88392000D02*
X161036000Y-96520000D01*
%TO.N,Net-(D2-Pad1)*%
X164084000Y-86360000D02*
X164084000Y-97028000D01*
X161036000Y-83312000D02*
X164084000Y-86360000D01*
%TO.N,Net-(Q1-Pad2)*%
X155194000Y-79502000D02*
X152654000Y-82042000D01*
X155194000Y-75692000D02*
X155194000Y-79502000D01*
%TO.N,Net-(R2-Pad2)*%
X136144000Y-75692000D02*
X129794000Y-82042000D01*
X150114000Y-75692000D02*
X136144000Y-75692000D01*
%TO.N,Net-(U1-Pad12)*%
X125839001Y-83167001D02*
X124714000Y-82042000D01*
X143908999Y-81501999D02*
X143908999Y-82292003D01*
X144493999Y-80916999D02*
X143908999Y-81501999D01*
X143034001Y-83167001D02*
X125839001Y-83167001D01*
X145574001Y-80916999D02*
X144493999Y-80916999D01*
X149493002Y-84836000D02*
X145574001Y-80916999D01*
X156122260Y-82574458D02*
X153860718Y-84836000D01*
X153860718Y-84836000D02*
X149493002Y-84836000D01*
X156122260Y-78856738D02*
X156122260Y-82574458D01*
X160811999Y-74166999D02*
X156122260Y-78856738D01*
X162276001Y-74166999D02*
X160811999Y-74166999D01*
X163069001Y-74959999D02*
X162276001Y-74166999D01*
X143908999Y-82292003D02*
X143034001Y-83167001D01*
X163069001Y-78741001D02*
X163069001Y-74959999D01*
X166624000Y-82296000D02*
X163069001Y-78741001D01*
%TO.N,Net-(J3-Pad3)*%
X184150000Y-91336000D02*
X184150000Y-84836000D01*
X175513999Y-89662001D02*
X174752000Y-90424000D01*
X182476001Y-89662001D02*
X175513999Y-89662001D01*
X184150000Y-91336000D02*
X182476001Y-89662001D01*
%TO.N,Net-(J3-Pad2)*%
X184150000Y-102766000D02*
X184150000Y-96266000D01*
X173664999Y-88971001D02*
X174752000Y-87884000D01*
X173664999Y-90945761D02*
X173664999Y-88971001D01*
X174230239Y-91511001D02*
X173664999Y-90945761D01*
X176855001Y-91511001D02*
X174230239Y-91511001D01*
X181610000Y-96266000D02*
X176855001Y-91511001D01*
X184150000Y-96266000D02*
X181610000Y-96266000D01*
%TO.N,Net-(J3-Pad1)*%
X184150000Y-73406000D02*
X184150000Y-79906000D01*
X184150000Y-79906000D02*
X181760000Y-82296000D01*
X177800000Y-82296000D02*
X174752000Y-85344000D01*
X181760000Y-82296000D02*
X177800000Y-82296000D01*
%TD*%
D30*
%TO.N,Net-(J3-Pad4)*%
G36*
X186792001Y-105004000D02*
G01*
X173380000Y-105004000D01*
X173380000Y-103901413D01*
X178694192Y-103901413D01*
X178789956Y-104165814D01*
X179079571Y-104306704D01*
X179391108Y-104388384D01*
X179712595Y-104407718D01*
X180031675Y-104363961D01*
X180336088Y-104258795D01*
X180510044Y-104165814D01*
X180605808Y-103901413D01*
X179650000Y-102945605D01*
X178694192Y-103901413D01*
X173380000Y-103901413D01*
X173380000Y-102828595D01*
X178008282Y-102828595D01*
X178052039Y-103147675D01*
X178157205Y-103452088D01*
X178250186Y-103626044D01*
X178514587Y-103721808D01*
X179470395Y-102766000D01*
X179829605Y-102766000D01*
X180785413Y-103721808D01*
X181049814Y-103626044D01*
X181190704Y-103336429D01*
X181272384Y-103024892D01*
X181291718Y-102703405D01*
X181247961Y-102384325D01*
X181142795Y-102079912D01*
X181049814Y-101905956D01*
X180785413Y-101810192D01*
X179829605Y-102766000D01*
X179470395Y-102766000D01*
X178514587Y-101810192D01*
X178250186Y-101905956D01*
X178109296Y-102195571D01*
X178027616Y-102507108D01*
X178008282Y-102828595D01*
X173380000Y-102828595D01*
X173380000Y-101630587D01*
X178694192Y-101630587D01*
X179650000Y-102586395D01*
X180605808Y-101630587D01*
X180510044Y-101366186D01*
X180220429Y-101225296D01*
X179908892Y-101143616D01*
X179587405Y-101124282D01*
X179268325Y-101168039D01*
X178963912Y-101273205D01*
X178789956Y-101366186D01*
X178694192Y-101630587D01*
X173380000Y-101630587D01*
X173380000Y-99854419D01*
X173383193Y-99822000D01*
X173370450Y-99692617D01*
X173332710Y-99568207D01*
X173271425Y-99453550D01*
X173188948Y-99353052D01*
X173101000Y-99280875D01*
X173101000Y-97401413D01*
X178694192Y-97401413D01*
X178789956Y-97665814D01*
X179079571Y-97806704D01*
X179391108Y-97888384D01*
X179712595Y-97907718D01*
X180031675Y-97863961D01*
X180336088Y-97758795D01*
X180510044Y-97665814D01*
X180605808Y-97401413D01*
X179650000Y-96445605D01*
X178694192Y-97401413D01*
X173101000Y-97401413D01*
X173101000Y-96328595D01*
X178008282Y-96328595D01*
X178052039Y-96647675D01*
X178157205Y-96952088D01*
X178250186Y-97126044D01*
X178514587Y-97221808D01*
X179470395Y-96266000D01*
X178514587Y-95310192D01*
X178250186Y-95405956D01*
X178109296Y-95695571D01*
X178027616Y-96007108D01*
X178008282Y-96328595D01*
X173101000Y-96328595D01*
X173101000Y-93929565D01*
X173966040Y-93929565D01*
X174033020Y-94169656D01*
X174282048Y-94286756D01*
X174549135Y-94353023D01*
X174824017Y-94365910D01*
X175096133Y-94324922D01*
X175355023Y-94231636D01*
X175470980Y-94169656D01*
X175537960Y-93929565D01*
X174752000Y-93143605D01*
X173966040Y-93929565D01*
X173101000Y-93929565D01*
X173101000Y-91456520D01*
X173124998Y-91485762D01*
X173154001Y-91509564D01*
X173666439Y-92022003D01*
X173685917Y-92045737D01*
X173670023Y-92061631D01*
X173786433Y-92178041D01*
X173546344Y-92245020D01*
X173429244Y-92494048D01*
X173362977Y-92761135D01*
X173350090Y-93036017D01*
X173391078Y-93308133D01*
X173484364Y-93567023D01*
X173546344Y-93682980D01*
X173786435Y-93749960D01*
X174572395Y-92964000D01*
X174558253Y-92949858D01*
X174737858Y-92770253D01*
X174752000Y-92784395D01*
X174766143Y-92770253D01*
X174945748Y-92949858D01*
X174931605Y-92964000D01*
X175717565Y-93749960D01*
X175957656Y-93682980D01*
X176074756Y-93433952D01*
X176141023Y-93166865D01*
X176153910Y-92891983D01*
X176112922Y-92619867D01*
X176019636Y-92360977D01*
X175971543Y-92271001D01*
X176540200Y-92271001D01*
X179022249Y-94753051D01*
X178963912Y-94773205D01*
X178789956Y-94866186D01*
X178694192Y-95130587D01*
X179650000Y-96086395D01*
X179664143Y-96072253D01*
X179843748Y-96251858D01*
X179829605Y-96266000D01*
X180785413Y-97221808D01*
X181049814Y-97126044D01*
X181166842Y-96885479D01*
X181185723Y-96900974D01*
X181281350Y-96952088D01*
X181317753Y-96971546D01*
X181461014Y-97015003D01*
X181572667Y-97026000D01*
X181572676Y-97026000D01*
X181609999Y-97029676D01*
X181647322Y-97026000D01*
X182695091Y-97026000D01*
X182701082Y-97040463D01*
X182880013Y-97308252D01*
X183107748Y-97535987D01*
X183375537Y-97714918D01*
X183390001Y-97720909D01*
X183390000Y-101311091D01*
X183375537Y-101317082D01*
X183107748Y-101496013D01*
X182880013Y-101723748D01*
X182701082Y-101991537D01*
X182577832Y-102289088D01*
X182515000Y-102604967D01*
X182515000Y-102927033D01*
X182577832Y-103242912D01*
X182701082Y-103540463D01*
X182880013Y-103808252D01*
X183107748Y-104035987D01*
X183375537Y-104214918D01*
X183673088Y-104338168D01*
X183988967Y-104401000D01*
X184311033Y-104401000D01*
X184626912Y-104338168D01*
X184924463Y-104214918D01*
X185192252Y-104035987D01*
X185419987Y-103808252D01*
X185598918Y-103540463D01*
X185722168Y-103242912D01*
X185785000Y-102927033D01*
X185785000Y-102604967D01*
X185722168Y-102289088D01*
X185598918Y-101991537D01*
X185419987Y-101723748D01*
X185192252Y-101496013D01*
X184924463Y-101317082D01*
X184910000Y-101311091D01*
X184910000Y-97720909D01*
X184924463Y-97714918D01*
X185192252Y-97535987D01*
X185419987Y-97308252D01*
X185598918Y-97040463D01*
X185722168Y-96742912D01*
X185785000Y-96427033D01*
X185785000Y-96104967D01*
X185722168Y-95789088D01*
X185598918Y-95491537D01*
X185419987Y-95223748D01*
X185192252Y-94996013D01*
X184924463Y-94817082D01*
X184626912Y-94693832D01*
X184311033Y-94631000D01*
X183988967Y-94631000D01*
X183673088Y-94693832D01*
X183375537Y-94817082D01*
X183107748Y-94996013D01*
X182880013Y-95223748D01*
X182701082Y-95491537D01*
X182695091Y-95506000D01*
X181924802Y-95506000D01*
X179372238Y-92953437D01*
X179391108Y-92958384D01*
X179712595Y-92977718D01*
X180031675Y-92933961D01*
X180336088Y-92828795D01*
X180510044Y-92735814D01*
X180605808Y-92471413D01*
X179650000Y-91515605D01*
X179635858Y-91529748D01*
X179456253Y-91350143D01*
X179470395Y-91336000D01*
X179456253Y-91321858D01*
X179635858Y-91142253D01*
X179650000Y-91156395D01*
X179664143Y-91142253D01*
X179843748Y-91321858D01*
X179829605Y-91336000D01*
X180785413Y-92291808D01*
X181049814Y-92196044D01*
X181190704Y-91906429D01*
X181272384Y-91594892D01*
X181291718Y-91273405D01*
X181247961Y-90954325D01*
X181142795Y-90649912D01*
X181049814Y-90475956D01*
X180900846Y-90422001D01*
X182161200Y-90422001D01*
X182583823Y-90844624D01*
X182577832Y-90859088D01*
X182515000Y-91174967D01*
X182515000Y-91497033D01*
X182577832Y-91812912D01*
X182701082Y-92110463D01*
X182880013Y-92378252D01*
X183107748Y-92605987D01*
X183375537Y-92784918D01*
X183673088Y-92908168D01*
X183988967Y-92971000D01*
X184311033Y-92971000D01*
X184626912Y-92908168D01*
X184924463Y-92784918D01*
X185192252Y-92605987D01*
X185419987Y-92378252D01*
X185598918Y-92110463D01*
X185722168Y-91812912D01*
X185785000Y-91497033D01*
X185785000Y-91174967D01*
X185722168Y-90859088D01*
X185598918Y-90561537D01*
X185419987Y-90293748D01*
X185192252Y-90066013D01*
X184924463Y-89887082D01*
X184910000Y-89881091D01*
X184910000Y-86290909D01*
X184924463Y-86284918D01*
X185192252Y-86105987D01*
X185419987Y-85878252D01*
X185598918Y-85610463D01*
X185722168Y-85312912D01*
X185785000Y-84997033D01*
X185785000Y-84674967D01*
X185722168Y-84359088D01*
X185598918Y-84061537D01*
X185419987Y-83793748D01*
X185192252Y-83566013D01*
X184924463Y-83387082D01*
X184626912Y-83263832D01*
X184311033Y-83201000D01*
X183988967Y-83201000D01*
X183673088Y-83263832D01*
X183375537Y-83387082D01*
X183107748Y-83566013D01*
X182880013Y-83793748D01*
X182701082Y-84061537D01*
X182577832Y-84359088D01*
X182515000Y-84674967D01*
X182515000Y-84997033D01*
X182577832Y-85312912D01*
X182701082Y-85610463D01*
X182880013Y-85878252D01*
X183107748Y-86105987D01*
X183375537Y-86284918D01*
X183390001Y-86290909D01*
X183390000Y-89501199D01*
X183039805Y-89151004D01*
X183016002Y-89122000D01*
X182900277Y-89027027D01*
X182768248Y-88956455D01*
X182624987Y-88912998D01*
X182513334Y-88902001D01*
X182513323Y-88902001D01*
X182476001Y-88898325D01*
X182438679Y-88902001D01*
X175709654Y-88902001D01*
X175837120Y-88774535D01*
X175990005Y-88545727D01*
X176095314Y-88291490D01*
X176149000Y-88021592D01*
X176149000Y-87746408D01*
X176095314Y-87476510D01*
X175990005Y-87222273D01*
X175837120Y-86993465D01*
X175642535Y-86798880D01*
X175413727Y-86645995D01*
X175336485Y-86614000D01*
X175413727Y-86582005D01*
X175642535Y-86429120D01*
X175837120Y-86234535D01*
X175990005Y-86005727D01*
X176004218Y-85971413D01*
X178694192Y-85971413D01*
X178789956Y-86235814D01*
X179079571Y-86376704D01*
X179391108Y-86458384D01*
X179712595Y-86477718D01*
X180031675Y-86433961D01*
X180336088Y-86328795D01*
X180510044Y-86235814D01*
X180605808Y-85971413D01*
X179650000Y-85015605D01*
X178694192Y-85971413D01*
X176004218Y-85971413D01*
X176095314Y-85751490D01*
X176149000Y-85481592D01*
X176149000Y-85206408D01*
X176118372Y-85052429D01*
X176272206Y-84898595D01*
X178008282Y-84898595D01*
X178052039Y-85217675D01*
X178157205Y-85522088D01*
X178250186Y-85696044D01*
X178514587Y-85791808D01*
X179470395Y-84836000D01*
X179829605Y-84836000D01*
X180785413Y-85791808D01*
X181049814Y-85696044D01*
X181190704Y-85406429D01*
X181272384Y-85094892D01*
X181291718Y-84773405D01*
X181247961Y-84454325D01*
X181142795Y-84149912D01*
X181049814Y-83975956D01*
X180785413Y-83880192D01*
X179829605Y-84836000D01*
X179470395Y-84836000D01*
X178514587Y-83880192D01*
X178250186Y-83975956D01*
X178109296Y-84265571D01*
X178027616Y-84577108D01*
X178008282Y-84898595D01*
X176272206Y-84898595D01*
X177470214Y-83700587D01*
X178694192Y-83700587D01*
X179650000Y-84656395D01*
X180605808Y-83700587D01*
X180510044Y-83436186D01*
X180220429Y-83295296D01*
X179908892Y-83213616D01*
X179587405Y-83194282D01*
X179268325Y-83238039D01*
X178963912Y-83343205D01*
X178789956Y-83436186D01*
X178694192Y-83700587D01*
X177470214Y-83700587D01*
X178114802Y-83056000D01*
X181722678Y-83056000D01*
X181760000Y-83059676D01*
X181797322Y-83056000D01*
X181797333Y-83056000D01*
X181908986Y-83045003D01*
X182052247Y-83001546D01*
X182184276Y-82930974D01*
X182300001Y-82836001D01*
X182323804Y-82806997D01*
X183658625Y-81472177D01*
X183673088Y-81478168D01*
X183988967Y-81541000D01*
X184311033Y-81541000D01*
X184626912Y-81478168D01*
X184924463Y-81354918D01*
X185192252Y-81175987D01*
X185419987Y-80948252D01*
X185598918Y-80680463D01*
X185722168Y-80382912D01*
X185785000Y-80067033D01*
X185785000Y-79744967D01*
X185722168Y-79429088D01*
X185598918Y-79131537D01*
X185419987Y-78863748D01*
X185192252Y-78636013D01*
X184924463Y-78457082D01*
X184910000Y-78451091D01*
X184910000Y-74860909D01*
X184924463Y-74854918D01*
X185192252Y-74675987D01*
X185419987Y-74448252D01*
X185598918Y-74180463D01*
X185722168Y-73882912D01*
X185785000Y-73567033D01*
X185785000Y-73244967D01*
X185722168Y-72929088D01*
X185598918Y-72631537D01*
X185419987Y-72363748D01*
X185192252Y-72136013D01*
X184924463Y-71957082D01*
X184626912Y-71833832D01*
X184311033Y-71771000D01*
X183988967Y-71771000D01*
X183673088Y-71833832D01*
X183375537Y-71957082D01*
X183107748Y-72136013D01*
X182880013Y-72363748D01*
X182701082Y-72631537D01*
X182577832Y-72929088D01*
X182515000Y-73244967D01*
X182515000Y-73567033D01*
X182577832Y-73882912D01*
X182701082Y-74180463D01*
X182880013Y-74448252D01*
X183107748Y-74675987D01*
X183375537Y-74854918D01*
X183390000Y-74860909D01*
X183390001Y-78451091D01*
X183375537Y-78457082D01*
X183107748Y-78636013D01*
X182880013Y-78863748D01*
X182701082Y-79131537D01*
X182577832Y-79429088D01*
X182515000Y-79744967D01*
X182515000Y-80067033D01*
X182577832Y-80382912D01*
X182583823Y-80397375D01*
X181445199Y-81536000D01*
X179798044Y-81536000D01*
X180031675Y-81503961D01*
X180336088Y-81398795D01*
X180510044Y-81305814D01*
X180605808Y-81041413D01*
X179650000Y-80085605D01*
X178694192Y-81041413D01*
X178789956Y-81305814D01*
X179079571Y-81446704D01*
X179391108Y-81528384D01*
X179517747Y-81536000D01*
X177837323Y-81536000D01*
X177800000Y-81532324D01*
X177762677Y-81536000D01*
X177762667Y-81536000D01*
X177651014Y-81546997D01*
X177507753Y-81590454D01*
X177375723Y-81661026D01*
X177292083Y-81729668D01*
X177259999Y-81755999D01*
X177236201Y-81784997D01*
X175043571Y-83977628D01*
X174889592Y-83947000D01*
X174614408Y-83947000D01*
X174344510Y-84000686D01*
X174090273Y-84105995D01*
X173861465Y-84258880D01*
X173666880Y-84453465D01*
X173513995Y-84682273D01*
X173408686Y-84936510D01*
X173355000Y-85206408D01*
X173355000Y-85481592D01*
X173408686Y-85751490D01*
X173513995Y-86005727D01*
X173666880Y-86234535D01*
X173861465Y-86429120D01*
X174090273Y-86582005D01*
X174167515Y-86614000D01*
X174090273Y-86645995D01*
X173861465Y-86798880D01*
X173666880Y-86993465D01*
X173513995Y-87222273D01*
X173408686Y-87476510D01*
X173355000Y-87746408D01*
X173355000Y-88021592D01*
X173385628Y-88175571D01*
X173153997Y-88407202D01*
X173124999Y-88431000D01*
X173101201Y-88459998D01*
X173101200Y-88459999D01*
X173101000Y-88460243D01*
X173101000Y-71628000D01*
X173609000Y-71628000D01*
X173609000Y-82550000D01*
X173611440Y-82574776D01*
X173618667Y-82598601D01*
X173630403Y-82620557D01*
X173646197Y-82639803D01*
X173665443Y-82655597D01*
X173687399Y-82667333D01*
X173711224Y-82674560D01*
X173736000Y-82677000D01*
X176022000Y-82677000D01*
X176050557Y-82673748D01*
X176074150Y-82665799D01*
X176095740Y-82653400D01*
X176114495Y-82637027D01*
X176129696Y-82617310D01*
X177399696Y-80585310D01*
X177409333Y-80566601D01*
X177416560Y-80542776D01*
X177419000Y-80518000D01*
X177419000Y-79968595D01*
X178008282Y-79968595D01*
X178052039Y-80287675D01*
X178157205Y-80592088D01*
X178250186Y-80766044D01*
X178514587Y-80861808D01*
X179470395Y-79906000D01*
X179829605Y-79906000D01*
X180785413Y-80861808D01*
X181049814Y-80766044D01*
X181190704Y-80476429D01*
X181272384Y-80164892D01*
X181291718Y-79843405D01*
X181247961Y-79524325D01*
X181142795Y-79219912D01*
X181049814Y-79045956D01*
X180785413Y-78950192D01*
X179829605Y-79906000D01*
X179470395Y-79906000D01*
X178514587Y-78950192D01*
X178250186Y-79045956D01*
X178109296Y-79335571D01*
X178027616Y-79647108D01*
X178008282Y-79968595D01*
X177419000Y-79968595D01*
X177419000Y-78770587D01*
X178694192Y-78770587D01*
X179650000Y-79726395D01*
X180605808Y-78770587D01*
X180510044Y-78506186D01*
X180220429Y-78365296D01*
X179908892Y-78283616D01*
X179587405Y-78264282D01*
X179268325Y-78308039D01*
X178963912Y-78413205D01*
X178789956Y-78506186D01*
X178694192Y-78770587D01*
X177419000Y-78770587D01*
X177419000Y-74541413D01*
X178694192Y-74541413D01*
X178789956Y-74805814D01*
X179079571Y-74946704D01*
X179391108Y-75028384D01*
X179712595Y-75047718D01*
X180031675Y-75003961D01*
X180336088Y-74898795D01*
X180510044Y-74805814D01*
X180605808Y-74541413D01*
X179650000Y-73585605D01*
X178694192Y-74541413D01*
X177419000Y-74541413D01*
X177419000Y-73468595D01*
X178008282Y-73468595D01*
X178052039Y-73787675D01*
X178157205Y-74092088D01*
X178250186Y-74266044D01*
X178514587Y-74361808D01*
X179470395Y-73406000D01*
X179829605Y-73406000D01*
X180785413Y-74361808D01*
X181049814Y-74266044D01*
X181190704Y-73976429D01*
X181272384Y-73664892D01*
X181291718Y-73343405D01*
X181247961Y-73024325D01*
X181142795Y-72719912D01*
X181049814Y-72545956D01*
X180785413Y-72450192D01*
X179829605Y-73406000D01*
X179470395Y-73406000D01*
X178514587Y-72450192D01*
X178250186Y-72545956D01*
X178109296Y-72835571D01*
X178027616Y-73147108D01*
X178008282Y-73468595D01*
X177419000Y-73468595D01*
X177419000Y-72270587D01*
X178694192Y-72270587D01*
X179650000Y-73226395D01*
X180605808Y-72270587D01*
X180510044Y-72006186D01*
X180220429Y-71865296D01*
X179908892Y-71783616D01*
X179587405Y-71764282D01*
X179268325Y-71808039D01*
X178963912Y-71913205D01*
X178789956Y-72006186D01*
X178694192Y-72270587D01*
X177419000Y-72270587D01*
X177419000Y-71628000D01*
X177416560Y-71603224D01*
X177409333Y-71579399D01*
X177397597Y-71557443D01*
X177381803Y-71538197D01*
X177362557Y-71522403D01*
X177340601Y-71510667D01*
X177316776Y-71503440D01*
X177292000Y-71501000D01*
X173736000Y-71501000D01*
X173711224Y-71503440D01*
X173687399Y-71510667D01*
X173665443Y-71522403D01*
X173646197Y-71538197D01*
X173630403Y-71557443D01*
X173618667Y-71579399D01*
X173611440Y-71603224D01*
X173609000Y-71628000D01*
X173101000Y-71628000D01*
X173101000Y-71272000D01*
X186792000Y-71272000D01*
X186792001Y-105004000D01*
G37*
X186792001Y-105004000D02*
X173380000Y-105004000D01*
X173380000Y-103901413D01*
X178694192Y-103901413D01*
X178789956Y-104165814D01*
X179079571Y-104306704D01*
X179391108Y-104388384D01*
X179712595Y-104407718D01*
X180031675Y-104363961D01*
X180336088Y-104258795D01*
X180510044Y-104165814D01*
X180605808Y-103901413D01*
X179650000Y-102945605D01*
X178694192Y-103901413D01*
X173380000Y-103901413D01*
X173380000Y-102828595D01*
X178008282Y-102828595D01*
X178052039Y-103147675D01*
X178157205Y-103452088D01*
X178250186Y-103626044D01*
X178514587Y-103721808D01*
X179470395Y-102766000D01*
X179829605Y-102766000D01*
X180785413Y-103721808D01*
X181049814Y-103626044D01*
X181190704Y-103336429D01*
X181272384Y-103024892D01*
X181291718Y-102703405D01*
X181247961Y-102384325D01*
X181142795Y-102079912D01*
X181049814Y-101905956D01*
X180785413Y-101810192D01*
X179829605Y-102766000D01*
X179470395Y-102766000D01*
X178514587Y-101810192D01*
X178250186Y-101905956D01*
X178109296Y-102195571D01*
X178027616Y-102507108D01*
X178008282Y-102828595D01*
X173380000Y-102828595D01*
X173380000Y-101630587D01*
X178694192Y-101630587D01*
X179650000Y-102586395D01*
X180605808Y-101630587D01*
X180510044Y-101366186D01*
X180220429Y-101225296D01*
X179908892Y-101143616D01*
X179587405Y-101124282D01*
X179268325Y-101168039D01*
X178963912Y-101273205D01*
X178789956Y-101366186D01*
X178694192Y-101630587D01*
X173380000Y-101630587D01*
X173380000Y-99854419D01*
X173383193Y-99822000D01*
X173370450Y-99692617D01*
X173332710Y-99568207D01*
X173271425Y-99453550D01*
X173188948Y-99353052D01*
X173101000Y-99280875D01*
X173101000Y-97401413D01*
X178694192Y-97401413D01*
X178789956Y-97665814D01*
X179079571Y-97806704D01*
X179391108Y-97888384D01*
X179712595Y-97907718D01*
X180031675Y-97863961D01*
X180336088Y-97758795D01*
X180510044Y-97665814D01*
X180605808Y-97401413D01*
X179650000Y-96445605D01*
X178694192Y-97401413D01*
X173101000Y-97401413D01*
X173101000Y-96328595D01*
X178008282Y-96328595D01*
X178052039Y-96647675D01*
X178157205Y-96952088D01*
X178250186Y-97126044D01*
X178514587Y-97221808D01*
X179470395Y-96266000D01*
X178514587Y-95310192D01*
X178250186Y-95405956D01*
X178109296Y-95695571D01*
X178027616Y-96007108D01*
X178008282Y-96328595D01*
X173101000Y-96328595D01*
X173101000Y-93929565D01*
X173966040Y-93929565D01*
X174033020Y-94169656D01*
X174282048Y-94286756D01*
X174549135Y-94353023D01*
X174824017Y-94365910D01*
X175096133Y-94324922D01*
X175355023Y-94231636D01*
X175470980Y-94169656D01*
X175537960Y-93929565D01*
X174752000Y-93143605D01*
X173966040Y-93929565D01*
X173101000Y-93929565D01*
X173101000Y-91456520D01*
X173124998Y-91485762D01*
X173154001Y-91509564D01*
X173666439Y-92022003D01*
X173685917Y-92045737D01*
X173670023Y-92061631D01*
X173786433Y-92178041D01*
X173546344Y-92245020D01*
X173429244Y-92494048D01*
X173362977Y-92761135D01*
X173350090Y-93036017D01*
X173391078Y-93308133D01*
X173484364Y-93567023D01*
X173546344Y-93682980D01*
X173786435Y-93749960D01*
X174572395Y-92964000D01*
X174558253Y-92949858D01*
X174737858Y-92770253D01*
X174752000Y-92784395D01*
X174766143Y-92770253D01*
X174945748Y-92949858D01*
X174931605Y-92964000D01*
X175717565Y-93749960D01*
X175957656Y-93682980D01*
X176074756Y-93433952D01*
X176141023Y-93166865D01*
X176153910Y-92891983D01*
X176112922Y-92619867D01*
X176019636Y-92360977D01*
X175971543Y-92271001D01*
X176540200Y-92271001D01*
X179022249Y-94753051D01*
X178963912Y-94773205D01*
X178789956Y-94866186D01*
X178694192Y-95130587D01*
X179650000Y-96086395D01*
X179664143Y-96072253D01*
X179843748Y-96251858D01*
X179829605Y-96266000D01*
X180785413Y-97221808D01*
X181049814Y-97126044D01*
X181166842Y-96885479D01*
X181185723Y-96900974D01*
X181281350Y-96952088D01*
X181317753Y-96971546D01*
X181461014Y-97015003D01*
X181572667Y-97026000D01*
X181572676Y-97026000D01*
X181609999Y-97029676D01*
X181647322Y-97026000D01*
X182695091Y-97026000D01*
X182701082Y-97040463D01*
X182880013Y-97308252D01*
X183107748Y-97535987D01*
X183375537Y-97714918D01*
X183390001Y-97720909D01*
X183390000Y-101311091D01*
X183375537Y-101317082D01*
X183107748Y-101496013D01*
X182880013Y-101723748D01*
X182701082Y-101991537D01*
X182577832Y-102289088D01*
X182515000Y-102604967D01*
X182515000Y-102927033D01*
X182577832Y-103242912D01*
X182701082Y-103540463D01*
X182880013Y-103808252D01*
X183107748Y-104035987D01*
X183375537Y-104214918D01*
X183673088Y-104338168D01*
X183988967Y-104401000D01*
X184311033Y-104401000D01*
X184626912Y-104338168D01*
X184924463Y-104214918D01*
X185192252Y-104035987D01*
X185419987Y-103808252D01*
X185598918Y-103540463D01*
X185722168Y-103242912D01*
X185785000Y-102927033D01*
X185785000Y-102604967D01*
X185722168Y-102289088D01*
X185598918Y-101991537D01*
X185419987Y-101723748D01*
X185192252Y-101496013D01*
X184924463Y-101317082D01*
X184910000Y-101311091D01*
X184910000Y-97720909D01*
X184924463Y-97714918D01*
X185192252Y-97535987D01*
X185419987Y-97308252D01*
X185598918Y-97040463D01*
X185722168Y-96742912D01*
X185785000Y-96427033D01*
X185785000Y-96104967D01*
X185722168Y-95789088D01*
X185598918Y-95491537D01*
X185419987Y-95223748D01*
X185192252Y-94996013D01*
X184924463Y-94817082D01*
X184626912Y-94693832D01*
X184311033Y-94631000D01*
X183988967Y-94631000D01*
X183673088Y-94693832D01*
X183375537Y-94817082D01*
X183107748Y-94996013D01*
X182880013Y-95223748D01*
X182701082Y-95491537D01*
X182695091Y-95506000D01*
X181924802Y-95506000D01*
X179372238Y-92953437D01*
X179391108Y-92958384D01*
X179712595Y-92977718D01*
X180031675Y-92933961D01*
X180336088Y-92828795D01*
X180510044Y-92735814D01*
X180605808Y-92471413D01*
X179650000Y-91515605D01*
X179635858Y-91529748D01*
X179456253Y-91350143D01*
X179470395Y-91336000D01*
X179456253Y-91321858D01*
X179635858Y-91142253D01*
X179650000Y-91156395D01*
X179664143Y-91142253D01*
X179843748Y-91321858D01*
X179829605Y-91336000D01*
X180785413Y-92291808D01*
X181049814Y-92196044D01*
X181190704Y-91906429D01*
X181272384Y-91594892D01*
X181291718Y-91273405D01*
X181247961Y-90954325D01*
X181142795Y-90649912D01*
X181049814Y-90475956D01*
X180900846Y-90422001D01*
X182161200Y-90422001D01*
X182583823Y-90844624D01*
X182577832Y-90859088D01*
X182515000Y-91174967D01*
X182515000Y-91497033D01*
X182577832Y-91812912D01*
X182701082Y-92110463D01*
X182880013Y-92378252D01*
X183107748Y-92605987D01*
X183375537Y-92784918D01*
X183673088Y-92908168D01*
X183988967Y-92971000D01*
X184311033Y-92971000D01*
X184626912Y-92908168D01*
X184924463Y-92784918D01*
X185192252Y-92605987D01*
X185419987Y-92378252D01*
X185598918Y-92110463D01*
X185722168Y-91812912D01*
X185785000Y-91497033D01*
X185785000Y-91174967D01*
X185722168Y-90859088D01*
X185598918Y-90561537D01*
X185419987Y-90293748D01*
X185192252Y-90066013D01*
X184924463Y-89887082D01*
X184910000Y-89881091D01*
X184910000Y-86290909D01*
X184924463Y-86284918D01*
X185192252Y-86105987D01*
X185419987Y-85878252D01*
X185598918Y-85610463D01*
X185722168Y-85312912D01*
X185785000Y-84997033D01*
X185785000Y-84674967D01*
X185722168Y-84359088D01*
X185598918Y-84061537D01*
X185419987Y-83793748D01*
X185192252Y-83566013D01*
X184924463Y-83387082D01*
X184626912Y-83263832D01*
X184311033Y-83201000D01*
X183988967Y-83201000D01*
X183673088Y-83263832D01*
X183375537Y-83387082D01*
X183107748Y-83566013D01*
X182880013Y-83793748D01*
X182701082Y-84061537D01*
X182577832Y-84359088D01*
X182515000Y-84674967D01*
X182515000Y-84997033D01*
X182577832Y-85312912D01*
X182701082Y-85610463D01*
X182880013Y-85878252D01*
X183107748Y-86105987D01*
X183375537Y-86284918D01*
X183390001Y-86290909D01*
X183390000Y-89501199D01*
X183039805Y-89151004D01*
X183016002Y-89122000D01*
X182900277Y-89027027D01*
X182768248Y-88956455D01*
X182624987Y-88912998D01*
X182513334Y-88902001D01*
X182513323Y-88902001D01*
X182476001Y-88898325D01*
X182438679Y-88902001D01*
X175709654Y-88902001D01*
X175837120Y-88774535D01*
X175990005Y-88545727D01*
X176095314Y-88291490D01*
X176149000Y-88021592D01*
X176149000Y-87746408D01*
X176095314Y-87476510D01*
X175990005Y-87222273D01*
X175837120Y-86993465D01*
X175642535Y-86798880D01*
X175413727Y-86645995D01*
X175336485Y-86614000D01*
X175413727Y-86582005D01*
X175642535Y-86429120D01*
X175837120Y-86234535D01*
X175990005Y-86005727D01*
X176004218Y-85971413D01*
X178694192Y-85971413D01*
X178789956Y-86235814D01*
X179079571Y-86376704D01*
X179391108Y-86458384D01*
X179712595Y-86477718D01*
X180031675Y-86433961D01*
X180336088Y-86328795D01*
X180510044Y-86235814D01*
X180605808Y-85971413D01*
X179650000Y-85015605D01*
X178694192Y-85971413D01*
X176004218Y-85971413D01*
X176095314Y-85751490D01*
X176149000Y-85481592D01*
X176149000Y-85206408D01*
X176118372Y-85052429D01*
X176272206Y-84898595D01*
X178008282Y-84898595D01*
X178052039Y-85217675D01*
X178157205Y-85522088D01*
X178250186Y-85696044D01*
X178514587Y-85791808D01*
X179470395Y-84836000D01*
X179829605Y-84836000D01*
X180785413Y-85791808D01*
X181049814Y-85696044D01*
X181190704Y-85406429D01*
X181272384Y-85094892D01*
X181291718Y-84773405D01*
X181247961Y-84454325D01*
X181142795Y-84149912D01*
X181049814Y-83975956D01*
X180785413Y-83880192D01*
X179829605Y-84836000D01*
X179470395Y-84836000D01*
X178514587Y-83880192D01*
X178250186Y-83975956D01*
X178109296Y-84265571D01*
X178027616Y-84577108D01*
X178008282Y-84898595D01*
X176272206Y-84898595D01*
X177470214Y-83700587D01*
X178694192Y-83700587D01*
X179650000Y-84656395D01*
X180605808Y-83700587D01*
X180510044Y-83436186D01*
X180220429Y-83295296D01*
X179908892Y-83213616D01*
X179587405Y-83194282D01*
X179268325Y-83238039D01*
X178963912Y-83343205D01*
X178789956Y-83436186D01*
X178694192Y-83700587D01*
X177470214Y-83700587D01*
X178114802Y-83056000D01*
X181722678Y-83056000D01*
X181760000Y-83059676D01*
X181797322Y-83056000D01*
X181797333Y-83056000D01*
X181908986Y-83045003D01*
X182052247Y-83001546D01*
X182184276Y-82930974D01*
X182300001Y-82836001D01*
X182323804Y-82806997D01*
X183658625Y-81472177D01*
X183673088Y-81478168D01*
X183988967Y-81541000D01*
X184311033Y-81541000D01*
X184626912Y-81478168D01*
X184924463Y-81354918D01*
X185192252Y-81175987D01*
X185419987Y-80948252D01*
X185598918Y-80680463D01*
X185722168Y-80382912D01*
X185785000Y-80067033D01*
X185785000Y-79744967D01*
X185722168Y-79429088D01*
X185598918Y-79131537D01*
X185419987Y-78863748D01*
X185192252Y-78636013D01*
X184924463Y-78457082D01*
X184910000Y-78451091D01*
X184910000Y-74860909D01*
X184924463Y-74854918D01*
X185192252Y-74675987D01*
X185419987Y-74448252D01*
X185598918Y-74180463D01*
X185722168Y-73882912D01*
X185785000Y-73567033D01*
X185785000Y-73244967D01*
X185722168Y-72929088D01*
X185598918Y-72631537D01*
X185419987Y-72363748D01*
X185192252Y-72136013D01*
X184924463Y-71957082D01*
X184626912Y-71833832D01*
X184311033Y-71771000D01*
X183988967Y-71771000D01*
X183673088Y-71833832D01*
X183375537Y-71957082D01*
X183107748Y-72136013D01*
X182880013Y-72363748D01*
X182701082Y-72631537D01*
X182577832Y-72929088D01*
X182515000Y-73244967D01*
X182515000Y-73567033D01*
X182577832Y-73882912D01*
X182701082Y-74180463D01*
X182880013Y-74448252D01*
X183107748Y-74675987D01*
X183375537Y-74854918D01*
X183390000Y-74860909D01*
X183390001Y-78451091D01*
X183375537Y-78457082D01*
X183107748Y-78636013D01*
X182880013Y-78863748D01*
X182701082Y-79131537D01*
X182577832Y-79429088D01*
X182515000Y-79744967D01*
X182515000Y-80067033D01*
X182577832Y-80382912D01*
X182583823Y-80397375D01*
X181445199Y-81536000D01*
X179798044Y-81536000D01*
X180031675Y-81503961D01*
X180336088Y-81398795D01*
X180510044Y-81305814D01*
X180605808Y-81041413D01*
X179650000Y-80085605D01*
X178694192Y-81041413D01*
X178789956Y-81305814D01*
X179079571Y-81446704D01*
X179391108Y-81528384D01*
X179517747Y-81536000D01*
X177837323Y-81536000D01*
X177800000Y-81532324D01*
X177762677Y-81536000D01*
X177762667Y-81536000D01*
X177651014Y-81546997D01*
X177507753Y-81590454D01*
X177375723Y-81661026D01*
X177292083Y-81729668D01*
X177259999Y-81755999D01*
X177236201Y-81784997D01*
X175043571Y-83977628D01*
X174889592Y-83947000D01*
X174614408Y-83947000D01*
X174344510Y-84000686D01*
X174090273Y-84105995D01*
X173861465Y-84258880D01*
X173666880Y-84453465D01*
X173513995Y-84682273D01*
X173408686Y-84936510D01*
X173355000Y-85206408D01*
X173355000Y-85481592D01*
X173408686Y-85751490D01*
X173513995Y-86005727D01*
X173666880Y-86234535D01*
X173861465Y-86429120D01*
X174090273Y-86582005D01*
X174167515Y-86614000D01*
X174090273Y-86645995D01*
X173861465Y-86798880D01*
X173666880Y-86993465D01*
X173513995Y-87222273D01*
X173408686Y-87476510D01*
X173355000Y-87746408D01*
X173355000Y-88021592D01*
X173385628Y-88175571D01*
X173153997Y-88407202D01*
X173124999Y-88431000D01*
X173101201Y-88459998D01*
X173101200Y-88459999D01*
X173101000Y-88460243D01*
X173101000Y-71628000D01*
X173609000Y-71628000D01*
X173609000Y-82550000D01*
X173611440Y-82574776D01*
X173618667Y-82598601D01*
X173630403Y-82620557D01*
X173646197Y-82639803D01*
X173665443Y-82655597D01*
X173687399Y-82667333D01*
X173711224Y-82674560D01*
X173736000Y-82677000D01*
X176022000Y-82677000D01*
X176050557Y-82673748D01*
X176074150Y-82665799D01*
X176095740Y-82653400D01*
X176114495Y-82637027D01*
X176129696Y-82617310D01*
X177399696Y-80585310D01*
X177409333Y-80566601D01*
X177416560Y-80542776D01*
X177419000Y-80518000D01*
X177419000Y-79968595D01*
X178008282Y-79968595D01*
X178052039Y-80287675D01*
X178157205Y-80592088D01*
X178250186Y-80766044D01*
X178514587Y-80861808D01*
X179470395Y-79906000D01*
X179829605Y-79906000D01*
X180785413Y-80861808D01*
X181049814Y-80766044D01*
X181190704Y-80476429D01*
X181272384Y-80164892D01*
X181291718Y-79843405D01*
X181247961Y-79524325D01*
X181142795Y-79219912D01*
X181049814Y-79045956D01*
X180785413Y-78950192D01*
X179829605Y-79906000D01*
X179470395Y-79906000D01*
X178514587Y-78950192D01*
X178250186Y-79045956D01*
X178109296Y-79335571D01*
X178027616Y-79647108D01*
X178008282Y-79968595D01*
X177419000Y-79968595D01*
X177419000Y-78770587D01*
X178694192Y-78770587D01*
X179650000Y-79726395D01*
X180605808Y-78770587D01*
X180510044Y-78506186D01*
X180220429Y-78365296D01*
X179908892Y-78283616D01*
X179587405Y-78264282D01*
X179268325Y-78308039D01*
X178963912Y-78413205D01*
X178789956Y-78506186D01*
X178694192Y-78770587D01*
X177419000Y-78770587D01*
X177419000Y-74541413D01*
X178694192Y-74541413D01*
X178789956Y-74805814D01*
X179079571Y-74946704D01*
X179391108Y-75028384D01*
X179712595Y-75047718D01*
X180031675Y-75003961D01*
X180336088Y-74898795D01*
X180510044Y-74805814D01*
X180605808Y-74541413D01*
X179650000Y-73585605D01*
X178694192Y-74541413D01*
X177419000Y-74541413D01*
X177419000Y-73468595D01*
X178008282Y-73468595D01*
X178052039Y-73787675D01*
X178157205Y-74092088D01*
X178250186Y-74266044D01*
X178514587Y-74361808D01*
X179470395Y-73406000D01*
X179829605Y-73406000D01*
X180785413Y-74361808D01*
X181049814Y-74266044D01*
X181190704Y-73976429D01*
X181272384Y-73664892D01*
X181291718Y-73343405D01*
X181247961Y-73024325D01*
X181142795Y-72719912D01*
X181049814Y-72545956D01*
X180785413Y-72450192D01*
X179829605Y-73406000D01*
X179470395Y-73406000D01*
X178514587Y-72450192D01*
X178250186Y-72545956D01*
X178109296Y-72835571D01*
X178027616Y-73147108D01*
X178008282Y-73468595D01*
X177419000Y-73468595D01*
X177419000Y-72270587D01*
X178694192Y-72270587D01*
X179650000Y-73226395D01*
X180605808Y-72270587D01*
X180510044Y-72006186D01*
X180220429Y-71865296D01*
X179908892Y-71783616D01*
X179587405Y-71764282D01*
X179268325Y-71808039D01*
X178963912Y-71913205D01*
X178789956Y-72006186D01*
X178694192Y-72270587D01*
X177419000Y-72270587D01*
X177419000Y-71628000D01*
X177416560Y-71603224D01*
X177409333Y-71579399D01*
X177397597Y-71557443D01*
X177381803Y-71538197D01*
X177362557Y-71522403D01*
X177340601Y-71510667D01*
X177316776Y-71503440D01*
X177292000Y-71501000D01*
X173736000Y-71501000D01*
X173711224Y-71503440D01*
X173687399Y-71510667D01*
X173665443Y-71522403D01*
X173646197Y-71538197D01*
X173630403Y-71557443D01*
X173618667Y-71579399D01*
X173611440Y-71603224D01*
X173609000Y-71628000D01*
X173101000Y-71628000D01*
X173101000Y-71272000D01*
X186792000Y-71272000D01*
X186792001Y-105004000D01*
%TO.N,GND*%
G36*
X170561000Y-99146195D02*
G01*
X170467647Y-99137000D01*
X168637801Y-99137000D01*
X169167004Y-98607798D01*
X169196001Y-98584001D01*
X169248526Y-98519999D01*
X169290974Y-98468277D01*
X169361546Y-98336247D01*
X169382853Y-98266005D01*
X169405003Y-98192986D01*
X169416000Y-98081333D01*
X169416000Y-98081323D01*
X169419676Y-98044000D01*
X169416000Y-98006678D01*
X169416000Y-77761323D01*
X169419676Y-77724000D01*
X169416000Y-77686677D01*
X169416000Y-77686667D01*
X169405003Y-77575014D01*
X169361546Y-77431753D01*
X169314205Y-77343185D01*
X169290974Y-77299723D01*
X169219799Y-77212997D01*
X169196001Y-77183999D01*
X169167003Y-77160201D01*
X168462072Y-76455270D01*
X168462072Y-74492000D01*
X168449812Y-74367518D01*
X168413502Y-74247820D01*
X168354537Y-74137506D01*
X168275185Y-74040815D01*
X168178494Y-73961463D01*
X168068180Y-73902498D01*
X167948482Y-73866188D01*
X167824000Y-73853928D01*
X165424000Y-73853928D01*
X165299518Y-73866188D01*
X165179820Y-73902498D01*
X165069506Y-73961463D01*
X164972815Y-74040815D01*
X164893463Y-74137506D01*
X164834498Y-74247820D01*
X164798188Y-74367518D01*
X164785928Y-74492000D01*
X164785928Y-76892000D01*
X164798188Y-77016482D01*
X164834498Y-77136180D01*
X164893463Y-77246494D01*
X164972815Y-77343185D01*
X165069506Y-77422537D01*
X165179820Y-77481502D01*
X165299518Y-77517812D01*
X165424000Y-77530072D01*
X167387270Y-77530072D01*
X167896001Y-78038803D01*
X167896001Y-81716346D01*
X167862005Y-81634273D01*
X167709120Y-81405465D01*
X167514535Y-81210880D01*
X167285727Y-81057995D01*
X167031490Y-80952686D01*
X166761592Y-80899000D01*
X166486408Y-80899000D01*
X166332430Y-80929628D01*
X163829001Y-78426200D01*
X163829001Y-74997321D01*
X163832677Y-74959998D01*
X163829001Y-74922675D01*
X163829001Y-74922666D01*
X163818004Y-74811013D01*
X163774547Y-74667752D01*
X163703975Y-74535723D01*
X163609002Y-74419998D01*
X163580003Y-74396200D01*
X162839804Y-73656001D01*
X162816002Y-73626998D01*
X162700277Y-73532025D01*
X162568248Y-73461453D01*
X162424987Y-73417996D01*
X162313334Y-73406999D01*
X162313323Y-73406999D01*
X162276001Y-73403323D01*
X162238679Y-73406999D01*
X160849321Y-73406999D01*
X160811998Y-73403323D01*
X160774675Y-73406999D01*
X160774666Y-73406999D01*
X160663013Y-73417996D01*
X160519752Y-73461453D01*
X160387723Y-73532025D01*
X160387721Y-73532026D01*
X160387722Y-73532026D01*
X160300995Y-73603200D01*
X160300991Y-73603204D01*
X160271998Y-73626998D01*
X160248204Y-73655991D01*
X155954000Y-77950197D01*
X155954000Y-76910043D01*
X156108759Y-76806637D01*
X156308637Y-76606759D01*
X156465680Y-76371727D01*
X156573853Y-76110574D01*
X156629000Y-75833335D01*
X156629000Y-75550665D01*
X156573853Y-75273426D01*
X156465680Y-75012273D01*
X156308637Y-74777241D01*
X156108759Y-74577363D01*
X155873727Y-74420320D01*
X155612574Y-74312147D01*
X155335335Y-74257000D01*
X155052665Y-74257000D01*
X154775426Y-74312147D01*
X154514273Y-74420320D01*
X154279241Y-74577363D01*
X154079363Y-74777241D01*
X153922320Y-75012273D01*
X153814147Y-75273426D01*
X153759000Y-75550665D01*
X153759000Y-75833335D01*
X153814147Y-76110574D01*
X153922320Y-76371727D01*
X154079363Y-76606759D01*
X154279241Y-76806637D01*
X154434000Y-76910044D01*
X154434001Y-79187196D01*
X153058608Y-80562590D01*
X152946531Y-80528592D01*
X152654000Y-80499780D01*
X152361468Y-80528592D01*
X152080178Y-80613920D01*
X151820939Y-80752486D01*
X151762642Y-80800330D01*
X151755787Y-80787506D01*
X151676435Y-80690815D01*
X151579744Y-80611463D01*
X151469430Y-80552498D01*
X151349732Y-80516188D01*
X151225250Y-80503928D01*
X149510750Y-80503928D01*
X149386268Y-80516188D01*
X149266570Y-80552498D01*
X149156256Y-80611463D01*
X149059565Y-80690815D01*
X148980213Y-80787506D01*
X148921248Y-80897820D01*
X148884938Y-81017518D01*
X148872678Y-81142000D01*
X148872678Y-82942000D01*
X148884938Y-83066482D01*
X148921248Y-83186180D01*
X148924996Y-83193193D01*
X146137805Y-80406002D01*
X146114002Y-80376998D01*
X145998277Y-80282025D01*
X145866248Y-80211453D01*
X145722987Y-80167996D01*
X145611334Y-80156999D01*
X145611323Y-80156999D01*
X145574001Y-80153323D01*
X145536679Y-80156999D01*
X144531322Y-80156999D01*
X144493999Y-80153323D01*
X144456676Y-80156999D01*
X144456666Y-80156999D01*
X144345013Y-80167996D01*
X144214632Y-80207546D01*
X144201752Y-80211453D01*
X144069722Y-80282025D01*
X143986082Y-80350667D01*
X143953998Y-80376998D01*
X143930199Y-80405997D01*
X143408796Y-80927400D01*
X143408759Y-80927363D01*
X143173727Y-80770320D01*
X142912574Y-80662147D01*
X142635335Y-80607000D01*
X142352665Y-80607000D01*
X142075426Y-80662147D01*
X141814273Y-80770320D01*
X141579241Y-80927363D01*
X141379363Y-81127241D01*
X141224000Y-81359759D01*
X141068637Y-81127241D01*
X140868759Y-80927363D01*
X140633727Y-80770320D01*
X140372574Y-80662147D01*
X140095335Y-80607000D01*
X139812665Y-80607000D01*
X139535426Y-80662147D01*
X139274273Y-80770320D01*
X139039241Y-80927363D01*
X138839363Y-81127241D01*
X138684000Y-81359759D01*
X138528637Y-81127241D01*
X138328759Y-80927363D01*
X138093727Y-80770320D01*
X137832574Y-80662147D01*
X137555335Y-80607000D01*
X137272665Y-80607000D01*
X136995426Y-80662147D01*
X136734273Y-80770320D01*
X136499241Y-80927363D01*
X136299363Y-81127241D01*
X136144000Y-81359759D01*
X135988637Y-81127241D01*
X135788759Y-80927363D01*
X135553727Y-80770320D01*
X135292574Y-80662147D01*
X135015335Y-80607000D01*
X134732665Y-80607000D01*
X134455426Y-80662147D01*
X134194273Y-80770320D01*
X133959241Y-80927363D01*
X133759363Y-81127241D01*
X133604000Y-81359759D01*
X133448637Y-81127241D01*
X133248759Y-80927363D01*
X133013727Y-80770320D01*
X132752574Y-80662147D01*
X132475335Y-80607000D01*
X132303801Y-80607000D01*
X136458802Y-76452000D01*
X148895957Y-76452000D01*
X148999363Y-76606759D01*
X149199241Y-76806637D01*
X149434273Y-76963680D01*
X149695426Y-77071853D01*
X149972665Y-77127000D01*
X150255335Y-77127000D01*
X150532574Y-77071853D01*
X150793727Y-76963680D01*
X151028759Y-76806637D01*
X151228637Y-76606759D01*
X151385680Y-76371727D01*
X151493853Y-76110574D01*
X151549000Y-75833335D01*
X151549000Y-75550665D01*
X151493853Y-75273426D01*
X151385680Y-75012273D01*
X151228637Y-74777241D01*
X151028759Y-74577363D01*
X150793727Y-74420320D01*
X150532574Y-74312147D01*
X150255335Y-74257000D01*
X149972665Y-74257000D01*
X149695426Y-74312147D01*
X149434273Y-74420320D01*
X149199241Y-74577363D01*
X148999363Y-74777241D01*
X148895957Y-74932000D01*
X146472072Y-74932000D01*
X146472072Y-73622000D01*
X146459812Y-73497518D01*
X146423502Y-73377820D01*
X146364537Y-73267506D01*
X146285185Y-73170815D01*
X146188494Y-73091463D01*
X146078180Y-73032498D01*
X145958482Y-72996188D01*
X145834000Y-72983928D01*
X144234000Y-72983928D01*
X144109518Y-72996188D01*
X143989820Y-73032498D01*
X143879506Y-73091463D01*
X143782815Y-73170815D01*
X143703463Y-73267506D01*
X143644498Y-73377820D01*
X143608188Y-73497518D01*
X143607357Y-73505961D01*
X143408759Y-73307363D01*
X143173727Y-73150320D01*
X142912574Y-73042147D01*
X142635335Y-72987000D01*
X142352665Y-72987000D01*
X142075426Y-73042147D01*
X141814273Y-73150320D01*
X141579241Y-73307363D01*
X141379363Y-73507241D01*
X141224000Y-73739759D01*
X141068637Y-73507241D01*
X140868759Y-73307363D01*
X140633727Y-73150320D01*
X140372574Y-73042147D01*
X140095335Y-72987000D01*
X139812665Y-72987000D01*
X139535426Y-73042147D01*
X139274273Y-73150320D01*
X139039241Y-73307363D01*
X138839363Y-73507241D01*
X138684000Y-73739759D01*
X138528637Y-73507241D01*
X138328759Y-73307363D01*
X138093727Y-73150320D01*
X137832574Y-73042147D01*
X137555335Y-72987000D01*
X137272665Y-72987000D01*
X136995426Y-73042147D01*
X136734273Y-73150320D01*
X136499241Y-73307363D01*
X136299363Y-73507241D01*
X136144000Y-73739759D01*
X135988637Y-73507241D01*
X135788759Y-73307363D01*
X135553727Y-73150320D01*
X135292574Y-73042147D01*
X135015335Y-72987000D01*
X134732665Y-72987000D01*
X134455426Y-73042147D01*
X134194273Y-73150320D01*
X133959241Y-73307363D01*
X133759363Y-73507241D01*
X133604000Y-73739759D01*
X133448637Y-73507241D01*
X133248759Y-73307363D01*
X133013727Y-73150320D01*
X132752574Y-73042147D01*
X132475335Y-72987000D01*
X132192665Y-72987000D01*
X131915426Y-73042147D01*
X131654273Y-73150320D01*
X131419241Y-73307363D01*
X131219363Y-73507241D01*
X131064000Y-73739759D01*
X130908637Y-73507241D01*
X130708759Y-73307363D01*
X130473727Y-73150320D01*
X130212574Y-73042147D01*
X129935335Y-72987000D01*
X129652665Y-72987000D01*
X129375426Y-73042147D01*
X129114273Y-73150320D01*
X128879241Y-73307363D01*
X128679363Y-73507241D01*
X128524000Y-73739759D01*
X128368637Y-73507241D01*
X128168759Y-73307363D01*
X127933727Y-73150320D01*
X127672574Y-73042147D01*
X127395335Y-72987000D01*
X127112665Y-72987000D01*
X126835426Y-73042147D01*
X126574273Y-73150320D01*
X126339241Y-73307363D01*
X126139363Y-73507241D01*
X125984000Y-73739759D01*
X125828637Y-73507241D01*
X125628759Y-73307363D01*
X125393727Y-73150320D01*
X125132574Y-73042147D01*
X124855335Y-72987000D01*
X124572665Y-72987000D01*
X124295426Y-73042147D01*
X124034273Y-73150320D01*
X123799241Y-73307363D01*
X123599363Y-73507241D01*
X123442320Y-73742273D01*
X123437933Y-73752865D01*
X123326385Y-73566869D01*
X123137414Y-73358481D01*
X122911420Y-73190963D01*
X122657087Y-73070754D01*
X122523039Y-73030096D01*
X122301000Y-73152085D01*
X122301000Y-74295000D01*
X122321000Y-74295000D01*
X122321000Y-74549000D01*
X122301000Y-74549000D01*
X122301000Y-75691915D01*
X122523039Y-75813904D01*
X122657087Y-75773246D01*
X122911420Y-75653037D01*
X123137414Y-75485519D01*
X123326385Y-75277131D01*
X123437933Y-75091135D01*
X123442320Y-75101727D01*
X123599363Y-75336759D01*
X123799241Y-75536637D01*
X124034273Y-75693680D01*
X124295426Y-75801853D01*
X124572665Y-75857000D01*
X124855335Y-75857000D01*
X125132574Y-75801853D01*
X125393727Y-75693680D01*
X125628759Y-75536637D01*
X125828637Y-75336759D01*
X125984000Y-75104241D01*
X126139363Y-75336759D01*
X126339241Y-75536637D01*
X126574273Y-75693680D01*
X126835426Y-75801853D01*
X127112665Y-75857000D01*
X127395335Y-75857000D01*
X127672574Y-75801853D01*
X127933727Y-75693680D01*
X128168759Y-75536637D01*
X128368637Y-75336759D01*
X128524000Y-75104241D01*
X128679363Y-75336759D01*
X128879241Y-75536637D01*
X129114273Y-75693680D01*
X129375426Y-75801853D01*
X129652665Y-75857000D01*
X129935335Y-75857000D01*
X130212574Y-75801853D01*
X130473727Y-75693680D01*
X130708759Y-75536637D01*
X130908637Y-75336759D01*
X131064000Y-75104241D01*
X131219363Y-75336759D01*
X131419241Y-75536637D01*
X131654273Y-75693680D01*
X131915426Y-75801853D01*
X132192665Y-75857000D01*
X132475335Y-75857000D01*
X132752574Y-75801853D01*
X133013727Y-75693680D01*
X133248759Y-75536637D01*
X133448637Y-75336759D01*
X133604000Y-75104241D01*
X133759363Y-75336759D01*
X133959241Y-75536637D01*
X134194273Y-75693680D01*
X134455426Y-75801853D01*
X134732665Y-75857000D01*
X134904198Y-75857000D01*
X130117887Y-80643312D01*
X129935335Y-80607000D01*
X129652665Y-80607000D01*
X129375426Y-80662147D01*
X129114273Y-80770320D01*
X128879241Y-80927363D01*
X128679363Y-81127241D01*
X128524000Y-81359759D01*
X128368637Y-81127241D01*
X128168759Y-80927363D01*
X127933727Y-80770320D01*
X127672574Y-80662147D01*
X127395335Y-80607000D01*
X127112665Y-80607000D01*
X126835426Y-80662147D01*
X126574273Y-80770320D01*
X126339241Y-80927363D01*
X126139363Y-81127241D01*
X125984000Y-81359759D01*
X125828637Y-81127241D01*
X125628759Y-80927363D01*
X125393727Y-80770320D01*
X125132574Y-80662147D01*
X124855335Y-80607000D01*
X124572665Y-80607000D01*
X124295426Y-80662147D01*
X124034273Y-80770320D01*
X123799241Y-80927363D01*
X123599363Y-81127241D01*
X123444000Y-81359759D01*
X123288637Y-81127241D01*
X123088759Y-80927363D01*
X122853727Y-80770320D01*
X122592574Y-80662147D01*
X122315335Y-80607000D01*
X122032665Y-80607000D01*
X121755426Y-80662147D01*
X121494273Y-80770320D01*
X121259241Y-80927363D01*
X121059363Y-81127241D01*
X120902320Y-81362273D01*
X120794147Y-81623426D01*
X120739000Y-81900665D01*
X120739000Y-82183335D01*
X120794147Y-82460574D01*
X120902320Y-82721727D01*
X121059363Y-82956759D01*
X121259241Y-83156637D01*
X121494273Y-83313680D01*
X121755426Y-83421853D01*
X122032665Y-83477000D01*
X122315335Y-83477000D01*
X122592574Y-83421853D01*
X122853727Y-83313680D01*
X123088759Y-83156637D01*
X123288637Y-82956759D01*
X123444000Y-82724241D01*
X123599363Y-82956759D01*
X123799241Y-83156637D01*
X124034273Y-83313680D01*
X124295426Y-83421853D01*
X124572665Y-83477000D01*
X124855335Y-83477000D01*
X125037886Y-83440688D01*
X125275202Y-83678004D01*
X125299000Y-83707002D01*
X125414725Y-83801975D01*
X125546754Y-83872547D01*
X125690015Y-83916004D01*
X125801668Y-83927001D01*
X125801676Y-83927001D01*
X125839001Y-83930677D01*
X125876326Y-83927001D01*
X142996679Y-83927001D01*
X143034001Y-83930677D01*
X143071323Y-83927001D01*
X143071334Y-83927001D01*
X143182987Y-83916004D01*
X143326248Y-83872547D01*
X143458277Y-83801975D01*
X143574002Y-83707002D01*
X143597804Y-83677999D01*
X144119204Y-83156600D01*
X144119241Y-83156637D01*
X144274000Y-83260044D01*
X144274001Y-89624668D01*
X144270324Y-89662000D01*
X144274001Y-89699333D01*
X144284657Y-89807518D01*
X144284998Y-89810985D01*
X144328454Y-89954246D01*
X144399026Y-90086276D01*
X144457509Y-90157537D01*
X144494000Y-90202001D01*
X144522998Y-90225799D01*
X144665928Y-90368729D01*
X144665928Y-91932000D01*
X144678188Y-92056482D01*
X144714498Y-92176180D01*
X144773463Y-92286494D01*
X144852815Y-92383185D01*
X144949506Y-92462537D01*
X145059820Y-92521502D01*
X145179518Y-92557812D01*
X145304000Y-92570072D01*
X147304000Y-92570072D01*
X147428482Y-92557812D01*
X147548180Y-92521502D01*
X147658494Y-92462537D01*
X147755185Y-92383185D01*
X147834537Y-92286494D01*
X147893502Y-92176180D01*
X147929812Y-92056482D01*
X147942072Y-91932000D01*
X147942072Y-90770967D01*
X152269000Y-90770967D01*
X152269000Y-91093033D01*
X152331832Y-91408912D01*
X152455082Y-91706463D01*
X152634013Y-91974252D01*
X152861748Y-92201987D01*
X153129537Y-92380918D01*
X153427088Y-92504168D01*
X153742967Y-92567000D01*
X154065033Y-92567000D01*
X154380912Y-92504168D01*
X154678463Y-92380918D01*
X154946252Y-92201987D01*
X155173987Y-91974252D01*
X155352918Y-91706463D01*
X155476168Y-91408912D01*
X155539000Y-91093033D01*
X155539000Y-90770967D01*
X155476168Y-90455088D01*
X155352918Y-90157537D01*
X155173987Y-89889748D01*
X154946252Y-89662013D01*
X154678463Y-89483082D01*
X154380912Y-89359832D01*
X154065033Y-89297000D01*
X153742967Y-89297000D01*
X153427088Y-89359832D01*
X153129537Y-89483082D01*
X152861748Y-89662013D01*
X152634013Y-89889748D01*
X152455082Y-90157537D01*
X152331832Y-90455088D01*
X152269000Y-90770967D01*
X147942072Y-90770967D01*
X147942072Y-89932000D01*
X147929812Y-89807518D01*
X147893502Y-89687820D01*
X147834537Y-89577506D01*
X147755185Y-89480815D01*
X147658494Y-89401463D01*
X147548180Y-89342498D01*
X147428482Y-89306188D01*
X147304000Y-89293928D01*
X145794000Y-89293928D01*
X145794000Y-83260043D01*
X145948759Y-83156637D01*
X146148637Y-82956759D01*
X146304978Y-82722777D01*
X148929203Y-85347003D01*
X148953001Y-85376001D01*
X149068726Y-85470974D01*
X149200755Y-85541546D01*
X149344016Y-85585003D01*
X149455669Y-85596000D01*
X149455678Y-85596000D01*
X149493001Y-85599676D01*
X149530324Y-85596000D01*
X153823396Y-85596000D01*
X153860718Y-85599676D01*
X153898040Y-85596000D01*
X153898051Y-85596000D01*
X154009704Y-85585003D01*
X154152965Y-85541546D01*
X154284994Y-85470974D01*
X154400719Y-85376001D01*
X154424522Y-85346997D01*
X156633263Y-83138257D01*
X156662261Y-83114459D01*
X156757234Y-82998734D01*
X156827806Y-82866705D01*
X156871263Y-82723444D01*
X156882260Y-82611791D01*
X156882260Y-82611782D01*
X156885936Y-82574459D01*
X156882260Y-82537136D01*
X156882260Y-79171539D01*
X159793293Y-76260507D01*
X159824750Y-76336449D01*
X159000002Y-77161197D01*
X158970998Y-77185000D01*
X158920532Y-77246494D01*
X158876025Y-77300725D01*
X158833345Y-77380574D01*
X158805453Y-77432755D01*
X158761996Y-77576016D01*
X158750999Y-77687669D01*
X158750999Y-77687679D01*
X158747323Y-77725001D01*
X158750999Y-77762323D01*
X158751000Y-94957666D01*
X158747323Y-94994999D01*
X158751000Y-95032332D01*
X158761997Y-95143985D01*
X158762301Y-95144986D01*
X158805453Y-95287245D01*
X158876025Y-95419275D01*
X158947200Y-95506001D01*
X158970999Y-95535000D01*
X158999997Y-95558798D01*
X159072199Y-95631000D01*
X158866408Y-95631000D01*
X158596510Y-95684686D01*
X158342273Y-95789995D01*
X158113465Y-95942880D01*
X157918880Y-96137465D01*
X157765995Y-96366273D01*
X157660686Y-96620510D01*
X157607000Y-96890408D01*
X157607000Y-97165592D01*
X157660686Y-97435490D01*
X157765995Y-97689727D01*
X157918880Y-97918535D01*
X158113465Y-98113120D01*
X158342273Y-98266005D01*
X158596510Y-98371314D01*
X158866408Y-98425000D01*
X159141592Y-98425000D01*
X159295570Y-98394372D01*
X160038198Y-99137000D01*
X103809000Y-99137000D01*
X103809000Y-95758000D01*
X105787928Y-95758000D01*
X105800188Y-95882482D01*
X105836498Y-96002180D01*
X105895463Y-96112494D01*
X105974815Y-96209185D01*
X106071506Y-96288537D01*
X106181820Y-96347502D01*
X106301518Y-96383812D01*
X106426000Y-96396072D01*
X106902250Y-96393000D01*
X107061000Y-96234250D01*
X107061000Y-95123000D01*
X105949750Y-95123000D01*
X105791000Y-95281750D01*
X105787928Y-95758000D01*
X103809000Y-95758000D01*
X103809000Y-94234000D01*
X105787928Y-94234000D01*
X105791000Y-94710250D01*
X105949750Y-94869000D01*
X107061000Y-94869000D01*
X107061000Y-93757750D01*
X107315000Y-93757750D01*
X107315000Y-94869000D01*
X107335000Y-94869000D01*
X107335000Y-95123000D01*
X107315000Y-95123000D01*
X107315000Y-96234250D01*
X107473750Y-96393000D01*
X107950000Y-96396072D01*
X108074482Y-96383812D01*
X108194180Y-96347502D01*
X108304494Y-96288537D01*
X108401185Y-96209185D01*
X108480537Y-96112494D01*
X108539502Y-96002180D01*
X108575812Y-95882482D01*
X108584080Y-95798535D01*
X108642880Y-95886535D01*
X108837465Y-96081120D01*
X109066273Y-96234005D01*
X109320510Y-96339314D01*
X109590408Y-96393000D01*
X109865592Y-96393000D01*
X110135490Y-96339314D01*
X110389727Y-96234005D01*
X110618535Y-96081120D01*
X110813120Y-95886535D01*
X110966005Y-95657727D01*
X111071314Y-95403490D01*
X111125000Y-95133592D01*
X111125000Y-95091039D01*
X118242096Y-95091039D01*
X118282754Y-95225087D01*
X118402963Y-95479420D01*
X118570481Y-95705414D01*
X118778869Y-95894385D01*
X119020119Y-96039070D01*
X119284960Y-96133909D01*
X119507000Y-96012624D01*
X119507000Y-94869000D01*
X119761000Y-94869000D01*
X119761000Y-96012624D01*
X119983040Y-96133909D01*
X120247881Y-96039070D01*
X120489131Y-95894385D01*
X120697519Y-95705414D01*
X120865037Y-95479420D01*
X120985246Y-95225087D01*
X121025904Y-95091039D01*
X120903915Y-94869000D01*
X119761000Y-94869000D01*
X119507000Y-94869000D01*
X118364085Y-94869000D01*
X118242096Y-95091039D01*
X111125000Y-95091039D01*
X111125000Y-94858408D01*
X111071314Y-94588510D01*
X110966005Y-94334273D01*
X110813120Y-94105465D01*
X110618535Y-93910880D01*
X110488000Y-93823659D01*
X110488000Y-90820212D01*
X113419000Y-90820212D01*
X113419000Y-91043788D01*
X113462617Y-91263067D01*
X113548176Y-91469624D01*
X113672388Y-91655520D01*
X113830480Y-91813612D01*
X114016376Y-91937824D01*
X114222933Y-92023383D01*
X114442212Y-92067000D01*
X114665788Y-92067000D01*
X114885067Y-92023383D01*
X115091624Y-91937824D01*
X115277520Y-91813612D01*
X115435612Y-91655520D01*
X115559824Y-91469624D01*
X115645383Y-91263067D01*
X115689000Y-91043788D01*
X115689000Y-90820212D01*
X115959000Y-90820212D01*
X115959000Y-91043788D01*
X116002617Y-91263067D01*
X116088176Y-91469624D01*
X116212388Y-91655520D01*
X116370480Y-91813612D01*
X116556376Y-91937824D01*
X116762933Y-92023383D01*
X116982212Y-92067000D01*
X117205788Y-92067000D01*
X117425067Y-92023383D01*
X117631624Y-91937824D01*
X117817520Y-91813612D01*
X117975612Y-91655520D01*
X118099824Y-91469624D01*
X118185383Y-91263067D01*
X118229000Y-91043788D01*
X118229000Y-90820212D01*
X118185383Y-90600933D01*
X118099824Y-90394376D01*
X117975612Y-90208480D01*
X117817520Y-90050388D01*
X117631624Y-89926176D01*
X117425067Y-89840617D01*
X117205788Y-89797000D01*
X116982212Y-89797000D01*
X116762933Y-89840617D01*
X116556376Y-89926176D01*
X116370480Y-90050388D01*
X116212388Y-90208480D01*
X116088176Y-90394376D01*
X116002617Y-90600933D01*
X115959000Y-90820212D01*
X115689000Y-90820212D01*
X115645383Y-90600933D01*
X115559824Y-90394376D01*
X115435612Y-90208480D01*
X115277520Y-90050388D01*
X115091624Y-89926176D01*
X114885067Y-89840617D01*
X114665788Y-89797000D01*
X114442212Y-89797000D01*
X114222933Y-89840617D01*
X114016376Y-89926176D01*
X113830480Y-90050388D01*
X113672388Y-90208480D01*
X113548176Y-90394376D01*
X113462617Y-90600933D01*
X113419000Y-90820212D01*
X110488000Y-90820212D01*
X110488000Y-90505313D01*
X110563314Y-90323490D01*
X110617000Y-90053592D01*
X110617000Y-89778408D01*
X110563314Y-89508510D01*
X110458005Y-89254273D01*
X110305120Y-89025465D01*
X110110535Y-88830880D01*
X110022535Y-88772080D01*
X110106482Y-88763812D01*
X110226180Y-88727502D01*
X110336494Y-88668537D01*
X110433185Y-88589185D01*
X110512537Y-88492494D01*
X110571502Y-88382180D01*
X110607812Y-88262482D01*
X110620072Y-88138000D01*
X110617000Y-87661750D01*
X110458250Y-87503000D01*
X109347000Y-87503000D01*
X109347000Y-87523000D01*
X109093000Y-87523000D01*
X109093000Y-87503000D01*
X107981750Y-87503000D01*
X107823000Y-87661750D01*
X107819928Y-88138000D01*
X107832188Y-88262482D01*
X107868498Y-88382180D01*
X107927463Y-88492494D01*
X108006815Y-88589185D01*
X108103506Y-88668537D01*
X108213820Y-88727502D01*
X108333518Y-88763812D01*
X108417465Y-88772080D01*
X108329465Y-88830880D01*
X108134880Y-89025465D01*
X107981995Y-89254273D01*
X107876686Y-89508510D01*
X107823000Y-89778408D01*
X107823000Y-90053592D01*
X107876686Y-90323490D01*
X107981995Y-90577727D01*
X108134880Y-90806535D01*
X108329465Y-91001120D01*
X108558273Y-91154005D01*
X108812510Y-91259314D01*
X108968001Y-91290243D01*
X108968000Y-93823659D01*
X108837465Y-93910880D01*
X108642880Y-94105465D01*
X108584080Y-94193465D01*
X108575812Y-94109518D01*
X108539502Y-93989820D01*
X108480537Y-93879506D01*
X108401185Y-93782815D01*
X108304494Y-93703463D01*
X108194180Y-93644498D01*
X108074482Y-93608188D01*
X107950000Y-93595928D01*
X107473750Y-93599000D01*
X107315000Y-93757750D01*
X107061000Y-93757750D01*
X106902250Y-93599000D01*
X106426000Y-93595928D01*
X106301518Y-93608188D01*
X106181820Y-93644498D01*
X106071506Y-93703463D01*
X105974815Y-93782815D01*
X105895463Y-93879506D01*
X105836498Y-93989820D01*
X105800188Y-94109518D01*
X105787928Y-94234000D01*
X103809000Y-94234000D01*
X103809000Y-86614000D01*
X107819928Y-86614000D01*
X107823000Y-87090250D01*
X107981750Y-87249000D01*
X109093000Y-87249000D01*
X109093000Y-87229000D01*
X109347000Y-87229000D01*
X109347000Y-87249000D01*
X110458250Y-87249000D01*
X110617000Y-87090250D01*
X110620072Y-86614000D01*
X110607812Y-86489518D01*
X110571502Y-86369820D01*
X110545942Y-86322000D01*
X118195928Y-86322000D01*
X118195928Y-87922000D01*
X118208188Y-88046482D01*
X118244498Y-88166180D01*
X118303463Y-88276494D01*
X118382815Y-88373185D01*
X118479506Y-88452537D01*
X118589820Y-88511502D01*
X118709518Y-88547812D01*
X118717961Y-88548643D01*
X118519363Y-88747241D01*
X118362320Y-88982273D01*
X118254147Y-89243426D01*
X118199000Y-89520665D01*
X118199000Y-89803335D01*
X118254147Y-90080574D01*
X118362320Y-90341727D01*
X118519363Y-90576759D01*
X118719241Y-90776637D01*
X118951759Y-90932000D01*
X118719241Y-91087363D01*
X118519363Y-91287241D01*
X118362320Y-91522273D01*
X118254147Y-91783426D01*
X118199000Y-92060665D01*
X118199000Y-92343335D01*
X118254147Y-92620574D01*
X118362320Y-92881727D01*
X118519363Y-93116759D01*
X118719241Y-93316637D01*
X118954273Y-93473680D01*
X118964865Y-93478067D01*
X118778869Y-93589615D01*
X118570481Y-93778586D01*
X118402963Y-94004580D01*
X118282754Y-94258913D01*
X118242096Y-94392961D01*
X118364085Y-94615000D01*
X119507000Y-94615000D01*
X119507000Y-94595000D01*
X119761000Y-94595000D01*
X119761000Y-94615000D01*
X120903915Y-94615000D01*
X121025904Y-94392961D01*
X120985246Y-94258913D01*
X120865037Y-94004580D01*
X120697519Y-93778586D01*
X120489131Y-93589615D01*
X120303135Y-93478067D01*
X120313727Y-93473680D01*
X120548759Y-93316637D01*
X120748637Y-93116759D01*
X120905680Y-92881727D01*
X121013853Y-92620574D01*
X121069000Y-92343335D01*
X121069000Y-92060665D01*
X121013853Y-91783426D01*
X120905680Y-91522273D01*
X120748637Y-91287241D01*
X120548759Y-91087363D01*
X120316241Y-90932000D01*
X120548759Y-90776637D01*
X120748637Y-90576759D01*
X120905680Y-90341727D01*
X121013853Y-90080574D01*
X121069000Y-89803335D01*
X121069000Y-89520665D01*
X121013853Y-89243426D01*
X120905680Y-88982273D01*
X120748637Y-88747241D01*
X120550039Y-88548643D01*
X120558482Y-88547812D01*
X120678180Y-88511502D01*
X120788494Y-88452537D01*
X120885185Y-88373185D01*
X120964537Y-88276494D01*
X121023502Y-88166180D01*
X121059812Y-88046482D01*
X121072072Y-87922000D01*
X121072072Y-86980665D01*
X125819000Y-86980665D01*
X125819000Y-87263335D01*
X125874147Y-87540574D01*
X125982320Y-87801727D01*
X126139363Y-88036759D01*
X126339241Y-88236637D01*
X126571759Y-88392000D01*
X126339241Y-88547363D01*
X126139363Y-88747241D01*
X125982320Y-88982273D01*
X125874147Y-89243426D01*
X125819000Y-89520665D01*
X125819000Y-89803335D01*
X125874147Y-90080574D01*
X125982320Y-90341727D01*
X126139363Y-90576759D01*
X126339241Y-90776637D01*
X126571759Y-90932000D01*
X126339241Y-91087363D01*
X126139363Y-91287241D01*
X125982320Y-91522273D01*
X125874147Y-91783426D01*
X125819000Y-92060665D01*
X125819000Y-92343335D01*
X125874147Y-92620574D01*
X125982320Y-92881727D01*
X126139363Y-93116759D01*
X126339241Y-93316637D01*
X126571759Y-93472000D01*
X126339241Y-93627363D01*
X126139363Y-93827241D01*
X125982320Y-94062273D01*
X125874147Y-94323426D01*
X125819000Y-94600665D01*
X125819000Y-94883335D01*
X125874147Y-95160574D01*
X125982320Y-95421727D01*
X126139363Y-95656759D01*
X126339241Y-95856637D01*
X126574273Y-96013680D01*
X126835426Y-96121853D01*
X127112665Y-96177000D01*
X127395335Y-96177000D01*
X127672574Y-96121853D01*
X127933727Y-96013680D01*
X128168759Y-95856637D01*
X128267396Y-95758000D01*
X133731000Y-95758000D01*
X133731000Y-98298000D01*
X133733440Y-98322776D01*
X133740667Y-98346601D01*
X133752403Y-98368557D01*
X133768197Y-98387803D01*
X133787443Y-98403597D01*
X133809399Y-98415333D01*
X133833224Y-98422560D01*
X133858000Y-98425000D01*
X139954000Y-98425000D01*
X139978776Y-98422560D01*
X140002601Y-98415333D01*
X140024557Y-98403597D01*
X140043803Y-98387803D01*
X140059597Y-98368557D01*
X140071333Y-98346601D01*
X140078560Y-98322776D01*
X140081000Y-98298000D01*
X140081000Y-95758000D01*
X140078560Y-95733224D01*
X140071333Y-95709399D01*
X140059597Y-95687443D01*
X140043803Y-95668197D01*
X140024557Y-95652403D01*
X140002601Y-95640667D01*
X139978776Y-95633440D01*
X139954000Y-95631000D01*
X133858000Y-95631000D01*
X133833224Y-95633440D01*
X133809399Y-95640667D01*
X133787443Y-95652403D01*
X133768197Y-95668197D01*
X133752403Y-95687443D01*
X133740667Y-95709399D01*
X133733440Y-95733224D01*
X133731000Y-95758000D01*
X128267396Y-95758000D01*
X128368637Y-95656759D01*
X128525680Y-95421727D01*
X128633853Y-95160574D01*
X128689000Y-94883335D01*
X128689000Y-94600665D01*
X128633853Y-94323426D01*
X128525680Y-94062273D01*
X128368637Y-93827241D01*
X128168759Y-93627363D01*
X127936241Y-93472000D01*
X128168759Y-93316637D01*
X128368637Y-93116759D01*
X128525680Y-92881727D01*
X128633853Y-92620574D01*
X128689000Y-92343335D01*
X128689000Y-92060665D01*
X128633853Y-91783426D01*
X128525680Y-91522273D01*
X128368637Y-91287241D01*
X128168759Y-91087363D01*
X127936241Y-90932000D01*
X128135972Y-90798544D01*
X130979000Y-90798544D01*
X130979000Y-91065456D01*
X131031072Y-91327239D01*
X131133215Y-91573833D01*
X131281503Y-91795762D01*
X131470238Y-91984497D01*
X131692167Y-92132785D01*
X131938761Y-92234928D01*
X132200544Y-92287000D01*
X132467456Y-92287000D01*
X132729239Y-92234928D01*
X132975833Y-92132785D01*
X133197762Y-91984497D01*
X133314699Y-91867560D01*
X136658045Y-91867560D01*
X136719932Y-92103368D01*
X136961790Y-92216266D01*
X137221027Y-92279811D01*
X137487680Y-92291561D01*
X137751501Y-92251063D01*
X138002353Y-92159875D01*
X138108068Y-92103368D01*
X138169955Y-91867560D01*
X137414000Y-91111605D01*
X136658045Y-91867560D01*
X133314699Y-91867560D01*
X133386497Y-91795762D01*
X133534785Y-91573833D01*
X133636928Y-91327239D01*
X133689000Y-91065456D01*
X133689000Y-91005680D01*
X136054439Y-91005680D01*
X136094937Y-91269501D01*
X136186125Y-91520353D01*
X136242632Y-91626068D01*
X136478440Y-91687955D01*
X137234395Y-90932000D01*
X137593605Y-90932000D01*
X138349560Y-91687955D01*
X138585368Y-91626068D01*
X138698266Y-91384210D01*
X138761811Y-91124973D01*
X138773561Y-90858320D01*
X138733063Y-90594499D01*
X138641875Y-90343647D01*
X138585368Y-90237932D01*
X138349560Y-90176045D01*
X137593605Y-90932000D01*
X137234395Y-90932000D01*
X136478440Y-90176045D01*
X136242632Y-90237932D01*
X136129734Y-90479790D01*
X136066189Y-90739027D01*
X136054439Y-91005680D01*
X133689000Y-91005680D01*
X133689000Y-90798544D01*
X133636928Y-90536761D01*
X133534785Y-90290167D01*
X133386497Y-90068238D01*
X133314699Y-89996440D01*
X136658045Y-89996440D01*
X137414000Y-90752395D01*
X138169955Y-89996440D01*
X138108068Y-89760632D01*
X137866210Y-89647734D01*
X137606973Y-89584189D01*
X137340320Y-89572439D01*
X137076499Y-89612937D01*
X136825647Y-89704125D01*
X136719932Y-89760632D01*
X136658045Y-89996440D01*
X133314699Y-89996440D01*
X133197762Y-89879503D01*
X132975833Y-89731215D01*
X132729239Y-89629072D01*
X132467456Y-89577000D01*
X132200544Y-89577000D01*
X131938761Y-89629072D01*
X131692167Y-89731215D01*
X131470238Y-89879503D01*
X131281503Y-90068238D01*
X131133215Y-90290167D01*
X131031072Y-90536761D01*
X130979000Y-90798544D01*
X128135972Y-90798544D01*
X128168759Y-90776637D01*
X128368637Y-90576759D01*
X128525680Y-90341727D01*
X128633853Y-90080574D01*
X128689000Y-89803335D01*
X128689000Y-89520665D01*
X128633853Y-89243426D01*
X128525680Y-88982273D01*
X128368637Y-88747241D01*
X128168759Y-88547363D01*
X127936241Y-88392000D01*
X128135972Y-88258544D01*
X133519000Y-88258544D01*
X133519000Y-88525456D01*
X133571072Y-88787239D01*
X133673215Y-89033833D01*
X133821503Y-89255762D01*
X134010238Y-89444497D01*
X134232167Y-89592785D01*
X134478761Y-89694928D01*
X134740544Y-89747000D01*
X135007456Y-89747000D01*
X135269239Y-89694928D01*
X135515833Y-89592785D01*
X135737762Y-89444497D01*
X135926497Y-89255762D01*
X136074785Y-89033833D01*
X136176928Y-88787239D01*
X136229000Y-88525456D01*
X136229000Y-88258544D01*
X136176928Y-87996761D01*
X136074785Y-87750167D01*
X135926497Y-87528238D01*
X135737762Y-87339503D01*
X135515833Y-87191215D01*
X135269239Y-87089072D01*
X135007456Y-87037000D01*
X134740544Y-87037000D01*
X134478761Y-87089072D01*
X134232167Y-87191215D01*
X134010238Y-87339503D01*
X133821503Y-87528238D01*
X133673215Y-87750167D01*
X133571072Y-87996761D01*
X133519000Y-88258544D01*
X128135972Y-88258544D01*
X128168759Y-88236637D01*
X128368637Y-88036759D01*
X128525680Y-87801727D01*
X128633853Y-87540574D01*
X128689000Y-87263335D01*
X128689000Y-86980665D01*
X128633853Y-86703426D01*
X128525680Y-86442273D01*
X128368637Y-86207241D01*
X128168759Y-86007363D01*
X127933727Y-85850320D01*
X127672574Y-85742147D01*
X127395335Y-85687000D01*
X127112665Y-85687000D01*
X126835426Y-85742147D01*
X126574273Y-85850320D01*
X126339241Y-86007363D01*
X126139363Y-86207241D01*
X125982320Y-86442273D01*
X125874147Y-86703426D01*
X125819000Y-86980665D01*
X121072072Y-86980665D01*
X121072072Y-86322000D01*
X121059812Y-86197518D01*
X121023502Y-86077820D01*
X120964537Y-85967506D01*
X120885185Y-85870815D01*
X120788494Y-85791463D01*
X120678180Y-85732498D01*
X120558482Y-85696188D01*
X120434000Y-85683928D01*
X118834000Y-85683928D01*
X118709518Y-85696188D01*
X118589820Y-85732498D01*
X118479506Y-85791463D01*
X118382815Y-85870815D01*
X118303463Y-85967506D01*
X118244498Y-86077820D01*
X118208188Y-86197518D01*
X118195928Y-86322000D01*
X110545942Y-86322000D01*
X110512537Y-86259506D01*
X110433185Y-86162815D01*
X110336494Y-86083463D01*
X110226180Y-86024498D01*
X110106482Y-85988188D01*
X110022535Y-85979920D01*
X110110535Y-85921120D01*
X110305120Y-85726535D01*
X110458005Y-85497727D01*
X110563314Y-85243490D01*
X110617000Y-84973592D01*
X110617000Y-84698408D01*
X110563314Y-84428510D01*
X110458005Y-84174273D01*
X110305120Y-83945465D01*
X110110535Y-83750880D01*
X109881727Y-83597995D01*
X109804485Y-83566000D01*
X109881727Y-83534005D01*
X110110535Y-83381120D01*
X110305120Y-83186535D01*
X110458005Y-82957727D01*
X110563314Y-82703490D01*
X110617000Y-82433592D01*
X110617000Y-82158408D01*
X110563314Y-81888510D01*
X110458005Y-81634273D01*
X110305120Y-81405465D01*
X110110535Y-81210880D01*
X109881727Y-81057995D01*
X109627490Y-80952686D01*
X109357592Y-80899000D01*
X109082408Y-80899000D01*
X108812510Y-80952686D01*
X108558273Y-81057995D01*
X108329465Y-81210880D01*
X108134880Y-81405465D01*
X107981995Y-81634273D01*
X107876686Y-81888510D01*
X107823000Y-82158408D01*
X107823000Y-82433592D01*
X107876686Y-82703490D01*
X107981995Y-82957727D01*
X108134880Y-83186535D01*
X108329465Y-83381120D01*
X108558273Y-83534005D01*
X108635515Y-83566000D01*
X108558273Y-83597995D01*
X108329465Y-83750880D01*
X108134880Y-83945465D01*
X107981995Y-84174273D01*
X107876686Y-84428510D01*
X107823000Y-84698408D01*
X107823000Y-84973592D01*
X107876686Y-85243490D01*
X107981995Y-85497727D01*
X108134880Y-85726535D01*
X108329465Y-85921120D01*
X108417465Y-85979920D01*
X108333518Y-85988188D01*
X108213820Y-86024498D01*
X108103506Y-86083463D01*
X108006815Y-86162815D01*
X107927463Y-86259506D01*
X107868498Y-86369820D01*
X107832188Y-86489518D01*
X107819928Y-86614000D01*
X103809000Y-86614000D01*
X103809000Y-76820665D01*
X106769000Y-76820665D01*
X106769000Y-77103335D01*
X106824147Y-77380574D01*
X106932320Y-77641727D01*
X107089363Y-77876759D01*
X107289241Y-78076637D01*
X107524273Y-78233680D01*
X107785426Y-78341853D01*
X108062665Y-78397000D01*
X108345335Y-78397000D01*
X108622574Y-78341853D01*
X108883727Y-78233680D01*
X109118759Y-78076637D01*
X109318637Y-77876759D01*
X109475680Y-77641727D01*
X109583853Y-77380574D01*
X109639000Y-77103335D01*
X109639000Y-76820665D01*
X111849000Y-76820665D01*
X111849000Y-77103335D01*
X111904147Y-77380574D01*
X112012320Y-77641727D01*
X112169363Y-77876759D01*
X112369241Y-78076637D01*
X112604273Y-78233680D01*
X112865426Y-78341853D01*
X113142665Y-78397000D01*
X113425335Y-78397000D01*
X113702574Y-78341853D01*
X113963727Y-78233680D01*
X114198759Y-78076637D01*
X114398637Y-77876759D01*
X114555680Y-77641727D01*
X114663853Y-77380574D01*
X114719000Y-77103335D01*
X114719000Y-76820665D01*
X114663853Y-76543426D01*
X114555680Y-76282273D01*
X114398637Y-76047241D01*
X114198759Y-75847363D01*
X113963727Y-75690320D01*
X113702574Y-75582147D01*
X113425335Y-75527000D01*
X113142665Y-75527000D01*
X112865426Y-75582147D01*
X112604273Y-75690320D01*
X112369241Y-75847363D01*
X112169363Y-76047241D01*
X112012320Y-76282273D01*
X111904147Y-76543426D01*
X111849000Y-76820665D01*
X109639000Y-76820665D01*
X109583853Y-76543426D01*
X109475680Y-76282273D01*
X109318637Y-76047241D01*
X109118759Y-75847363D01*
X108883727Y-75690320D01*
X108622574Y-75582147D01*
X108345335Y-75527000D01*
X108062665Y-75527000D01*
X107785426Y-75582147D01*
X107524273Y-75690320D01*
X107289241Y-75847363D01*
X107089363Y-76047241D01*
X106932320Y-76282273D01*
X106824147Y-76543426D01*
X106769000Y-76820665D01*
X103809000Y-76820665D01*
X103809000Y-74771040D01*
X120782091Y-74771040D01*
X120876930Y-75035881D01*
X121021615Y-75277131D01*
X121210586Y-75485519D01*
X121436580Y-75653037D01*
X121690913Y-75773246D01*
X121824961Y-75813904D01*
X122047000Y-75691915D01*
X122047000Y-74549000D01*
X120903376Y-74549000D01*
X120782091Y-74771040D01*
X103809000Y-74771040D01*
X103809000Y-74072960D01*
X120782091Y-74072960D01*
X120903376Y-74295000D01*
X122047000Y-74295000D01*
X122047000Y-73152085D01*
X121824961Y-73030096D01*
X121690913Y-73070754D01*
X121436580Y-73190963D01*
X121210586Y-73358481D01*
X121021615Y-73566869D01*
X120876930Y-73808119D01*
X120782091Y-74072960D01*
X103809000Y-74072960D01*
X103809000Y-71297000D01*
X170467647Y-71297000D01*
X170561000Y-71287805D01*
X170561000Y-99146195D01*
G37*
X170561000Y-99146195D02*
X170467647Y-99137000D01*
X168637801Y-99137000D01*
X169167004Y-98607798D01*
X169196001Y-98584001D01*
X169248526Y-98519999D01*
X169290974Y-98468277D01*
X169361546Y-98336247D01*
X169382853Y-98266005D01*
X169405003Y-98192986D01*
X169416000Y-98081333D01*
X169416000Y-98081323D01*
X169419676Y-98044000D01*
X169416000Y-98006678D01*
X169416000Y-77761323D01*
X169419676Y-77724000D01*
X169416000Y-77686677D01*
X169416000Y-77686667D01*
X169405003Y-77575014D01*
X169361546Y-77431753D01*
X169314205Y-77343185D01*
X169290974Y-77299723D01*
X169219799Y-77212997D01*
X169196001Y-77183999D01*
X169167003Y-77160201D01*
X168462072Y-76455270D01*
X168462072Y-74492000D01*
X168449812Y-74367518D01*
X168413502Y-74247820D01*
X168354537Y-74137506D01*
X168275185Y-74040815D01*
X168178494Y-73961463D01*
X168068180Y-73902498D01*
X167948482Y-73866188D01*
X167824000Y-73853928D01*
X165424000Y-73853928D01*
X165299518Y-73866188D01*
X165179820Y-73902498D01*
X165069506Y-73961463D01*
X164972815Y-74040815D01*
X164893463Y-74137506D01*
X164834498Y-74247820D01*
X164798188Y-74367518D01*
X164785928Y-74492000D01*
X164785928Y-76892000D01*
X164798188Y-77016482D01*
X164834498Y-77136180D01*
X164893463Y-77246494D01*
X164972815Y-77343185D01*
X165069506Y-77422537D01*
X165179820Y-77481502D01*
X165299518Y-77517812D01*
X165424000Y-77530072D01*
X167387270Y-77530072D01*
X167896001Y-78038803D01*
X167896001Y-81716346D01*
X167862005Y-81634273D01*
X167709120Y-81405465D01*
X167514535Y-81210880D01*
X167285727Y-81057995D01*
X167031490Y-80952686D01*
X166761592Y-80899000D01*
X166486408Y-80899000D01*
X166332430Y-80929628D01*
X163829001Y-78426200D01*
X163829001Y-74997321D01*
X163832677Y-74959998D01*
X163829001Y-74922675D01*
X163829001Y-74922666D01*
X163818004Y-74811013D01*
X163774547Y-74667752D01*
X163703975Y-74535723D01*
X163609002Y-74419998D01*
X163580003Y-74396200D01*
X162839804Y-73656001D01*
X162816002Y-73626998D01*
X162700277Y-73532025D01*
X162568248Y-73461453D01*
X162424987Y-73417996D01*
X162313334Y-73406999D01*
X162313323Y-73406999D01*
X162276001Y-73403323D01*
X162238679Y-73406999D01*
X160849321Y-73406999D01*
X160811998Y-73403323D01*
X160774675Y-73406999D01*
X160774666Y-73406999D01*
X160663013Y-73417996D01*
X160519752Y-73461453D01*
X160387723Y-73532025D01*
X160387721Y-73532026D01*
X160387722Y-73532026D01*
X160300995Y-73603200D01*
X160300991Y-73603204D01*
X160271998Y-73626998D01*
X160248204Y-73655991D01*
X155954000Y-77950197D01*
X155954000Y-76910043D01*
X156108759Y-76806637D01*
X156308637Y-76606759D01*
X156465680Y-76371727D01*
X156573853Y-76110574D01*
X156629000Y-75833335D01*
X156629000Y-75550665D01*
X156573853Y-75273426D01*
X156465680Y-75012273D01*
X156308637Y-74777241D01*
X156108759Y-74577363D01*
X155873727Y-74420320D01*
X155612574Y-74312147D01*
X155335335Y-74257000D01*
X155052665Y-74257000D01*
X154775426Y-74312147D01*
X154514273Y-74420320D01*
X154279241Y-74577363D01*
X154079363Y-74777241D01*
X153922320Y-75012273D01*
X153814147Y-75273426D01*
X153759000Y-75550665D01*
X153759000Y-75833335D01*
X153814147Y-76110574D01*
X153922320Y-76371727D01*
X154079363Y-76606759D01*
X154279241Y-76806637D01*
X154434000Y-76910044D01*
X154434001Y-79187196D01*
X153058608Y-80562590D01*
X152946531Y-80528592D01*
X152654000Y-80499780D01*
X152361468Y-80528592D01*
X152080178Y-80613920D01*
X151820939Y-80752486D01*
X151762642Y-80800330D01*
X151755787Y-80787506D01*
X151676435Y-80690815D01*
X151579744Y-80611463D01*
X151469430Y-80552498D01*
X151349732Y-80516188D01*
X151225250Y-80503928D01*
X149510750Y-80503928D01*
X149386268Y-80516188D01*
X149266570Y-80552498D01*
X149156256Y-80611463D01*
X149059565Y-80690815D01*
X148980213Y-80787506D01*
X148921248Y-80897820D01*
X148884938Y-81017518D01*
X148872678Y-81142000D01*
X148872678Y-82942000D01*
X148884938Y-83066482D01*
X148921248Y-83186180D01*
X148924996Y-83193193D01*
X146137805Y-80406002D01*
X146114002Y-80376998D01*
X145998277Y-80282025D01*
X145866248Y-80211453D01*
X145722987Y-80167996D01*
X145611334Y-80156999D01*
X145611323Y-80156999D01*
X145574001Y-80153323D01*
X145536679Y-80156999D01*
X144531322Y-80156999D01*
X144493999Y-80153323D01*
X144456676Y-80156999D01*
X144456666Y-80156999D01*
X144345013Y-80167996D01*
X144214632Y-80207546D01*
X144201752Y-80211453D01*
X144069722Y-80282025D01*
X143986082Y-80350667D01*
X143953998Y-80376998D01*
X143930199Y-80405997D01*
X143408796Y-80927400D01*
X143408759Y-80927363D01*
X143173727Y-80770320D01*
X142912574Y-80662147D01*
X142635335Y-80607000D01*
X142352665Y-80607000D01*
X142075426Y-80662147D01*
X141814273Y-80770320D01*
X141579241Y-80927363D01*
X141379363Y-81127241D01*
X141224000Y-81359759D01*
X141068637Y-81127241D01*
X140868759Y-80927363D01*
X140633727Y-80770320D01*
X140372574Y-80662147D01*
X140095335Y-80607000D01*
X139812665Y-80607000D01*
X139535426Y-80662147D01*
X139274273Y-80770320D01*
X139039241Y-80927363D01*
X138839363Y-81127241D01*
X138684000Y-81359759D01*
X138528637Y-81127241D01*
X138328759Y-80927363D01*
X138093727Y-80770320D01*
X137832574Y-80662147D01*
X137555335Y-80607000D01*
X137272665Y-80607000D01*
X136995426Y-80662147D01*
X136734273Y-80770320D01*
X136499241Y-80927363D01*
X136299363Y-81127241D01*
X136144000Y-81359759D01*
X135988637Y-81127241D01*
X135788759Y-80927363D01*
X135553727Y-80770320D01*
X135292574Y-80662147D01*
X135015335Y-80607000D01*
X134732665Y-80607000D01*
X134455426Y-80662147D01*
X134194273Y-80770320D01*
X133959241Y-80927363D01*
X133759363Y-81127241D01*
X133604000Y-81359759D01*
X133448637Y-81127241D01*
X133248759Y-80927363D01*
X133013727Y-80770320D01*
X132752574Y-80662147D01*
X132475335Y-80607000D01*
X132303801Y-80607000D01*
X136458802Y-76452000D01*
X148895957Y-76452000D01*
X148999363Y-76606759D01*
X149199241Y-76806637D01*
X149434273Y-76963680D01*
X149695426Y-77071853D01*
X149972665Y-77127000D01*
X150255335Y-77127000D01*
X150532574Y-77071853D01*
X150793727Y-76963680D01*
X151028759Y-76806637D01*
X151228637Y-76606759D01*
X151385680Y-76371727D01*
X151493853Y-76110574D01*
X151549000Y-75833335D01*
X151549000Y-75550665D01*
X151493853Y-75273426D01*
X151385680Y-75012273D01*
X151228637Y-74777241D01*
X151028759Y-74577363D01*
X150793727Y-74420320D01*
X150532574Y-74312147D01*
X150255335Y-74257000D01*
X149972665Y-74257000D01*
X149695426Y-74312147D01*
X149434273Y-74420320D01*
X149199241Y-74577363D01*
X148999363Y-74777241D01*
X148895957Y-74932000D01*
X146472072Y-74932000D01*
X146472072Y-73622000D01*
X146459812Y-73497518D01*
X146423502Y-73377820D01*
X146364537Y-73267506D01*
X146285185Y-73170815D01*
X146188494Y-73091463D01*
X146078180Y-73032498D01*
X145958482Y-72996188D01*
X145834000Y-72983928D01*
X144234000Y-72983928D01*
X144109518Y-72996188D01*
X143989820Y-73032498D01*
X143879506Y-73091463D01*
X143782815Y-73170815D01*
X143703463Y-73267506D01*
X143644498Y-73377820D01*
X143608188Y-73497518D01*
X143607357Y-73505961D01*
X143408759Y-73307363D01*
X143173727Y-73150320D01*
X142912574Y-73042147D01*
X142635335Y-72987000D01*
X142352665Y-72987000D01*
X142075426Y-73042147D01*
X141814273Y-73150320D01*
X141579241Y-73307363D01*
X141379363Y-73507241D01*
X141224000Y-73739759D01*
X141068637Y-73507241D01*
X140868759Y-73307363D01*
X140633727Y-73150320D01*
X140372574Y-73042147D01*
X140095335Y-72987000D01*
X139812665Y-72987000D01*
X139535426Y-73042147D01*
X139274273Y-73150320D01*
X139039241Y-73307363D01*
X138839363Y-73507241D01*
X138684000Y-73739759D01*
X138528637Y-73507241D01*
X138328759Y-73307363D01*
X138093727Y-73150320D01*
X137832574Y-73042147D01*
X137555335Y-72987000D01*
X137272665Y-72987000D01*
X136995426Y-73042147D01*
X136734273Y-73150320D01*
X136499241Y-73307363D01*
X136299363Y-73507241D01*
X136144000Y-73739759D01*
X135988637Y-73507241D01*
X135788759Y-73307363D01*
X135553727Y-73150320D01*
X135292574Y-73042147D01*
X135015335Y-72987000D01*
X134732665Y-72987000D01*
X134455426Y-73042147D01*
X134194273Y-73150320D01*
X133959241Y-73307363D01*
X133759363Y-73507241D01*
X133604000Y-73739759D01*
X133448637Y-73507241D01*
X133248759Y-73307363D01*
X133013727Y-73150320D01*
X132752574Y-73042147D01*
X132475335Y-72987000D01*
X132192665Y-72987000D01*
X131915426Y-73042147D01*
X131654273Y-73150320D01*
X131419241Y-73307363D01*
X131219363Y-73507241D01*
X131064000Y-73739759D01*
X130908637Y-73507241D01*
X130708759Y-73307363D01*
X130473727Y-73150320D01*
X130212574Y-73042147D01*
X129935335Y-72987000D01*
X129652665Y-72987000D01*
X129375426Y-73042147D01*
X129114273Y-73150320D01*
X128879241Y-73307363D01*
X128679363Y-73507241D01*
X128524000Y-73739759D01*
X128368637Y-73507241D01*
X128168759Y-73307363D01*
X127933727Y-73150320D01*
X127672574Y-73042147D01*
X127395335Y-72987000D01*
X127112665Y-72987000D01*
X126835426Y-73042147D01*
X126574273Y-73150320D01*
X126339241Y-73307363D01*
X126139363Y-73507241D01*
X125984000Y-73739759D01*
X125828637Y-73507241D01*
X125628759Y-73307363D01*
X125393727Y-73150320D01*
X125132574Y-73042147D01*
X124855335Y-72987000D01*
X124572665Y-72987000D01*
X124295426Y-73042147D01*
X124034273Y-73150320D01*
X123799241Y-73307363D01*
X123599363Y-73507241D01*
X123442320Y-73742273D01*
X123437933Y-73752865D01*
X123326385Y-73566869D01*
X123137414Y-73358481D01*
X122911420Y-73190963D01*
X122657087Y-73070754D01*
X122523039Y-73030096D01*
X122301000Y-73152085D01*
X122301000Y-74295000D01*
X122321000Y-74295000D01*
X122321000Y-74549000D01*
X122301000Y-74549000D01*
X122301000Y-75691915D01*
X122523039Y-75813904D01*
X122657087Y-75773246D01*
X122911420Y-75653037D01*
X123137414Y-75485519D01*
X123326385Y-75277131D01*
X123437933Y-75091135D01*
X123442320Y-75101727D01*
X123599363Y-75336759D01*
X123799241Y-75536637D01*
X124034273Y-75693680D01*
X124295426Y-75801853D01*
X124572665Y-75857000D01*
X124855335Y-75857000D01*
X125132574Y-75801853D01*
X125393727Y-75693680D01*
X125628759Y-75536637D01*
X125828637Y-75336759D01*
X125984000Y-75104241D01*
X126139363Y-75336759D01*
X126339241Y-75536637D01*
X126574273Y-75693680D01*
X126835426Y-75801853D01*
X127112665Y-75857000D01*
X127395335Y-75857000D01*
X127672574Y-75801853D01*
X127933727Y-75693680D01*
X128168759Y-75536637D01*
X128368637Y-75336759D01*
X128524000Y-75104241D01*
X128679363Y-75336759D01*
X128879241Y-75536637D01*
X129114273Y-75693680D01*
X129375426Y-75801853D01*
X129652665Y-75857000D01*
X129935335Y-75857000D01*
X130212574Y-75801853D01*
X130473727Y-75693680D01*
X130708759Y-75536637D01*
X130908637Y-75336759D01*
X131064000Y-75104241D01*
X131219363Y-75336759D01*
X131419241Y-75536637D01*
X131654273Y-75693680D01*
X131915426Y-75801853D01*
X132192665Y-75857000D01*
X132475335Y-75857000D01*
X132752574Y-75801853D01*
X133013727Y-75693680D01*
X133248759Y-75536637D01*
X133448637Y-75336759D01*
X133604000Y-75104241D01*
X133759363Y-75336759D01*
X133959241Y-75536637D01*
X134194273Y-75693680D01*
X134455426Y-75801853D01*
X134732665Y-75857000D01*
X134904198Y-75857000D01*
X130117887Y-80643312D01*
X129935335Y-80607000D01*
X129652665Y-80607000D01*
X129375426Y-80662147D01*
X129114273Y-80770320D01*
X128879241Y-80927363D01*
X128679363Y-81127241D01*
X128524000Y-81359759D01*
X128368637Y-81127241D01*
X128168759Y-80927363D01*
X127933727Y-80770320D01*
X127672574Y-80662147D01*
X127395335Y-80607000D01*
X127112665Y-80607000D01*
X126835426Y-80662147D01*
X126574273Y-80770320D01*
X126339241Y-80927363D01*
X126139363Y-81127241D01*
X125984000Y-81359759D01*
X125828637Y-81127241D01*
X125628759Y-80927363D01*
X125393727Y-80770320D01*
X125132574Y-80662147D01*
X124855335Y-80607000D01*
X124572665Y-80607000D01*
X124295426Y-80662147D01*
X124034273Y-80770320D01*
X123799241Y-80927363D01*
X123599363Y-81127241D01*
X123444000Y-81359759D01*
X123288637Y-81127241D01*
X123088759Y-80927363D01*
X122853727Y-80770320D01*
X122592574Y-80662147D01*
X122315335Y-80607000D01*
X122032665Y-80607000D01*
X121755426Y-80662147D01*
X121494273Y-80770320D01*
X121259241Y-80927363D01*
X121059363Y-81127241D01*
X120902320Y-81362273D01*
X120794147Y-81623426D01*
X120739000Y-81900665D01*
X120739000Y-82183335D01*
X120794147Y-82460574D01*
X120902320Y-82721727D01*
X121059363Y-82956759D01*
X121259241Y-83156637D01*
X121494273Y-83313680D01*
X121755426Y-83421853D01*
X122032665Y-83477000D01*
X122315335Y-83477000D01*
X122592574Y-83421853D01*
X122853727Y-83313680D01*
X123088759Y-83156637D01*
X123288637Y-82956759D01*
X123444000Y-82724241D01*
X123599363Y-82956759D01*
X123799241Y-83156637D01*
X124034273Y-83313680D01*
X124295426Y-83421853D01*
X124572665Y-83477000D01*
X124855335Y-83477000D01*
X125037886Y-83440688D01*
X125275202Y-83678004D01*
X125299000Y-83707002D01*
X125414725Y-83801975D01*
X125546754Y-83872547D01*
X125690015Y-83916004D01*
X125801668Y-83927001D01*
X125801676Y-83927001D01*
X125839001Y-83930677D01*
X125876326Y-83927001D01*
X142996679Y-83927001D01*
X143034001Y-83930677D01*
X143071323Y-83927001D01*
X143071334Y-83927001D01*
X143182987Y-83916004D01*
X143326248Y-83872547D01*
X143458277Y-83801975D01*
X143574002Y-83707002D01*
X143597804Y-83677999D01*
X144119204Y-83156600D01*
X144119241Y-83156637D01*
X144274000Y-83260044D01*
X144274001Y-89624668D01*
X144270324Y-89662000D01*
X144274001Y-89699333D01*
X144284657Y-89807518D01*
X144284998Y-89810985D01*
X144328454Y-89954246D01*
X144399026Y-90086276D01*
X144457509Y-90157537D01*
X144494000Y-90202001D01*
X144522998Y-90225799D01*
X144665928Y-90368729D01*
X144665928Y-91932000D01*
X144678188Y-92056482D01*
X144714498Y-92176180D01*
X144773463Y-92286494D01*
X144852815Y-92383185D01*
X144949506Y-92462537D01*
X145059820Y-92521502D01*
X145179518Y-92557812D01*
X145304000Y-92570072D01*
X147304000Y-92570072D01*
X147428482Y-92557812D01*
X147548180Y-92521502D01*
X147658494Y-92462537D01*
X147755185Y-92383185D01*
X147834537Y-92286494D01*
X147893502Y-92176180D01*
X147929812Y-92056482D01*
X147942072Y-91932000D01*
X147942072Y-90770967D01*
X152269000Y-90770967D01*
X152269000Y-91093033D01*
X152331832Y-91408912D01*
X152455082Y-91706463D01*
X152634013Y-91974252D01*
X152861748Y-92201987D01*
X153129537Y-92380918D01*
X153427088Y-92504168D01*
X153742967Y-92567000D01*
X154065033Y-92567000D01*
X154380912Y-92504168D01*
X154678463Y-92380918D01*
X154946252Y-92201987D01*
X155173987Y-91974252D01*
X155352918Y-91706463D01*
X155476168Y-91408912D01*
X155539000Y-91093033D01*
X155539000Y-90770967D01*
X155476168Y-90455088D01*
X155352918Y-90157537D01*
X155173987Y-89889748D01*
X154946252Y-89662013D01*
X154678463Y-89483082D01*
X154380912Y-89359832D01*
X154065033Y-89297000D01*
X153742967Y-89297000D01*
X153427088Y-89359832D01*
X153129537Y-89483082D01*
X152861748Y-89662013D01*
X152634013Y-89889748D01*
X152455082Y-90157537D01*
X152331832Y-90455088D01*
X152269000Y-90770967D01*
X147942072Y-90770967D01*
X147942072Y-89932000D01*
X147929812Y-89807518D01*
X147893502Y-89687820D01*
X147834537Y-89577506D01*
X147755185Y-89480815D01*
X147658494Y-89401463D01*
X147548180Y-89342498D01*
X147428482Y-89306188D01*
X147304000Y-89293928D01*
X145794000Y-89293928D01*
X145794000Y-83260043D01*
X145948759Y-83156637D01*
X146148637Y-82956759D01*
X146304978Y-82722777D01*
X148929203Y-85347003D01*
X148953001Y-85376001D01*
X149068726Y-85470974D01*
X149200755Y-85541546D01*
X149344016Y-85585003D01*
X149455669Y-85596000D01*
X149455678Y-85596000D01*
X149493001Y-85599676D01*
X149530324Y-85596000D01*
X153823396Y-85596000D01*
X153860718Y-85599676D01*
X153898040Y-85596000D01*
X153898051Y-85596000D01*
X154009704Y-85585003D01*
X154152965Y-85541546D01*
X154284994Y-85470974D01*
X154400719Y-85376001D01*
X154424522Y-85346997D01*
X156633263Y-83138257D01*
X156662261Y-83114459D01*
X156757234Y-82998734D01*
X156827806Y-82866705D01*
X156871263Y-82723444D01*
X156882260Y-82611791D01*
X156882260Y-82611782D01*
X156885936Y-82574459D01*
X156882260Y-82537136D01*
X156882260Y-79171539D01*
X159793293Y-76260507D01*
X159824750Y-76336449D01*
X159000002Y-77161197D01*
X158970998Y-77185000D01*
X158920532Y-77246494D01*
X158876025Y-77300725D01*
X158833345Y-77380574D01*
X158805453Y-77432755D01*
X158761996Y-77576016D01*
X158750999Y-77687669D01*
X158750999Y-77687679D01*
X158747323Y-77725001D01*
X158750999Y-77762323D01*
X158751000Y-94957666D01*
X158747323Y-94994999D01*
X158751000Y-95032332D01*
X158761997Y-95143985D01*
X158762301Y-95144986D01*
X158805453Y-95287245D01*
X158876025Y-95419275D01*
X158947200Y-95506001D01*
X158970999Y-95535000D01*
X158999997Y-95558798D01*
X159072199Y-95631000D01*
X158866408Y-95631000D01*
X158596510Y-95684686D01*
X158342273Y-95789995D01*
X158113465Y-95942880D01*
X157918880Y-96137465D01*
X157765995Y-96366273D01*
X157660686Y-96620510D01*
X157607000Y-96890408D01*
X157607000Y-97165592D01*
X157660686Y-97435490D01*
X157765995Y-97689727D01*
X157918880Y-97918535D01*
X158113465Y-98113120D01*
X158342273Y-98266005D01*
X158596510Y-98371314D01*
X158866408Y-98425000D01*
X159141592Y-98425000D01*
X159295570Y-98394372D01*
X160038198Y-99137000D01*
X103809000Y-99137000D01*
X103809000Y-95758000D01*
X105787928Y-95758000D01*
X105800188Y-95882482D01*
X105836498Y-96002180D01*
X105895463Y-96112494D01*
X105974815Y-96209185D01*
X106071506Y-96288537D01*
X106181820Y-96347502D01*
X106301518Y-96383812D01*
X106426000Y-96396072D01*
X106902250Y-96393000D01*
X107061000Y-96234250D01*
X107061000Y-95123000D01*
X105949750Y-95123000D01*
X105791000Y-95281750D01*
X105787928Y-95758000D01*
X103809000Y-95758000D01*
X103809000Y-94234000D01*
X105787928Y-94234000D01*
X105791000Y-94710250D01*
X105949750Y-94869000D01*
X107061000Y-94869000D01*
X107061000Y-93757750D01*
X107315000Y-93757750D01*
X107315000Y-94869000D01*
X107335000Y-94869000D01*
X107335000Y-95123000D01*
X107315000Y-95123000D01*
X107315000Y-96234250D01*
X107473750Y-96393000D01*
X107950000Y-96396072D01*
X108074482Y-96383812D01*
X108194180Y-96347502D01*
X108304494Y-96288537D01*
X108401185Y-96209185D01*
X108480537Y-96112494D01*
X108539502Y-96002180D01*
X108575812Y-95882482D01*
X108584080Y-95798535D01*
X108642880Y-95886535D01*
X108837465Y-96081120D01*
X109066273Y-96234005D01*
X109320510Y-96339314D01*
X109590408Y-96393000D01*
X109865592Y-96393000D01*
X110135490Y-96339314D01*
X110389727Y-96234005D01*
X110618535Y-96081120D01*
X110813120Y-95886535D01*
X110966005Y-95657727D01*
X111071314Y-95403490D01*
X111125000Y-95133592D01*
X111125000Y-95091039D01*
X118242096Y-95091039D01*
X118282754Y-95225087D01*
X118402963Y-95479420D01*
X118570481Y-95705414D01*
X118778869Y-95894385D01*
X119020119Y-96039070D01*
X119284960Y-96133909D01*
X119507000Y-96012624D01*
X119507000Y-94869000D01*
X119761000Y-94869000D01*
X119761000Y-96012624D01*
X119983040Y-96133909D01*
X120247881Y-96039070D01*
X120489131Y-95894385D01*
X120697519Y-95705414D01*
X120865037Y-95479420D01*
X120985246Y-95225087D01*
X121025904Y-95091039D01*
X120903915Y-94869000D01*
X119761000Y-94869000D01*
X119507000Y-94869000D01*
X118364085Y-94869000D01*
X118242096Y-95091039D01*
X111125000Y-95091039D01*
X111125000Y-94858408D01*
X111071314Y-94588510D01*
X110966005Y-94334273D01*
X110813120Y-94105465D01*
X110618535Y-93910880D01*
X110488000Y-93823659D01*
X110488000Y-90820212D01*
X113419000Y-90820212D01*
X113419000Y-91043788D01*
X113462617Y-91263067D01*
X113548176Y-91469624D01*
X113672388Y-91655520D01*
X113830480Y-91813612D01*
X114016376Y-91937824D01*
X114222933Y-92023383D01*
X114442212Y-92067000D01*
X114665788Y-92067000D01*
X114885067Y-92023383D01*
X115091624Y-91937824D01*
X115277520Y-91813612D01*
X115435612Y-91655520D01*
X115559824Y-91469624D01*
X115645383Y-91263067D01*
X115689000Y-91043788D01*
X115689000Y-90820212D01*
X115959000Y-90820212D01*
X115959000Y-91043788D01*
X116002617Y-91263067D01*
X116088176Y-91469624D01*
X116212388Y-91655520D01*
X116370480Y-91813612D01*
X116556376Y-91937824D01*
X116762933Y-92023383D01*
X116982212Y-92067000D01*
X117205788Y-92067000D01*
X117425067Y-92023383D01*
X117631624Y-91937824D01*
X117817520Y-91813612D01*
X117975612Y-91655520D01*
X118099824Y-91469624D01*
X118185383Y-91263067D01*
X118229000Y-91043788D01*
X118229000Y-90820212D01*
X118185383Y-90600933D01*
X118099824Y-90394376D01*
X117975612Y-90208480D01*
X117817520Y-90050388D01*
X117631624Y-89926176D01*
X117425067Y-89840617D01*
X117205788Y-89797000D01*
X116982212Y-89797000D01*
X116762933Y-89840617D01*
X116556376Y-89926176D01*
X116370480Y-90050388D01*
X116212388Y-90208480D01*
X116088176Y-90394376D01*
X116002617Y-90600933D01*
X115959000Y-90820212D01*
X115689000Y-90820212D01*
X115645383Y-90600933D01*
X115559824Y-90394376D01*
X115435612Y-90208480D01*
X115277520Y-90050388D01*
X115091624Y-89926176D01*
X114885067Y-89840617D01*
X114665788Y-89797000D01*
X114442212Y-89797000D01*
X114222933Y-89840617D01*
X114016376Y-89926176D01*
X113830480Y-90050388D01*
X113672388Y-90208480D01*
X113548176Y-90394376D01*
X113462617Y-90600933D01*
X113419000Y-90820212D01*
X110488000Y-90820212D01*
X110488000Y-90505313D01*
X110563314Y-90323490D01*
X110617000Y-90053592D01*
X110617000Y-89778408D01*
X110563314Y-89508510D01*
X110458005Y-89254273D01*
X110305120Y-89025465D01*
X110110535Y-88830880D01*
X110022535Y-88772080D01*
X110106482Y-88763812D01*
X110226180Y-88727502D01*
X110336494Y-88668537D01*
X110433185Y-88589185D01*
X110512537Y-88492494D01*
X110571502Y-88382180D01*
X110607812Y-88262482D01*
X110620072Y-88138000D01*
X110617000Y-87661750D01*
X110458250Y-87503000D01*
X109347000Y-87503000D01*
X109347000Y-87523000D01*
X109093000Y-87523000D01*
X109093000Y-87503000D01*
X107981750Y-87503000D01*
X107823000Y-87661750D01*
X107819928Y-88138000D01*
X107832188Y-88262482D01*
X107868498Y-88382180D01*
X107927463Y-88492494D01*
X108006815Y-88589185D01*
X108103506Y-88668537D01*
X108213820Y-88727502D01*
X108333518Y-88763812D01*
X108417465Y-88772080D01*
X108329465Y-88830880D01*
X108134880Y-89025465D01*
X107981995Y-89254273D01*
X107876686Y-89508510D01*
X107823000Y-89778408D01*
X107823000Y-90053592D01*
X107876686Y-90323490D01*
X107981995Y-90577727D01*
X108134880Y-90806535D01*
X108329465Y-91001120D01*
X108558273Y-91154005D01*
X108812510Y-91259314D01*
X108968001Y-91290243D01*
X108968000Y-93823659D01*
X108837465Y-93910880D01*
X108642880Y-94105465D01*
X108584080Y-94193465D01*
X108575812Y-94109518D01*
X108539502Y-93989820D01*
X108480537Y-93879506D01*
X108401185Y-93782815D01*
X108304494Y-93703463D01*
X108194180Y-93644498D01*
X108074482Y-93608188D01*
X107950000Y-93595928D01*
X107473750Y-93599000D01*
X107315000Y-93757750D01*
X107061000Y-93757750D01*
X106902250Y-93599000D01*
X106426000Y-93595928D01*
X106301518Y-93608188D01*
X106181820Y-93644498D01*
X106071506Y-93703463D01*
X105974815Y-93782815D01*
X105895463Y-93879506D01*
X105836498Y-93989820D01*
X105800188Y-94109518D01*
X105787928Y-94234000D01*
X103809000Y-94234000D01*
X103809000Y-86614000D01*
X107819928Y-86614000D01*
X107823000Y-87090250D01*
X107981750Y-87249000D01*
X109093000Y-87249000D01*
X109093000Y-87229000D01*
X109347000Y-87229000D01*
X109347000Y-87249000D01*
X110458250Y-87249000D01*
X110617000Y-87090250D01*
X110620072Y-86614000D01*
X110607812Y-86489518D01*
X110571502Y-86369820D01*
X110545942Y-86322000D01*
X118195928Y-86322000D01*
X118195928Y-87922000D01*
X118208188Y-88046482D01*
X118244498Y-88166180D01*
X118303463Y-88276494D01*
X118382815Y-88373185D01*
X118479506Y-88452537D01*
X118589820Y-88511502D01*
X118709518Y-88547812D01*
X118717961Y-88548643D01*
X118519363Y-88747241D01*
X118362320Y-88982273D01*
X118254147Y-89243426D01*
X118199000Y-89520665D01*
X118199000Y-89803335D01*
X118254147Y-90080574D01*
X118362320Y-90341727D01*
X118519363Y-90576759D01*
X118719241Y-90776637D01*
X118951759Y-90932000D01*
X118719241Y-91087363D01*
X118519363Y-91287241D01*
X118362320Y-91522273D01*
X118254147Y-91783426D01*
X118199000Y-92060665D01*
X118199000Y-92343335D01*
X118254147Y-92620574D01*
X118362320Y-92881727D01*
X118519363Y-93116759D01*
X118719241Y-93316637D01*
X118954273Y-93473680D01*
X118964865Y-93478067D01*
X118778869Y-93589615D01*
X118570481Y-93778586D01*
X118402963Y-94004580D01*
X118282754Y-94258913D01*
X118242096Y-94392961D01*
X118364085Y-94615000D01*
X119507000Y-94615000D01*
X119507000Y-94595000D01*
X119761000Y-94595000D01*
X119761000Y-94615000D01*
X120903915Y-94615000D01*
X121025904Y-94392961D01*
X120985246Y-94258913D01*
X120865037Y-94004580D01*
X120697519Y-93778586D01*
X120489131Y-93589615D01*
X120303135Y-93478067D01*
X120313727Y-93473680D01*
X120548759Y-93316637D01*
X120748637Y-93116759D01*
X120905680Y-92881727D01*
X121013853Y-92620574D01*
X121069000Y-92343335D01*
X121069000Y-92060665D01*
X121013853Y-91783426D01*
X120905680Y-91522273D01*
X120748637Y-91287241D01*
X120548759Y-91087363D01*
X120316241Y-90932000D01*
X120548759Y-90776637D01*
X120748637Y-90576759D01*
X120905680Y-90341727D01*
X121013853Y-90080574D01*
X121069000Y-89803335D01*
X121069000Y-89520665D01*
X121013853Y-89243426D01*
X120905680Y-88982273D01*
X120748637Y-88747241D01*
X120550039Y-88548643D01*
X120558482Y-88547812D01*
X120678180Y-88511502D01*
X120788494Y-88452537D01*
X120885185Y-88373185D01*
X120964537Y-88276494D01*
X121023502Y-88166180D01*
X121059812Y-88046482D01*
X121072072Y-87922000D01*
X121072072Y-86980665D01*
X125819000Y-86980665D01*
X125819000Y-87263335D01*
X125874147Y-87540574D01*
X125982320Y-87801727D01*
X126139363Y-88036759D01*
X126339241Y-88236637D01*
X126571759Y-88392000D01*
X126339241Y-88547363D01*
X126139363Y-88747241D01*
X125982320Y-88982273D01*
X125874147Y-89243426D01*
X125819000Y-89520665D01*
X125819000Y-89803335D01*
X125874147Y-90080574D01*
X125982320Y-90341727D01*
X126139363Y-90576759D01*
X126339241Y-90776637D01*
X126571759Y-90932000D01*
X126339241Y-91087363D01*
X126139363Y-91287241D01*
X125982320Y-91522273D01*
X125874147Y-91783426D01*
X125819000Y-92060665D01*
X125819000Y-92343335D01*
X125874147Y-92620574D01*
X125982320Y-92881727D01*
X126139363Y-93116759D01*
X126339241Y-93316637D01*
X126571759Y-93472000D01*
X126339241Y-93627363D01*
X126139363Y-93827241D01*
X125982320Y-94062273D01*
X125874147Y-94323426D01*
X125819000Y-94600665D01*
X125819000Y-94883335D01*
X125874147Y-95160574D01*
X125982320Y-95421727D01*
X126139363Y-95656759D01*
X126339241Y-95856637D01*
X126574273Y-96013680D01*
X126835426Y-96121853D01*
X127112665Y-96177000D01*
X127395335Y-96177000D01*
X127672574Y-96121853D01*
X127933727Y-96013680D01*
X128168759Y-95856637D01*
X128267396Y-95758000D01*
X133731000Y-95758000D01*
X133731000Y-98298000D01*
X133733440Y-98322776D01*
X133740667Y-98346601D01*
X133752403Y-98368557D01*
X133768197Y-98387803D01*
X133787443Y-98403597D01*
X133809399Y-98415333D01*
X133833224Y-98422560D01*
X133858000Y-98425000D01*
X139954000Y-98425000D01*
X139978776Y-98422560D01*
X140002601Y-98415333D01*
X140024557Y-98403597D01*
X140043803Y-98387803D01*
X140059597Y-98368557D01*
X140071333Y-98346601D01*
X140078560Y-98322776D01*
X140081000Y-98298000D01*
X140081000Y-95758000D01*
X140078560Y-95733224D01*
X140071333Y-95709399D01*
X140059597Y-95687443D01*
X140043803Y-95668197D01*
X140024557Y-95652403D01*
X140002601Y-95640667D01*
X139978776Y-95633440D01*
X139954000Y-95631000D01*
X133858000Y-95631000D01*
X133833224Y-95633440D01*
X133809399Y-95640667D01*
X133787443Y-95652403D01*
X133768197Y-95668197D01*
X133752403Y-95687443D01*
X133740667Y-95709399D01*
X133733440Y-95733224D01*
X133731000Y-95758000D01*
X128267396Y-95758000D01*
X128368637Y-95656759D01*
X128525680Y-95421727D01*
X128633853Y-95160574D01*
X128689000Y-94883335D01*
X128689000Y-94600665D01*
X128633853Y-94323426D01*
X128525680Y-94062273D01*
X128368637Y-93827241D01*
X128168759Y-93627363D01*
X127936241Y-93472000D01*
X128168759Y-93316637D01*
X128368637Y-93116759D01*
X128525680Y-92881727D01*
X128633853Y-92620574D01*
X128689000Y-92343335D01*
X128689000Y-92060665D01*
X128633853Y-91783426D01*
X128525680Y-91522273D01*
X128368637Y-91287241D01*
X128168759Y-91087363D01*
X127936241Y-90932000D01*
X128135972Y-90798544D01*
X130979000Y-90798544D01*
X130979000Y-91065456D01*
X131031072Y-91327239D01*
X131133215Y-91573833D01*
X131281503Y-91795762D01*
X131470238Y-91984497D01*
X131692167Y-92132785D01*
X131938761Y-92234928D01*
X132200544Y-92287000D01*
X132467456Y-92287000D01*
X132729239Y-92234928D01*
X132975833Y-92132785D01*
X133197762Y-91984497D01*
X133314699Y-91867560D01*
X136658045Y-91867560D01*
X136719932Y-92103368D01*
X136961790Y-92216266D01*
X137221027Y-92279811D01*
X137487680Y-92291561D01*
X137751501Y-92251063D01*
X138002353Y-92159875D01*
X138108068Y-92103368D01*
X138169955Y-91867560D01*
X137414000Y-91111605D01*
X136658045Y-91867560D01*
X133314699Y-91867560D01*
X133386497Y-91795762D01*
X133534785Y-91573833D01*
X133636928Y-91327239D01*
X133689000Y-91065456D01*
X133689000Y-91005680D01*
X136054439Y-91005680D01*
X136094937Y-91269501D01*
X136186125Y-91520353D01*
X136242632Y-91626068D01*
X136478440Y-91687955D01*
X137234395Y-90932000D01*
X137593605Y-90932000D01*
X138349560Y-91687955D01*
X138585368Y-91626068D01*
X138698266Y-91384210D01*
X138761811Y-91124973D01*
X138773561Y-90858320D01*
X138733063Y-90594499D01*
X138641875Y-90343647D01*
X138585368Y-90237932D01*
X138349560Y-90176045D01*
X137593605Y-90932000D01*
X137234395Y-90932000D01*
X136478440Y-90176045D01*
X136242632Y-90237932D01*
X136129734Y-90479790D01*
X136066189Y-90739027D01*
X136054439Y-91005680D01*
X133689000Y-91005680D01*
X133689000Y-90798544D01*
X133636928Y-90536761D01*
X133534785Y-90290167D01*
X133386497Y-90068238D01*
X133314699Y-89996440D01*
X136658045Y-89996440D01*
X137414000Y-90752395D01*
X138169955Y-89996440D01*
X138108068Y-89760632D01*
X137866210Y-89647734D01*
X137606973Y-89584189D01*
X137340320Y-89572439D01*
X137076499Y-89612937D01*
X136825647Y-89704125D01*
X136719932Y-89760632D01*
X136658045Y-89996440D01*
X133314699Y-89996440D01*
X133197762Y-89879503D01*
X132975833Y-89731215D01*
X132729239Y-89629072D01*
X132467456Y-89577000D01*
X132200544Y-89577000D01*
X131938761Y-89629072D01*
X131692167Y-89731215D01*
X131470238Y-89879503D01*
X131281503Y-90068238D01*
X131133215Y-90290167D01*
X131031072Y-90536761D01*
X130979000Y-90798544D01*
X128135972Y-90798544D01*
X128168759Y-90776637D01*
X128368637Y-90576759D01*
X128525680Y-90341727D01*
X128633853Y-90080574D01*
X128689000Y-89803335D01*
X128689000Y-89520665D01*
X128633853Y-89243426D01*
X128525680Y-88982273D01*
X128368637Y-88747241D01*
X128168759Y-88547363D01*
X127936241Y-88392000D01*
X128135972Y-88258544D01*
X133519000Y-88258544D01*
X133519000Y-88525456D01*
X133571072Y-88787239D01*
X133673215Y-89033833D01*
X133821503Y-89255762D01*
X134010238Y-89444497D01*
X134232167Y-89592785D01*
X134478761Y-89694928D01*
X134740544Y-89747000D01*
X135007456Y-89747000D01*
X135269239Y-89694928D01*
X135515833Y-89592785D01*
X135737762Y-89444497D01*
X135926497Y-89255762D01*
X136074785Y-89033833D01*
X136176928Y-88787239D01*
X136229000Y-88525456D01*
X136229000Y-88258544D01*
X136176928Y-87996761D01*
X136074785Y-87750167D01*
X135926497Y-87528238D01*
X135737762Y-87339503D01*
X135515833Y-87191215D01*
X135269239Y-87089072D01*
X135007456Y-87037000D01*
X134740544Y-87037000D01*
X134478761Y-87089072D01*
X134232167Y-87191215D01*
X134010238Y-87339503D01*
X133821503Y-87528238D01*
X133673215Y-87750167D01*
X133571072Y-87996761D01*
X133519000Y-88258544D01*
X128135972Y-88258544D01*
X128168759Y-88236637D01*
X128368637Y-88036759D01*
X128525680Y-87801727D01*
X128633853Y-87540574D01*
X128689000Y-87263335D01*
X128689000Y-86980665D01*
X128633853Y-86703426D01*
X128525680Y-86442273D01*
X128368637Y-86207241D01*
X128168759Y-86007363D01*
X127933727Y-85850320D01*
X127672574Y-85742147D01*
X127395335Y-85687000D01*
X127112665Y-85687000D01*
X126835426Y-85742147D01*
X126574273Y-85850320D01*
X126339241Y-86007363D01*
X126139363Y-86207241D01*
X125982320Y-86442273D01*
X125874147Y-86703426D01*
X125819000Y-86980665D01*
X121072072Y-86980665D01*
X121072072Y-86322000D01*
X121059812Y-86197518D01*
X121023502Y-86077820D01*
X120964537Y-85967506D01*
X120885185Y-85870815D01*
X120788494Y-85791463D01*
X120678180Y-85732498D01*
X120558482Y-85696188D01*
X120434000Y-85683928D01*
X118834000Y-85683928D01*
X118709518Y-85696188D01*
X118589820Y-85732498D01*
X118479506Y-85791463D01*
X118382815Y-85870815D01*
X118303463Y-85967506D01*
X118244498Y-86077820D01*
X118208188Y-86197518D01*
X118195928Y-86322000D01*
X110545942Y-86322000D01*
X110512537Y-86259506D01*
X110433185Y-86162815D01*
X110336494Y-86083463D01*
X110226180Y-86024498D01*
X110106482Y-85988188D01*
X110022535Y-85979920D01*
X110110535Y-85921120D01*
X110305120Y-85726535D01*
X110458005Y-85497727D01*
X110563314Y-85243490D01*
X110617000Y-84973592D01*
X110617000Y-84698408D01*
X110563314Y-84428510D01*
X110458005Y-84174273D01*
X110305120Y-83945465D01*
X110110535Y-83750880D01*
X109881727Y-83597995D01*
X109804485Y-83566000D01*
X109881727Y-83534005D01*
X110110535Y-83381120D01*
X110305120Y-83186535D01*
X110458005Y-82957727D01*
X110563314Y-82703490D01*
X110617000Y-82433592D01*
X110617000Y-82158408D01*
X110563314Y-81888510D01*
X110458005Y-81634273D01*
X110305120Y-81405465D01*
X110110535Y-81210880D01*
X109881727Y-81057995D01*
X109627490Y-80952686D01*
X109357592Y-80899000D01*
X109082408Y-80899000D01*
X108812510Y-80952686D01*
X108558273Y-81057995D01*
X108329465Y-81210880D01*
X108134880Y-81405465D01*
X107981995Y-81634273D01*
X107876686Y-81888510D01*
X107823000Y-82158408D01*
X107823000Y-82433592D01*
X107876686Y-82703490D01*
X107981995Y-82957727D01*
X108134880Y-83186535D01*
X108329465Y-83381120D01*
X108558273Y-83534005D01*
X108635515Y-83566000D01*
X108558273Y-83597995D01*
X108329465Y-83750880D01*
X108134880Y-83945465D01*
X107981995Y-84174273D01*
X107876686Y-84428510D01*
X107823000Y-84698408D01*
X107823000Y-84973592D01*
X107876686Y-85243490D01*
X107981995Y-85497727D01*
X108134880Y-85726535D01*
X108329465Y-85921120D01*
X108417465Y-85979920D01*
X108333518Y-85988188D01*
X108213820Y-86024498D01*
X108103506Y-86083463D01*
X108006815Y-86162815D01*
X107927463Y-86259506D01*
X107868498Y-86369820D01*
X107832188Y-86489518D01*
X107819928Y-86614000D01*
X103809000Y-86614000D01*
X103809000Y-76820665D01*
X106769000Y-76820665D01*
X106769000Y-77103335D01*
X106824147Y-77380574D01*
X106932320Y-77641727D01*
X107089363Y-77876759D01*
X107289241Y-78076637D01*
X107524273Y-78233680D01*
X107785426Y-78341853D01*
X108062665Y-78397000D01*
X108345335Y-78397000D01*
X108622574Y-78341853D01*
X108883727Y-78233680D01*
X109118759Y-78076637D01*
X109318637Y-77876759D01*
X109475680Y-77641727D01*
X109583853Y-77380574D01*
X109639000Y-77103335D01*
X109639000Y-76820665D01*
X111849000Y-76820665D01*
X111849000Y-77103335D01*
X111904147Y-77380574D01*
X112012320Y-77641727D01*
X112169363Y-77876759D01*
X112369241Y-78076637D01*
X112604273Y-78233680D01*
X112865426Y-78341853D01*
X113142665Y-78397000D01*
X113425335Y-78397000D01*
X113702574Y-78341853D01*
X113963727Y-78233680D01*
X114198759Y-78076637D01*
X114398637Y-77876759D01*
X114555680Y-77641727D01*
X114663853Y-77380574D01*
X114719000Y-77103335D01*
X114719000Y-76820665D01*
X114663853Y-76543426D01*
X114555680Y-76282273D01*
X114398637Y-76047241D01*
X114198759Y-75847363D01*
X113963727Y-75690320D01*
X113702574Y-75582147D01*
X113425335Y-75527000D01*
X113142665Y-75527000D01*
X112865426Y-75582147D01*
X112604273Y-75690320D01*
X112369241Y-75847363D01*
X112169363Y-76047241D01*
X112012320Y-76282273D01*
X111904147Y-76543426D01*
X111849000Y-76820665D01*
X109639000Y-76820665D01*
X109583853Y-76543426D01*
X109475680Y-76282273D01*
X109318637Y-76047241D01*
X109118759Y-75847363D01*
X108883727Y-75690320D01*
X108622574Y-75582147D01*
X108345335Y-75527000D01*
X108062665Y-75527000D01*
X107785426Y-75582147D01*
X107524273Y-75690320D01*
X107289241Y-75847363D01*
X107089363Y-76047241D01*
X106932320Y-76282273D01*
X106824147Y-76543426D01*
X106769000Y-76820665D01*
X103809000Y-76820665D01*
X103809000Y-74771040D01*
X120782091Y-74771040D01*
X120876930Y-75035881D01*
X121021615Y-75277131D01*
X121210586Y-75485519D01*
X121436580Y-75653037D01*
X121690913Y-75773246D01*
X121824961Y-75813904D01*
X122047000Y-75691915D01*
X122047000Y-74549000D01*
X120903376Y-74549000D01*
X120782091Y-74771040D01*
X103809000Y-74771040D01*
X103809000Y-74072960D01*
X120782091Y-74072960D01*
X120903376Y-74295000D01*
X122047000Y-74295000D01*
X122047000Y-73152085D01*
X121824961Y-73030096D01*
X121690913Y-73070754D01*
X121436580Y-73190963D01*
X121210586Y-73358481D01*
X121021615Y-73566869D01*
X120876930Y-73808119D01*
X120782091Y-74072960D01*
X103809000Y-74072960D01*
X103809000Y-71297000D01*
X170467647Y-71297000D01*
X170561000Y-71287805D01*
X170561000Y-99146195D01*
G36*
X162309001Y-78703678D02*
G01*
X162305325Y-78741001D01*
X162309001Y-78778323D01*
X162309001Y-78778333D01*
X162319998Y-78889986D01*
X162334624Y-78938201D01*
X162363455Y-79033247D01*
X162434027Y-79165277D01*
X162470529Y-79209754D01*
X162529000Y-79281002D01*
X162558004Y-79304805D01*
X165257628Y-82004430D01*
X165227000Y-82158408D01*
X165227000Y-82433592D01*
X165280686Y-82703490D01*
X165385995Y-82957727D01*
X165538880Y-83186535D01*
X165733465Y-83381120D01*
X165962273Y-83534005D01*
X166039515Y-83566000D01*
X165962273Y-83597995D01*
X165733465Y-83750880D01*
X165538880Y-83945465D01*
X165385995Y-84174273D01*
X165280686Y-84428510D01*
X165227000Y-84698408D01*
X165227000Y-84973592D01*
X165280686Y-85243490D01*
X165385995Y-85497727D01*
X165538880Y-85726535D01*
X165733465Y-85921120D01*
X165821465Y-85979920D01*
X165737518Y-85988188D01*
X165617820Y-86024498D01*
X165507506Y-86083463D01*
X165410815Y-86162815D01*
X165331463Y-86259506D01*
X165272498Y-86369820D01*
X165236188Y-86489518D01*
X165223928Y-86614000D01*
X165227000Y-87090250D01*
X165385750Y-87249000D01*
X166497000Y-87249000D01*
X166497000Y-87229000D01*
X166751000Y-87229000D01*
X166751000Y-87249000D01*
X166771000Y-87249000D01*
X166771000Y-87503000D01*
X166751000Y-87503000D01*
X166751000Y-87523000D01*
X166497000Y-87523000D01*
X166497000Y-87503000D01*
X165385750Y-87503000D01*
X165227000Y-87661750D01*
X165223928Y-88138000D01*
X165236188Y-88262482D01*
X165272498Y-88382180D01*
X165331463Y-88492494D01*
X165410815Y-88589185D01*
X165507506Y-88668537D01*
X165617820Y-88727502D01*
X165737518Y-88763812D01*
X165821465Y-88772080D01*
X165733465Y-88830880D01*
X165538880Y-89025465D01*
X165385995Y-89254273D01*
X165280686Y-89508510D01*
X165227000Y-89778408D01*
X165227000Y-90053592D01*
X165280686Y-90323490D01*
X165385995Y-90577727D01*
X165538880Y-90806535D01*
X165733465Y-91001120D01*
X165962273Y-91154005D01*
X166216510Y-91259314D01*
X166486408Y-91313000D01*
X166761592Y-91313000D01*
X167031490Y-91259314D01*
X167285727Y-91154005D01*
X167514535Y-91001120D01*
X167709120Y-90806535D01*
X167862005Y-90577727D01*
X167896000Y-90495655D01*
X167896000Y-96437088D01*
X167891636Y-96424977D01*
X167829656Y-96309020D01*
X167589565Y-96242040D01*
X166803605Y-97028000D01*
X166817748Y-97042143D01*
X166638143Y-97221748D01*
X166624000Y-97207605D01*
X165838040Y-97993565D01*
X165905020Y-98233656D01*
X166046109Y-98300000D01*
X164663656Y-98300000D01*
X164745727Y-98266005D01*
X164974535Y-98113120D01*
X165169120Y-97918535D01*
X165322005Y-97689727D01*
X165351692Y-97618057D01*
X165356364Y-97631023D01*
X165418344Y-97746980D01*
X165658435Y-97813960D01*
X166444395Y-97028000D01*
X165658435Y-96242040D01*
X165418344Y-96309020D01*
X165354515Y-96444760D01*
X165322005Y-96366273D01*
X165169120Y-96137465D01*
X165094090Y-96062435D01*
X165838040Y-96062435D01*
X166624000Y-96848395D01*
X167409960Y-96062435D01*
X167342980Y-95822344D01*
X167093952Y-95705244D01*
X166826865Y-95638977D01*
X166551983Y-95626090D01*
X166279867Y-95667078D01*
X166020977Y-95760364D01*
X165905020Y-95822344D01*
X165838040Y-96062435D01*
X165094090Y-96062435D01*
X164974535Y-95942880D01*
X164844000Y-95855659D01*
X164844000Y-86397323D01*
X164847676Y-86360000D01*
X164844000Y-86322677D01*
X164844000Y-86322667D01*
X164833003Y-86211014D01*
X164789546Y-86067753D01*
X164718974Y-85935723D01*
X164647799Y-85848997D01*
X164624001Y-85819999D01*
X164595004Y-85796202D01*
X162874072Y-84075271D01*
X162874072Y-82112000D01*
X162861812Y-81987518D01*
X162825502Y-81867820D01*
X162766537Y-81757506D01*
X162687185Y-81660815D01*
X162590494Y-81581463D01*
X162480180Y-81522498D01*
X162360482Y-81486188D01*
X162236000Y-81473928D01*
X160270999Y-81473928D01*
X160270999Y-78039802D01*
X160899551Y-77411250D01*
X161008750Y-77456482D01*
X161363268Y-77527000D01*
X161724732Y-77527000D01*
X162079250Y-77456482D01*
X162309001Y-77361316D01*
X162309001Y-78703678D01*
G37*
X162309001Y-78703678D02*
X162305325Y-78741001D01*
X162309001Y-78778323D01*
X162309001Y-78778333D01*
X162319998Y-78889986D01*
X162334624Y-78938201D01*
X162363455Y-79033247D01*
X162434027Y-79165277D01*
X162470529Y-79209754D01*
X162529000Y-79281002D01*
X162558004Y-79304805D01*
X165257628Y-82004430D01*
X165227000Y-82158408D01*
X165227000Y-82433592D01*
X165280686Y-82703490D01*
X165385995Y-82957727D01*
X165538880Y-83186535D01*
X165733465Y-83381120D01*
X165962273Y-83534005D01*
X166039515Y-83566000D01*
X165962273Y-83597995D01*
X165733465Y-83750880D01*
X165538880Y-83945465D01*
X165385995Y-84174273D01*
X165280686Y-84428510D01*
X165227000Y-84698408D01*
X165227000Y-84973592D01*
X165280686Y-85243490D01*
X165385995Y-85497727D01*
X165538880Y-85726535D01*
X165733465Y-85921120D01*
X165821465Y-85979920D01*
X165737518Y-85988188D01*
X165617820Y-86024498D01*
X165507506Y-86083463D01*
X165410815Y-86162815D01*
X165331463Y-86259506D01*
X165272498Y-86369820D01*
X165236188Y-86489518D01*
X165223928Y-86614000D01*
X165227000Y-87090250D01*
X165385750Y-87249000D01*
X166497000Y-87249000D01*
X166497000Y-87229000D01*
X166751000Y-87229000D01*
X166751000Y-87249000D01*
X166771000Y-87249000D01*
X166771000Y-87503000D01*
X166751000Y-87503000D01*
X166751000Y-87523000D01*
X166497000Y-87523000D01*
X166497000Y-87503000D01*
X165385750Y-87503000D01*
X165227000Y-87661750D01*
X165223928Y-88138000D01*
X165236188Y-88262482D01*
X165272498Y-88382180D01*
X165331463Y-88492494D01*
X165410815Y-88589185D01*
X165507506Y-88668537D01*
X165617820Y-88727502D01*
X165737518Y-88763812D01*
X165821465Y-88772080D01*
X165733465Y-88830880D01*
X165538880Y-89025465D01*
X165385995Y-89254273D01*
X165280686Y-89508510D01*
X165227000Y-89778408D01*
X165227000Y-90053592D01*
X165280686Y-90323490D01*
X165385995Y-90577727D01*
X165538880Y-90806535D01*
X165733465Y-91001120D01*
X165962273Y-91154005D01*
X166216510Y-91259314D01*
X166486408Y-91313000D01*
X166761592Y-91313000D01*
X167031490Y-91259314D01*
X167285727Y-91154005D01*
X167514535Y-91001120D01*
X167709120Y-90806535D01*
X167862005Y-90577727D01*
X167896000Y-90495655D01*
X167896000Y-96437088D01*
X167891636Y-96424977D01*
X167829656Y-96309020D01*
X167589565Y-96242040D01*
X166803605Y-97028000D01*
X166817748Y-97042143D01*
X166638143Y-97221748D01*
X166624000Y-97207605D01*
X165838040Y-97993565D01*
X165905020Y-98233656D01*
X166046109Y-98300000D01*
X164663656Y-98300000D01*
X164745727Y-98266005D01*
X164974535Y-98113120D01*
X165169120Y-97918535D01*
X165322005Y-97689727D01*
X165351692Y-97618057D01*
X165356364Y-97631023D01*
X165418344Y-97746980D01*
X165658435Y-97813960D01*
X166444395Y-97028000D01*
X165658435Y-96242040D01*
X165418344Y-96309020D01*
X165354515Y-96444760D01*
X165322005Y-96366273D01*
X165169120Y-96137465D01*
X165094090Y-96062435D01*
X165838040Y-96062435D01*
X166624000Y-96848395D01*
X167409960Y-96062435D01*
X167342980Y-95822344D01*
X167093952Y-95705244D01*
X166826865Y-95638977D01*
X166551983Y-95626090D01*
X166279867Y-95667078D01*
X166020977Y-95760364D01*
X165905020Y-95822344D01*
X165838040Y-96062435D01*
X165094090Y-96062435D01*
X164974535Y-95942880D01*
X164844000Y-95855659D01*
X164844000Y-86397323D01*
X164847676Y-86360000D01*
X164844000Y-86322677D01*
X164844000Y-86322667D01*
X164833003Y-86211014D01*
X164789546Y-86067753D01*
X164718974Y-85935723D01*
X164647799Y-85848997D01*
X164624001Y-85819999D01*
X164595004Y-85796202D01*
X162874072Y-84075271D01*
X162874072Y-82112000D01*
X162861812Y-81987518D01*
X162825502Y-81867820D01*
X162766537Y-81757506D01*
X162687185Y-81660815D01*
X162590494Y-81581463D01*
X162480180Y-81522498D01*
X162360482Y-81486188D01*
X162236000Y-81473928D01*
X160270999Y-81473928D01*
X160270999Y-78039802D01*
X160899551Y-77411250D01*
X161008750Y-77456482D01*
X161363268Y-77527000D01*
X161724732Y-77527000D01*
X162079250Y-77456482D01*
X162309001Y-77361316D01*
X162309001Y-78703678D01*
%TD*%
M02*
