M48
; DRILL file {KiCad (5.1.6)-1} date 08/18/20 15:15:37
; FORMAT={-:-/ absolute / inch / decimal}
; #@! TF.CreationDate,2020-08-18T15:15:37+05:00
; #@! TF.GenerationSoftware,Kicad,Pcbnew,(5.1.6)-1
; #@! TF.FileFunction,Plated,1,2,PTH
FMAT,2
INCH
T1C0.0197
T2C0.0300
T3C0.0315
T4C0.0394
T5C0.0433
T6C0.0472
%
G90
G05
T1
X4.51Y-3.58
X4.61Y-3.58
T2
X4.3Y-3.24
X4.3Y-3.34
X4.3Y-3.44
X4.3Y-3.54
X6.56Y-3.24
X6.56Y-3.34
X6.56Y-3.44
X6.56Y-3.54
T3
X5.21Y-3.58
X5.31Y-3.48
X5.41Y-3.58
X4.26Y-3.03
X4.46Y-3.03
X4.81Y-2.93
X4.81Y-3.23
X4.91Y-2.93
X4.91Y-3.23
X5.01Y-2.93
X5.01Y-3.23
X5.11Y-2.93
X5.11Y-3.23
X5.21Y-2.93
X5.21Y-3.23
X5.31Y-2.93
X5.31Y-3.23
X5.41Y-2.93
X5.41Y-3.23
X5.51Y-2.93
X5.51Y-3.23
X5.61Y-2.93
X5.61Y-3.23
X5.71Y-2.93
X5.71Y-3.23
X4.71Y-3.43
X4.71Y-3.53
X4.71Y-3.63
X4.71Y-3.73
X5.01Y-3.43
X5.01Y-3.53
X5.01Y-3.63
X5.01Y-3.73
X5.91Y-2.98
X6.11Y-2.98
T4
X5.76Y-3.58
X6.0592Y-3.58
T5
X5.92Y-3.23
X6.01Y-3.23
X6.1Y-3.23
X7.0728Y-3.79
X7.0728Y-4.0459
X7.25Y-3.79
X7.25Y-4.0459
X7.0728Y-3.34
X7.0728Y-3.5959
X7.25Y-3.34
X7.25Y-3.5959
X7.0728Y-2.89
X7.0728Y-3.1459
X7.25Y-2.89
X7.25Y-3.1459
T6
X6.36Y-2.98
X6.56Y-2.98
X6.34Y-3.28
X6.34Y-3.48
T0
M30
