%TF.GenerationSoftware,KiCad,Pcbnew,(5.1.6)-1*%
%TF.CreationDate,2020-08-18T15:16:32+05:00*%
%TF.ProjectId,attiny2313_tm1637_ds1302,61747469-6e79-4323-9331-335f746d3136,1*%
%TF.SameCoordinates,Original*%
%TF.FileFunction,Legend,Top*%
%TF.FilePolarity,Positive*%
%FSLAX46Y46*%
G04 Gerber Fmt 4.6, Leading zero omitted, Abs format (unit mm)*
G04 Created by KiCad (PCBNEW (5.1.6)-1) date 2020-08-18 15:16:32*
%MOMM*%
%LPD*%
G01*
G04 APERTURE LIST*
%ADD10C,0.100000*%
%ADD11C,0.150000*%
%ADD12C,0.300000*%
%ADD13C,0.400000*%
%ADD14C,0.120000*%
G04 APERTURE END LIST*
D10*
D11*
X177002200Y-166007200D02*
X177002200Y-198007200D01*
X285002200Y-198007200D01*
X285002200Y-166007200D01*
X177002200Y-166007200D01*
D10*
D11*
X10000000Y-10000000D02*
X10000000Y-200007200D01*
X287002200Y-200007200D01*
X287002200Y-10000000D01*
X10000000Y-10000000D01*
D10*
D11*
X12000000Y-12000000D02*
X12000000Y-198007200D01*
X285002200Y-198007200D01*
X285002200Y-12000000D01*
X12000000Y-12000000D01*
D10*
D11*
X60000000Y-12000000D02*
X60000000Y-10000000D01*
D10*
D11*
X110000000Y-12000000D02*
X110000000Y-10000000D01*
D10*
D11*
X160000000Y-12000000D02*
X160000000Y-10000000D01*
D10*
D11*
X210000000Y-12000000D02*
X210000000Y-10000000D01*
D10*
D11*
X260000000Y-12000000D02*
X260000000Y-10000000D01*
D10*
D11*
X36065476Y-11588095D02*
X35322619Y-11588095D01*
X35694047Y-11588095D02*
X35694047Y-10288095D01*
X35570238Y-10473809D01*
X35446428Y-10597619D01*
X35322619Y-10659523D01*
D10*
D11*
X85322619Y-10411904D02*
X85384523Y-10350000D01*
X85508333Y-10288095D01*
X85817857Y-10288095D01*
X85941666Y-10350000D01*
X86003571Y-10411904D01*
X86065476Y-10535714D01*
X86065476Y-10659523D01*
X86003571Y-10845238D01*
X85260714Y-11588095D01*
X86065476Y-11588095D01*
D10*
D11*
X135260714Y-10288095D02*
X136065476Y-10288095D01*
X135632142Y-10783333D01*
X135817857Y-10783333D01*
X135941666Y-10845238D01*
X136003571Y-10907142D01*
X136065476Y-11030952D01*
X136065476Y-11340476D01*
X136003571Y-11464285D01*
X135941666Y-11526190D01*
X135817857Y-11588095D01*
X135446428Y-11588095D01*
X135322619Y-11526190D01*
X135260714Y-11464285D01*
D10*
D11*
X185941666Y-10721428D02*
X185941666Y-11588095D01*
X185632142Y-10226190D02*
X185322619Y-11154761D01*
X186127380Y-11154761D01*
D10*
D11*
X236003571Y-10288095D02*
X235384523Y-10288095D01*
X235322619Y-10907142D01*
X235384523Y-10845238D01*
X235508333Y-10783333D01*
X235817857Y-10783333D01*
X235941666Y-10845238D01*
X236003571Y-10907142D01*
X236065476Y-11030952D01*
X236065476Y-11340476D01*
X236003571Y-11464285D01*
X235941666Y-11526190D01*
X235817857Y-11588095D01*
X235508333Y-11588095D01*
X235384523Y-11526190D01*
X235322619Y-11464285D01*
D10*
D11*
X285941666Y-10288095D02*
X285694047Y-10288095D01*
X285570238Y-10350000D01*
X285508333Y-10411904D01*
X285384523Y-10597619D01*
X285322619Y-10845238D01*
X285322619Y-11340476D01*
X285384523Y-11464285D01*
X285446428Y-11526190D01*
X285570238Y-11588095D01*
X285817857Y-11588095D01*
X285941666Y-11526190D01*
X286003571Y-11464285D01*
X286065476Y-11340476D01*
X286065476Y-11030952D01*
X286003571Y-10907142D01*
X285941666Y-10845238D01*
X285817857Y-10783333D01*
X285570238Y-10783333D01*
X285446428Y-10845238D01*
X285384523Y-10907142D01*
X285322619Y-11030952D01*
D10*
D11*
X60000000Y-198007200D02*
X60000000Y-200007200D01*
D10*
D11*
X110000000Y-198007200D02*
X110000000Y-200007200D01*
D10*
D11*
X160000000Y-198007200D02*
X160000000Y-200007200D01*
D10*
D11*
X210000000Y-198007200D02*
X210000000Y-200007200D01*
D10*
D11*
X260000000Y-198007200D02*
X260000000Y-200007200D01*
D10*
D11*
X36065476Y-199595295D02*
X35322619Y-199595295D01*
X35694047Y-199595295D02*
X35694047Y-198295295D01*
X35570238Y-198481009D01*
X35446428Y-198604819D01*
X35322619Y-198666723D01*
D10*
D11*
X85322619Y-198419104D02*
X85384523Y-198357200D01*
X85508333Y-198295295D01*
X85817857Y-198295295D01*
X85941666Y-198357200D01*
X86003571Y-198419104D01*
X86065476Y-198542914D01*
X86065476Y-198666723D01*
X86003571Y-198852438D01*
X85260714Y-199595295D01*
X86065476Y-199595295D01*
D10*
D11*
X135260714Y-198295295D02*
X136065476Y-198295295D01*
X135632142Y-198790533D01*
X135817857Y-198790533D01*
X135941666Y-198852438D01*
X136003571Y-198914342D01*
X136065476Y-199038152D01*
X136065476Y-199347676D01*
X136003571Y-199471485D01*
X135941666Y-199533390D01*
X135817857Y-199595295D01*
X135446428Y-199595295D01*
X135322619Y-199533390D01*
X135260714Y-199471485D01*
D10*
D11*
X185941666Y-198728628D02*
X185941666Y-199595295D01*
X185632142Y-198233390D02*
X185322619Y-199161961D01*
X186127380Y-199161961D01*
D10*
D11*
X236003571Y-198295295D02*
X235384523Y-198295295D01*
X235322619Y-198914342D01*
X235384523Y-198852438D01*
X235508333Y-198790533D01*
X235817857Y-198790533D01*
X235941666Y-198852438D01*
X236003571Y-198914342D01*
X236065476Y-199038152D01*
X236065476Y-199347676D01*
X236003571Y-199471485D01*
X235941666Y-199533390D01*
X235817857Y-199595295D01*
X235508333Y-199595295D01*
X235384523Y-199533390D01*
X235322619Y-199471485D01*
D10*
D11*
X285941666Y-198295295D02*
X285694047Y-198295295D01*
X285570238Y-198357200D01*
X285508333Y-198419104D01*
X285384523Y-198604819D01*
X285322619Y-198852438D01*
X285322619Y-199347676D01*
X285384523Y-199471485D01*
X285446428Y-199533390D01*
X285570238Y-199595295D01*
X285817857Y-199595295D01*
X285941666Y-199533390D01*
X286003571Y-199471485D01*
X286065476Y-199347676D01*
X286065476Y-199038152D01*
X286003571Y-198914342D01*
X285941666Y-198852438D01*
X285817857Y-198790533D01*
X285570238Y-198790533D01*
X285446428Y-198852438D01*
X285384523Y-198914342D01*
X285322619Y-199038152D01*
D10*
D11*
X10000000Y-60000000D02*
X12000000Y-60000000D01*
D10*
D11*
X10000000Y-110000000D02*
X12000000Y-110000000D01*
D10*
D11*
X10000000Y-160000000D02*
X12000000Y-160000000D01*
D10*
D11*
X10690476Y-35216666D02*
X11309523Y-35216666D01*
X10566666Y-35588095D02*
X11000000Y-34288095D01*
X11433333Y-35588095D01*
D10*
D11*
X11092857Y-84907142D02*
X11278571Y-84969047D01*
X11340476Y-85030952D01*
X11402380Y-85154761D01*
X11402380Y-85340476D01*
X11340476Y-85464285D01*
X11278571Y-85526190D01*
X11154761Y-85588095D01*
X10659523Y-85588095D01*
X10659523Y-84288095D01*
X11092857Y-84288095D01*
X11216666Y-84350000D01*
X11278571Y-84411904D01*
X11340476Y-84535714D01*
X11340476Y-84659523D01*
X11278571Y-84783333D01*
X11216666Y-84845238D01*
X11092857Y-84907142D01*
X10659523Y-84907142D01*
D10*
D11*
X11402380Y-135464285D02*
X11340476Y-135526190D01*
X11154761Y-135588095D01*
X11030952Y-135588095D01*
X10845238Y-135526190D01*
X10721428Y-135402380D01*
X10659523Y-135278571D01*
X10597619Y-135030952D01*
X10597619Y-134845238D01*
X10659523Y-134597619D01*
X10721428Y-134473809D01*
X10845238Y-134350000D01*
X11030952Y-134288095D01*
X11154761Y-134288095D01*
X11340476Y-134350000D01*
X11402380Y-134411904D01*
D10*
D11*
X10659523Y-185588095D02*
X10659523Y-184288095D01*
X10969047Y-184288095D01*
X11154761Y-184350000D01*
X11278571Y-184473809D01*
X11340476Y-184597619D01*
X11402380Y-184845238D01*
X11402380Y-185030952D01*
X11340476Y-185278571D01*
X11278571Y-185402380D01*
X11154761Y-185526190D01*
X10969047Y-185588095D01*
X10659523Y-185588095D01*
D10*
D11*
X287002200Y-60000000D02*
X285002200Y-60000000D01*
D10*
D11*
X287002200Y-110000000D02*
X285002200Y-110000000D01*
D10*
D11*
X287002200Y-160000000D02*
X285002200Y-160000000D01*
D10*
D11*
X285692676Y-35216666D02*
X286311723Y-35216666D01*
X285568866Y-35588095D02*
X286002200Y-34288095D01*
X286435533Y-35588095D01*
D10*
D11*
X286095057Y-84907142D02*
X286280771Y-84969047D01*
X286342676Y-85030952D01*
X286404580Y-85154761D01*
X286404580Y-85340476D01*
X286342676Y-85464285D01*
X286280771Y-85526190D01*
X286156961Y-85588095D01*
X285661723Y-85588095D01*
X285661723Y-84288095D01*
X286095057Y-84288095D01*
X286218866Y-84350000D01*
X286280771Y-84411904D01*
X286342676Y-84535714D01*
X286342676Y-84659523D01*
X286280771Y-84783333D01*
X286218866Y-84845238D01*
X286095057Y-84907142D01*
X285661723Y-84907142D01*
D10*
D11*
X286404580Y-135464285D02*
X286342676Y-135526190D01*
X286156961Y-135588095D01*
X286033152Y-135588095D01*
X285847438Y-135526190D01*
X285723628Y-135402380D01*
X285661723Y-135278571D01*
X285599819Y-135030952D01*
X285599819Y-134845238D01*
X285661723Y-134597619D01*
X285723628Y-134473809D01*
X285847438Y-134350000D01*
X286033152Y-134288095D01*
X286156961Y-134288095D01*
X286342676Y-134350000D01*
X286404580Y-134411904D01*
D10*
D11*
X285661723Y-185588095D02*
X285661723Y-184288095D01*
X285971247Y-184288095D01*
X286156961Y-184350000D01*
X286280771Y-184473809D01*
X286342676Y-184597619D01*
X286404580Y-184845238D01*
X286404580Y-185030952D01*
X286342676Y-185278571D01*
X286280771Y-185402380D01*
X286156961Y-185526190D01*
X285971247Y-185588095D01*
X285661723Y-185588095D01*
D10*
D11*
X200434342Y-193785771D02*
X200434342Y-192285771D01*
X200791485Y-192285771D01*
X201005771Y-192357200D01*
X201148628Y-192500057D01*
X201220057Y-192642914D01*
X201291485Y-192928628D01*
X201291485Y-193142914D01*
X201220057Y-193428628D01*
X201148628Y-193571485D01*
X201005771Y-193714342D01*
X200791485Y-193785771D01*
X200434342Y-193785771D01*
X202577200Y-193785771D02*
X202577200Y-193000057D01*
X202505771Y-192857200D01*
X202362914Y-192785771D01*
X202077200Y-192785771D01*
X201934342Y-192857200D01*
X202577200Y-193714342D02*
X202434342Y-193785771D01*
X202077200Y-193785771D01*
X201934342Y-193714342D01*
X201862914Y-193571485D01*
X201862914Y-193428628D01*
X201934342Y-193285771D01*
X202077200Y-193214342D01*
X202434342Y-193214342D01*
X202577200Y-193142914D01*
X203077200Y-192785771D02*
X203648628Y-192785771D01*
X203291485Y-192285771D02*
X203291485Y-193571485D01*
X203362914Y-193714342D01*
X203505771Y-193785771D01*
X203648628Y-193785771D01*
X204720057Y-193714342D02*
X204577200Y-193785771D01*
X204291485Y-193785771D01*
X204148628Y-193714342D01*
X204077200Y-193571485D01*
X204077200Y-193000057D01*
X204148628Y-192857200D01*
X204291485Y-192785771D01*
X204577200Y-192785771D01*
X204720057Y-192857200D01*
X204791485Y-193000057D01*
X204791485Y-193142914D01*
X204077200Y-193285771D01*
X205434342Y-193642914D02*
X205505771Y-193714342D01*
X205434342Y-193785771D01*
X205362914Y-193714342D01*
X205434342Y-193642914D01*
X205434342Y-193785771D01*
X205434342Y-192857200D02*
X205505771Y-192928628D01*
X205434342Y-193000057D01*
X205362914Y-192928628D01*
X205434342Y-192857200D01*
X205434342Y-193000057D01*
X207220057Y-192428628D02*
X207291485Y-192357200D01*
X207434342Y-192285771D01*
X207791485Y-192285771D01*
X207934342Y-192357200D01*
X208005771Y-192428628D01*
X208077200Y-192571485D01*
X208077200Y-192714342D01*
X208005771Y-192928628D01*
X207148628Y-193785771D01*
X208077200Y-193785771D01*
X209005771Y-192285771D02*
X209148628Y-192285771D01*
X209291485Y-192357200D01*
X209362914Y-192428628D01*
X209434342Y-192571485D01*
X209505771Y-192857200D01*
X209505771Y-193214342D01*
X209434342Y-193500057D01*
X209362914Y-193642914D01*
X209291485Y-193714342D01*
X209148628Y-193785771D01*
X209005771Y-193785771D01*
X208862914Y-193714342D01*
X208791485Y-193642914D01*
X208720057Y-193500057D01*
X208648628Y-193214342D01*
X208648628Y-192857200D01*
X208720057Y-192571485D01*
X208791485Y-192428628D01*
X208862914Y-192357200D01*
X209005771Y-192285771D01*
X210077200Y-192428628D02*
X210148628Y-192357200D01*
X210291485Y-192285771D01*
X210648628Y-192285771D01*
X210791485Y-192357200D01*
X210862914Y-192428628D01*
X210934342Y-192571485D01*
X210934342Y-192714342D01*
X210862914Y-192928628D01*
X210005771Y-193785771D01*
X210934342Y-193785771D01*
X211862914Y-192285771D02*
X212005771Y-192285771D01*
X212148628Y-192357200D01*
X212220057Y-192428628D01*
X212291485Y-192571485D01*
X212362914Y-192857200D01*
X212362914Y-193214342D01*
X212291485Y-193500057D01*
X212220057Y-193642914D01*
X212148628Y-193714342D01*
X212005771Y-193785771D01*
X211862914Y-193785771D01*
X211720057Y-193714342D01*
X211648628Y-193642914D01*
X211577200Y-193500057D01*
X211505771Y-193214342D01*
X211505771Y-192857200D01*
X211577200Y-192571485D01*
X211648628Y-192428628D01*
X211720057Y-192357200D01*
X211862914Y-192285771D01*
X213005771Y-193214342D02*
X214148628Y-193214342D01*
X215148628Y-192285771D02*
X215291485Y-192285771D01*
X215434342Y-192357200D01*
X215505771Y-192428628D01*
X215577200Y-192571485D01*
X215648628Y-192857200D01*
X215648628Y-193214342D01*
X215577200Y-193500057D01*
X215505771Y-193642914D01*
X215434342Y-193714342D01*
X215291485Y-193785771D01*
X215148628Y-193785771D01*
X215005771Y-193714342D01*
X214934342Y-193642914D01*
X214862914Y-193500057D01*
X214791485Y-193214342D01*
X214791485Y-192857200D01*
X214862914Y-192571485D01*
X214934342Y-192428628D01*
X215005771Y-192357200D01*
X215148628Y-192285771D01*
X216505771Y-192928628D02*
X216362914Y-192857200D01*
X216291485Y-192785771D01*
X216220057Y-192642914D01*
X216220057Y-192571485D01*
X216291485Y-192428628D01*
X216362914Y-192357200D01*
X216505771Y-192285771D01*
X216791485Y-192285771D01*
X216934342Y-192357200D01*
X217005771Y-192428628D01*
X217077200Y-192571485D01*
X217077200Y-192642914D01*
X217005771Y-192785771D01*
X216934342Y-192857200D01*
X216791485Y-192928628D01*
X216505771Y-192928628D01*
X216362914Y-193000057D01*
X216291485Y-193071485D01*
X216220057Y-193214342D01*
X216220057Y-193500057D01*
X216291485Y-193642914D01*
X216362914Y-193714342D01*
X216505771Y-193785771D01*
X216791485Y-193785771D01*
X216934342Y-193714342D01*
X217005771Y-193642914D01*
X217077200Y-193500057D01*
X217077200Y-193214342D01*
X217005771Y-193071485D01*
X216934342Y-193000057D01*
X216791485Y-192928628D01*
X217720057Y-193214342D02*
X218862914Y-193214342D01*
X220362914Y-193785771D02*
X219505771Y-193785771D01*
X219934342Y-193785771D02*
X219934342Y-192285771D01*
X219791485Y-192500057D01*
X219648628Y-192642914D01*
X219505771Y-192714342D01*
X221220057Y-192928628D02*
X221077200Y-192857200D01*
X221005771Y-192785771D01*
X220934342Y-192642914D01*
X220934342Y-192571485D01*
X221005771Y-192428628D01*
X221077200Y-192357200D01*
X221220057Y-192285771D01*
X221505771Y-192285771D01*
X221648628Y-192357200D01*
X221720057Y-192428628D01*
X221791485Y-192571485D01*
X221791485Y-192642914D01*
X221720057Y-192785771D01*
X221648628Y-192857200D01*
X221505771Y-192928628D01*
X221220057Y-192928628D01*
X221077200Y-193000057D01*
X221005771Y-193071485D01*
X220934342Y-193214342D01*
X220934342Y-193500057D01*
X221005771Y-193642914D01*
X221077200Y-193714342D01*
X221220057Y-193785771D01*
X221505771Y-193785771D01*
X221648628Y-193714342D01*
X221720057Y-193642914D01*
X221791485Y-193500057D01*
X221791485Y-193214342D01*
X221720057Y-193071485D01*
X221648628Y-193000057D01*
X221505771Y-192928628D01*
D10*
D11*
X177002200Y-194507200D02*
X285002200Y-194507200D01*
D10*
D11*
X178434342Y-196585771D02*
X178434342Y-195085771D01*
X179291485Y-196585771D02*
X178648628Y-195728628D01*
X179291485Y-195085771D02*
X178434342Y-195942914D01*
X179934342Y-196585771D02*
X179934342Y-195585771D01*
X179934342Y-195085771D02*
X179862914Y-195157200D01*
X179934342Y-195228628D01*
X180005771Y-195157200D01*
X179934342Y-195085771D01*
X179934342Y-195228628D01*
X181505771Y-196442914D02*
X181434342Y-196514342D01*
X181220057Y-196585771D01*
X181077200Y-196585771D01*
X180862914Y-196514342D01*
X180720057Y-196371485D01*
X180648628Y-196228628D01*
X180577200Y-195942914D01*
X180577200Y-195728628D01*
X180648628Y-195442914D01*
X180720057Y-195300057D01*
X180862914Y-195157200D01*
X181077200Y-195085771D01*
X181220057Y-195085771D01*
X181434342Y-195157200D01*
X181505771Y-195228628D01*
X182791485Y-196585771D02*
X182791485Y-195800057D01*
X182720057Y-195657200D01*
X182577200Y-195585771D01*
X182291485Y-195585771D01*
X182148628Y-195657200D01*
X182791485Y-196514342D02*
X182648628Y-196585771D01*
X182291485Y-196585771D01*
X182148628Y-196514342D01*
X182077200Y-196371485D01*
X182077200Y-196228628D01*
X182148628Y-196085771D01*
X182291485Y-196014342D01*
X182648628Y-196014342D01*
X182791485Y-195942914D01*
X184148628Y-196585771D02*
X184148628Y-195085771D01*
X184148628Y-196514342D02*
X184005771Y-196585771D01*
X183720057Y-196585771D01*
X183577200Y-196514342D01*
X183505771Y-196442914D01*
X183434342Y-196300057D01*
X183434342Y-195871485D01*
X183505771Y-195728628D01*
X183577200Y-195657200D01*
X183720057Y-195585771D01*
X184005771Y-195585771D01*
X184148628Y-195657200D01*
X186005771Y-195800057D02*
X186505771Y-195800057D01*
X186720057Y-196585771D02*
X186005771Y-196585771D01*
X186005771Y-195085771D01*
X186720057Y-195085771D01*
X187362914Y-196442914D02*
X187434342Y-196514342D01*
X187362914Y-196585771D01*
X187291485Y-196514342D01*
X187362914Y-196442914D01*
X187362914Y-196585771D01*
X188077200Y-196585771D02*
X188077200Y-195085771D01*
X188434342Y-195085771D01*
X188648628Y-195157200D01*
X188791485Y-195300057D01*
X188862914Y-195442914D01*
X188934342Y-195728628D01*
X188934342Y-195942914D01*
X188862914Y-196228628D01*
X188791485Y-196371485D01*
X188648628Y-196514342D01*
X188434342Y-196585771D01*
X188077200Y-196585771D01*
X189577200Y-196442914D02*
X189648628Y-196514342D01*
X189577200Y-196585771D01*
X189505771Y-196514342D01*
X189577200Y-196442914D01*
X189577200Y-196585771D01*
X190220057Y-196157200D02*
X190934342Y-196157200D01*
X190077200Y-196585771D02*
X190577200Y-195085771D01*
X191077200Y-196585771D01*
X191577200Y-196442914D02*
X191648628Y-196514342D01*
X191577200Y-196585771D01*
X191505771Y-196514342D01*
X191577200Y-196442914D01*
X191577200Y-196585771D01*
X194577200Y-196585771D02*
X194577200Y-195085771D01*
X194720057Y-196014342D02*
X195148628Y-196585771D01*
X195148628Y-195585771D02*
X194577200Y-196157200D01*
X195791485Y-196585771D02*
X195791485Y-195585771D01*
X195791485Y-195085771D02*
X195720057Y-195157200D01*
X195791485Y-195228628D01*
X195862914Y-195157200D01*
X195791485Y-195085771D01*
X195791485Y-195228628D01*
X197148628Y-196514342D02*
X197005771Y-196585771D01*
X196720057Y-196585771D01*
X196577200Y-196514342D01*
X196505771Y-196442914D01*
X196434342Y-196300057D01*
X196434342Y-195871485D01*
X196505771Y-195728628D01*
X196577200Y-195657200D01*
X196720057Y-195585771D01*
X197005771Y-195585771D01*
X197148628Y-195657200D01*
X198434342Y-196585771D02*
X198434342Y-195800057D01*
X198362914Y-195657200D01*
X198220057Y-195585771D01*
X197934342Y-195585771D01*
X197791485Y-195657200D01*
X198434342Y-196514342D02*
X198291485Y-196585771D01*
X197934342Y-196585771D01*
X197791485Y-196514342D01*
X197720057Y-196371485D01*
X197720057Y-196228628D01*
X197791485Y-196085771D01*
X197934342Y-196014342D01*
X198291485Y-196014342D01*
X198434342Y-195942914D01*
X199791485Y-196585771D02*
X199791485Y-195085771D01*
X199791485Y-196514342D02*
X199648628Y-196585771D01*
X199362914Y-196585771D01*
X199220057Y-196514342D01*
X199148628Y-196442914D01*
X199077200Y-196300057D01*
X199077200Y-195871485D01*
X199148628Y-195728628D01*
X199220057Y-195657200D01*
X199362914Y-195585771D01*
X199648628Y-195585771D01*
X199791485Y-195657200D01*
X202077200Y-197157200D02*
X202005771Y-197085771D01*
X201862914Y-196871485D01*
X201791485Y-196728628D01*
X201720057Y-196514342D01*
X201648628Y-196157200D01*
X201648628Y-195871485D01*
X201720057Y-195514342D01*
X201791485Y-195300057D01*
X201862914Y-195157200D01*
X202005771Y-194942914D01*
X202077200Y-194871485D01*
X203362914Y-195085771D02*
X202648628Y-195085771D01*
X202577200Y-195800057D01*
X202648628Y-195728628D01*
X202791485Y-195657200D01*
X203148628Y-195657200D01*
X203291485Y-195728628D01*
X203362914Y-195800057D01*
X203434342Y-195942914D01*
X203434342Y-196300057D01*
X203362914Y-196442914D01*
X203291485Y-196514342D01*
X203148628Y-196585771D01*
X202791485Y-196585771D01*
X202648628Y-196514342D01*
X202577200Y-196442914D01*
X204077200Y-196442914D02*
X204148628Y-196514342D01*
X204077200Y-196585771D01*
X204005771Y-196514342D01*
X204077200Y-196442914D01*
X204077200Y-196585771D01*
X205577200Y-196585771D02*
X204720057Y-196585771D01*
X205148628Y-196585771D02*
X205148628Y-195085771D01*
X205005771Y-195300057D01*
X204862914Y-195442914D01*
X204720057Y-195514342D01*
X206220057Y-196442914D02*
X206291485Y-196514342D01*
X206220057Y-196585771D01*
X206148628Y-196514342D01*
X206220057Y-196442914D01*
X206220057Y-196585771D01*
X207577200Y-195085771D02*
X207291485Y-195085771D01*
X207148628Y-195157200D01*
X207077200Y-195228628D01*
X206934342Y-195442914D01*
X206862914Y-195728628D01*
X206862914Y-196300057D01*
X206934342Y-196442914D01*
X207005771Y-196514342D01*
X207148628Y-196585771D01*
X207434342Y-196585771D01*
X207577200Y-196514342D01*
X207648628Y-196442914D01*
X207720057Y-196300057D01*
X207720057Y-195942914D01*
X207648628Y-195800057D01*
X207577200Y-195728628D01*
X207434342Y-195657200D01*
X207148628Y-195657200D01*
X207005771Y-195728628D01*
X206934342Y-195800057D01*
X206862914Y-195942914D01*
X208220057Y-197157200D02*
X208291485Y-197085771D01*
X208434342Y-196871485D01*
X208505771Y-196728628D01*
X208577200Y-196514342D01*
X208648628Y-196157200D01*
X208648628Y-195871485D01*
X208577200Y-195514342D01*
X208505771Y-195300057D01*
X208434342Y-195157200D01*
X208291485Y-194942914D01*
X208220057Y-194871485D01*
X209362914Y-196014342D02*
X210505771Y-196014342D01*
X212005771Y-196585771D02*
X211148628Y-196585771D01*
X211577200Y-196585771D02*
X211577200Y-195085771D01*
X211434342Y-195300057D01*
X211291485Y-195442914D01*
X211148628Y-195514342D01*
D10*
D11*
X177002200Y-191507200D02*
X285002200Y-191507200D01*
D10*
D12*
X264411485Y-193785771D02*
X263911485Y-193071485D01*
X263554342Y-193785771D02*
X263554342Y-192285771D01*
X264125771Y-192285771D01*
X264268628Y-192357200D01*
X264340057Y-192428628D01*
X264411485Y-192571485D01*
X264411485Y-192785771D01*
X264340057Y-192928628D01*
X264268628Y-193000057D01*
X264125771Y-193071485D01*
X263554342Y-193071485D01*
X265625771Y-193714342D02*
X265482914Y-193785771D01*
X265197200Y-193785771D01*
X265054342Y-193714342D01*
X264982914Y-193571485D01*
X264982914Y-193000057D01*
X265054342Y-192857200D01*
X265197200Y-192785771D01*
X265482914Y-192785771D01*
X265625771Y-192857200D01*
X265697200Y-193000057D01*
X265697200Y-193142914D01*
X264982914Y-193285771D01*
X266197200Y-192785771D02*
X266554342Y-193785771D01*
X266911485Y-192785771D01*
X267482914Y-193642914D02*
X267554342Y-193714342D01*
X267482914Y-193785771D01*
X267411485Y-193714342D01*
X267482914Y-193642914D01*
X267482914Y-193785771D01*
X267482914Y-192857200D02*
X267554342Y-192928628D01*
X267482914Y-193000057D01*
X267411485Y-192928628D01*
X267482914Y-192857200D01*
X267482914Y-193000057D01*
X270125771Y-193785771D02*
X269268628Y-193785771D01*
X269697200Y-193785771D02*
X269697200Y-192285771D01*
X269554342Y-192500057D01*
X269411485Y-192642914D01*
X269268628Y-192714342D01*
D10*
D11*
X178362914Y-193714342D02*
X178577200Y-193785771D01*
X178934342Y-193785771D01*
X179077200Y-193714342D01*
X179148628Y-193642914D01*
X179220057Y-193500057D01*
X179220057Y-193357200D01*
X179148628Y-193214342D01*
X179077200Y-193142914D01*
X178934342Y-193071485D01*
X178648628Y-193000057D01*
X178505771Y-192928628D01*
X178434342Y-192857200D01*
X178362914Y-192714342D01*
X178362914Y-192571485D01*
X178434342Y-192428628D01*
X178505771Y-192357200D01*
X178648628Y-192285771D01*
X179005771Y-192285771D01*
X179220057Y-192357200D01*
X179862914Y-193785771D02*
X179862914Y-192785771D01*
X179862914Y-192285771D02*
X179791485Y-192357200D01*
X179862914Y-192428628D01*
X179934342Y-192357200D01*
X179862914Y-192285771D01*
X179862914Y-192428628D01*
X180434342Y-192785771D02*
X181220057Y-192785771D01*
X180434342Y-193785771D01*
X181220057Y-193785771D01*
X182362914Y-193714342D02*
X182220057Y-193785771D01*
X181934342Y-193785771D01*
X181791485Y-193714342D01*
X181720057Y-193571485D01*
X181720057Y-193000057D01*
X181791485Y-192857200D01*
X181934342Y-192785771D01*
X182220057Y-192785771D01*
X182362914Y-192857200D01*
X182434342Y-193000057D01*
X182434342Y-193142914D01*
X181720057Y-193285771D01*
X183077200Y-193642914D02*
X183148628Y-193714342D01*
X183077200Y-193785771D01*
X183005771Y-193714342D01*
X183077200Y-193642914D01*
X183077200Y-193785771D01*
X183077200Y-192857200D02*
X183148628Y-192928628D01*
X183077200Y-193000057D01*
X183005771Y-192928628D01*
X183077200Y-192857200D01*
X183077200Y-193000057D01*
X184862914Y-193357200D02*
X185577200Y-193357200D01*
X184720057Y-193785771D02*
X185220057Y-192285771D01*
X185720057Y-193785771D01*
X186862914Y-192785771D02*
X186862914Y-193785771D01*
X186505771Y-192214342D02*
X186148628Y-193285771D01*
X187077200Y-193285771D01*
D10*
D11*
X263434342Y-196585771D02*
X263434342Y-195085771D01*
X264791485Y-196585771D02*
X264791485Y-195085771D01*
X264791485Y-196514342D02*
X264648628Y-196585771D01*
X264362914Y-196585771D01*
X264220057Y-196514342D01*
X264148628Y-196442914D01*
X264077200Y-196300057D01*
X264077200Y-195871485D01*
X264148628Y-195728628D01*
X264220057Y-195657200D01*
X264362914Y-195585771D01*
X264648628Y-195585771D01*
X264791485Y-195657200D01*
X265505771Y-196442914D02*
X265577200Y-196514342D01*
X265505771Y-196585771D01*
X265434342Y-196514342D01*
X265505771Y-196442914D01*
X265505771Y-196585771D01*
X265505771Y-195657200D02*
X265577200Y-195728628D01*
X265505771Y-195800057D01*
X265434342Y-195728628D01*
X265505771Y-195657200D01*
X265505771Y-195800057D01*
X268148628Y-196585771D02*
X267291485Y-196585771D01*
X267720057Y-196585771D02*
X267720057Y-195085771D01*
X267577200Y-195300057D01*
X267434342Y-195442914D01*
X267291485Y-195514342D01*
X269862914Y-195014342D02*
X268577200Y-196942914D01*
X271148628Y-196585771D02*
X270291485Y-196585771D01*
X270720057Y-196585771D02*
X270720057Y-195085771D01*
X270577200Y-195300057D01*
X270434342Y-195442914D01*
X270291485Y-195514342D01*
D10*
D11*
X177002200Y-187507200D02*
X285002200Y-187507200D01*
D10*
D13*
X178714580Y-188211961D02*
X179857438Y-188211961D01*
X179036009Y-190211961D02*
X179286009Y-188211961D01*
X180274104Y-190211961D02*
X180440771Y-188878628D01*
X180524104Y-188211961D02*
X180416961Y-188307200D01*
X180500295Y-188402438D01*
X180607438Y-188307200D01*
X180524104Y-188211961D01*
X180500295Y-188402438D01*
X181107438Y-188878628D02*
X181869342Y-188878628D01*
X181476485Y-188211961D02*
X181262200Y-189926247D01*
X181333628Y-190116723D01*
X181512200Y-190211961D01*
X181702676Y-190211961D01*
X182655057Y-190211961D02*
X182476485Y-190116723D01*
X182405057Y-189926247D01*
X182619342Y-188211961D01*
X184190771Y-190116723D02*
X183988390Y-190211961D01*
X183607438Y-190211961D01*
X183428866Y-190116723D01*
X183357438Y-189926247D01*
X183452676Y-189164342D01*
X183571723Y-188973866D01*
X183774104Y-188878628D01*
X184155057Y-188878628D01*
X184333628Y-188973866D01*
X184405057Y-189164342D01*
X184381247Y-189354819D01*
X183405057Y-189545295D01*
X185155057Y-190021485D02*
X185238390Y-190116723D01*
X185131247Y-190211961D01*
X185047914Y-190116723D01*
X185155057Y-190021485D01*
X185131247Y-190211961D01*
X185286009Y-188973866D02*
X185369342Y-189069104D01*
X185262200Y-189164342D01*
X185178866Y-189069104D01*
X185286009Y-188973866D01*
X185262200Y-189164342D01*
X189000295Y-188211961D02*
X188750295Y-190211961D01*
X187857438Y-188211961D02*
X187607438Y-190211961D01*
X188940771Y-190211961D01*
X188881247Y-190688152D01*
X189869342Y-188878628D02*
X189702676Y-190211961D01*
X190821723Y-188878628D01*
X190655057Y-190211961D01*
X192428866Y-188211961D02*
X192095533Y-190878628D01*
X192155057Y-188878628D02*
X192536009Y-188878628D01*
X192714580Y-188973866D01*
X192881247Y-189164342D01*
X192952676Y-189354819D01*
X192905057Y-189735771D01*
X192786009Y-189926247D01*
X192571723Y-190116723D01*
X192369342Y-190211961D01*
X191988390Y-190211961D01*
X191809819Y-190116723D01*
X191643152Y-189926247D01*
X191571723Y-189735771D01*
X191619342Y-189354819D01*
X191738390Y-189164342D01*
X191952676Y-188973866D01*
X192155057Y-188878628D01*
X193869342Y-188878628D02*
X193619342Y-190878628D01*
X193857438Y-188973866D02*
X194059819Y-188878628D01*
X194440771Y-188878628D01*
X194619342Y-188973866D01*
X194702676Y-189069104D01*
X194774104Y-189259580D01*
X194702676Y-189831009D01*
X194583628Y-190021485D01*
X194476485Y-190116723D01*
X194274104Y-190211961D01*
X193893152Y-190211961D01*
X193714580Y-190116723D01*
X195797914Y-190211961D02*
X195619342Y-190116723D01*
X195536009Y-190021485D01*
X195464580Y-189831009D01*
X195536009Y-189259580D01*
X195655057Y-189069104D01*
X195762200Y-188973866D01*
X195964580Y-188878628D01*
X196250295Y-188878628D01*
X196428866Y-188973866D01*
X196512200Y-189069104D01*
X196583628Y-189259580D01*
X196512200Y-189831009D01*
X196393152Y-190021485D01*
X196286009Y-190116723D01*
X196083628Y-190211961D01*
X195797914Y-190211961D01*
X197881247Y-189545295D02*
X198155057Y-189640533D01*
X198226485Y-189831009D01*
X198214580Y-189926247D01*
X198095533Y-190116723D01*
X197893152Y-190211961D01*
X197321723Y-190211961D01*
X197488390Y-188878628D01*
X197964580Y-188878628D01*
X198143152Y-188973866D01*
X198214580Y-189164342D01*
X198202676Y-189259580D01*
X198083628Y-189450057D01*
X197881247Y-189545295D01*
X197405057Y-189545295D01*
X199893152Y-190211961D02*
X200024104Y-189164342D01*
X199952676Y-188973866D01*
X199774104Y-188878628D01*
X199393152Y-188878628D01*
X199190771Y-188973866D01*
X199905057Y-190116723D02*
X199702676Y-190211961D01*
X199226485Y-190211961D01*
X199047914Y-190116723D01*
X198976485Y-189926247D01*
X199000295Y-189735771D01*
X199119342Y-189545295D01*
X199321723Y-189450057D01*
X199797914Y-189450057D01*
X200000295Y-189354819D01*
X201619342Y-190116723D02*
X201416961Y-190211961D01*
X201036009Y-190211961D01*
X200857438Y-190116723D01*
X200786009Y-189926247D01*
X200881247Y-189164342D01*
X201000295Y-188973866D01*
X201202676Y-188878628D01*
X201583628Y-188878628D01*
X201762200Y-188973866D01*
X201833628Y-189164342D01*
X201809819Y-189354819D01*
X200833628Y-189545295D01*
X204916961Y-188878628D02*
X204750295Y-190211961D01*
X204155057Y-188878628D02*
X204095533Y-189354819D01*
X204166961Y-189545295D01*
X204345533Y-189640533D01*
X204821723Y-189640533D01*
X206655057Y-190211961D02*
X206786009Y-189164342D01*
X206714580Y-188973866D01*
X206536009Y-188878628D01*
X206155057Y-188878628D01*
X205952676Y-188973866D01*
X206666961Y-190116723D02*
X206464580Y-190211961D01*
X205988390Y-190211961D01*
X205809819Y-190116723D01*
X205738390Y-189926247D01*
X205762200Y-189735771D01*
X205881247Y-189545295D01*
X206083628Y-189450057D01*
X206559819Y-189450057D01*
X206762200Y-189354819D01*
X208476485Y-190116723D02*
X208274104Y-190211961D01*
X207893152Y-190211961D01*
X207714580Y-190116723D01*
X207631247Y-190021485D01*
X207559819Y-189831009D01*
X207631247Y-189259580D01*
X207750295Y-189069104D01*
X207857438Y-188973866D01*
X208059819Y-188878628D01*
X208440771Y-188878628D01*
X208619342Y-188973866D01*
X210821723Y-188878628D02*
X210655057Y-190211961D01*
X209488390Y-188878628D02*
X209321723Y-190211961D01*
X209797914Y-190211961D01*
X210000295Y-190116723D01*
X210119342Y-189926247D01*
X210155057Y-189640533D01*
X210083628Y-189450057D01*
X209905057Y-189354819D01*
X209428866Y-189354819D01*
X214000295Y-190116723D02*
X213797914Y-190211961D01*
X213416961Y-190211961D01*
X213238390Y-190116723D01*
X213155057Y-190021485D01*
X213083628Y-189831009D01*
X213155057Y-189259580D01*
X213274104Y-189069104D01*
X213381247Y-188973866D01*
X213583628Y-188878628D01*
X213964580Y-188878628D01*
X214143152Y-188973866D01*
X217583628Y-188116723D02*
X217476485Y-188211961D01*
X217274104Y-188307200D01*
X216893152Y-188307200D01*
X216690771Y-188402438D01*
X216583628Y-188497676D01*
X216464580Y-188688152D01*
X216321723Y-189831009D01*
X216393152Y-190021485D01*
X216476485Y-190116723D01*
X216655057Y-190211961D01*
X216940771Y-190211961D01*
X217143152Y-190116723D01*
X217250295Y-190021485D01*
X217369342Y-189831009D01*
X217440771Y-189259580D01*
X217369342Y-189069104D01*
X217286009Y-188973866D01*
X217107438Y-188878628D01*
X216726485Y-188878628D01*
X216524104Y-188973866D01*
X216416961Y-189069104D01*
X218155057Y-188878628D02*
X218464580Y-190211961D01*
X219107438Y-188878628D02*
X218464580Y-190211961D01*
X218214580Y-190688152D01*
X218107438Y-190783390D01*
X217905057Y-190878628D01*
X220797914Y-189069104D02*
X220714580Y-188973866D01*
X220536009Y-188878628D01*
X220155057Y-188878628D01*
X219952676Y-188973866D01*
X219845533Y-189069104D01*
X219726485Y-189259580D01*
X219655057Y-189831009D01*
X219726485Y-190021485D01*
X219809819Y-190116723D01*
X219988390Y-190211961D01*
X220274104Y-190211961D01*
X220476485Y-190116723D01*
X220583628Y-190021485D01*
X220702676Y-189831009D01*
X220857438Y-188592914D01*
X220786009Y-188402438D01*
X220702676Y-188307200D01*
X220524104Y-188211961D01*
X220143152Y-188211961D01*
X219940771Y-188307200D01*
X221678866Y-188878628D02*
X221512200Y-190211961D01*
X222631247Y-188878628D01*
X222464580Y-190211961D01*
X224178866Y-190211961D02*
X224345533Y-188878628D01*
X224059819Y-188878628D01*
X223857438Y-188973866D01*
X223738390Y-189164342D01*
X223547914Y-189926247D01*
X223428866Y-190116723D01*
X223226485Y-190211961D01*
X225297914Y-188878628D02*
X225131247Y-190211961D01*
X225607438Y-190211961D01*
X225809819Y-190116723D01*
X225928866Y-189926247D01*
X225964580Y-189640533D01*
X225893152Y-189450057D01*
X225714580Y-189354819D01*
X225238390Y-189354819D01*
X226833628Y-189545295D02*
X227690771Y-189545295D01*
X226916961Y-188878628D02*
X226750295Y-190211961D01*
X227774104Y-188878628D02*
X227607438Y-190211961D01*
X228726485Y-188878628D02*
X228559819Y-190211961D01*
X229678866Y-188878628D01*
X229512199Y-190211961D01*
X230631247Y-188878628D02*
X230464580Y-190211961D01*
X230750295Y-189450057D02*
X231226485Y-190211961D01*
X231393152Y-188878628D02*
X230536009Y-189640533D01*
X232369342Y-190211961D02*
X232190771Y-190116723D01*
X232107438Y-190021485D01*
X232036009Y-189831009D01*
X232107438Y-189259580D01*
X232226485Y-189069104D01*
X232333628Y-188973866D01*
X232536009Y-188878628D01*
X232821723Y-188878628D01*
X233000295Y-188973866D01*
X233083628Y-189069104D01*
X233155057Y-189259580D01*
X233083628Y-189831009D01*
X232964580Y-190021485D01*
X232857438Y-190116723D01*
X232655057Y-190211961D01*
X232369342Y-190211961D01*
X233893152Y-190211961D02*
X234059819Y-188878628D01*
X234500295Y-189926247D01*
X235202676Y-188878628D01*
X235036009Y-190211961D01*
D10*
D11*
X178934342Y-185600057D02*
X178434342Y-185600057D01*
X178434342Y-186385771D02*
X178434342Y-184885771D01*
X179148628Y-184885771D01*
X179720057Y-186385771D02*
X179720057Y-185385771D01*
X179720057Y-184885771D02*
X179648628Y-184957200D01*
X179720057Y-185028628D01*
X179791485Y-184957200D01*
X179720057Y-184885771D01*
X179720057Y-185028628D01*
X180648628Y-186385771D02*
X180505771Y-186314342D01*
X180434342Y-186171485D01*
X180434342Y-184885771D01*
X181791485Y-186314342D02*
X181648628Y-186385771D01*
X181362914Y-186385771D01*
X181220057Y-186314342D01*
X181148628Y-186171485D01*
X181148628Y-185600057D01*
X181220057Y-185457200D01*
X181362914Y-185385771D01*
X181648628Y-185385771D01*
X181791485Y-185457200D01*
X181862914Y-185600057D01*
X181862914Y-185742914D01*
X181148628Y-185885771D01*
X182505771Y-186242914D02*
X182577200Y-186314342D01*
X182505771Y-186385771D01*
X182434342Y-186314342D01*
X182505771Y-186242914D01*
X182505771Y-186385771D01*
X182505771Y-185457200D02*
X182577200Y-185528628D01*
X182505771Y-185600057D01*
X182434342Y-185528628D01*
X182505771Y-185457200D01*
X182505771Y-185600057D01*
X185005771Y-186385771D02*
X185005771Y-185600057D01*
X184934342Y-185457200D01*
X184791485Y-185385771D01*
X184505771Y-185385771D01*
X184362914Y-185457200D01*
X185005771Y-186314342D02*
X184862914Y-186385771D01*
X184505771Y-186385771D01*
X184362914Y-186314342D01*
X184291485Y-186171485D01*
X184291485Y-186028628D01*
X184362914Y-185885771D01*
X184505771Y-185814342D01*
X184862914Y-185814342D01*
X185005771Y-185742914D01*
X185505771Y-185385771D02*
X186077200Y-185385771D01*
X185720057Y-184885771D02*
X185720057Y-186171485D01*
X185791485Y-186314342D01*
X185934342Y-186385771D01*
X186077200Y-186385771D01*
X186362914Y-185385771D02*
X186934342Y-185385771D01*
X186577200Y-184885771D02*
X186577200Y-186171485D01*
X186648628Y-186314342D01*
X186791485Y-186385771D01*
X186934342Y-186385771D01*
X187434342Y-186385771D02*
X187434342Y-185385771D01*
X187434342Y-184885771D02*
X187362914Y-184957200D01*
X187434342Y-185028628D01*
X187505771Y-184957200D01*
X187434342Y-184885771D01*
X187434342Y-185028628D01*
X188148628Y-185385771D02*
X188148628Y-186385771D01*
X188148628Y-185528628D02*
X188220057Y-185457200D01*
X188362914Y-185385771D01*
X188577200Y-185385771D01*
X188720057Y-185457200D01*
X188791485Y-185600057D01*
X188791485Y-186385771D01*
X189362914Y-185385771D02*
X189720057Y-186385771D01*
X190077200Y-185385771D02*
X189720057Y-186385771D01*
X189577200Y-186742914D01*
X189505771Y-186814342D01*
X189362914Y-186885771D01*
X190577200Y-185028628D02*
X190648628Y-184957200D01*
X190791485Y-184885771D01*
X191148628Y-184885771D01*
X191291485Y-184957200D01*
X191362914Y-185028628D01*
X191434342Y-185171485D01*
X191434342Y-185314342D01*
X191362914Y-185528628D01*
X190505771Y-186385771D01*
X191434342Y-186385771D01*
X191934342Y-184885771D02*
X192862914Y-184885771D01*
X192362914Y-185457200D01*
X192577200Y-185457200D01*
X192720057Y-185528628D01*
X192791485Y-185600057D01*
X192862914Y-185742914D01*
X192862914Y-186100057D01*
X192791485Y-186242914D01*
X192720057Y-186314342D01*
X192577200Y-186385771D01*
X192148628Y-186385771D01*
X192005771Y-186314342D01*
X191934342Y-186242914D01*
X194291485Y-186385771D02*
X193434342Y-186385771D01*
X193862914Y-186385771D02*
X193862914Y-184885771D01*
X193720057Y-185100057D01*
X193577200Y-185242914D01*
X193434342Y-185314342D01*
X194791485Y-184885771D02*
X195720057Y-184885771D01*
X195220057Y-185457200D01*
X195434342Y-185457200D01*
X195577200Y-185528628D01*
X195648628Y-185600057D01*
X195720057Y-185742914D01*
X195720057Y-186100057D01*
X195648628Y-186242914D01*
X195577200Y-186314342D01*
X195434342Y-186385771D01*
X195005771Y-186385771D01*
X194862914Y-186314342D01*
X194791485Y-186242914D01*
X196005771Y-186528628D02*
X197148628Y-186528628D01*
X197291485Y-185385771D02*
X197862914Y-185385771D01*
X197505771Y-184885771D02*
X197505771Y-186171485D01*
X197577200Y-186314342D01*
X197720057Y-186385771D01*
X197862914Y-186385771D01*
X198362914Y-186385771D02*
X198362914Y-185385771D01*
X198362914Y-185528628D02*
X198434342Y-185457200D01*
X198577200Y-185385771D01*
X198791485Y-185385771D01*
X198934342Y-185457200D01*
X199005771Y-185600057D01*
X199005771Y-186385771D01*
X199005771Y-185600057D02*
X199077200Y-185457200D01*
X199220057Y-185385771D01*
X199434342Y-185385771D01*
X199577200Y-185457200D01*
X199648628Y-185600057D01*
X199648628Y-186385771D01*
X201148628Y-186385771D02*
X200291485Y-186385771D01*
X200720057Y-186385771D02*
X200720057Y-184885771D01*
X200577200Y-185100057D01*
X200434342Y-185242914D01*
X200291485Y-185314342D01*
X202434342Y-184885771D02*
X202148628Y-184885771D01*
X202005771Y-184957200D01*
X201934342Y-185028628D01*
X201791485Y-185242914D01*
X201720057Y-185528628D01*
X201720057Y-186100057D01*
X201791485Y-186242914D01*
X201862914Y-186314342D01*
X202005771Y-186385771D01*
X202291485Y-186385771D01*
X202434342Y-186314342D01*
X202505771Y-186242914D01*
X202577200Y-186100057D01*
X202577200Y-185742914D01*
X202505771Y-185600057D01*
X202434342Y-185528628D01*
X202291485Y-185457200D01*
X202005771Y-185457200D01*
X201862914Y-185528628D01*
X201791485Y-185600057D01*
X201720057Y-185742914D01*
X203077200Y-184885771D02*
X204005771Y-184885771D01*
X203505771Y-185457200D01*
X203720057Y-185457200D01*
X203862914Y-185528628D01*
X203934342Y-185600057D01*
X204005771Y-185742914D01*
X204005771Y-186100057D01*
X203934342Y-186242914D01*
X203862914Y-186314342D01*
X203720057Y-186385771D01*
X203291485Y-186385771D01*
X203148628Y-186314342D01*
X203077200Y-186242914D01*
X204505771Y-184885771D02*
X205505771Y-184885771D01*
X204862914Y-186385771D01*
X205720057Y-186528628D02*
X206862914Y-186528628D01*
X207862914Y-186385771D02*
X207862914Y-184885771D01*
X207862914Y-186314342D02*
X207720057Y-186385771D01*
X207434342Y-186385771D01*
X207291485Y-186314342D01*
X207220057Y-186242914D01*
X207148628Y-186100057D01*
X207148628Y-185671485D01*
X207220057Y-185528628D01*
X207291485Y-185457200D01*
X207434342Y-185385771D01*
X207720057Y-185385771D01*
X207862914Y-185457200D01*
X208505771Y-186314342D02*
X208648628Y-186385771D01*
X208934342Y-186385771D01*
X209077200Y-186314342D01*
X209148628Y-186171485D01*
X209148628Y-186100057D01*
X209077200Y-185957200D01*
X208934342Y-185885771D01*
X208720057Y-185885771D01*
X208577200Y-185814342D01*
X208505771Y-185671485D01*
X208505771Y-185600057D01*
X208577200Y-185457200D01*
X208720057Y-185385771D01*
X208934342Y-185385771D01*
X209077200Y-185457200D01*
X210577200Y-186385771D02*
X209720057Y-186385771D01*
X210148628Y-186385771D02*
X210148628Y-184885771D01*
X210005771Y-185100057D01*
X209862914Y-185242914D01*
X209720057Y-185314342D01*
X211077200Y-184885771D02*
X212005771Y-184885771D01*
X211505771Y-185457200D01*
X211720057Y-185457200D01*
X211862914Y-185528628D01*
X211934342Y-185600057D01*
X212005771Y-185742914D01*
X212005771Y-186100057D01*
X211934342Y-186242914D01*
X211862914Y-186314342D01*
X211720057Y-186385771D01*
X211291485Y-186385771D01*
X211148628Y-186314342D01*
X211077200Y-186242914D01*
X212934342Y-184885771D02*
X213077200Y-184885771D01*
X213220057Y-184957200D01*
X213291485Y-185028628D01*
X213362914Y-185171485D01*
X213434342Y-185457200D01*
X213434342Y-185814342D01*
X213362914Y-186100057D01*
X213291485Y-186242914D01*
X213220057Y-186314342D01*
X213077200Y-186385771D01*
X212934342Y-186385771D01*
X212791485Y-186314342D01*
X212720057Y-186242914D01*
X212648628Y-186100057D01*
X212577200Y-185814342D01*
X212577200Y-185457200D01*
X212648628Y-185171485D01*
X212720057Y-185028628D01*
X212791485Y-184957200D01*
X212934342Y-184885771D01*
X214005771Y-185028628D02*
X214077200Y-184957200D01*
X214220057Y-184885771D01*
X214577200Y-184885771D01*
X214720057Y-184957200D01*
X214791485Y-185028628D01*
X214862914Y-185171485D01*
X214862914Y-185314342D01*
X214791485Y-185528628D01*
X213934342Y-186385771D01*
X214862914Y-186385771D01*
X215505771Y-186242914D02*
X215577200Y-186314342D01*
X215505771Y-186385771D01*
X215434342Y-186314342D01*
X215505771Y-186242914D01*
X215505771Y-186385771D01*
X216220057Y-186385771D02*
X216220057Y-184885771D01*
X216362914Y-185814342D02*
X216791485Y-186385771D01*
X216791485Y-185385771D02*
X216220057Y-185957200D01*
X217434342Y-186385771D02*
X217434342Y-185385771D01*
X217434342Y-184885771D02*
X217362914Y-184957200D01*
X217434342Y-185028628D01*
X217505771Y-184957200D01*
X217434342Y-184885771D01*
X217434342Y-185028628D01*
X218791485Y-186314342D02*
X218648628Y-186385771D01*
X218362914Y-186385771D01*
X218220057Y-186314342D01*
X218148628Y-186242914D01*
X218077200Y-186100057D01*
X218077200Y-185671485D01*
X218148628Y-185528628D01*
X218220057Y-185457200D01*
X218362914Y-185385771D01*
X218648628Y-185385771D01*
X218791485Y-185457200D01*
X220077200Y-186385771D02*
X220077200Y-185600057D01*
X220005771Y-185457200D01*
X219862914Y-185385771D01*
X219577200Y-185385771D01*
X219434342Y-185457200D01*
X220077200Y-186314342D02*
X219934342Y-186385771D01*
X219577200Y-186385771D01*
X219434342Y-186314342D01*
X219362914Y-186171485D01*
X219362914Y-186028628D01*
X219434342Y-185885771D01*
X219577200Y-185814342D01*
X219934342Y-185814342D01*
X220077200Y-185742914D01*
X221434342Y-186385771D02*
X221434342Y-184885771D01*
X221434342Y-186314342D02*
X221291485Y-186385771D01*
X221005771Y-186385771D01*
X220862914Y-186314342D01*
X220791485Y-186242914D01*
X220720057Y-186100057D01*
X220720057Y-185671485D01*
X220791485Y-185528628D01*
X220862914Y-185457200D01*
X221005771Y-185385771D01*
X221291485Y-185385771D01*
X221434342Y-185457200D01*
X221791485Y-186528628D02*
X222934342Y-186528628D01*
X223291485Y-185385771D02*
X223291485Y-186885771D01*
X223291485Y-185457200D02*
X223434342Y-185385771D01*
X223720057Y-185385771D01*
X223862914Y-185457200D01*
X223934342Y-185528628D01*
X224005771Y-185671485D01*
X224005771Y-186100057D01*
X223934342Y-186242914D01*
X223862914Y-186314342D01*
X223720057Y-186385771D01*
X223434342Y-186385771D01*
X223291485Y-186314342D01*
X225291485Y-186314342D02*
X225148628Y-186385771D01*
X224862914Y-186385771D01*
X224720057Y-186314342D01*
X224648628Y-186242914D01*
X224577200Y-186100057D01*
X224577200Y-185671485D01*
X224648628Y-185528628D01*
X224720057Y-185457200D01*
X224862914Y-185385771D01*
X225148628Y-185385771D01*
X225291485Y-185457200D01*
X225934342Y-186385771D02*
X225934342Y-184885771D01*
X225934342Y-185457200D02*
X226077200Y-185385771D01*
X226362914Y-185385771D01*
X226505771Y-185457200D01*
X226577200Y-185528628D01*
X226648628Y-185671485D01*
X226648628Y-186100057D01*
X226577200Y-186242914D01*
X226505771Y-186314342D01*
X226362914Y-186385771D01*
X226077200Y-186385771D01*
X225934342Y-186314342D01*
D10*
D11*
X177002200Y-181507200D02*
X285002200Y-181507200D01*
D10*
D11*
X178362914Y-183614342D02*
X178577200Y-183685771D01*
X178934342Y-183685771D01*
X179077200Y-183614342D01*
X179148628Y-183542914D01*
X179220057Y-183400057D01*
X179220057Y-183257200D01*
X179148628Y-183114342D01*
X179077200Y-183042914D01*
X178934342Y-182971485D01*
X178648628Y-182900057D01*
X178505771Y-182828628D01*
X178434342Y-182757200D01*
X178362914Y-182614342D01*
X178362914Y-182471485D01*
X178434342Y-182328628D01*
X178505771Y-182257200D01*
X178648628Y-182185771D01*
X179005771Y-182185771D01*
X179220057Y-182257200D01*
X179862914Y-183685771D02*
X179862914Y-182185771D01*
X180505771Y-183685771D02*
X180505771Y-182900057D01*
X180434342Y-182757200D01*
X180291485Y-182685771D01*
X180077200Y-182685771D01*
X179934342Y-182757200D01*
X179862914Y-182828628D01*
X181791485Y-183614342D02*
X181648628Y-183685771D01*
X181362914Y-183685771D01*
X181220057Y-183614342D01*
X181148628Y-183471485D01*
X181148628Y-182900057D01*
X181220057Y-182757200D01*
X181362914Y-182685771D01*
X181648628Y-182685771D01*
X181791485Y-182757200D01*
X181862914Y-182900057D01*
X181862914Y-183042914D01*
X181148628Y-183185771D01*
X183077200Y-183614342D02*
X182934342Y-183685771D01*
X182648628Y-183685771D01*
X182505771Y-183614342D01*
X182434342Y-183471485D01*
X182434342Y-182900057D01*
X182505771Y-182757200D01*
X182648628Y-182685771D01*
X182934342Y-182685771D01*
X183077200Y-182757200D01*
X183148628Y-182900057D01*
X183148628Y-183042914D01*
X182434342Y-183185771D01*
X183577200Y-182685771D02*
X184148628Y-182685771D01*
X183791485Y-182185771D02*
X183791485Y-183471485D01*
X183862914Y-183614342D01*
X184005771Y-183685771D01*
X184148628Y-183685771D01*
X184648628Y-183542914D02*
X184720057Y-183614342D01*
X184648628Y-183685771D01*
X184577200Y-183614342D01*
X184648628Y-183542914D01*
X184648628Y-183685771D01*
X184648628Y-182757200D02*
X184720057Y-182828628D01*
X184648628Y-182900057D01*
X184577200Y-182828628D01*
X184648628Y-182757200D01*
X184648628Y-182900057D01*
D10*
D11*
X178934342Y-173900057D02*
X179148628Y-173971485D01*
X179220057Y-174042914D01*
X179291485Y-174185771D01*
X179291485Y-174400057D01*
X179220057Y-174542914D01*
X179148628Y-174614342D01*
X179005771Y-174685771D01*
X178434342Y-174685771D01*
X178434342Y-173185771D01*
X178934342Y-173185771D01*
X179077200Y-173257200D01*
X179148628Y-173328628D01*
X179220057Y-173471485D01*
X179220057Y-173614342D01*
X179148628Y-173757200D01*
X179077200Y-173828628D01*
X178934342Y-173900057D01*
X178434342Y-173900057D01*
X180505771Y-174614342D02*
X180362914Y-174685771D01*
X180077200Y-174685771D01*
X179934342Y-174614342D01*
X179862914Y-174471485D01*
X179862914Y-173900057D01*
X179934342Y-173757200D01*
X180077200Y-173685771D01*
X180362914Y-173685771D01*
X180505771Y-173757200D01*
X180577200Y-173900057D01*
X180577200Y-174042914D01*
X179862914Y-174185771D01*
X181220057Y-173685771D02*
X181220057Y-175185771D01*
X181220057Y-173757200D02*
X181362914Y-173685771D01*
X181648628Y-173685771D01*
X181791485Y-173757200D01*
X181862914Y-173828628D01*
X181934342Y-173971485D01*
X181934342Y-174400057D01*
X181862914Y-174542914D01*
X181791485Y-174614342D01*
X181648628Y-174685771D01*
X181362914Y-174685771D01*
X181220057Y-174614342D01*
X183291485Y-173114342D02*
X183220057Y-173185771D01*
X183077200Y-173257200D01*
X182791485Y-173257200D01*
X182648628Y-173328628D01*
X182577200Y-173400057D01*
X182505771Y-173542914D01*
X182505771Y-174400057D01*
X182577200Y-174542914D01*
X182648628Y-174614342D01*
X182791485Y-174685771D01*
X183005771Y-174685771D01*
X183148628Y-174614342D01*
X183220057Y-174542914D01*
X183291485Y-174400057D01*
X183291485Y-173971485D01*
X183220057Y-173828628D01*
X183148628Y-173757200D01*
X183005771Y-173685771D01*
X182720057Y-173685771D01*
X182577200Y-173757200D01*
X182505771Y-173828628D01*
X183934342Y-173685771D02*
X183934342Y-174685771D01*
X184077200Y-174114342D02*
X184505771Y-174685771D01*
X184505771Y-173685771D02*
X183934342Y-174257200D01*
X185148628Y-173685771D02*
X185148628Y-174685771D01*
X185862914Y-173685771D01*
X185862914Y-174685771D01*
X186577200Y-174185771D02*
X187220057Y-174185771D01*
X186577200Y-173685771D02*
X186577200Y-174685771D01*
X187220057Y-173685771D02*
X187220057Y-174685771D01*
X189077200Y-174685771D02*
X189077200Y-173185771D01*
X189577200Y-174257200D01*
X190077200Y-173185771D01*
X190077200Y-174685771D01*
X190791485Y-174542914D02*
X190862914Y-174614342D01*
X190791485Y-174685771D01*
X190720057Y-174614342D01*
X190791485Y-174542914D01*
X190791485Y-174685771D01*
X192362914Y-174542914D02*
X192291485Y-174614342D01*
X192077200Y-174685771D01*
X191934342Y-174685771D01*
X191720057Y-174614342D01*
X191577200Y-174471485D01*
X191505771Y-174328628D01*
X191434342Y-174042914D01*
X191434342Y-173828628D01*
X191505771Y-173542914D01*
X191577200Y-173400057D01*
X191720057Y-173257200D01*
X191934342Y-173185771D01*
X192077200Y-173185771D01*
X192291485Y-173257200D01*
X192362914Y-173328628D01*
X193005771Y-174542914D02*
X193077200Y-174614342D01*
X193005771Y-174685771D01*
X192934342Y-174614342D01*
X193005771Y-174542914D01*
X193005771Y-174685771D01*
D10*
D11*
X197002200Y-191507200D02*
X197002200Y-194507200D01*
D10*
D11*
X261002200Y-191507200D02*
X261002200Y-198007200D01*
X134453619Y-97480380D02*
X134453619Y-96813714D01*
X134453619Y-97004190D02*
X134501238Y-96908952D01*
X134548857Y-96861333D01*
X134644095Y-96813714D01*
X134739333Y-96813714D01*
X135453619Y-97432761D02*
X135358380Y-97480380D01*
X135167904Y-97480380D01*
X135072666Y-97432761D01*
X135025047Y-97337523D01*
X135025047Y-96956571D01*
X135072666Y-96861333D01*
X135167904Y-96813714D01*
X135358380Y-96813714D01*
X135453619Y-96861333D01*
X135501238Y-96956571D01*
X135501238Y-97051809D01*
X135025047Y-97147047D01*
X135834571Y-96813714D02*
X136072666Y-97480380D01*
X136310761Y-96813714D01*
X137977428Y-97480380D02*
X137406000Y-97480380D01*
X137691714Y-97480380D02*
X137691714Y-96480380D01*
X137596476Y-96623238D01*
X137501238Y-96718476D01*
X137406000Y-96766095D01*
X138406000Y-97385142D02*
X138453619Y-97432761D01*
X138406000Y-97480380D01*
X138358380Y-97432761D01*
X138406000Y-97385142D01*
X138406000Y-97480380D01*
X139072666Y-96480380D02*
X139167904Y-96480380D01*
X139263142Y-96528000D01*
X139310761Y-96575619D01*
X139358380Y-96670857D01*
X139406000Y-96861333D01*
X139406000Y-97099428D01*
X139358380Y-97289904D01*
X139310761Y-97385142D01*
X139263142Y-97432761D01*
X139167904Y-97480380D01*
X139072666Y-97480380D01*
X138977428Y-97432761D01*
X138929809Y-97385142D01*
X138882190Y-97289904D01*
X138834571Y-97099428D01*
X138834571Y-96861333D01*
X138882190Y-96670857D01*
X138929809Y-96575619D01*
X138977428Y-96528000D01*
X139072666Y-96480380D01*
D10*
G36*
X172720000Y-99314000D02*
G01*
X170942000Y-99314000D01*
X170942000Y-71120000D01*
X172720000Y-71120000D01*
X172720000Y-99314000D01*
G37*
X172720000Y-99314000D02*
X170942000Y-99314000D01*
X170942000Y-71120000D01*
X172720000Y-71120000D01*
X172720000Y-99314000D01*
D14*
%TO.C,J3*%
X176022000Y-84074000D02*
X176022000Y-94234000D01*
X176022000Y-94234000D02*
X173482000Y-94234000D01*
X173482000Y-94234000D02*
X173482000Y-84074000D01*
X173482000Y-84074000D02*
X176022000Y-84074000D01*
%TO.C,J2*%
X157734000Y-98298000D02*
X157734000Y-95758000D01*
X167894000Y-98298000D02*
X157734000Y-98298000D01*
X167894000Y-95758000D02*
X167894000Y-98298000D01*
X157734000Y-95758000D02*
X167894000Y-95758000D01*
%TO.C,J1*%
X110998000Y-93726000D02*
X110998000Y-96266000D01*
X105918000Y-93726000D02*
X110998000Y-93726000D01*
X105918000Y-96266000D02*
X105918000Y-93726000D01*
X110998000Y-96266000D02*
X105918000Y-96266000D01*
%TO.C,D2*%
X161036000Y-86472000D02*
X161036000Y-84812000D01*
X162956000Y-88392000D02*
G75*
G03*
X162956000Y-88392000I-1920000J0D01*
G01*
%TO.C,D1*%
X163464000Y-75692000D02*
X165124000Y-75692000D01*
X163464000Y-75692000D02*
G75*
G03*
X163464000Y-75692000I-1920000J0D01*
G01*
%TO.C,BZ1*%
X156204000Y-90932000D02*
G75*
G03*
X156204000Y-90932000I-6100000J0D01*
G01*
%TO.C,R3*%
X131454000Y-94612000D02*
X131454000Y-91582000D01*
X131454000Y-90282000D02*
X131454000Y-87372000D01*
X138294000Y-94612000D02*
X138294000Y-91582000D01*
X138294000Y-90282000D02*
X138294000Y-87372000D01*
X131454000Y-94612000D02*
X138294000Y-94612000D01*
X131454000Y-87372000D02*
X138294000Y-87372000D01*
%TO.C,SW_1*%
X178650000Y-74406000D02*
X178650000Y-78906000D01*
X182650000Y-73156000D02*
X181150000Y-73156000D01*
X185150000Y-78906000D02*
X185150000Y-74406000D01*
X181150000Y-80156000D02*
X182650000Y-80156000D01*
%TO.C,SW_2*%
X181150000Y-91586000D02*
X182650000Y-91586000D01*
X185150000Y-90336000D02*
X185150000Y-85836000D01*
X182650000Y-84586000D02*
X181150000Y-84586000D01*
X178650000Y-85836000D02*
X178650000Y-90336000D01*
%TO.C,SW_3*%
X178650000Y-97266000D02*
X178650000Y-101766000D01*
X182650000Y-96016000D02*
X181150000Y-96016000D01*
X185150000Y-101766000D02*
X185150000Y-97266000D01*
X181150000Y-103016000D02*
X182650000Y-103016000D01*
%TO.C,U1*%
X146364000Y-77232000D02*
X146364000Y-75582000D01*
X146364000Y-75582000D02*
X120844000Y-75582000D01*
X120844000Y-75582000D02*
X120844000Y-80882000D01*
X120844000Y-80882000D02*
X146364000Y-80882000D01*
X146364000Y-80882000D02*
X146364000Y-79232000D01*
X146364000Y-79232000D02*
G75*
G02*
X146364000Y-77232000I0J1000000D01*
G01*
%TO.C,U2*%
X126094000Y-85792000D02*
X124444000Y-85792000D01*
X126094000Y-96072000D02*
X126094000Y-85792000D01*
X120794000Y-96072000D02*
X126094000Y-96072000D01*
X120794000Y-85792000D02*
X120794000Y-96072000D01*
X122444000Y-85792000D02*
X120794000Y-85792000D01*
X124444000Y-85792000D02*
G75*
G02*
X122444000Y-85792000I-1000000J0D01*
G01*
%TO.C,Y1*%
X114553458Y-92061479D02*
G75*
G03*
X117094000Y-92062088I1270542J1129479D01*
G01*
X114553458Y-89802521D02*
G75*
G02*
X117094000Y-89801912I1270542J-1129479D01*
G01*
%TO.C,R1*%
X115004000Y-76962000D02*
G75*
G03*
X115004000Y-76962000I-1720000J0D01*
G01*
X111564000Y-76962000D02*
X109304000Y-76962000D01*
%TO.C,Q1*%
X155948000Y-81142000D02*
X156074000Y-81142000D01*
X153662000Y-81142000D02*
X153933000Y-81142000D01*
X151376000Y-81142000D02*
X151647000Y-81142000D01*
X149234000Y-81142000D02*
X149360000Y-81142000D01*
X156074000Y-80502000D02*
X156074000Y-83042000D01*
X149234000Y-80502000D02*
X149234000Y-83042000D01*
X155948000Y-83042000D02*
X156074000Y-83042000D01*
X153662000Y-83042000D02*
X153933000Y-83042000D01*
X151376000Y-83042000D02*
X151647000Y-83042000D01*
X149234000Y-83042000D02*
X149360000Y-83042000D01*
X149234000Y-80502000D02*
X156074000Y-80502000D01*
%TO.C,R2*%
X153474000Y-75692000D02*
X151214000Y-75692000D01*
X156914000Y-75692000D02*
G75*
G03*
X156914000Y-75692000I-1720000J0D01*
G01*
%TO.C,J3*%
D11*
X176244380Y-88217333D02*
X176958666Y-88217333D01*
X177101523Y-88264952D01*
X177196761Y-88360190D01*
X177244380Y-88503047D01*
X177244380Y-88598285D01*
X176244380Y-87836380D02*
X176244380Y-87217333D01*
X176625333Y-87550666D01*
X176625333Y-87407809D01*
X176672952Y-87312571D01*
X176720571Y-87264952D01*
X176815809Y-87217333D01*
X177053904Y-87217333D01*
X177149142Y-87264952D01*
X177196761Y-87312571D01*
X177244380Y-87407809D01*
X177244380Y-87693523D01*
X177196761Y-87788761D01*
X177149142Y-87836380D01*
%TO.C,J2*%
X161210666Y-94440380D02*
X161210666Y-95154666D01*
X161163047Y-95297523D01*
X161067809Y-95392761D01*
X160924952Y-95440380D01*
X160829714Y-95440380D01*
X161639238Y-94535619D02*
X161686857Y-94488000D01*
X161782095Y-94440380D01*
X162020190Y-94440380D01*
X162115428Y-94488000D01*
X162163047Y-94535619D01*
X162210666Y-94630857D01*
X162210666Y-94726095D01*
X162163047Y-94868952D01*
X161591619Y-95440380D01*
X162210666Y-95440380D01*
%TO.C,J1*%
X108124666Y-96488380D02*
X108124666Y-97202666D01*
X108077047Y-97345523D01*
X107981809Y-97440761D01*
X107838952Y-97488380D01*
X107743714Y-97488380D01*
X109124666Y-97488380D02*
X108553238Y-97488380D01*
X108838952Y-97488380D02*
X108838952Y-96488380D01*
X108743714Y-96631238D01*
X108648476Y-96726476D01*
X108553238Y-96774095D01*
%TO.C,D2*%
X164408380Y-86590095D02*
X163408380Y-86590095D01*
X163408380Y-86352000D01*
X163456000Y-86209142D01*
X163551238Y-86113904D01*
X163646476Y-86066285D01*
X163836952Y-86018666D01*
X163979809Y-86018666D01*
X164170285Y-86066285D01*
X164265523Y-86113904D01*
X164360761Y-86209142D01*
X164408380Y-86352000D01*
X164408380Y-86590095D01*
X163503619Y-85637714D02*
X163456000Y-85590095D01*
X163408380Y-85494857D01*
X163408380Y-85256761D01*
X163456000Y-85161523D01*
X163503619Y-85113904D01*
X163598857Y-85066285D01*
X163694095Y-85066285D01*
X163836952Y-85113904D01*
X164408380Y-85685333D01*
X164408380Y-85066285D01*
X160288380Y-85473904D02*
X159288380Y-85473904D01*
X160288380Y-84902476D02*
X159716952Y-85331047D01*
X159288380Y-84902476D02*
X159859809Y-85473904D01*
%TO.C,D1*%
X163345904Y-79064380D02*
X163345904Y-78064380D01*
X163584000Y-78064380D01*
X163726857Y-78112000D01*
X163822095Y-78207238D01*
X163869714Y-78302476D01*
X163917333Y-78492952D01*
X163917333Y-78635809D01*
X163869714Y-78826285D01*
X163822095Y-78921523D01*
X163726857Y-79016761D01*
X163584000Y-79064380D01*
X163345904Y-79064380D01*
X164869714Y-79064380D02*
X164298285Y-79064380D01*
X164584000Y-79064380D02*
X164584000Y-78064380D01*
X164488761Y-78207238D01*
X164393523Y-78302476D01*
X164298285Y-78350095D01*
X164462095Y-74944380D02*
X164462095Y-73944380D01*
X165033523Y-74944380D02*
X164604952Y-74372952D01*
X165033523Y-73944380D02*
X164462095Y-74515809D01*
%TO.C,BZ1*%
X149223047Y-83660571D02*
X149365904Y-83708190D01*
X149413523Y-83755809D01*
X149461142Y-83851047D01*
X149461142Y-83993904D01*
X149413523Y-84089142D01*
X149365904Y-84136761D01*
X149270666Y-84184380D01*
X148889714Y-84184380D01*
X148889714Y-83184380D01*
X149223047Y-83184380D01*
X149318285Y-83232000D01*
X149365904Y-83279619D01*
X149413523Y-83374857D01*
X149413523Y-83470095D01*
X149365904Y-83565333D01*
X149318285Y-83612952D01*
X149223047Y-83660571D01*
X148889714Y-83660571D01*
X149794476Y-83184380D02*
X150461142Y-83184380D01*
X149794476Y-84184380D01*
X150461142Y-84184380D01*
X151365904Y-84184380D02*
X150794476Y-84184380D01*
X151080190Y-84184380D02*
X151080190Y-83184380D01*
X150984952Y-83327238D01*
X150889714Y-83422476D01*
X150794476Y-83470095D01*
X145913047Y-88463428D02*
X146674952Y-88463428D01*
X146294000Y-88844380D02*
X146294000Y-88082476D01*
%TO.C,R3*%
X130776380Y-91158666D02*
X130300190Y-91492000D01*
X130776380Y-91730095D02*
X129776380Y-91730095D01*
X129776380Y-91349142D01*
X129824000Y-91253904D01*
X129871619Y-91206285D01*
X129966857Y-91158666D01*
X130109714Y-91158666D01*
X130204952Y-91206285D01*
X130252571Y-91253904D01*
X130300190Y-91349142D01*
X130300190Y-91730095D01*
X129776380Y-90825333D02*
X129776380Y-90206285D01*
X130157333Y-90539619D01*
X130157333Y-90396761D01*
X130204952Y-90301523D01*
X130252571Y-90253904D01*
X130347809Y-90206285D01*
X130585904Y-90206285D01*
X130681142Y-90253904D01*
X130728761Y-90301523D01*
X130776380Y-90396761D01*
X130776380Y-90682476D01*
X130728761Y-90777714D01*
X130681142Y-90825333D01*
%TO.C,SW_1*%
X186554761Y-78370285D02*
X186602380Y-78227428D01*
X186602380Y-77989333D01*
X186554761Y-77894095D01*
X186507142Y-77846476D01*
X186411904Y-77798857D01*
X186316666Y-77798857D01*
X186221428Y-77846476D01*
X186173809Y-77894095D01*
X186126190Y-77989333D01*
X186078571Y-78179809D01*
X186030952Y-78275047D01*
X185983333Y-78322666D01*
X185888095Y-78370285D01*
X185792857Y-78370285D01*
X185697619Y-78322666D01*
X185650000Y-78275047D01*
X185602380Y-78179809D01*
X185602380Y-77941714D01*
X185650000Y-77798857D01*
X185602380Y-77465523D02*
X186602380Y-77227428D01*
X185888095Y-77036952D01*
X186602380Y-76846476D01*
X185602380Y-76608380D01*
X186697619Y-76465523D02*
X186697619Y-75703619D01*
X186602380Y-74941714D02*
X186602380Y-75513142D01*
X186602380Y-75227428D02*
X185602380Y-75227428D01*
X185745238Y-75322666D01*
X185840476Y-75417904D01*
X185888095Y-75513142D01*
%TO.C,SW_2*%
X186554761Y-89800285D02*
X186602380Y-89657428D01*
X186602380Y-89419333D01*
X186554761Y-89324095D01*
X186507142Y-89276476D01*
X186411904Y-89228857D01*
X186316666Y-89228857D01*
X186221428Y-89276476D01*
X186173809Y-89324095D01*
X186126190Y-89419333D01*
X186078571Y-89609809D01*
X186030952Y-89705047D01*
X185983333Y-89752666D01*
X185888095Y-89800285D01*
X185792857Y-89800285D01*
X185697619Y-89752666D01*
X185650000Y-89705047D01*
X185602380Y-89609809D01*
X185602380Y-89371714D01*
X185650000Y-89228857D01*
X185602380Y-88895523D02*
X186602380Y-88657428D01*
X185888095Y-88466952D01*
X186602380Y-88276476D01*
X185602380Y-88038380D01*
X186697619Y-87895523D02*
X186697619Y-87133619D01*
X185697619Y-86943142D02*
X185650000Y-86895523D01*
X185602380Y-86800285D01*
X185602380Y-86562190D01*
X185650000Y-86466952D01*
X185697619Y-86419333D01*
X185792857Y-86371714D01*
X185888095Y-86371714D01*
X186030952Y-86419333D01*
X186602380Y-86990761D01*
X186602380Y-86371714D01*
%TO.C,SW_3*%
X186554761Y-101230285D02*
X186602380Y-101087428D01*
X186602380Y-100849333D01*
X186554761Y-100754095D01*
X186507142Y-100706476D01*
X186411904Y-100658857D01*
X186316666Y-100658857D01*
X186221428Y-100706476D01*
X186173809Y-100754095D01*
X186126190Y-100849333D01*
X186078571Y-101039809D01*
X186030952Y-101135047D01*
X185983333Y-101182666D01*
X185888095Y-101230285D01*
X185792857Y-101230285D01*
X185697619Y-101182666D01*
X185650000Y-101135047D01*
X185602380Y-101039809D01*
X185602380Y-100801714D01*
X185650000Y-100658857D01*
X185602380Y-100325523D02*
X186602380Y-100087428D01*
X185888095Y-99896952D01*
X186602380Y-99706476D01*
X185602380Y-99468380D01*
X186697619Y-99325523D02*
X186697619Y-98563619D01*
X185602380Y-98420761D02*
X185602380Y-97801714D01*
X185983333Y-98135047D01*
X185983333Y-97992190D01*
X186030952Y-97896952D01*
X186078571Y-97849333D01*
X186173809Y-97801714D01*
X186411904Y-97801714D01*
X186507142Y-97849333D01*
X186554761Y-97896952D01*
X186602380Y-97992190D01*
X186602380Y-98277904D01*
X186554761Y-98373142D01*
X186507142Y-98420761D01*
%TO.C,U1*%
X146816380Y-78993904D02*
X147625904Y-78993904D01*
X147721142Y-78946285D01*
X147768761Y-78898666D01*
X147816380Y-78803428D01*
X147816380Y-78612952D01*
X147768761Y-78517714D01*
X147721142Y-78470095D01*
X147625904Y-78422476D01*
X146816380Y-78422476D01*
X147816380Y-77422476D02*
X147816380Y-77993904D01*
X147816380Y-77708190D02*
X146816380Y-77708190D01*
X146959238Y-77803428D01*
X147054476Y-77898666D01*
X147102095Y-77993904D01*
%TO.C,U2*%
X122682095Y-84244380D02*
X122682095Y-85053904D01*
X122729714Y-85149142D01*
X122777333Y-85196761D01*
X122872571Y-85244380D01*
X123063047Y-85244380D01*
X123158285Y-85196761D01*
X123205904Y-85149142D01*
X123253523Y-85053904D01*
X123253523Y-84244380D01*
X123682095Y-84339619D02*
X123729714Y-84292000D01*
X123824952Y-84244380D01*
X124063047Y-84244380D01*
X124158285Y-84292000D01*
X124205904Y-84339619D01*
X124253523Y-84434857D01*
X124253523Y-84530095D01*
X124205904Y-84672952D01*
X123634476Y-85244380D01*
X124253523Y-85244380D01*
%TO.C,Y1*%
X115347809Y-93608190D02*
X115347809Y-94084380D01*
X115014476Y-93084380D02*
X115347809Y-93608190D01*
X115681142Y-93084380D01*
X116538285Y-94084380D02*
X115966857Y-94084380D01*
X116252571Y-94084380D02*
X116252571Y-93084380D01*
X116157333Y-93227238D01*
X116062095Y-93322476D01*
X115966857Y-93370095D01*
%TO.C,R1*%
X110577333Y-80134380D02*
X110244000Y-79658190D01*
X110005904Y-80134380D02*
X110005904Y-79134380D01*
X110386857Y-79134380D01*
X110482095Y-79182000D01*
X110529714Y-79229619D01*
X110577333Y-79324857D01*
X110577333Y-79467714D01*
X110529714Y-79562952D01*
X110482095Y-79610571D01*
X110386857Y-79658190D01*
X110005904Y-79658190D01*
X111529714Y-80134380D02*
X110958285Y-80134380D01*
X111244000Y-80134380D02*
X111244000Y-79134380D01*
X111148761Y-79277238D01*
X111053523Y-79372476D01*
X110958285Y-79420095D01*
%TO.C,Q1*%
X152558761Y-80049619D02*
X152463523Y-80002000D01*
X152368285Y-79906761D01*
X152225428Y-79763904D01*
X152130190Y-79716285D01*
X152034952Y-79716285D01*
X152082571Y-79954380D02*
X151987333Y-79906761D01*
X151892095Y-79811523D01*
X151844476Y-79621047D01*
X151844476Y-79287714D01*
X151892095Y-79097238D01*
X151987333Y-79002000D01*
X152082571Y-78954380D01*
X152273047Y-78954380D01*
X152368285Y-79002000D01*
X152463523Y-79097238D01*
X152511142Y-79287714D01*
X152511142Y-79621047D01*
X152463523Y-79811523D01*
X152368285Y-79906761D01*
X152273047Y-79954380D01*
X152082571Y-79954380D01*
X153463523Y-79954380D02*
X152892095Y-79954380D01*
X153177809Y-79954380D02*
X153177809Y-78954380D01*
X153082571Y-79097238D01*
X152987333Y-79192476D01*
X152892095Y-79240095D01*
%TO.C,R2*%
X152487333Y-78864380D02*
X152154000Y-78388190D01*
X151915904Y-78864380D02*
X151915904Y-77864380D01*
X152296857Y-77864380D01*
X152392095Y-77912000D01*
X152439714Y-77959619D01*
X152487333Y-78054857D01*
X152487333Y-78197714D01*
X152439714Y-78292952D01*
X152392095Y-78340571D01*
X152296857Y-78388190D01*
X151915904Y-78388190D01*
X152868285Y-77959619D02*
X152915904Y-77912000D01*
X153011142Y-77864380D01*
X153249238Y-77864380D01*
X153344476Y-77912000D01*
X153392095Y-77959619D01*
X153439714Y-78054857D01*
X153439714Y-78150095D01*
X153392095Y-78292952D01*
X152820666Y-78864380D01*
X153439714Y-78864380D01*
%TD*%
M02*
