%TF.GenerationSoftware,KiCad,Pcbnew,(5.1.6)-1*%
%TF.CreationDate,2020-08-18T15:16:58+05:00*%
%TF.ProjectId,attiny2313_tm1637_ds1302,61747469-6e79-4323-9331-335f746d3136,1*%
%TF.SameCoordinates,Original*%
%TF.FileFunction,Other,Fab,Top*%
%FSLAX46Y46*%
G04 Gerber Fmt 4.6, Leading zero omitted, Abs format (unit mm)*
G04 Created by KiCad (PCBNEW (5.1.6)-1) date 2020-08-18 15:16:58*
%MOMM*%
%LPD*%
G01*
G04 APERTURE LIST*
%ADD10C,0.100000*%
%ADD11C,0.150000*%
%ADD12C,0.300000*%
%ADD13C,0.400000*%
%ADD14C,0.120000*%
G04 APERTURE END LIST*
D10*
D11*
X177002200Y-166007200D02*
X177002200Y-198007200D01*
X285002200Y-198007200D01*
X285002200Y-166007200D01*
X177002200Y-166007200D01*
D10*
D11*
X10000000Y-10000000D02*
X10000000Y-200007200D01*
X287002200Y-200007200D01*
X287002200Y-10000000D01*
X10000000Y-10000000D01*
D10*
D11*
X12000000Y-12000000D02*
X12000000Y-198007200D01*
X285002200Y-198007200D01*
X285002200Y-12000000D01*
X12000000Y-12000000D01*
D10*
D11*
X60000000Y-12000000D02*
X60000000Y-10000000D01*
D10*
D11*
X110000000Y-12000000D02*
X110000000Y-10000000D01*
D10*
D11*
X160000000Y-12000000D02*
X160000000Y-10000000D01*
D10*
D11*
X210000000Y-12000000D02*
X210000000Y-10000000D01*
D10*
D11*
X260000000Y-12000000D02*
X260000000Y-10000000D01*
D10*
D11*
X36065476Y-11588095D02*
X35322619Y-11588095D01*
X35694047Y-11588095D02*
X35694047Y-10288095D01*
X35570238Y-10473809D01*
X35446428Y-10597619D01*
X35322619Y-10659523D01*
D10*
D11*
X85322619Y-10411904D02*
X85384523Y-10350000D01*
X85508333Y-10288095D01*
X85817857Y-10288095D01*
X85941666Y-10350000D01*
X86003571Y-10411904D01*
X86065476Y-10535714D01*
X86065476Y-10659523D01*
X86003571Y-10845238D01*
X85260714Y-11588095D01*
X86065476Y-11588095D01*
D10*
D11*
X135260714Y-10288095D02*
X136065476Y-10288095D01*
X135632142Y-10783333D01*
X135817857Y-10783333D01*
X135941666Y-10845238D01*
X136003571Y-10907142D01*
X136065476Y-11030952D01*
X136065476Y-11340476D01*
X136003571Y-11464285D01*
X135941666Y-11526190D01*
X135817857Y-11588095D01*
X135446428Y-11588095D01*
X135322619Y-11526190D01*
X135260714Y-11464285D01*
D10*
D11*
X185941666Y-10721428D02*
X185941666Y-11588095D01*
X185632142Y-10226190D02*
X185322619Y-11154761D01*
X186127380Y-11154761D01*
D10*
D11*
X236003571Y-10288095D02*
X235384523Y-10288095D01*
X235322619Y-10907142D01*
X235384523Y-10845238D01*
X235508333Y-10783333D01*
X235817857Y-10783333D01*
X235941666Y-10845238D01*
X236003571Y-10907142D01*
X236065476Y-11030952D01*
X236065476Y-11340476D01*
X236003571Y-11464285D01*
X235941666Y-11526190D01*
X235817857Y-11588095D01*
X235508333Y-11588095D01*
X235384523Y-11526190D01*
X235322619Y-11464285D01*
D10*
D11*
X285941666Y-10288095D02*
X285694047Y-10288095D01*
X285570238Y-10350000D01*
X285508333Y-10411904D01*
X285384523Y-10597619D01*
X285322619Y-10845238D01*
X285322619Y-11340476D01*
X285384523Y-11464285D01*
X285446428Y-11526190D01*
X285570238Y-11588095D01*
X285817857Y-11588095D01*
X285941666Y-11526190D01*
X286003571Y-11464285D01*
X286065476Y-11340476D01*
X286065476Y-11030952D01*
X286003571Y-10907142D01*
X285941666Y-10845238D01*
X285817857Y-10783333D01*
X285570238Y-10783333D01*
X285446428Y-10845238D01*
X285384523Y-10907142D01*
X285322619Y-11030952D01*
D10*
D11*
X60000000Y-198007200D02*
X60000000Y-200007200D01*
D10*
D11*
X110000000Y-198007200D02*
X110000000Y-200007200D01*
D10*
D11*
X160000000Y-198007200D02*
X160000000Y-200007200D01*
D10*
D11*
X210000000Y-198007200D02*
X210000000Y-200007200D01*
D10*
D11*
X260000000Y-198007200D02*
X260000000Y-200007200D01*
D10*
D11*
X36065476Y-199595295D02*
X35322619Y-199595295D01*
X35694047Y-199595295D02*
X35694047Y-198295295D01*
X35570238Y-198481009D01*
X35446428Y-198604819D01*
X35322619Y-198666723D01*
D10*
D11*
X85322619Y-198419104D02*
X85384523Y-198357200D01*
X85508333Y-198295295D01*
X85817857Y-198295295D01*
X85941666Y-198357200D01*
X86003571Y-198419104D01*
X86065476Y-198542914D01*
X86065476Y-198666723D01*
X86003571Y-198852438D01*
X85260714Y-199595295D01*
X86065476Y-199595295D01*
D10*
D11*
X135260714Y-198295295D02*
X136065476Y-198295295D01*
X135632142Y-198790533D01*
X135817857Y-198790533D01*
X135941666Y-198852438D01*
X136003571Y-198914342D01*
X136065476Y-199038152D01*
X136065476Y-199347676D01*
X136003571Y-199471485D01*
X135941666Y-199533390D01*
X135817857Y-199595295D01*
X135446428Y-199595295D01*
X135322619Y-199533390D01*
X135260714Y-199471485D01*
D10*
D11*
X185941666Y-198728628D02*
X185941666Y-199595295D01*
X185632142Y-198233390D02*
X185322619Y-199161961D01*
X186127380Y-199161961D01*
D10*
D11*
X236003571Y-198295295D02*
X235384523Y-198295295D01*
X235322619Y-198914342D01*
X235384523Y-198852438D01*
X235508333Y-198790533D01*
X235817857Y-198790533D01*
X235941666Y-198852438D01*
X236003571Y-198914342D01*
X236065476Y-199038152D01*
X236065476Y-199347676D01*
X236003571Y-199471485D01*
X235941666Y-199533390D01*
X235817857Y-199595295D01*
X235508333Y-199595295D01*
X235384523Y-199533390D01*
X235322619Y-199471485D01*
D10*
D11*
X285941666Y-198295295D02*
X285694047Y-198295295D01*
X285570238Y-198357200D01*
X285508333Y-198419104D01*
X285384523Y-198604819D01*
X285322619Y-198852438D01*
X285322619Y-199347676D01*
X285384523Y-199471485D01*
X285446428Y-199533390D01*
X285570238Y-199595295D01*
X285817857Y-199595295D01*
X285941666Y-199533390D01*
X286003571Y-199471485D01*
X286065476Y-199347676D01*
X286065476Y-199038152D01*
X286003571Y-198914342D01*
X285941666Y-198852438D01*
X285817857Y-198790533D01*
X285570238Y-198790533D01*
X285446428Y-198852438D01*
X285384523Y-198914342D01*
X285322619Y-199038152D01*
D10*
D11*
X10000000Y-60000000D02*
X12000000Y-60000000D01*
D10*
D11*
X10000000Y-110000000D02*
X12000000Y-110000000D01*
D10*
D11*
X10000000Y-160000000D02*
X12000000Y-160000000D01*
D10*
D11*
X10690476Y-35216666D02*
X11309523Y-35216666D01*
X10566666Y-35588095D02*
X11000000Y-34288095D01*
X11433333Y-35588095D01*
D10*
D11*
X11092857Y-84907142D02*
X11278571Y-84969047D01*
X11340476Y-85030952D01*
X11402380Y-85154761D01*
X11402380Y-85340476D01*
X11340476Y-85464285D01*
X11278571Y-85526190D01*
X11154761Y-85588095D01*
X10659523Y-85588095D01*
X10659523Y-84288095D01*
X11092857Y-84288095D01*
X11216666Y-84350000D01*
X11278571Y-84411904D01*
X11340476Y-84535714D01*
X11340476Y-84659523D01*
X11278571Y-84783333D01*
X11216666Y-84845238D01*
X11092857Y-84907142D01*
X10659523Y-84907142D01*
D10*
D11*
X11402380Y-135464285D02*
X11340476Y-135526190D01*
X11154761Y-135588095D01*
X11030952Y-135588095D01*
X10845238Y-135526190D01*
X10721428Y-135402380D01*
X10659523Y-135278571D01*
X10597619Y-135030952D01*
X10597619Y-134845238D01*
X10659523Y-134597619D01*
X10721428Y-134473809D01*
X10845238Y-134350000D01*
X11030952Y-134288095D01*
X11154761Y-134288095D01*
X11340476Y-134350000D01*
X11402380Y-134411904D01*
D10*
D11*
X10659523Y-185588095D02*
X10659523Y-184288095D01*
X10969047Y-184288095D01*
X11154761Y-184350000D01*
X11278571Y-184473809D01*
X11340476Y-184597619D01*
X11402380Y-184845238D01*
X11402380Y-185030952D01*
X11340476Y-185278571D01*
X11278571Y-185402380D01*
X11154761Y-185526190D01*
X10969047Y-185588095D01*
X10659523Y-185588095D01*
D10*
D11*
X287002200Y-60000000D02*
X285002200Y-60000000D01*
D10*
D11*
X287002200Y-110000000D02*
X285002200Y-110000000D01*
D10*
D11*
X287002200Y-160000000D02*
X285002200Y-160000000D01*
D10*
D11*
X285692676Y-35216666D02*
X286311723Y-35216666D01*
X285568866Y-35588095D02*
X286002200Y-34288095D01*
X286435533Y-35588095D01*
D10*
D11*
X286095057Y-84907142D02*
X286280771Y-84969047D01*
X286342676Y-85030952D01*
X286404580Y-85154761D01*
X286404580Y-85340476D01*
X286342676Y-85464285D01*
X286280771Y-85526190D01*
X286156961Y-85588095D01*
X285661723Y-85588095D01*
X285661723Y-84288095D01*
X286095057Y-84288095D01*
X286218866Y-84350000D01*
X286280771Y-84411904D01*
X286342676Y-84535714D01*
X286342676Y-84659523D01*
X286280771Y-84783333D01*
X286218866Y-84845238D01*
X286095057Y-84907142D01*
X285661723Y-84907142D01*
D10*
D11*
X286404580Y-135464285D02*
X286342676Y-135526190D01*
X286156961Y-135588095D01*
X286033152Y-135588095D01*
X285847438Y-135526190D01*
X285723628Y-135402380D01*
X285661723Y-135278571D01*
X285599819Y-135030952D01*
X285599819Y-134845238D01*
X285661723Y-134597619D01*
X285723628Y-134473809D01*
X285847438Y-134350000D01*
X286033152Y-134288095D01*
X286156961Y-134288095D01*
X286342676Y-134350000D01*
X286404580Y-134411904D01*
D10*
D11*
X285661723Y-185588095D02*
X285661723Y-184288095D01*
X285971247Y-184288095D01*
X286156961Y-184350000D01*
X286280771Y-184473809D01*
X286342676Y-184597619D01*
X286404580Y-184845238D01*
X286404580Y-185030952D01*
X286342676Y-185278571D01*
X286280771Y-185402380D01*
X286156961Y-185526190D01*
X285971247Y-185588095D01*
X285661723Y-185588095D01*
D10*
D11*
X200434342Y-193785771D02*
X200434342Y-192285771D01*
X200791485Y-192285771D01*
X201005771Y-192357200D01*
X201148628Y-192500057D01*
X201220057Y-192642914D01*
X201291485Y-192928628D01*
X201291485Y-193142914D01*
X201220057Y-193428628D01*
X201148628Y-193571485D01*
X201005771Y-193714342D01*
X200791485Y-193785771D01*
X200434342Y-193785771D01*
X202577200Y-193785771D02*
X202577200Y-193000057D01*
X202505771Y-192857200D01*
X202362914Y-192785771D01*
X202077200Y-192785771D01*
X201934342Y-192857200D01*
X202577200Y-193714342D02*
X202434342Y-193785771D01*
X202077200Y-193785771D01*
X201934342Y-193714342D01*
X201862914Y-193571485D01*
X201862914Y-193428628D01*
X201934342Y-193285771D01*
X202077200Y-193214342D01*
X202434342Y-193214342D01*
X202577200Y-193142914D01*
X203077200Y-192785771D02*
X203648628Y-192785771D01*
X203291485Y-192285771D02*
X203291485Y-193571485D01*
X203362914Y-193714342D01*
X203505771Y-193785771D01*
X203648628Y-193785771D01*
X204720057Y-193714342D02*
X204577200Y-193785771D01*
X204291485Y-193785771D01*
X204148628Y-193714342D01*
X204077200Y-193571485D01*
X204077200Y-193000057D01*
X204148628Y-192857200D01*
X204291485Y-192785771D01*
X204577200Y-192785771D01*
X204720057Y-192857200D01*
X204791485Y-193000057D01*
X204791485Y-193142914D01*
X204077200Y-193285771D01*
X205434342Y-193642914D02*
X205505771Y-193714342D01*
X205434342Y-193785771D01*
X205362914Y-193714342D01*
X205434342Y-193642914D01*
X205434342Y-193785771D01*
X205434342Y-192857200D02*
X205505771Y-192928628D01*
X205434342Y-193000057D01*
X205362914Y-192928628D01*
X205434342Y-192857200D01*
X205434342Y-193000057D01*
X207220057Y-192428628D02*
X207291485Y-192357200D01*
X207434342Y-192285771D01*
X207791485Y-192285771D01*
X207934342Y-192357200D01*
X208005771Y-192428628D01*
X208077200Y-192571485D01*
X208077200Y-192714342D01*
X208005771Y-192928628D01*
X207148628Y-193785771D01*
X208077200Y-193785771D01*
X209005771Y-192285771D02*
X209148628Y-192285771D01*
X209291485Y-192357200D01*
X209362914Y-192428628D01*
X209434342Y-192571485D01*
X209505771Y-192857200D01*
X209505771Y-193214342D01*
X209434342Y-193500057D01*
X209362914Y-193642914D01*
X209291485Y-193714342D01*
X209148628Y-193785771D01*
X209005771Y-193785771D01*
X208862914Y-193714342D01*
X208791485Y-193642914D01*
X208720057Y-193500057D01*
X208648628Y-193214342D01*
X208648628Y-192857200D01*
X208720057Y-192571485D01*
X208791485Y-192428628D01*
X208862914Y-192357200D01*
X209005771Y-192285771D01*
X210077200Y-192428628D02*
X210148628Y-192357200D01*
X210291485Y-192285771D01*
X210648628Y-192285771D01*
X210791485Y-192357200D01*
X210862914Y-192428628D01*
X210934342Y-192571485D01*
X210934342Y-192714342D01*
X210862914Y-192928628D01*
X210005771Y-193785771D01*
X210934342Y-193785771D01*
X211862914Y-192285771D02*
X212005771Y-192285771D01*
X212148628Y-192357200D01*
X212220057Y-192428628D01*
X212291485Y-192571485D01*
X212362914Y-192857200D01*
X212362914Y-193214342D01*
X212291485Y-193500057D01*
X212220057Y-193642914D01*
X212148628Y-193714342D01*
X212005771Y-193785771D01*
X211862914Y-193785771D01*
X211720057Y-193714342D01*
X211648628Y-193642914D01*
X211577200Y-193500057D01*
X211505771Y-193214342D01*
X211505771Y-192857200D01*
X211577200Y-192571485D01*
X211648628Y-192428628D01*
X211720057Y-192357200D01*
X211862914Y-192285771D01*
X213005771Y-193214342D02*
X214148628Y-193214342D01*
X215148628Y-192285771D02*
X215291485Y-192285771D01*
X215434342Y-192357200D01*
X215505771Y-192428628D01*
X215577200Y-192571485D01*
X215648628Y-192857200D01*
X215648628Y-193214342D01*
X215577200Y-193500057D01*
X215505771Y-193642914D01*
X215434342Y-193714342D01*
X215291485Y-193785771D01*
X215148628Y-193785771D01*
X215005771Y-193714342D01*
X214934342Y-193642914D01*
X214862914Y-193500057D01*
X214791485Y-193214342D01*
X214791485Y-192857200D01*
X214862914Y-192571485D01*
X214934342Y-192428628D01*
X215005771Y-192357200D01*
X215148628Y-192285771D01*
X216505771Y-192928628D02*
X216362914Y-192857200D01*
X216291485Y-192785771D01*
X216220057Y-192642914D01*
X216220057Y-192571485D01*
X216291485Y-192428628D01*
X216362914Y-192357200D01*
X216505771Y-192285771D01*
X216791485Y-192285771D01*
X216934342Y-192357200D01*
X217005771Y-192428628D01*
X217077200Y-192571485D01*
X217077200Y-192642914D01*
X217005771Y-192785771D01*
X216934342Y-192857200D01*
X216791485Y-192928628D01*
X216505771Y-192928628D01*
X216362914Y-193000057D01*
X216291485Y-193071485D01*
X216220057Y-193214342D01*
X216220057Y-193500057D01*
X216291485Y-193642914D01*
X216362914Y-193714342D01*
X216505771Y-193785771D01*
X216791485Y-193785771D01*
X216934342Y-193714342D01*
X217005771Y-193642914D01*
X217077200Y-193500057D01*
X217077200Y-193214342D01*
X217005771Y-193071485D01*
X216934342Y-193000057D01*
X216791485Y-192928628D01*
X217720057Y-193214342D02*
X218862914Y-193214342D01*
X220362914Y-193785771D02*
X219505771Y-193785771D01*
X219934342Y-193785771D02*
X219934342Y-192285771D01*
X219791485Y-192500057D01*
X219648628Y-192642914D01*
X219505771Y-192714342D01*
X221220057Y-192928628D02*
X221077200Y-192857200D01*
X221005771Y-192785771D01*
X220934342Y-192642914D01*
X220934342Y-192571485D01*
X221005771Y-192428628D01*
X221077200Y-192357200D01*
X221220057Y-192285771D01*
X221505771Y-192285771D01*
X221648628Y-192357200D01*
X221720057Y-192428628D01*
X221791485Y-192571485D01*
X221791485Y-192642914D01*
X221720057Y-192785771D01*
X221648628Y-192857200D01*
X221505771Y-192928628D01*
X221220057Y-192928628D01*
X221077200Y-193000057D01*
X221005771Y-193071485D01*
X220934342Y-193214342D01*
X220934342Y-193500057D01*
X221005771Y-193642914D01*
X221077200Y-193714342D01*
X221220057Y-193785771D01*
X221505771Y-193785771D01*
X221648628Y-193714342D01*
X221720057Y-193642914D01*
X221791485Y-193500057D01*
X221791485Y-193214342D01*
X221720057Y-193071485D01*
X221648628Y-193000057D01*
X221505771Y-192928628D01*
D10*
D11*
X177002200Y-194507200D02*
X285002200Y-194507200D01*
D10*
D11*
X178434342Y-196585771D02*
X178434342Y-195085771D01*
X179291485Y-196585771D02*
X178648628Y-195728628D01*
X179291485Y-195085771D02*
X178434342Y-195942914D01*
X179934342Y-196585771D02*
X179934342Y-195585771D01*
X179934342Y-195085771D02*
X179862914Y-195157200D01*
X179934342Y-195228628D01*
X180005771Y-195157200D01*
X179934342Y-195085771D01*
X179934342Y-195228628D01*
X181505771Y-196442914D02*
X181434342Y-196514342D01*
X181220057Y-196585771D01*
X181077200Y-196585771D01*
X180862914Y-196514342D01*
X180720057Y-196371485D01*
X180648628Y-196228628D01*
X180577200Y-195942914D01*
X180577200Y-195728628D01*
X180648628Y-195442914D01*
X180720057Y-195300057D01*
X180862914Y-195157200D01*
X181077200Y-195085771D01*
X181220057Y-195085771D01*
X181434342Y-195157200D01*
X181505771Y-195228628D01*
X182791485Y-196585771D02*
X182791485Y-195800057D01*
X182720057Y-195657200D01*
X182577200Y-195585771D01*
X182291485Y-195585771D01*
X182148628Y-195657200D01*
X182791485Y-196514342D02*
X182648628Y-196585771D01*
X182291485Y-196585771D01*
X182148628Y-196514342D01*
X182077200Y-196371485D01*
X182077200Y-196228628D01*
X182148628Y-196085771D01*
X182291485Y-196014342D01*
X182648628Y-196014342D01*
X182791485Y-195942914D01*
X184148628Y-196585771D02*
X184148628Y-195085771D01*
X184148628Y-196514342D02*
X184005771Y-196585771D01*
X183720057Y-196585771D01*
X183577200Y-196514342D01*
X183505771Y-196442914D01*
X183434342Y-196300057D01*
X183434342Y-195871485D01*
X183505771Y-195728628D01*
X183577200Y-195657200D01*
X183720057Y-195585771D01*
X184005771Y-195585771D01*
X184148628Y-195657200D01*
X186005771Y-195800057D02*
X186505771Y-195800057D01*
X186720057Y-196585771D02*
X186005771Y-196585771D01*
X186005771Y-195085771D01*
X186720057Y-195085771D01*
X187362914Y-196442914D02*
X187434342Y-196514342D01*
X187362914Y-196585771D01*
X187291485Y-196514342D01*
X187362914Y-196442914D01*
X187362914Y-196585771D01*
X188077200Y-196585771D02*
X188077200Y-195085771D01*
X188434342Y-195085771D01*
X188648628Y-195157200D01*
X188791485Y-195300057D01*
X188862914Y-195442914D01*
X188934342Y-195728628D01*
X188934342Y-195942914D01*
X188862914Y-196228628D01*
X188791485Y-196371485D01*
X188648628Y-196514342D01*
X188434342Y-196585771D01*
X188077200Y-196585771D01*
X189577200Y-196442914D02*
X189648628Y-196514342D01*
X189577200Y-196585771D01*
X189505771Y-196514342D01*
X189577200Y-196442914D01*
X189577200Y-196585771D01*
X190220057Y-196157200D02*
X190934342Y-196157200D01*
X190077200Y-196585771D02*
X190577200Y-195085771D01*
X191077200Y-196585771D01*
X191577200Y-196442914D02*
X191648628Y-196514342D01*
X191577200Y-196585771D01*
X191505771Y-196514342D01*
X191577200Y-196442914D01*
X191577200Y-196585771D01*
X194577200Y-196585771D02*
X194577200Y-195085771D01*
X194720057Y-196014342D02*
X195148628Y-196585771D01*
X195148628Y-195585771D02*
X194577200Y-196157200D01*
X195791485Y-196585771D02*
X195791485Y-195585771D01*
X195791485Y-195085771D02*
X195720057Y-195157200D01*
X195791485Y-195228628D01*
X195862914Y-195157200D01*
X195791485Y-195085771D01*
X195791485Y-195228628D01*
X197148628Y-196514342D02*
X197005771Y-196585771D01*
X196720057Y-196585771D01*
X196577200Y-196514342D01*
X196505771Y-196442914D01*
X196434342Y-196300057D01*
X196434342Y-195871485D01*
X196505771Y-195728628D01*
X196577200Y-195657200D01*
X196720057Y-195585771D01*
X197005771Y-195585771D01*
X197148628Y-195657200D01*
X198434342Y-196585771D02*
X198434342Y-195800057D01*
X198362914Y-195657200D01*
X198220057Y-195585771D01*
X197934342Y-195585771D01*
X197791485Y-195657200D01*
X198434342Y-196514342D02*
X198291485Y-196585771D01*
X197934342Y-196585771D01*
X197791485Y-196514342D01*
X197720057Y-196371485D01*
X197720057Y-196228628D01*
X197791485Y-196085771D01*
X197934342Y-196014342D01*
X198291485Y-196014342D01*
X198434342Y-195942914D01*
X199791485Y-196585771D02*
X199791485Y-195085771D01*
X199791485Y-196514342D02*
X199648628Y-196585771D01*
X199362914Y-196585771D01*
X199220057Y-196514342D01*
X199148628Y-196442914D01*
X199077200Y-196300057D01*
X199077200Y-195871485D01*
X199148628Y-195728628D01*
X199220057Y-195657200D01*
X199362914Y-195585771D01*
X199648628Y-195585771D01*
X199791485Y-195657200D01*
X202077200Y-197157200D02*
X202005771Y-197085771D01*
X201862914Y-196871485D01*
X201791485Y-196728628D01*
X201720057Y-196514342D01*
X201648628Y-196157200D01*
X201648628Y-195871485D01*
X201720057Y-195514342D01*
X201791485Y-195300057D01*
X201862914Y-195157200D01*
X202005771Y-194942914D01*
X202077200Y-194871485D01*
X203362914Y-195085771D02*
X202648628Y-195085771D01*
X202577200Y-195800057D01*
X202648628Y-195728628D01*
X202791485Y-195657200D01*
X203148628Y-195657200D01*
X203291485Y-195728628D01*
X203362914Y-195800057D01*
X203434342Y-195942914D01*
X203434342Y-196300057D01*
X203362914Y-196442914D01*
X203291485Y-196514342D01*
X203148628Y-196585771D01*
X202791485Y-196585771D01*
X202648628Y-196514342D01*
X202577200Y-196442914D01*
X204077200Y-196442914D02*
X204148628Y-196514342D01*
X204077200Y-196585771D01*
X204005771Y-196514342D01*
X204077200Y-196442914D01*
X204077200Y-196585771D01*
X205577200Y-196585771D02*
X204720057Y-196585771D01*
X205148628Y-196585771D02*
X205148628Y-195085771D01*
X205005771Y-195300057D01*
X204862914Y-195442914D01*
X204720057Y-195514342D01*
X206220057Y-196442914D02*
X206291485Y-196514342D01*
X206220057Y-196585771D01*
X206148628Y-196514342D01*
X206220057Y-196442914D01*
X206220057Y-196585771D01*
X207577200Y-195085771D02*
X207291485Y-195085771D01*
X207148628Y-195157200D01*
X207077200Y-195228628D01*
X206934342Y-195442914D01*
X206862914Y-195728628D01*
X206862914Y-196300057D01*
X206934342Y-196442914D01*
X207005771Y-196514342D01*
X207148628Y-196585771D01*
X207434342Y-196585771D01*
X207577200Y-196514342D01*
X207648628Y-196442914D01*
X207720057Y-196300057D01*
X207720057Y-195942914D01*
X207648628Y-195800057D01*
X207577200Y-195728628D01*
X207434342Y-195657200D01*
X207148628Y-195657200D01*
X207005771Y-195728628D01*
X206934342Y-195800057D01*
X206862914Y-195942914D01*
X208220057Y-197157200D02*
X208291485Y-197085771D01*
X208434342Y-196871485D01*
X208505771Y-196728628D01*
X208577200Y-196514342D01*
X208648628Y-196157200D01*
X208648628Y-195871485D01*
X208577200Y-195514342D01*
X208505771Y-195300057D01*
X208434342Y-195157200D01*
X208291485Y-194942914D01*
X208220057Y-194871485D01*
X209362914Y-196014342D02*
X210505771Y-196014342D01*
X212005771Y-196585771D02*
X211148628Y-196585771D01*
X211577200Y-196585771D02*
X211577200Y-195085771D01*
X211434342Y-195300057D01*
X211291485Y-195442914D01*
X211148628Y-195514342D01*
D10*
D11*
X177002200Y-191507200D02*
X285002200Y-191507200D01*
D10*
D12*
X264411485Y-193785771D02*
X263911485Y-193071485D01*
X263554342Y-193785771D02*
X263554342Y-192285771D01*
X264125771Y-192285771D01*
X264268628Y-192357200D01*
X264340057Y-192428628D01*
X264411485Y-192571485D01*
X264411485Y-192785771D01*
X264340057Y-192928628D01*
X264268628Y-193000057D01*
X264125771Y-193071485D01*
X263554342Y-193071485D01*
X265625771Y-193714342D02*
X265482914Y-193785771D01*
X265197200Y-193785771D01*
X265054342Y-193714342D01*
X264982914Y-193571485D01*
X264982914Y-193000057D01*
X265054342Y-192857200D01*
X265197200Y-192785771D01*
X265482914Y-192785771D01*
X265625771Y-192857200D01*
X265697200Y-193000057D01*
X265697200Y-193142914D01*
X264982914Y-193285771D01*
X266197200Y-192785771D02*
X266554342Y-193785771D01*
X266911485Y-192785771D01*
X267482914Y-193642914D02*
X267554342Y-193714342D01*
X267482914Y-193785771D01*
X267411485Y-193714342D01*
X267482914Y-193642914D01*
X267482914Y-193785771D01*
X267482914Y-192857200D02*
X267554342Y-192928628D01*
X267482914Y-193000057D01*
X267411485Y-192928628D01*
X267482914Y-192857200D01*
X267482914Y-193000057D01*
X270125771Y-193785771D02*
X269268628Y-193785771D01*
X269697200Y-193785771D02*
X269697200Y-192285771D01*
X269554342Y-192500057D01*
X269411485Y-192642914D01*
X269268628Y-192714342D01*
D10*
D11*
X178362914Y-193714342D02*
X178577200Y-193785771D01*
X178934342Y-193785771D01*
X179077200Y-193714342D01*
X179148628Y-193642914D01*
X179220057Y-193500057D01*
X179220057Y-193357200D01*
X179148628Y-193214342D01*
X179077200Y-193142914D01*
X178934342Y-193071485D01*
X178648628Y-193000057D01*
X178505771Y-192928628D01*
X178434342Y-192857200D01*
X178362914Y-192714342D01*
X178362914Y-192571485D01*
X178434342Y-192428628D01*
X178505771Y-192357200D01*
X178648628Y-192285771D01*
X179005771Y-192285771D01*
X179220057Y-192357200D01*
X179862914Y-193785771D02*
X179862914Y-192785771D01*
X179862914Y-192285771D02*
X179791485Y-192357200D01*
X179862914Y-192428628D01*
X179934342Y-192357200D01*
X179862914Y-192285771D01*
X179862914Y-192428628D01*
X180434342Y-192785771D02*
X181220057Y-192785771D01*
X180434342Y-193785771D01*
X181220057Y-193785771D01*
X182362914Y-193714342D02*
X182220057Y-193785771D01*
X181934342Y-193785771D01*
X181791485Y-193714342D01*
X181720057Y-193571485D01*
X181720057Y-193000057D01*
X181791485Y-192857200D01*
X181934342Y-192785771D01*
X182220057Y-192785771D01*
X182362914Y-192857200D01*
X182434342Y-193000057D01*
X182434342Y-193142914D01*
X181720057Y-193285771D01*
X183077200Y-193642914D02*
X183148628Y-193714342D01*
X183077200Y-193785771D01*
X183005771Y-193714342D01*
X183077200Y-193642914D01*
X183077200Y-193785771D01*
X183077200Y-192857200D02*
X183148628Y-192928628D01*
X183077200Y-193000057D01*
X183005771Y-192928628D01*
X183077200Y-192857200D01*
X183077200Y-193000057D01*
X184862914Y-193357200D02*
X185577200Y-193357200D01*
X184720057Y-193785771D02*
X185220057Y-192285771D01*
X185720057Y-193785771D01*
X186862914Y-192785771D02*
X186862914Y-193785771D01*
X186505771Y-192214342D02*
X186148628Y-193285771D01*
X187077200Y-193285771D01*
D10*
D11*
X263434342Y-196585771D02*
X263434342Y-195085771D01*
X264791485Y-196585771D02*
X264791485Y-195085771D01*
X264791485Y-196514342D02*
X264648628Y-196585771D01*
X264362914Y-196585771D01*
X264220057Y-196514342D01*
X264148628Y-196442914D01*
X264077200Y-196300057D01*
X264077200Y-195871485D01*
X264148628Y-195728628D01*
X264220057Y-195657200D01*
X264362914Y-195585771D01*
X264648628Y-195585771D01*
X264791485Y-195657200D01*
X265505771Y-196442914D02*
X265577200Y-196514342D01*
X265505771Y-196585771D01*
X265434342Y-196514342D01*
X265505771Y-196442914D01*
X265505771Y-196585771D01*
X265505771Y-195657200D02*
X265577200Y-195728628D01*
X265505771Y-195800057D01*
X265434342Y-195728628D01*
X265505771Y-195657200D01*
X265505771Y-195800057D01*
X268148628Y-196585771D02*
X267291485Y-196585771D01*
X267720057Y-196585771D02*
X267720057Y-195085771D01*
X267577200Y-195300057D01*
X267434342Y-195442914D01*
X267291485Y-195514342D01*
X269862914Y-195014342D02*
X268577200Y-196942914D01*
X271148628Y-196585771D02*
X270291485Y-196585771D01*
X270720057Y-196585771D02*
X270720057Y-195085771D01*
X270577200Y-195300057D01*
X270434342Y-195442914D01*
X270291485Y-195514342D01*
D10*
D11*
X177002200Y-187507200D02*
X285002200Y-187507200D01*
D10*
D13*
X178714580Y-188211961D02*
X179857438Y-188211961D01*
X179036009Y-190211961D02*
X179286009Y-188211961D01*
X180274104Y-190211961D02*
X180440771Y-188878628D01*
X180524104Y-188211961D02*
X180416961Y-188307200D01*
X180500295Y-188402438D01*
X180607438Y-188307200D01*
X180524104Y-188211961D01*
X180500295Y-188402438D01*
X181107438Y-188878628D02*
X181869342Y-188878628D01*
X181476485Y-188211961D02*
X181262200Y-189926247D01*
X181333628Y-190116723D01*
X181512200Y-190211961D01*
X181702676Y-190211961D01*
X182655057Y-190211961D02*
X182476485Y-190116723D01*
X182405057Y-189926247D01*
X182619342Y-188211961D01*
X184190771Y-190116723D02*
X183988390Y-190211961D01*
X183607438Y-190211961D01*
X183428866Y-190116723D01*
X183357438Y-189926247D01*
X183452676Y-189164342D01*
X183571723Y-188973866D01*
X183774104Y-188878628D01*
X184155057Y-188878628D01*
X184333628Y-188973866D01*
X184405057Y-189164342D01*
X184381247Y-189354819D01*
X183405057Y-189545295D01*
X185155057Y-190021485D02*
X185238390Y-190116723D01*
X185131247Y-190211961D01*
X185047914Y-190116723D01*
X185155057Y-190021485D01*
X185131247Y-190211961D01*
X185286009Y-188973866D02*
X185369342Y-189069104D01*
X185262200Y-189164342D01*
X185178866Y-189069104D01*
X185286009Y-188973866D01*
X185262200Y-189164342D01*
X189000295Y-188211961D02*
X188750295Y-190211961D01*
X187857438Y-188211961D02*
X187607438Y-190211961D01*
X188940771Y-190211961D01*
X188881247Y-190688152D01*
X189869342Y-188878628D02*
X189702676Y-190211961D01*
X190821723Y-188878628D01*
X190655057Y-190211961D01*
X192428866Y-188211961D02*
X192095533Y-190878628D01*
X192155057Y-188878628D02*
X192536009Y-188878628D01*
X192714580Y-188973866D01*
X192881247Y-189164342D01*
X192952676Y-189354819D01*
X192905057Y-189735771D01*
X192786009Y-189926247D01*
X192571723Y-190116723D01*
X192369342Y-190211961D01*
X191988390Y-190211961D01*
X191809819Y-190116723D01*
X191643152Y-189926247D01*
X191571723Y-189735771D01*
X191619342Y-189354819D01*
X191738390Y-189164342D01*
X191952676Y-188973866D01*
X192155057Y-188878628D01*
X193869342Y-188878628D02*
X193619342Y-190878628D01*
X193857438Y-188973866D02*
X194059819Y-188878628D01*
X194440771Y-188878628D01*
X194619342Y-188973866D01*
X194702676Y-189069104D01*
X194774104Y-189259580D01*
X194702676Y-189831009D01*
X194583628Y-190021485D01*
X194476485Y-190116723D01*
X194274104Y-190211961D01*
X193893152Y-190211961D01*
X193714580Y-190116723D01*
X195797914Y-190211961D02*
X195619342Y-190116723D01*
X195536009Y-190021485D01*
X195464580Y-189831009D01*
X195536009Y-189259580D01*
X195655057Y-189069104D01*
X195762200Y-188973866D01*
X195964580Y-188878628D01*
X196250295Y-188878628D01*
X196428866Y-188973866D01*
X196512200Y-189069104D01*
X196583628Y-189259580D01*
X196512200Y-189831009D01*
X196393152Y-190021485D01*
X196286009Y-190116723D01*
X196083628Y-190211961D01*
X195797914Y-190211961D01*
X197881247Y-189545295D02*
X198155057Y-189640533D01*
X198226485Y-189831009D01*
X198214580Y-189926247D01*
X198095533Y-190116723D01*
X197893152Y-190211961D01*
X197321723Y-190211961D01*
X197488390Y-188878628D01*
X197964580Y-188878628D01*
X198143152Y-188973866D01*
X198214580Y-189164342D01*
X198202676Y-189259580D01*
X198083628Y-189450057D01*
X197881247Y-189545295D01*
X197405057Y-189545295D01*
X199893152Y-190211961D02*
X200024104Y-189164342D01*
X199952676Y-188973866D01*
X199774104Y-188878628D01*
X199393152Y-188878628D01*
X199190771Y-188973866D01*
X199905057Y-190116723D02*
X199702676Y-190211961D01*
X199226485Y-190211961D01*
X199047914Y-190116723D01*
X198976485Y-189926247D01*
X199000295Y-189735771D01*
X199119342Y-189545295D01*
X199321723Y-189450057D01*
X199797914Y-189450057D01*
X200000295Y-189354819D01*
X201619342Y-190116723D02*
X201416961Y-190211961D01*
X201036009Y-190211961D01*
X200857438Y-190116723D01*
X200786009Y-189926247D01*
X200881247Y-189164342D01*
X201000295Y-188973866D01*
X201202676Y-188878628D01*
X201583628Y-188878628D01*
X201762200Y-188973866D01*
X201833628Y-189164342D01*
X201809819Y-189354819D01*
X200833628Y-189545295D01*
X204916961Y-188878628D02*
X204750295Y-190211961D01*
X204155057Y-188878628D02*
X204095533Y-189354819D01*
X204166961Y-189545295D01*
X204345533Y-189640533D01*
X204821723Y-189640533D01*
X206655057Y-190211961D02*
X206786009Y-189164342D01*
X206714580Y-188973866D01*
X206536009Y-188878628D01*
X206155057Y-188878628D01*
X205952676Y-188973866D01*
X206666961Y-190116723D02*
X206464580Y-190211961D01*
X205988390Y-190211961D01*
X205809819Y-190116723D01*
X205738390Y-189926247D01*
X205762200Y-189735771D01*
X205881247Y-189545295D01*
X206083628Y-189450057D01*
X206559819Y-189450057D01*
X206762200Y-189354819D01*
X208476485Y-190116723D02*
X208274104Y-190211961D01*
X207893152Y-190211961D01*
X207714580Y-190116723D01*
X207631247Y-190021485D01*
X207559819Y-189831009D01*
X207631247Y-189259580D01*
X207750295Y-189069104D01*
X207857438Y-188973866D01*
X208059819Y-188878628D01*
X208440771Y-188878628D01*
X208619342Y-188973866D01*
X210821723Y-188878628D02*
X210655057Y-190211961D01*
X209488390Y-188878628D02*
X209321723Y-190211961D01*
X209797914Y-190211961D01*
X210000295Y-190116723D01*
X210119342Y-189926247D01*
X210155057Y-189640533D01*
X210083628Y-189450057D01*
X209905057Y-189354819D01*
X209428866Y-189354819D01*
X214000295Y-190116723D02*
X213797914Y-190211961D01*
X213416961Y-190211961D01*
X213238390Y-190116723D01*
X213155057Y-190021485D01*
X213083628Y-189831009D01*
X213155057Y-189259580D01*
X213274104Y-189069104D01*
X213381247Y-188973866D01*
X213583628Y-188878628D01*
X213964580Y-188878628D01*
X214143152Y-188973866D01*
X217583628Y-188116723D02*
X217476485Y-188211961D01*
X217274104Y-188307200D01*
X216893152Y-188307200D01*
X216690771Y-188402438D01*
X216583628Y-188497676D01*
X216464580Y-188688152D01*
X216321723Y-189831009D01*
X216393152Y-190021485D01*
X216476485Y-190116723D01*
X216655057Y-190211961D01*
X216940771Y-190211961D01*
X217143152Y-190116723D01*
X217250295Y-190021485D01*
X217369342Y-189831009D01*
X217440771Y-189259580D01*
X217369342Y-189069104D01*
X217286009Y-188973866D01*
X217107438Y-188878628D01*
X216726485Y-188878628D01*
X216524104Y-188973866D01*
X216416961Y-189069104D01*
X218155057Y-188878628D02*
X218464580Y-190211961D01*
X219107438Y-188878628D02*
X218464580Y-190211961D01*
X218214580Y-190688152D01*
X218107438Y-190783390D01*
X217905057Y-190878628D01*
X220797914Y-189069104D02*
X220714580Y-188973866D01*
X220536009Y-188878628D01*
X220155057Y-188878628D01*
X219952676Y-188973866D01*
X219845533Y-189069104D01*
X219726485Y-189259580D01*
X219655057Y-189831009D01*
X219726485Y-190021485D01*
X219809819Y-190116723D01*
X219988390Y-190211961D01*
X220274104Y-190211961D01*
X220476485Y-190116723D01*
X220583628Y-190021485D01*
X220702676Y-189831009D01*
X220857438Y-188592914D01*
X220786009Y-188402438D01*
X220702676Y-188307200D01*
X220524104Y-188211961D01*
X220143152Y-188211961D01*
X219940771Y-188307200D01*
X221678866Y-188878628D02*
X221512200Y-190211961D01*
X222631247Y-188878628D01*
X222464580Y-190211961D01*
X224178866Y-190211961D02*
X224345533Y-188878628D01*
X224059819Y-188878628D01*
X223857438Y-188973866D01*
X223738390Y-189164342D01*
X223547914Y-189926247D01*
X223428866Y-190116723D01*
X223226485Y-190211961D01*
X225297914Y-188878628D02*
X225131247Y-190211961D01*
X225607438Y-190211961D01*
X225809819Y-190116723D01*
X225928866Y-189926247D01*
X225964580Y-189640533D01*
X225893152Y-189450057D01*
X225714580Y-189354819D01*
X225238390Y-189354819D01*
X226833628Y-189545295D02*
X227690771Y-189545295D01*
X226916961Y-188878628D02*
X226750295Y-190211961D01*
X227774104Y-188878628D02*
X227607438Y-190211961D01*
X228726485Y-188878628D02*
X228559819Y-190211961D01*
X229678866Y-188878628D01*
X229512199Y-190211961D01*
X230631247Y-188878628D02*
X230464580Y-190211961D01*
X230750295Y-189450057D02*
X231226485Y-190211961D01*
X231393152Y-188878628D02*
X230536009Y-189640533D01*
X232369342Y-190211961D02*
X232190771Y-190116723D01*
X232107438Y-190021485D01*
X232036009Y-189831009D01*
X232107438Y-189259580D01*
X232226485Y-189069104D01*
X232333628Y-188973866D01*
X232536009Y-188878628D01*
X232821723Y-188878628D01*
X233000295Y-188973866D01*
X233083628Y-189069104D01*
X233155057Y-189259580D01*
X233083628Y-189831009D01*
X232964580Y-190021485D01*
X232857438Y-190116723D01*
X232655057Y-190211961D01*
X232369342Y-190211961D01*
X233893152Y-190211961D02*
X234059819Y-188878628D01*
X234500295Y-189926247D01*
X235202676Y-188878628D01*
X235036009Y-190211961D01*
D10*
D11*
X178934342Y-185600057D02*
X178434342Y-185600057D01*
X178434342Y-186385771D02*
X178434342Y-184885771D01*
X179148628Y-184885771D01*
X179720057Y-186385771D02*
X179720057Y-185385771D01*
X179720057Y-184885771D02*
X179648628Y-184957200D01*
X179720057Y-185028628D01*
X179791485Y-184957200D01*
X179720057Y-184885771D01*
X179720057Y-185028628D01*
X180648628Y-186385771D02*
X180505771Y-186314342D01*
X180434342Y-186171485D01*
X180434342Y-184885771D01*
X181791485Y-186314342D02*
X181648628Y-186385771D01*
X181362914Y-186385771D01*
X181220057Y-186314342D01*
X181148628Y-186171485D01*
X181148628Y-185600057D01*
X181220057Y-185457200D01*
X181362914Y-185385771D01*
X181648628Y-185385771D01*
X181791485Y-185457200D01*
X181862914Y-185600057D01*
X181862914Y-185742914D01*
X181148628Y-185885771D01*
X182505771Y-186242914D02*
X182577200Y-186314342D01*
X182505771Y-186385771D01*
X182434342Y-186314342D01*
X182505771Y-186242914D01*
X182505771Y-186385771D01*
X182505771Y-185457200D02*
X182577200Y-185528628D01*
X182505771Y-185600057D01*
X182434342Y-185528628D01*
X182505771Y-185457200D01*
X182505771Y-185600057D01*
X185005771Y-186385771D02*
X185005771Y-185600057D01*
X184934342Y-185457200D01*
X184791485Y-185385771D01*
X184505771Y-185385771D01*
X184362914Y-185457200D01*
X185005771Y-186314342D02*
X184862914Y-186385771D01*
X184505771Y-186385771D01*
X184362914Y-186314342D01*
X184291485Y-186171485D01*
X184291485Y-186028628D01*
X184362914Y-185885771D01*
X184505771Y-185814342D01*
X184862914Y-185814342D01*
X185005771Y-185742914D01*
X185505771Y-185385771D02*
X186077200Y-185385771D01*
X185720057Y-184885771D02*
X185720057Y-186171485D01*
X185791485Y-186314342D01*
X185934342Y-186385771D01*
X186077200Y-186385771D01*
X186362914Y-185385771D02*
X186934342Y-185385771D01*
X186577200Y-184885771D02*
X186577200Y-186171485D01*
X186648628Y-186314342D01*
X186791485Y-186385771D01*
X186934342Y-186385771D01*
X187434342Y-186385771D02*
X187434342Y-185385771D01*
X187434342Y-184885771D02*
X187362914Y-184957200D01*
X187434342Y-185028628D01*
X187505771Y-184957200D01*
X187434342Y-184885771D01*
X187434342Y-185028628D01*
X188148628Y-185385771D02*
X188148628Y-186385771D01*
X188148628Y-185528628D02*
X188220057Y-185457200D01*
X188362914Y-185385771D01*
X188577200Y-185385771D01*
X188720057Y-185457200D01*
X188791485Y-185600057D01*
X188791485Y-186385771D01*
X189362914Y-185385771D02*
X189720057Y-186385771D01*
X190077200Y-185385771D02*
X189720057Y-186385771D01*
X189577200Y-186742914D01*
X189505771Y-186814342D01*
X189362914Y-186885771D01*
X190577200Y-185028628D02*
X190648628Y-184957200D01*
X190791485Y-184885771D01*
X191148628Y-184885771D01*
X191291485Y-184957200D01*
X191362914Y-185028628D01*
X191434342Y-185171485D01*
X191434342Y-185314342D01*
X191362914Y-185528628D01*
X190505771Y-186385771D01*
X191434342Y-186385771D01*
X191934342Y-184885771D02*
X192862914Y-184885771D01*
X192362914Y-185457200D01*
X192577200Y-185457200D01*
X192720057Y-185528628D01*
X192791485Y-185600057D01*
X192862914Y-185742914D01*
X192862914Y-186100057D01*
X192791485Y-186242914D01*
X192720057Y-186314342D01*
X192577200Y-186385771D01*
X192148628Y-186385771D01*
X192005771Y-186314342D01*
X191934342Y-186242914D01*
X194291485Y-186385771D02*
X193434342Y-186385771D01*
X193862914Y-186385771D02*
X193862914Y-184885771D01*
X193720057Y-185100057D01*
X193577200Y-185242914D01*
X193434342Y-185314342D01*
X194791485Y-184885771D02*
X195720057Y-184885771D01*
X195220057Y-185457200D01*
X195434342Y-185457200D01*
X195577200Y-185528628D01*
X195648628Y-185600057D01*
X195720057Y-185742914D01*
X195720057Y-186100057D01*
X195648628Y-186242914D01*
X195577200Y-186314342D01*
X195434342Y-186385771D01*
X195005771Y-186385771D01*
X194862914Y-186314342D01*
X194791485Y-186242914D01*
X196005771Y-186528628D02*
X197148628Y-186528628D01*
X197291485Y-185385771D02*
X197862914Y-185385771D01*
X197505771Y-184885771D02*
X197505771Y-186171485D01*
X197577200Y-186314342D01*
X197720057Y-186385771D01*
X197862914Y-186385771D01*
X198362914Y-186385771D02*
X198362914Y-185385771D01*
X198362914Y-185528628D02*
X198434342Y-185457200D01*
X198577200Y-185385771D01*
X198791485Y-185385771D01*
X198934342Y-185457200D01*
X199005771Y-185600057D01*
X199005771Y-186385771D01*
X199005771Y-185600057D02*
X199077200Y-185457200D01*
X199220057Y-185385771D01*
X199434342Y-185385771D01*
X199577200Y-185457200D01*
X199648628Y-185600057D01*
X199648628Y-186385771D01*
X201148628Y-186385771D02*
X200291485Y-186385771D01*
X200720057Y-186385771D02*
X200720057Y-184885771D01*
X200577200Y-185100057D01*
X200434342Y-185242914D01*
X200291485Y-185314342D01*
X202434342Y-184885771D02*
X202148628Y-184885771D01*
X202005771Y-184957200D01*
X201934342Y-185028628D01*
X201791485Y-185242914D01*
X201720057Y-185528628D01*
X201720057Y-186100057D01*
X201791485Y-186242914D01*
X201862914Y-186314342D01*
X202005771Y-186385771D01*
X202291485Y-186385771D01*
X202434342Y-186314342D01*
X202505771Y-186242914D01*
X202577200Y-186100057D01*
X202577200Y-185742914D01*
X202505771Y-185600057D01*
X202434342Y-185528628D01*
X202291485Y-185457200D01*
X202005771Y-185457200D01*
X201862914Y-185528628D01*
X201791485Y-185600057D01*
X201720057Y-185742914D01*
X203077200Y-184885771D02*
X204005771Y-184885771D01*
X203505771Y-185457200D01*
X203720057Y-185457200D01*
X203862914Y-185528628D01*
X203934342Y-185600057D01*
X204005771Y-185742914D01*
X204005771Y-186100057D01*
X203934342Y-186242914D01*
X203862914Y-186314342D01*
X203720057Y-186385771D01*
X203291485Y-186385771D01*
X203148628Y-186314342D01*
X203077200Y-186242914D01*
X204505771Y-184885771D02*
X205505771Y-184885771D01*
X204862914Y-186385771D01*
X205720057Y-186528628D02*
X206862914Y-186528628D01*
X207862914Y-186385771D02*
X207862914Y-184885771D01*
X207862914Y-186314342D02*
X207720057Y-186385771D01*
X207434342Y-186385771D01*
X207291485Y-186314342D01*
X207220057Y-186242914D01*
X207148628Y-186100057D01*
X207148628Y-185671485D01*
X207220057Y-185528628D01*
X207291485Y-185457200D01*
X207434342Y-185385771D01*
X207720057Y-185385771D01*
X207862914Y-185457200D01*
X208505771Y-186314342D02*
X208648628Y-186385771D01*
X208934342Y-186385771D01*
X209077200Y-186314342D01*
X209148628Y-186171485D01*
X209148628Y-186100057D01*
X209077200Y-185957200D01*
X208934342Y-185885771D01*
X208720057Y-185885771D01*
X208577200Y-185814342D01*
X208505771Y-185671485D01*
X208505771Y-185600057D01*
X208577200Y-185457200D01*
X208720057Y-185385771D01*
X208934342Y-185385771D01*
X209077200Y-185457200D01*
X210577200Y-186385771D02*
X209720057Y-186385771D01*
X210148628Y-186385771D02*
X210148628Y-184885771D01*
X210005771Y-185100057D01*
X209862914Y-185242914D01*
X209720057Y-185314342D01*
X211077200Y-184885771D02*
X212005771Y-184885771D01*
X211505771Y-185457200D01*
X211720057Y-185457200D01*
X211862914Y-185528628D01*
X211934342Y-185600057D01*
X212005771Y-185742914D01*
X212005771Y-186100057D01*
X211934342Y-186242914D01*
X211862914Y-186314342D01*
X211720057Y-186385771D01*
X211291485Y-186385771D01*
X211148628Y-186314342D01*
X211077200Y-186242914D01*
X212934342Y-184885771D02*
X213077200Y-184885771D01*
X213220057Y-184957200D01*
X213291485Y-185028628D01*
X213362914Y-185171485D01*
X213434342Y-185457200D01*
X213434342Y-185814342D01*
X213362914Y-186100057D01*
X213291485Y-186242914D01*
X213220057Y-186314342D01*
X213077200Y-186385771D01*
X212934342Y-186385771D01*
X212791485Y-186314342D01*
X212720057Y-186242914D01*
X212648628Y-186100057D01*
X212577200Y-185814342D01*
X212577200Y-185457200D01*
X212648628Y-185171485D01*
X212720057Y-185028628D01*
X212791485Y-184957200D01*
X212934342Y-184885771D01*
X214005771Y-185028628D02*
X214077200Y-184957200D01*
X214220057Y-184885771D01*
X214577200Y-184885771D01*
X214720057Y-184957200D01*
X214791485Y-185028628D01*
X214862914Y-185171485D01*
X214862914Y-185314342D01*
X214791485Y-185528628D01*
X213934342Y-186385771D01*
X214862914Y-186385771D01*
X215505771Y-186242914D02*
X215577200Y-186314342D01*
X215505771Y-186385771D01*
X215434342Y-186314342D01*
X215505771Y-186242914D01*
X215505771Y-186385771D01*
X216220057Y-186385771D02*
X216220057Y-184885771D01*
X216362914Y-185814342D02*
X216791485Y-186385771D01*
X216791485Y-185385771D02*
X216220057Y-185957200D01*
X217434342Y-186385771D02*
X217434342Y-185385771D01*
X217434342Y-184885771D02*
X217362914Y-184957200D01*
X217434342Y-185028628D01*
X217505771Y-184957200D01*
X217434342Y-184885771D01*
X217434342Y-185028628D01*
X218791485Y-186314342D02*
X218648628Y-186385771D01*
X218362914Y-186385771D01*
X218220057Y-186314342D01*
X218148628Y-186242914D01*
X218077200Y-186100057D01*
X218077200Y-185671485D01*
X218148628Y-185528628D01*
X218220057Y-185457200D01*
X218362914Y-185385771D01*
X218648628Y-185385771D01*
X218791485Y-185457200D01*
X220077200Y-186385771D02*
X220077200Y-185600057D01*
X220005771Y-185457200D01*
X219862914Y-185385771D01*
X219577200Y-185385771D01*
X219434342Y-185457200D01*
X220077200Y-186314342D02*
X219934342Y-186385771D01*
X219577200Y-186385771D01*
X219434342Y-186314342D01*
X219362914Y-186171485D01*
X219362914Y-186028628D01*
X219434342Y-185885771D01*
X219577200Y-185814342D01*
X219934342Y-185814342D01*
X220077200Y-185742914D01*
X221434342Y-186385771D02*
X221434342Y-184885771D01*
X221434342Y-186314342D02*
X221291485Y-186385771D01*
X221005771Y-186385771D01*
X220862914Y-186314342D01*
X220791485Y-186242914D01*
X220720057Y-186100057D01*
X220720057Y-185671485D01*
X220791485Y-185528628D01*
X220862914Y-185457200D01*
X221005771Y-185385771D01*
X221291485Y-185385771D01*
X221434342Y-185457200D01*
X221791485Y-186528628D02*
X222934342Y-186528628D01*
X223291485Y-185385771D02*
X223291485Y-186885771D01*
X223291485Y-185457200D02*
X223434342Y-185385771D01*
X223720057Y-185385771D01*
X223862914Y-185457200D01*
X223934342Y-185528628D01*
X224005771Y-185671485D01*
X224005771Y-186100057D01*
X223934342Y-186242914D01*
X223862914Y-186314342D01*
X223720057Y-186385771D01*
X223434342Y-186385771D01*
X223291485Y-186314342D01*
X225291485Y-186314342D02*
X225148628Y-186385771D01*
X224862914Y-186385771D01*
X224720057Y-186314342D01*
X224648628Y-186242914D01*
X224577200Y-186100057D01*
X224577200Y-185671485D01*
X224648628Y-185528628D01*
X224720057Y-185457200D01*
X224862914Y-185385771D01*
X225148628Y-185385771D01*
X225291485Y-185457200D01*
X225934342Y-186385771D02*
X225934342Y-184885771D01*
X225934342Y-185457200D02*
X226077200Y-185385771D01*
X226362914Y-185385771D01*
X226505771Y-185457200D01*
X226577200Y-185528628D01*
X226648628Y-185671485D01*
X226648628Y-186100057D01*
X226577200Y-186242914D01*
X226505771Y-186314342D01*
X226362914Y-186385771D01*
X226077200Y-186385771D01*
X225934342Y-186314342D01*
D10*
D11*
X177002200Y-181507200D02*
X285002200Y-181507200D01*
D10*
D11*
X178362914Y-183614342D02*
X178577200Y-183685771D01*
X178934342Y-183685771D01*
X179077200Y-183614342D01*
X179148628Y-183542914D01*
X179220057Y-183400057D01*
X179220057Y-183257200D01*
X179148628Y-183114342D01*
X179077200Y-183042914D01*
X178934342Y-182971485D01*
X178648628Y-182900057D01*
X178505771Y-182828628D01*
X178434342Y-182757200D01*
X178362914Y-182614342D01*
X178362914Y-182471485D01*
X178434342Y-182328628D01*
X178505771Y-182257200D01*
X178648628Y-182185771D01*
X179005771Y-182185771D01*
X179220057Y-182257200D01*
X179862914Y-183685771D02*
X179862914Y-182185771D01*
X180505771Y-183685771D02*
X180505771Y-182900057D01*
X180434342Y-182757200D01*
X180291485Y-182685771D01*
X180077200Y-182685771D01*
X179934342Y-182757200D01*
X179862914Y-182828628D01*
X181791485Y-183614342D02*
X181648628Y-183685771D01*
X181362914Y-183685771D01*
X181220057Y-183614342D01*
X181148628Y-183471485D01*
X181148628Y-182900057D01*
X181220057Y-182757200D01*
X181362914Y-182685771D01*
X181648628Y-182685771D01*
X181791485Y-182757200D01*
X181862914Y-182900057D01*
X181862914Y-183042914D01*
X181148628Y-183185771D01*
X183077200Y-183614342D02*
X182934342Y-183685771D01*
X182648628Y-183685771D01*
X182505771Y-183614342D01*
X182434342Y-183471485D01*
X182434342Y-182900057D01*
X182505771Y-182757200D01*
X182648628Y-182685771D01*
X182934342Y-182685771D01*
X183077200Y-182757200D01*
X183148628Y-182900057D01*
X183148628Y-183042914D01*
X182434342Y-183185771D01*
X183577200Y-182685771D02*
X184148628Y-182685771D01*
X183791485Y-182185771D02*
X183791485Y-183471485D01*
X183862914Y-183614342D01*
X184005771Y-183685771D01*
X184148628Y-183685771D01*
X184648628Y-183542914D02*
X184720057Y-183614342D01*
X184648628Y-183685771D01*
X184577200Y-183614342D01*
X184648628Y-183542914D01*
X184648628Y-183685771D01*
X184648628Y-182757200D02*
X184720057Y-182828628D01*
X184648628Y-182900057D01*
X184577200Y-182828628D01*
X184648628Y-182757200D01*
X184648628Y-182900057D01*
D10*
D11*
X178934342Y-173900057D02*
X179148628Y-173971485D01*
X179220057Y-174042914D01*
X179291485Y-174185771D01*
X179291485Y-174400057D01*
X179220057Y-174542914D01*
X179148628Y-174614342D01*
X179005771Y-174685771D01*
X178434342Y-174685771D01*
X178434342Y-173185771D01*
X178934342Y-173185771D01*
X179077200Y-173257200D01*
X179148628Y-173328628D01*
X179220057Y-173471485D01*
X179220057Y-173614342D01*
X179148628Y-173757200D01*
X179077200Y-173828628D01*
X178934342Y-173900057D01*
X178434342Y-173900057D01*
X180505771Y-174614342D02*
X180362914Y-174685771D01*
X180077200Y-174685771D01*
X179934342Y-174614342D01*
X179862914Y-174471485D01*
X179862914Y-173900057D01*
X179934342Y-173757200D01*
X180077200Y-173685771D01*
X180362914Y-173685771D01*
X180505771Y-173757200D01*
X180577200Y-173900057D01*
X180577200Y-174042914D01*
X179862914Y-174185771D01*
X181220057Y-173685771D02*
X181220057Y-175185771D01*
X181220057Y-173757200D02*
X181362914Y-173685771D01*
X181648628Y-173685771D01*
X181791485Y-173757200D01*
X181862914Y-173828628D01*
X181934342Y-173971485D01*
X181934342Y-174400057D01*
X181862914Y-174542914D01*
X181791485Y-174614342D01*
X181648628Y-174685771D01*
X181362914Y-174685771D01*
X181220057Y-174614342D01*
X183291485Y-173114342D02*
X183220057Y-173185771D01*
X183077200Y-173257200D01*
X182791485Y-173257200D01*
X182648628Y-173328628D01*
X182577200Y-173400057D01*
X182505771Y-173542914D01*
X182505771Y-174400057D01*
X182577200Y-174542914D01*
X182648628Y-174614342D01*
X182791485Y-174685771D01*
X183005771Y-174685771D01*
X183148628Y-174614342D01*
X183220057Y-174542914D01*
X183291485Y-174400057D01*
X183291485Y-173971485D01*
X183220057Y-173828628D01*
X183148628Y-173757200D01*
X183005771Y-173685771D01*
X182720057Y-173685771D01*
X182577200Y-173757200D01*
X182505771Y-173828628D01*
X183934342Y-173685771D02*
X183934342Y-174685771D01*
X184077200Y-174114342D02*
X184505771Y-174685771D01*
X184505771Y-173685771D02*
X183934342Y-174257200D01*
X185148628Y-173685771D02*
X185148628Y-174685771D01*
X185862914Y-173685771D01*
X185862914Y-174685771D01*
X186577200Y-174185771D02*
X187220057Y-174185771D01*
X186577200Y-173685771D02*
X186577200Y-174685771D01*
X187220057Y-173685771D02*
X187220057Y-174685771D01*
X189077200Y-174685771D02*
X189077200Y-173185771D01*
X189577200Y-174257200D01*
X190077200Y-173185771D01*
X190077200Y-174685771D01*
X190791485Y-174542914D02*
X190862914Y-174614342D01*
X190791485Y-174685771D01*
X190720057Y-174614342D01*
X190791485Y-174542914D01*
X190791485Y-174685771D01*
X192362914Y-174542914D02*
X192291485Y-174614342D01*
X192077200Y-174685771D01*
X191934342Y-174685771D01*
X191720057Y-174614342D01*
X191577200Y-174471485D01*
X191505771Y-174328628D01*
X191434342Y-174042914D01*
X191434342Y-173828628D01*
X191505771Y-173542914D01*
X191577200Y-173400057D01*
X191720057Y-173257200D01*
X191934342Y-173185771D01*
X192077200Y-173185771D01*
X192291485Y-173257200D01*
X192362914Y-173328628D01*
X193005771Y-174542914D02*
X193077200Y-174614342D01*
X193005771Y-174685771D01*
X192934342Y-174614342D01*
X193005771Y-174542914D01*
X193005771Y-174685771D01*
D10*
D11*
X197002200Y-191507200D02*
X197002200Y-194507200D01*
D10*
D11*
X261002200Y-191507200D02*
X261002200Y-198007200D01*
D10*
%TO.C,D2*%
X161036000Y-83312000D02*
X161036000Y-88392000D01*
X162836000Y-88392000D02*
G75*
G03*
X162836000Y-88392000I-1800000J0D01*
G01*
%TO.C,D1*%
X166624000Y-75692000D02*
X161544000Y-75692000D01*
X163344000Y-75692000D02*
G75*
G03*
X163344000Y-75692000I-1800000J0D01*
G01*
%TO.C,BZ1*%
X151104000Y-90932000D02*
G75*
G03*
X151104000Y-90932000I-1000000J0D01*
G01*
X156104000Y-90932000D02*
G75*
G03*
X156104000Y-90932000I-6000000J0D01*
G01*
%TO.C,R3*%
X136374000Y-90692000D02*
G75*
G03*
X136374000Y-90692000I-1500000J0D01*
G01*
X131574000Y-94492000D02*
X138174000Y-94492000D01*
X138174000Y-94492000D02*
X138174000Y-87492000D01*
X138174000Y-87492000D02*
X131574000Y-87492000D01*
X131574000Y-87492000D02*
X131574000Y-94492000D01*
X134798000Y-91893000D02*
X134798000Y-90768000D01*
X134798000Y-90768000D02*
X133673000Y-90768000D01*
X133673000Y-90768000D02*
X133673000Y-90616000D01*
X133673000Y-90616000D02*
X134798000Y-90616000D01*
X134798000Y-90616000D02*
X134798000Y-89491000D01*
X134798000Y-89491000D02*
X134950000Y-89491000D01*
X134950000Y-89491000D02*
X134950000Y-90616000D01*
X134950000Y-90616000D02*
X136075000Y-90616000D01*
X136075000Y-90616000D02*
X136075000Y-90768000D01*
X136075000Y-90768000D02*
X134950000Y-90768000D01*
X134950000Y-90768000D02*
X134950000Y-91893000D01*
X134950000Y-91893000D02*
X134798000Y-91893000D01*
%TO.C,SW_1*%
X184900000Y-76656000D02*
X184900000Y-79656000D01*
X184900000Y-79656000D02*
X178900000Y-79656000D01*
X178900000Y-79656000D02*
X178900000Y-73656000D01*
X178900000Y-73656000D02*
X184900000Y-73656000D01*
X184900000Y-73656000D02*
X184900000Y-76656000D01*
X183915564Y-76656000D02*
G75*
G03*
X183915564Y-76656000I-2015564J0D01*
G01*
%TO.C,SW_2*%
X183915564Y-88086000D02*
G75*
G03*
X183915564Y-88086000I-2015564J0D01*
G01*
X184900000Y-85086000D02*
X184900000Y-88086000D01*
X178900000Y-85086000D02*
X184900000Y-85086000D01*
X178900000Y-91086000D02*
X178900000Y-85086000D01*
X184900000Y-91086000D02*
X178900000Y-91086000D01*
X184900000Y-88086000D02*
X184900000Y-91086000D01*
%TO.C,SW_3*%
X184900000Y-99516000D02*
X184900000Y-102516000D01*
X184900000Y-102516000D02*
X178900000Y-102516000D01*
X178900000Y-102516000D02*
X178900000Y-96516000D01*
X178900000Y-96516000D02*
X184900000Y-96516000D01*
X184900000Y-96516000D02*
X184900000Y-99516000D01*
X183915564Y-99516000D02*
G75*
G03*
X183915564Y-99516000I-2015564J0D01*
G01*
%TO.C,U1*%
X146304000Y-76057000D02*
X146304000Y-81407000D01*
X146304000Y-81407000D02*
X120904000Y-81407000D01*
X120904000Y-81407000D02*
X120904000Y-75057000D01*
X120904000Y-75057000D02*
X145304000Y-75057000D01*
X145304000Y-75057000D02*
X146304000Y-76057000D01*
%TO.C,U2*%
X120269000Y-86852000D02*
X121269000Y-85852000D01*
X120269000Y-96012000D02*
X120269000Y-86852000D01*
X126619000Y-96012000D02*
X120269000Y-96012000D01*
X126619000Y-85852000D02*
X126619000Y-96012000D01*
X121269000Y-85852000D02*
X126619000Y-85852000D01*
%TO.C,Y1*%
X117324000Y-90932000D02*
G75*
G03*
X117324000Y-90932000I-1500000J0D01*
G01*
%TO.C,R1*%
X114884000Y-76962000D02*
G75*
G03*
X114884000Y-76962000I-1600000J0D01*
G01*
X113284000Y-76962000D02*
X108204000Y-76962000D01*
%TO.C,Q1*%
X149354000Y-81022000D02*
X155954000Y-81022000D01*
X155954000Y-80622000D02*
X149354000Y-80622000D01*
X155954000Y-82922000D02*
X155954000Y-80622000D01*
X149354000Y-82922000D02*
X155954000Y-82922000D01*
X149354000Y-80622000D02*
X149354000Y-82922000D01*
%TO.C,R2*%
X155194000Y-75692000D02*
X150114000Y-75692000D01*
X156794000Y-75692000D02*
G75*
G03*
X156794000Y-75692000I-1600000J0D01*
G01*
%TD*%
%TO.C,J3*%
D11*
X178149142Y-91622095D02*
X178196761Y-91669714D01*
X178244380Y-91812571D01*
X178244380Y-91907809D01*
X178196761Y-92050666D01*
X178101523Y-92145904D01*
X178006285Y-92193523D01*
X177815809Y-92241142D01*
X177672952Y-92241142D01*
X177482476Y-92193523D01*
X177387238Y-92145904D01*
X177292000Y-92050666D01*
X177244380Y-91907809D01*
X177244380Y-91812571D01*
X177292000Y-91669714D01*
X177339619Y-91622095D01*
X178244380Y-91050666D02*
X178196761Y-91145904D01*
X178149142Y-91193523D01*
X178053904Y-91241142D01*
X177768190Y-91241142D01*
X177672952Y-91193523D01*
X177625333Y-91145904D01*
X177577714Y-91050666D01*
X177577714Y-90907809D01*
X177625333Y-90812571D01*
X177672952Y-90764952D01*
X177768190Y-90717333D01*
X178053904Y-90717333D01*
X178149142Y-90764952D01*
X178196761Y-90812571D01*
X178244380Y-90907809D01*
X178244380Y-91050666D01*
X177577714Y-90288761D02*
X178244380Y-90288761D01*
X177672952Y-90288761D02*
X177625333Y-90241142D01*
X177577714Y-90145904D01*
X177577714Y-90003047D01*
X177625333Y-89907809D01*
X177720571Y-89860190D01*
X178244380Y-89860190D01*
X177577714Y-89384000D02*
X178244380Y-89384000D01*
X177672952Y-89384000D02*
X177625333Y-89336380D01*
X177577714Y-89241142D01*
X177577714Y-89098285D01*
X177625333Y-89003047D01*
X177720571Y-88955428D01*
X178244380Y-88955428D01*
X178339619Y-88717333D02*
X178339619Y-87955428D01*
X177244380Y-87526857D02*
X177244380Y-87431619D01*
X177292000Y-87336380D01*
X177339619Y-87288761D01*
X177434857Y-87241142D01*
X177625333Y-87193523D01*
X177863428Y-87193523D01*
X178053904Y-87241142D01*
X178149142Y-87288761D01*
X178196761Y-87336380D01*
X178244380Y-87431619D01*
X178244380Y-87526857D01*
X178196761Y-87622095D01*
X178149142Y-87669714D01*
X178053904Y-87717333D01*
X177863428Y-87764952D01*
X177625333Y-87764952D01*
X177434857Y-87717333D01*
X177339619Y-87669714D01*
X177292000Y-87622095D01*
X177244380Y-87526857D01*
X178244380Y-86241142D02*
X178244380Y-86812571D01*
X178244380Y-86526857D02*
X177244380Y-86526857D01*
X177387238Y-86622095D01*
X177482476Y-86717333D01*
X177530095Y-86812571D01*
X178244380Y-85907809D02*
X177577714Y-85384000D01*
X177577714Y-85907809D02*
X178244380Y-85384000D01*
X177244380Y-84812571D02*
X177244380Y-84717333D01*
X177292000Y-84622095D01*
X177339619Y-84574476D01*
X177434857Y-84526857D01*
X177625333Y-84479238D01*
X177863428Y-84479238D01*
X178053904Y-84526857D01*
X178149142Y-84574476D01*
X178196761Y-84622095D01*
X178244380Y-84717333D01*
X178244380Y-84812571D01*
X178196761Y-84907809D01*
X178149142Y-84955428D01*
X178053904Y-85003047D01*
X177863428Y-85050666D01*
X177625333Y-85050666D01*
X177434857Y-85003047D01*
X177339619Y-84955428D01*
X177292000Y-84907809D01*
X177244380Y-84812571D01*
X177577714Y-83622095D02*
X178244380Y-83622095D01*
X177196761Y-83860190D02*
X177911047Y-84098285D01*
X177911047Y-83479238D01*
%TO.C,J2*%
X157805904Y-94345142D02*
X157758285Y-94392761D01*
X157615428Y-94440380D01*
X157520190Y-94440380D01*
X157377333Y-94392761D01*
X157282095Y-94297523D01*
X157234476Y-94202285D01*
X157186857Y-94011809D01*
X157186857Y-93868952D01*
X157234476Y-93678476D01*
X157282095Y-93583238D01*
X157377333Y-93488000D01*
X157520190Y-93440380D01*
X157615428Y-93440380D01*
X157758285Y-93488000D01*
X157805904Y-93535619D01*
X158377333Y-94440380D02*
X158282095Y-94392761D01*
X158234476Y-94345142D01*
X158186857Y-94249904D01*
X158186857Y-93964190D01*
X158234476Y-93868952D01*
X158282095Y-93821333D01*
X158377333Y-93773714D01*
X158520190Y-93773714D01*
X158615428Y-93821333D01*
X158663047Y-93868952D01*
X158710666Y-93964190D01*
X158710666Y-94249904D01*
X158663047Y-94345142D01*
X158615428Y-94392761D01*
X158520190Y-94440380D01*
X158377333Y-94440380D01*
X159139238Y-93773714D02*
X159139238Y-94440380D01*
X159139238Y-93868952D02*
X159186857Y-93821333D01*
X159282095Y-93773714D01*
X159424952Y-93773714D01*
X159520190Y-93821333D01*
X159567809Y-93916571D01*
X159567809Y-94440380D01*
X160044000Y-93773714D02*
X160044000Y-94440380D01*
X160044000Y-93868952D02*
X160091619Y-93821333D01*
X160186857Y-93773714D01*
X160329714Y-93773714D01*
X160424952Y-93821333D01*
X160472571Y-93916571D01*
X160472571Y-94440380D01*
X160710666Y-94535619D02*
X161472571Y-94535619D01*
X161901142Y-93440380D02*
X161996380Y-93440380D01*
X162091619Y-93488000D01*
X162139238Y-93535619D01*
X162186857Y-93630857D01*
X162234476Y-93821333D01*
X162234476Y-94059428D01*
X162186857Y-94249904D01*
X162139238Y-94345142D01*
X162091619Y-94392761D01*
X161996380Y-94440380D01*
X161901142Y-94440380D01*
X161805904Y-94392761D01*
X161758285Y-94345142D01*
X161710666Y-94249904D01*
X161663047Y-94059428D01*
X161663047Y-93821333D01*
X161710666Y-93630857D01*
X161758285Y-93535619D01*
X161805904Y-93488000D01*
X161901142Y-93440380D01*
X163186857Y-94440380D02*
X162615428Y-94440380D01*
X162901142Y-94440380D02*
X162901142Y-93440380D01*
X162805904Y-93583238D01*
X162710666Y-93678476D01*
X162615428Y-93726095D01*
X163520190Y-94440380D02*
X164044000Y-93773714D01*
X163520190Y-93773714D02*
X164044000Y-94440380D01*
X164615428Y-93440380D02*
X164710666Y-93440380D01*
X164805904Y-93488000D01*
X164853523Y-93535619D01*
X164901142Y-93630857D01*
X164948761Y-93821333D01*
X164948761Y-94059428D01*
X164901142Y-94249904D01*
X164853523Y-94345142D01*
X164805904Y-94392761D01*
X164710666Y-94440380D01*
X164615428Y-94440380D01*
X164520190Y-94392761D01*
X164472571Y-94345142D01*
X164424952Y-94249904D01*
X164377333Y-94059428D01*
X164377333Y-93821333D01*
X164424952Y-93630857D01*
X164472571Y-93535619D01*
X164520190Y-93488000D01*
X164615428Y-93440380D01*
X165805904Y-93773714D02*
X165805904Y-94440380D01*
X165567809Y-93392761D02*
X165329714Y-94107047D01*
X165948761Y-94107047D01*
%TO.C,J1*%
X104719904Y-98393142D02*
X104672285Y-98440761D01*
X104529428Y-98488380D01*
X104434190Y-98488380D01*
X104291333Y-98440761D01*
X104196095Y-98345523D01*
X104148476Y-98250285D01*
X104100857Y-98059809D01*
X104100857Y-97916952D01*
X104148476Y-97726476D01*
X104196095Y-97631238D01*
X104291333Y-97536000D01*
X104434190Y-97488380D01*
X104529428Y-97488380D01*
X104672285Y-97536000D01*
X104719904Y-97583619D01*
X105291333Y-98488380D02*
X105196095Y-98440761D01*
X105148476Y-98393142D01*
X105100857Y-98297904D01*
X105100857Y-98012190D01*
X105148476Y-97916952D01*
X105196095Y-97869333D01*
X105291333Y-97821714D01*
X105434190Y-97821714D01*
X105529428Y-97869333D01*
X105577047Y-97916952D01*
X105624666Y-98012190D01*
X105624666Y-98297904D01*
X105577047Y-98393142D01*
X105529428Y-98440761D01*
X105434190Y-98488380D01*
X105291333Y-98488380D01*
X106053238Y-97821714D02*
X106053238Y-98488380D01*
X106053238Y-97916952D02*
X106100857Y-97869333D01*
X106196095Y-97821714D01*
X106338952Y-97821714D01*
X106434190Y-97869333D01*
X106481809Y-97964571D01*
X106481809Y-98488380D01*
X106958000Y-97821714D02*
X106958000Y-98488380D01*
X106958000Y-97916952D02*
X107005619Y-97869333D01*
X107100857Y-97821714D01*
X107243714Y-97821714D01*
X107338952Y-97869333D01*
X107386571Y-97964571D01*
X107386571Y-98488380D01*
X107624666Y-98583619D02*
X108386571Y-98583619D01*
X108815142Y-97488380D02*
X108910380Y-97488380D01*
X109005619Y-97536000D01*
X109053238Y-97583619D01*
X109100857Y-97678857D01*
X109148476Y-97869333D01*
X109148476Y-98107428D01*
X109100857Y-98297904D01*
X109053238Y-98393142D01*
X109005619Y-98440761D01*
X108910380Y-98488380D01*
X108815142Y-98488380D01*
X108719904Y-98440761D01*
X108672285Y-98393142D01*
X108624666Y-98297904D01*
X108577047Y-98107428D01*
X108577047Y-97869333D01*
X108624666Y-97678857D01*
X108672285Y-97583619D01*
X108719904Y-97536000D01*
X108815142Y-97488380D01*
X110100857Y-98488380D02*
X109529428Y-98488380D01*
X109815142Y-98488380D02*
X109815142Y-97488380D01*
X109719904Y-97631238D01*
X109624666Y-97726476D01*
X109529428Y-97774095D01*
X110434190Y-98488380D02*
X110958000Y-97821714D01*
X110434190Y-97821714D02*
X110958000Y-98488380D01*
X111529428Y-97488380D02*
X111624666Y-97488380D01*
X111719904Y-97536000D01*
X111767523Y-97583619D01*
X111815142Y-97678857D01*
X111862761Y-97869333D01*
X111862761Y-98107428D01*
X111815142Y-98297904D01*
X111767523Y-98393142D01*
X111719904Y-98440761D01*
X111624666Y-98488380D01*
X111529428Y-98488380D01*
X111434190Y-98440761D01*
X111386571Y-98393142D01*
X111338952Y-98297904D01*
X111291333Y-98107428D01*
X111291333Y-97869333D01*
X111338952Y-97678857D01*
X111386571Y-97583619D01*
X111434190Y-97536000D01*
X111529428Y-97488380D01*
X112243714Y-97583619D02*
X112291333Y-97536000D01*
X112386571Y-97488380D01*
X112624666Y-97488380D01*
X112719904Y-97536000D01*
X112767523Y-97583619D01*
X112815142Y-97678857D01*
X112815142Y-97774095D01*
X112767523Y-97916952D01*
X112196095Y-98488380D01*
X112815142Y-98488380D01*
%TO.C,D2*%
X158568380Y-87828190D02*
X157568380Y-87828190D01*
X157568380Y-87590095D01*
X157616000Y-87447238D01*
X157711238Y-87352000D01*
X157806476Y-87304380D01*
X157996952Y-87256761D01*
X158139809Y-87256761D01*
X158330285Y-87304380D01*
X158425523Y-87352000D01*
X158520761Y-87447238D01*
X158568380Y-87590095D01*
X158568380Y-87828190D01*
X158568380Y-86828190D02*
X157568380Y-86828190D01*
X157568380Y-86161523D02*
X157568380Y-85971047D01*
X157616000Y-85875809D01*
X157711238Y-85780571D01*
X157901714Y-85732952D01*
X158235047Y-85732952D01*
X158425523Y-85780571D01*
X158520761Y-85875809D01*
X158568380Y-85971047D01*
X158568380Y-86161523D01*
X158520761Y-86256761D01*
X158425523Y-86352000D01*
X158235047Y-86399619D01*
X157901714Y-86399619D01*
X157711238Y-86352000D01*
X157616000Y-86256761D01*
X157568380Y-86161523D01*
X158568380Y-85304380D02*
X157568380Y-85304380D01*
X157568380Y-85066285D01*
X157616000Y-84923428D01*
X157711238Y-84828190D01*
X157806476Y-84780571D01*
X157996952Y-84732952D01*
X158139809Y-84732952D01*
X158330285Y-84780571D01*
X158425523Y-84828190D01*
X158520761Y-84923428D01*
X158568380Y-85066285D01*
X158568380Y-85304380D01*
X158044571Y-84304380D02*
X158044571Y-83971047D01*
X158568380Y-83828190D02*
X158568380Y-84304380D01*
X157568380Y-84304380D01*
X157568380Y-83828190D01*
X164408380Y-86590095D02*
X163408380Y-86590095D01*
X163408380Y-86352000D01*
X163456000Y-86209142D01*
X163551238Y-86113904D01*
X163646476Y-86066285D01*
X163836952Y-86018666D01*
X163979809Y-86018666D01*
X164170285Y-86066285D01*
X164265523Y-86113904D01*
X164360761Y-86209142D01*
X164408380Y-86352000D01*
X164408380Y-86590095D01*
X163503619Y-85637714D02*
X163456000Y-85590095D01*
X163408380Y-85494857D01*
X163408380Y-85256761D01*
X163456000Y-85161523D01*
X163503619Y-85113904D01*
X163598857Y-85066285D01*
X163694095Y-85066285D01*
X163836952Y-85113904D01*
X164408380Y-85685333D01*
X164408380Y-85066285D01*
X160288380Y-85473904D02*
X159288380Y-85473904D01*
X160288380Y-84902476D02*
X159716952Y-85331047D01*
X159288380Y-84902476D02*
X159859809Y-85473904D01*
%TO.C,D1*%
X162107809Y-73224380D02*
X162107809Y-72224380D01*
X162345904Y-72224380D01*
X162488761Y-72272000D01*
X162584000Y-72367238D01*
X162631619Y-72462476D01*
X162679238Y-72652952D01*
X162679238Y-72795809D01*
X162631619Y-72986285D01*
X162584000Y-73081523D01*
X162488761Y-73176761D01*
X162345904Y-73224380D01*
X162107809Y-73224380D01*
X163107809Y-73224380D02*
X163107809Y-72224380D01*
X163774476Y-72224380D02*
X163964952Y-72224380D01*
X164060190Y-72272000D01*
X164155428Y-72367238D01*
X164203047Y-72557714D01*
X164203047Y-72891047D01*
X164155428Y-73081523D01*
X164060190Y-73176761D01*
X163964952Y-73224380D01*
X163774476Y-73224380D01*
X163679238Y-73176761D01*
X163584000Y-73081523D01*
X163536380Y-72891047D01*
X163536380Y-72557714D01*
X163584000Y-72367238D01*
X163679238Y-72272000D01*
X163774476Y-72224380D01*
X164631619Y-73224380D02*
X164631619Y-72224380D01*
X164869714Y-72224380D01*
X165012571Y-72272000D01*
X165107809Y-72367238D01*
X165155428Y-72462476D01*
X165203047Y-72652952D01*
X165203047Y-72795809D01*
X165155428Y-72986285D01*
X165107809Y-73081523D01*
X165012571Y-73176761D01*
X164869714Y-73224380D01*
X164631619Y-73224380D01*
X165631619Y-72700571D02*
X165964952Y-72700571D01*
X166107809Y-73224380D02*
X165631619Y-73224380D01*
X165631619Y-72224380D01*
X166107809Y-72224380D01*
X163345904Y-79064380D02*
X163345904Y-78064380D01*
X163584000Y-78064380D01*
X163726857Y-78112000D01*
X163822095Y-78207238D01*
X163869714Y-78302476D01*
X163917333Y-78492952D01*
X163917333Y-78635809D01*
X163869714Y-78826285D01*
X163822095Y-78921523D01*
X163726857Y-79016761D01*
X163584000Y-79064380D01*
X163345904Y-79064380D01*
X164869714Y-79064380D02*
X164298285Y-79064380D01*
X164584000Y-79064380D02*
X164584000Y-78064380D01*
X164488761Y-78207238D01*
X164393523Y-78302476D01*
X164298285Y-78350095D01*
X164462095Y-74944380D02*
X164462095Y-73944380D01*
X165033523Y-74944380D02*
X164604952Y-74372952D01*
X165033523Y-73944380D02*
X164462095Y-74515809D01*
%TO.C,BZ1*%
X148175428Y-98260571D02*
X148318285Y-98308190D01*
X148365904Y-98355809D01*
X148413523Y-98451047D01*
X148413523Y-98593904D01*
X148365904Y-98689142D01*
X148318285Y-98736761D01*
X148223047Y-98784380D01*
X147842095Y-98784380D01*
X147842095Y-97784380D01*
X148175428Y-97784380D01*
X148270666Y-97832000D01*
X148318285Y-97879619D01*
X148365904Y-97974857D01*
X148365904Y-98070095D01*
X148318285Y-98165333D01*
X148270666Y-98212952D01*
X148175428Y-98260571D01*
X147842095Y-98260571D01*
X149270666Y-98117714D02*
X149270666Y-98784380D01*
X148842095Y-98117714D02*
X148842095Y-98641523D01*
X148889714Y-98736761D01*
X148984952Y-98784380D01*
X149127809Y-98784380D01*
X149223047Y-98736761D01*
X149270666Y-98689142D01*
X149651619Y-98117714D02*
X150175428Y-98117714D01*
X149651619Y-98784380D01*
X150175428Y-98784380D01*
X150461142Y-98117714D02*
X150984952Y-98117714D01*
X150461142Y-98784380D01*
X150984952Y-98784380D01*
X151746857Y-98736761D02*
X151651619Y-98784380D01*
X151461142Y-98784380D01*
X151365904Y-98736761D01*
X151318285Y-98641523D01*
X151318285Y-98260571D01*
X151365904Y-98165333D01*
X151461142Y-98117714D01*
X151651619Y-98117714D01*
X151746857Y-98165333D01*
X151794476Y-98260571D01*
X151794476Y-98355809D01*
X151318285Y-98451047D01*
X152223047Y-98784380D02*
X152223047Y-98117714D01*
X152223047Y-98308190D02*
X152270666Y-98212952D01*
X152318285Y-98165333D01*
X152413523Y-98117714D01*
X152508761Y-98117714D01*
X145913047Y-88463428D02*
X146674952Y-88463428D01*
X146294000Y-88844380D02*
X146294000Y-88082476D01*
X149223047Y-86860571D02*
X149365904Y-86908190D01*
X149413523Y-86955809D01*
X149461142Y-87051047D01*
X149461142Y-87193904D01*
X149413523Y-87289142D01*
X149365904Y-87336761D01*
X149270666Y-87384380D01*
X148889714Y-87384380D01*
X148889714Y-86384380D01*
X149223047Y-86384380D01*
X149318285Y-86432000D01*
X149365904Y-86479619D01*
X149413523Y-86574857D01*
X149413523Y-86670095D01*
X149365904Y-86765333D01*
X149318285Y-86812952D01*
X149223047Y-86860571D01*
X148889714Y-86860571D01*
X149794476Y-86384380D02*
X150461142Y-86384380D01*
X149794476Y-87384380D01*
X150461142Y-87384380D01*
X151365904Y-87384380D02*
X150794476Y-87384380D01*
X151080190Y-87384380D02*
X151080190Y-86384380D01*
X150984952Y-86527238D01*
X150889714Y-86622476D01*
X150794476Y-86670095D01*
%TO.C,R3*%
X139876380Y-94087238D02*
X139400190Y-94420571D01*
X139876380Y-94658666D02*
X138876380Y-94658666D01*
X138876380Y-94277714D01*
X138924000Y-94182476D01*
X138971619Y-94134857D01*
X139066857Y-94087238D01*
X139209714Y-94087238D01*
X139304952Y-94134857D01*
X139352571Y-94182476D01*
X139400190Y-94277714D01*
X139400190Y-94658666D01*
X139971619Y-93896761D02*
X139971619Y-93134857D01*
X138876380Y-93039619D02*
X139876380Y-92706285D01*
X138876380Y-92372952D01*
X139876380Y-91611047D02*
X139352571Y-91611047D01*
X139257333Y-91658666D01*
X139209714Y-91753904D01*
X139209714Y-91944380D01*
X139257333Y-92039619D01*
X139828761Y-91611047D02*
X139876380Y-91706285D01*
X139876380Y-91944380D01*
X139828761Y-92039619D01*
X139733523Y-92087238D01*
X139638285Y-92087238D01*
X139543047Y-92039619D01*
X139495428Y-91944380D01*
X139495428Y-91706285D01*
X139447809Y-91611047D01*
X139876380Y-91134857D02*
X139209714Y-91134857D01*
X139400190Y-91134857D02*
X139304952Y-91087238D01*
X139257333Y-91039619D01*
X139209714Y-90944380D01*
X139209714Y-90849142D01*
X139876380Y-90515809D02*
X139209714Y-90515809D01*
X138876380Y-90515809D02*
X138924000Y-90563428D01*
X138971619Y-90515809D01*
X138924000Y-90468190D01*
X138876380Y-90515809D01*
X138971619Y-90515809D01*
X139876380Y-89611047D02*
X139352571Y-89611047D01*
X139257333Y-89658666D01*
X139209714Y-89753904D01*
X139209714Y-89944380D01*
X139257333Y-90039619D01*
X139828761Y-89611047D02*
X139876380Y-89706285D01*
X139876380Y-89944380D01*
X139828761Y-90039619D01*
X139733523Y-90087238D01*
X139638285Y-90087238D01*
X139543047Y-90039619D01*
X139495428Y-89944380D01*
X139495428Y-89706285D01*
X139447809Y-89611047D01*
X139876380Y-89134857D02*
X138876380Y-89134857D01*
X139257333Y-89134857D02*
X139209714Y-89039619D01*
X139209714Y-88849142D01*
X139257333Y-88753904D01*
X139304952Y-88706285D01*
X139400190Y-88658666D01*
X139685904Y-88658666D01*
X139781142Y-88706285D01*
X139828761Y-88753904D01*
X139876380Y-88849142D01*
X139876380Y-89039619D01*
X139828761Y-89134857D01*
X139876380Y-88087238D02*
X139828761Y-88182476D01*
X139733523Y-88230095D01*
X138876380Y-88230095D01*
X139828761Y-87325333D02*
X139876380Y-87420571D01*
X139876380Y-87611047D01*
X139828761Y-87706285D01*
X139733523Y-87753904D01*
X139352571Y-87753904D01*
X139257333Y-87706285D01*
X139209714Y-87611047D01*
X139209714Y-87420571D01*
X139257333Y-87325333D01*
X139352571Y-87277714D01*
X139447809Y-87277714D01*
X139543047Y-87753904D01*
X134707333Y-93944380D02*
X134374000Y-93468190D01*
X134135904Y-93944380D02*
X134135904Y-92944380D01*
X134516857Y-92944380D01*
X134612095Y-92992000D01*
X134659714Y-93039619D01*
X134707333Y-93134857D01*
X134707333Y-93277714D01*
X134659714Y-93372952D01*
X134612095Y-93420571D01*
X134516857Y-93468190D01*
X134135904Y-93468190D01*
X135040666Y-92944380D02*
X135659714Y-92944380D01*
X135326380Y-93325333D01*
X135469238Y-93325333D01*
X135564476Y-93372952D01*
X135612095Y-93420571D01*
X135659714Y-93515809D01*
X135659714Y-93753904D01*
X135612095Y-93849142D01*
X135564476Y-93896761D01*
X135469238Y-93944380D01*
X135183523Y-93944380D01*
X135088285Y-93896761D01*
X135040666Y-93849142D01*
%TO.C,SW_1*%
X177902380Y-78822666D02*
X176902380Y-78822666D01*
X177616666Y-78489333D01*
X176902380Y-78156000D01*
X177902380Y-78156000D01*
X177902380Y-77536952D02*
X177854761Y-77632190D01*
X177807142Y-77679809D01*
X177711904Y-77727428D01*
X177426190Y-77727428D01*
X177330952Y-77679809D01*
X177283333Y-77632190D01*
X177235714Y-77536952D01*
X177235714Y-77394095D01*
X177283333Y-77298857D01*
X177330952Y-77251238D01*
X177426190Y-77203619D01*
X177711904Y-77203619D01*
X177807142Y-77251238D01*
X177854761Y-77298857D01*
X177902380Y-77394095D01*
X177902380Y-77536952D01*
X177902380Y-76346476D02*
X176902380Y-76346476D01*
X177854761Y-76346476D02*
X177902380Y-76441714D01*
X177902380Y-76632190D01*
X177854761Y-76727428D01*
X177807142Y-76775047D01*
X177711904Y-76822666D01*
X177426190Y-76822666D01*
X177330952Y-76775047D01*
X177283333Y-76727428D01*
X177235714Y-76632190D01*
X177235714Y-76441714D01*
X177283333Y-76346476D01*
X177854761Y-75489333D02*
X177902380Y-75584571D01*
X177902380Y-75775047D01*
X177854761Y-75870285D01*
X177759523Y-75917904D01*
X177378571Y-75917904D01*
X177283333Y-75870285D01*
X177235714Y-75775047D01*
X177235714Y-75584571D01*
X177283333Y-75489333D01*
X177378571Y-75441714D01*
X177473809Y-75441714D01*
X177569047Y-75917904D01*
X182304761Y-78370285D02*
X182352380Y-78227428D01*
X182352380Y-77989333D01*
X182304761Y-77894095D01*
X182257142Y-77846476D01*
X182161904Y-77798857D01*
X182066666Y-77798857D01*
X181971428Y-77846476D01*
X181923809Y-77894095D01*
X181876190Y-77989333D01*
X181828571Y-78179809D01*
X181780952Y-78275047D01*
X181733333Y-78322666D01*
X181638095Y-78370285D01*
X181542857Y-78370285D01*
X181447619Y-78322666D01*
X181400000Y-78275047D01*
X181352380Y-78179809D01*
X181352380Y-77941714D01*
X181400000Y-77798857D01*
X181352380Y-77465523D02*
X182352380Y-77227428D01*
X181638095Y-77036952D01*
X182352380Y-76846476D01*
X181352380Y-76608380D01*
X182447619Y-76465523D02*
X182447619Y-75703619D01*
X182352380Y-74941714D02*
X182352380Y-75513142D01*
X182352380Y-75227428D02*
X181352380Y-75227428D01*
X181495238Y-75322666D01*
X181590476Y-75417904D01*
X181638095Y-75513142D01*
%TO.C,SW_2*%
X177807142Y-92205047D02*
X177854761Y-92252666D01*
X177902380Y-92395523D01*
X177902380Y-92490761D01*
X177854761Y-92633619D01*
X177759523Y-92728857D01*
X177664285Y-92776476D01*
X177473809Y-92824095D01*
X177330952Y-92824095D01*
X177140476Y-92776476D01*
X177045238Y-92728857D01*
X176950000Y-92633619D01*
X176902380Y-92490761D01*
X176902380Y-92395523D01*
X176950000Y-92252666D01*
X176997619Y-92205047D01*
X177902380Y-91633619D02*
X177854761Y-91728857D01*
X177759523Y-91776476D01*
X176902380Y-91776476D01*
X177902380Y-91109809D02*
X177854761Y-91205047D01*
X177807142Y-91252666D01*
X177711904Y-91300285D01*
X177426190Y-91300285D01*
X177330952Y-91252666D01*
X177283333Y-91205047D01*
X177235714Y-91109809D01*
X177235714Y-90966952D01*
X177283333Y-90871714D01*
X177330952Y-90824095D01*
X177426190Y-90776476D01*
X177711904Y-90776476D01*
X177807142Y-90824095D01*
X177854761Y-90871714D01*
X177902380Y-90966952D01*
X177902380Y-91109809D01*
X177854761Y-89919333D02*
X177902380Y-90014571D01*
X177902380Y-90205047D01*
X177854761Y-90300285D01*
X177807142Y-90347904D01*
X177711904Y-90395523D01*
X177426190Y-90395523D01*
X177330952Y-90347904D01*
X177283333Y-90300285D01*
X177235714Y-90205047D01*
X177235714Y-90014571D01*
X177283333Y-89919333D01*
X177902380Y-89490761D02*
X176902380Y-89490761D01*
X177521428Y-89395523D02*
X177902380Y-89109809D01*
X177235714Y-89109809D02*
X177616666Y-89490761D01*
X177997619Y-88919333D02*
X177997619Y-88157428D01*
X177902380Y-87919333D02*
X177235714Y-87919333D01*
X177330952Y-87919333D02*
X177283333Y-87871714D01*
X177235714Y-87776476D01*
X177235714Y-87633619D01*
X177283333Y-87538380D01*
X177378571Y-87490761D01*
X177902380Y-87490761D01*
X177378571Y-87490761D02*
X177283333Y-87443142D01*
X177235714Y-87347904D01*
X177235714Y-87205047D01*
X177283333Y-87109809D01*
X177378571Y-87062190D01*
X177902380Y-87062190D01*
X177902380Y-86443142D02*
X177854761Y-86538380D01*
X177807142Y-86586000D01*
X177711904Y-86633619D01*
X177426190Y-86633619D01*
X177330952Y-86586000D01*
X177283333Y-86538380D01*
X177235714Y-86443142D01*
X177235714Y-86300285D01*
X177283333Y-86205047D01*
X177330952Y-86157428D01*
X177426190Y-86109809D01*
X177711904Y-86109809D01*
X177807142Y-86157428D01*
X177854761Y-86205047D01*
X177902380Y-86300285D01*
X177902380Y-86443142D01*
X177902380Y-85252666D02*
X176902380Y-85252666D01*
X177854761Y-85252666D02*
X177902380Y-85347904D01*
X177902380Y-85538380D01*
X177854761Y-85633619D01*
X177807142Y-85681238D01*
X177711904Y-85728857D01*
X177426190Y-85728857D01*
X177330952Y-85681238D01*
X177283333Y-85633619D01*
X177235714Y-85538380D01*
X177235714Y-85347904D01*
X177283333Y-85252666D01*
X177854761Y-84395523D02*
X177902380Y-84490761D01*
X177902380Y-84681238D01*
X177854761Y-84776476D01*
X177759523Y-84824095D01*
X177378571Y-84824095D01*
X177283333Y-84776476D01*
X177235714Y-84681238D01*
X177235714Y-84490761D01*
X177283333Y-84395523D01*
X177378571Y-84347904D01*
X177473809Y-84347904D01*
X177569047Y-84824095D01*
X182304761Y-89800285D02*
X182352380Y-89657428D01*
X182352380Y-89419333D01*
X182304761Y-89324095D01*
X182257142Y-89276476D01*
X182161904Y-89228857D01*
X182066666Y-89228857D01*
X181971428Y-89276476D01*
X181923809Y-89324095D01*
X181876190Y-89419333D01*
X181828571Y-89609809D01*
X181780952Y-89705047D01*
X181733333Y-89752666D01*
X181638095Y-89800285D01*
X181542857Y-89800285D01*
X181447619Y-89752666D01*
X181400000Y-89705047D01*
X181352380Y-89609809D01*
X181352380Y-89371714D01*
X181400000Y-89228857D01*
X181352380Y-88895523D02*
X182352380Y-88657428D01*
X181638095Y-88466952D01*
X182352380Y-88276476D01*
X181352380Y-88038380D01*
X182447619Y-87895523D02*
X182447619Y-87133619D01*
X181447619Y-86943142D02*
X181400000Y-86895523D01*
X181352380Y-86800285D01*
X181352380Y-86562190D01*
X181400000Y-86466952D01*
X181447619Y-86419333D01*
X181542857Y-86371714D01*
X181638095Y-86371714D01*
X181780952Y-86419333D01*
X182352380Y-86990761D01*
X182352380Y-86371714D01*
%TO.C,SW_3*%
X177378571Y-103373142D02*
X177426190Y-103230285D01*
X177473809Y-103182666D01*
X177569047Y-103135047D01*
X177711904Y-103135047D01*
X177807142Y-103182666D01*
X177854761Y-103230285D01*
X177902380Y-103325523D01*
X177902380Y-103706476D01*
X176902380Y-103706476D01*
X176902380Y-103373142D01*
X176950000Y-103277904D01*
X176997619Y-103230285D01*
X177092857Y-103182666D01*
X177188095Y-103182666D01*
X177283333Y-103230285D01*
X177330952Y-103277904D01*
X177378571Y-103373142D01*
X177378571Y-103706476D01*
X177902380Y-102706476D02*
X177235714Y-102706476D01*
X177426190Y-102706476D02*
X177330952Y-102658857D01*
X177283333Y-102611238D01*
X177235714Y-102516000D01*
X177235714Y-102420761D01*
X177902380Y-102087428D02*
X177235714Y-102087428D01*
X176902380Y-102087428D02*
X176950000Y-102135047D01*
X176997619Y-102087428D01*
X176950000Y-102039809D01*
X176902380Y-102087428D01*
X176997619Y-102087428D01*
X177235714Y-101182666D02*
X178045238Y-101182666D01*
X178140476Y-101230285D01*
X178188095Y-101277904D01*
X178235714Y-101373142D01*
X178235714Y-101516000D01*
X178188095Y-101611238D01*
X177854761Y-101182666D02*
X177902380Y-101277904D01*
X177902380Y-101468380D01*
X177854761Y-101563619D01*
X177807142Y-101611238D01*
X177711904Y-101658857D01*
X177426190Y-101658857D01*
X177330952Y-101611238D01*
X177283333Y-101563619D01*
X177235714Y-101468380D01*
X177235714Y-101277904D01*
X177283333Y-101182666D01*
X177902380Y-100706476D02*
X176902380Y-100706476D01*
X177902380Y-100277904D02*
X177378571Y-100277904D01*
X177283333Y-100325523D01*
X177235714Y-100420761D01*
X177235714Y-100563619D01*
X177283333Y-100658857D01*
X177330952Y-100706476D01*
X177235714Y-99944571D02*
X177235714Y-99563619D01*
X176902380Y-99801714D02*
X177759523Y-99801714D01*
X177854761Y-99754095D01*
X177902380Y-99658857D01*
X177902380Y-99563619D01*
X177235714Y-99230285D02*
X177902380Y-99230285D01*
X177330952Y-99230285D02*
X177283333Y-99182666D01*
X177235714Y-99087428D01*
X177235714Y-98944571D01*
X177283333Y-98849333D01*
X177378571Y-98801714D01*
X177902380Y-98801714D01*
X177854761Y-97944571D02*
X177902380Y-98039809D01*
X177902380Y-98230285D01*
X177854761Y-98325523D01*
X177759523Y-98373142D01*
X177378571Y-98373142D01*
X177283333Y-98325523D01*
X177235714Y-98230285D01*
X177235714Y-98039809D01*
X177283333Y-97944571D01*
X177378571Y-97896952D01*
X177473809Y-97896952D01*
X177569047Y-98373142D01*
X177854761Y-97516000D02*
X177902380Y-97420761D01*
X177902380Y-97230285D01*
X177854761Y-97135047D01*
X177759523Y-97087428D01*
X177711904Y-97087428D01*
X177616666Y-97135047D01*
X177569047Y-97230285D01*
X177569047Y-97373142D01*
X177521428Y-97468380D01*
X177426190Y-97516000D01*
X177378571Y-97516000D01*
X177283333Y-97468380D01*
X177235714Y-97373142D01*
X177235714Y-97230285D01*
X177283333Y-97135047D01*
X177854761Y-96706476D02*
X177902380Y-96611238D01*
X177902380Y-96420761D01*
X177854761Y-96325523D01*
X177759523Y-96277904D01*
X177711904Y-96277904D01*
X177616666Y-96325523D01*
X177569047Y-96420761D01*
X177569047Y-96563619D01*
X177521428Y-96658857D01*
X177426190Y-96706476D01*
X177378571Y-96706476D01*
X177283333Y-96658857D01*
X177235714Y-96563619D01*
X177235714Y-96420761D01*
X177283333Y-96325523D01*
X182304761Y-101230285D02*
X182352380Y-101087428D01*
X182352380Y-100849333D01*
X182304761Y-100754095D01*
X182257142Y-100706476D01*
X182161904Y-100658857D01*
X182066666Y-100658857D01*
X181971428Y-100706476D01*
X181923809Y-100754095D01*
X181876190Y-100849333D01*
X181828571Y-101039809D01*
X181780952Y-101135047D01*
X181733333Y-101182666D01*
X181638095Y-101230285D01*
X181542857Y-101230285D01*
X181447619Y-101182666D01*
X181400000Y-101135047D01*
X181352380Y-101039809D01*
X181352380Y-100801714D01*
X181400000Y-100658857D01*
X181352380Y-100325523D02*
X182352380Y-100087428D01*
X181638095Y-99896952D01*
X182352380Y-99706476D01*
X181352380Y-99468380D01*
X182447619Y-99325523D02*
X182447619Y-98563619D01*
X181352380Y-98420761D02*
X181352380Y-97801714D01*
X181733333Y-98135047D01*
X181733333Y-97992190D01*
X181780952Y-97896952D01*
X181828571Y-97849333D01*
X181923809Y-97801714D01*
X182161904Y-97801714D01*
X182257142Y-97849333D01*
X182304761Y-97896952D01*
X182352380Y-97992190D01*
X182352380Y-98277904D01*
X182304761Y-98373142D01*
X182257142Y-98420761D01*
%TO.C,U1*%
X120010666Y-84184380D02*
X120010666Y-83708190D01*
X120296380Y-84279619D02*
X119296380Y-83946285D01*
X120296380Y-83612952D01*
X119296380Y-83422476D02*
X119296380Y-82851047D01*
X120296380Y-83136761D02*
X119296380Y-83136761D01*
X119629714Y-82660571D02*
X119629714Y-82279619D01*
X119296380Y-82517714D02*
X120153523Y-82517714D01*
X120248761Y-82470095D01*
X120296380Y-82374857D01*
X120296380Y-82279619D01*
X120296380Y-81946285D02*
X119629714Y-81946285D01*
X119296380Y-81946285D02*
X119344000Y-81993904D01*
X119391619Y-81946285D01*
X119344000Y-81898666D01*
X119296380Y-81946285D01*
X119391619Y-81946285D01*
X119629714Y-81470095D02*
X120296380Y-81470095D01*
X119724952Y-81470095D02*
X119677333Y-81422476D01*
X119629714Y-81327238D01*
X119629714Y-81184380D01*
X119677333Y-81089142D01*
X119772571Y-81041523D01*
X120296380Y-81041523D01*
X119629714Y-80660571D02*
X120296380Y-80422476D01*
X119629714Y-80184380D02*
X120296380Y-80422476D01*
X120534476Y-80517714D01*
X120582095Y-80565333D01*
X120629714Y-80660571D01*
X119391619Y-79851047D02*
X119344000Y-79803428D01*
X119296380Y-79708190D01*
X119296380Y-79470095D01*
X119344000Y-79374857D01*
X119391619Y-79327238D01*
X119486857Y-79279619D01*
X119582095Y-79279619D01*
X119724952Y-79327238D01*
X120296380Y-79898666D01*
X120296380Y-79279619D01*
X119296380Y-78946285D02*
X119296380Y-78327238D01*
X119677333Y-78660571D01*
X119677333Y-78517714D01*
X119724952Y-78422476D01*
X119772571Y-78374857D01*
X119867809Y-78327238D01*
X120105904Y-78327238D01*
X120201142Y-78374857D01*
X120248761Y-78422476D01*
X120296380Y-78517714D01*
X120296380Y-78803428D01*
X120248761Y-78898666D01*
X120201142Y-78946285D01*
X120296380Y-77374857D02*
X120296380Y-77946285D01*
X120296380Y-77660571D02*
X119296380Y-77660571D01*
X119439238Y-77755809D01*
X119534476Y-77851047D01*
X119582095Y-77946285D01*
X119296380Y-77041523D02*
X119296380Y-76422476D01*
X119677333Y-76755809D01*
X119677333Y-76612952D01*
X119724952Y-76517714D01*
X119772571Y-76470095D01*
X119867809Y-76422476D01*
X120105904Y-76422476D01*
X120201142Y-76470095D01*
X120248761Y-76517714D01*
X120296380Y-76612952D01*
X120296380Y-76898666D01*
X120248761Y-76993904D01*
X120201142Y-77041523D01*
X120010666Y-76041523D02*
X120010666Y-75565333D01*
X120296380Y-76136761D02*
X119296380Y-75803428D01*
X120296380Y-75470095D01*
X119915428Y-75136761D02*
X119915428Y-74374857D01*
X120296380Y-73898666D02*
X119296380Y-73898666D01*
X119296380Y-73517714D01*
X119344000Y-73422476D01*
X119391619Y-73374857D01*
X119486857Y-73327238D01*
X119629714Y-73327238D01*
X119724952Y-73374857D01*
X119772571Y-73422476D01*
X119820190Y-73517714D01*
X119820190Y-73898666D01*
X119296380Y-72898666D02*
X120105904Y-72898666D01*
X120201142Y-72851047D01*
X120248761Y-72803428D01*
X120296380Y-72708190D01*
X120296380Y-72517714D01*
X120248761Y-72422476D01*
X120201142Y-72374857D01*
X120105904Y-72327238D01*
X119296380Y-72327238D01*
X133056380Y-78993904D02*
X133865904Y-78993904D01*
X133961142Y-78946285D01*
X134008761Y-78898666D01*
X134056380Y-78803428D01*
X134056380Y-78612952D01*
X134008761Y-78517714D01*
X133961142Y-78470095D01*
X133865904Y-78422476D01*
X133056380Y-78422476D01*
X134056380Y-77422476D02*
X134056380Y-77993904D01*
X134056380Y-77708190D02*
X133056380Y-77708190D01*
X133199238Y-77803428D01*
X133294476Y-77898666D01*
X133342095Y-77993904D01*
%TO.C,U2*%
X120182095Y-97524380D02*
X120182095Y-96524380D01*
X120420190Y-96524380D01*
X120563047Y-96572000D01*
X120658285Y-96667238D01*
X120705904Y-96762476D01*
X120753523Y-96952952D01*
X120753523Y-97095809D01*
X120705904Y-97286285D01*
X120658285Y-97381523D01*
X120563047Y-97476761D01*
X120420190Y-97524380D01*
X120182095Y-97524380D01*
X121134476Y-97476761D02*
X121277333Y-97524380D01*
X121515428Y-97524380D01*
X121610666Y-97476761D01*
X121658285Y-97429142D01*
X121705904Y-97333904D01*
X121705904Y-97238666D01*
X121658285Y-97143428D01*
X121610666Y-97095809D01*
X121515428Y-97048190D01*
X121324952Y-97000571D01*
X121229714Y-96952952D01*
X121182095Y-96905333D01*
X121134476Y-96810095D01*
X121134476Y-96714857D01*
X121182095Y-96619619D01*
X121229714Y-96572000D01*
X121324952Y-96524380D01*
X121563047Y-96524380D01*
X121705904Y-96572000D01*
X122658285Y-97524380D02*
X122086857Y-97524380D01*
X122372571Y-97524380D02*
X122372571Y-96524380D01*
X122277333Y-96667238D01*
X122182095Y-96762476D01*
X122086857Y-96810095D01*
X122991619Y-96524380D02*
X123610666Y-96524380D01*
X123277333Y-96905333D01*
X123420190Y-96905333D01*
X123515428Y-96952952D01*
X123563047Y-97000571D01*
X123610666Y-97095809D01*
X123610666Y-97333904D01*
X123563047Y-97429142D01*
X123515428Y-97476761D01*
X123420190Y-97524380D01*
X123134476Y-97524380D01*
X123039238Y-97476761D01*
X122991619Y-97429142D01*
X124229714Y-96524380D02*
X124324952Y-96524380D01*
X124420190Y-96572000D01*
X124467809Y-96619619D01*
X124515428Y-96714857D01*
X124563047Y-96905333D01*
X124563047Y-97143428D01*
X124515428Y-97333904D01*
X124467809Y-97429142D01*
X124420190Y-97476761D01*
X124324952Y-97524380D01*
X124229714Y-97524380D01*
X124134476Y-97476761D01*
X124086857Y-97429142D01*
X124039238Y-97333904D01*
X123991619Y-97143428D01*
X123991619Y-96905333D01*
X124039238Y-96714857D01*
X124086857Y-96619619D01*
X124134476Y-96572000D01*
X124229714Y-96524380D01*
X124944000Y-96619619D02*
X124991619Y-96572000D01*
X125086857Y-96524380D01*
X125324952Y-96524380D01*
X125420190Y-96572000D01*
X125467809Y-96619619D01*
X125515428Y-96714857D01*
X125515428Y-96810095D01*
X125467809Y-96952952D01*
X124896380Y-97524380D01*
X125515428Y-97524380D01*
X125944000Y-97143428D02*
X126705904Y-97143428D01*
X126324952Y-97524380D02*
X126324952Y-96762476D01*
X122682095Y-90384380D02*
X122682095Y-91193904D01*
X122729714Y-91289142D01*
X122777333Y-91336761D01*
X122872571Y-91384380D01*
X123063047Y-91384380D01*
X123158285Y-91336761D01*
X123205904Y-91289142D01*
X123253523Y-91193904D01*
X123253523Y-90384380D01*
X123682095Y-90479619D02*
X123729714Y-90432000D01*
X123824952Y-90384380D01*
X124063047Y-90384380D01*
X124158285Y-90432000D01*
X124205904Y-90479619D01*
X124253523Y-90574857D01*
X124253523Y-90670095D01*
X124205904Y-90812952D01*
X123634476Y-91384380D01*
X124253523Y-91384380D01*
%TO.C,Y1*%
X114038285Y-88589142D02*
X113990666Y-88636761D01*
X113847809Y-88684380D01*
X113752571Y-88684380D01*
X113609714Y-88636761D01*
X113514476Y-88541523D01*
X113466857Y-88446285D01*
X113419238Y-88255809D01*
X113419238Y-88112952D01*
X113466857Y-87922476D01*
X113514476Y-87827238D01*
X113609714Y-87732000D01*
X113752571Y-87684380D01*
X113847809Y-87684380D01*
X113990666Y-87732000D01*
X114038285Y-87779619D01*
X114466857Y-88684380D02*
X114466857Y-88017714D01*
X114466857Y-88208190D02*
X114514476Y-88112952D01*
X114562095Y-88065333D01*
X114657333Y-88017714D01*
X114752571Y-88017714D01*
X114990666Y-88017714D02*
X115228761Y-88684380D01*
X115466857Y-88017714D02*
X115228761Y-88684380D01*
X115133523Y-88922476D01*
X115085904Y-88970095D01*
X114990666Y-89017714D01*
X115800190Y-88636761D02*
X115895428Y-88684380D01*
X116085904Y-88684380D01*
X116181142Y-88636761D01*
X116228761Y-88541523D01*
X116228761Y-88493904D01*
X116181142Y-88398666D01*
X116085904Y-88351047D01*
X115943047Y-88351047D01*
X115847809Y-88303428D01*
X115800190Y-88208190D01*
X115800190Y-88160571D01*
X115847809Y-88065333D01*
X115943047Y-88017714D01*
X116085904Y-88017714D01*
X116181142Y-88065333D01*
X116514476Y-88017714D02*
X116895428Y-88017714D01*
X116657333Y-87684380D02*
X116657333Y-88541523D01*
X116704952Y-88636761D01*
X116800190Y-88684380D01*
X116895428Y-88684380D01*
X117657333Y-88684380D02*
X117657333Y-88160571D01*
X117609714Y-88065333D01*
X117514476Y-88017714D01*
X117324000Y-88017714D01*
X117228761Y-88065333D01*
X117657333Y-88636761D02*
X117562095Y-88684380D01*
X117324000Y-88684380D01*
X117228761Y-88636761D01*
X117181142Y-88541523D01*
X117181142Y-88446285D01*
X117228761Y-88351047D01*
X117324000Y-88303428D01*
X117562095Y-88303428D01*
X117657333Y-88255809D01*
X118276380Y-88684380D02*
X118181142Y-88636761D01*
X118133523Y-88541523D01*
X118133523Y-87684380D01*
D14*
X115443047Y-90912952D02*
X115443047Y-91293904D01*
X115176380Y-90493904D02*
X115443047Y-90912952D01*
X115709714Y-90493904D01*
X116395428Y-91293904D02*
X115938285Y-91293904D01*
X116166857Y-91293904D02*
X116166857Y-90493904D01*
X116090666Y-90608190D01*
X116014476Y-90684380D01*
X115938285Y-90722476D01*
%TO.C,R1*%
D11*
X108958285Y-74694380D02*
X108386857Y-74694380D01*
X108672571Y-74694380D02*
X108672571Y-73694380D01*
X108577333Y-73837238D01*
X108482095Y-73932476D01*
X108386857Y-73980095D01*
X109577333Y-73694380D02*
X109672571Y-73694380D01*
X109767809Y-73742000D01*
X109815428Y-73789619D01*
X109863047Y-73884857D01*
X109910666Y-74075333D01*
X109910666Y-74313428D01*
X109863047Y-74503904D01*
X109815428Y-74599142D01*
X109767809Y-74646761D01*
X109672571Y-74694380D01*
X109577333Y-74694380D01*
X109482095Y-74646761D01*
X109434476Y-74599142D01*
X109386857Y-74503904D01*
X109339238Y-74313428D01*
X109339238Y-74075333D01*
X109386857Y-73884857D01*
X109434476Y-73789619D01*
X109482095Y-73742000D01*
X109577333Y-73694380D01*
X110339238Y-74694380D02*
X110339238Y-73694380D01*
X110434476Y-74313428D02*
X110720190Y-74694380D01*
X110720190Y-74027714D02*
X110339238Y-74408666D01*
X111339238Y-73694380D02*
X111529714Y-73694380D01*
X111624952Y-73742000D01*
X111720190Y-73837238D01*
X111767809Y-74027714D01*
X111767809Y-74361047D01*
X111720190Y-74551523D01*
X111624952Y-74646761D01*
X111529714Y-74694380D01*
X111339238Y-74694380D01*
X111244000Y-74646761D01*
X111148761Y-74551523D01*
X111101142Y-74361047D01*
X111101142Y-74027714D01*
X111148761Y-73837238D01*
X111244000Y-73742000D01*
X111339238Y-73694380D01*
X112196380Y-74694380D02*
X112196380Y-74027714D01*
X112196380Y-74122952D02*
X112244000Y-74075333D01*
X112339238Y-74027714D01*
X112482095Y-74027714D01*
X112577333Y-74075333D01*
X112624952Y-74170571D01*
X112624952Y-74694380D01*
X112624952Y-74170571D02*
X112672571Y-74075333D01*
X112767809Y-74027714D01*
X112910666Y-74027714D01*
X113005904Y-74075333D01*
X113053523Y-74170571D01*
X113053523Y-74694380D01*
X110577333Y-80134380D02*
X110244000Y-79658190D01*
X110005904Y-80134380D02*
X110005904Y-79134380D01*
X110386857Y-79134380D01*
X110482095Y-79182000D01*
X110529714Y-79229619D01*
X110577333Y-79324857D01*
X110577333Y-79467714D01*
X110529714Y-79562952D01*
X110482095Y-79610571D01*
X110386857Y-79658190D01*
X110005904Y-79658190D01*
X111529714Y-80134380D02*
X110958285Y-80134380D01*
X111244000Y-80134380D02*
X111244000Y-79134380D01*
X111148761Y-79277238D01*
X111053523Y-79372476D01*
X110958285Y-79420095D01*
%TO.C,Q1*%
X150463523Y-84596761D02*
X150606380Y-84644380D01*
X150844476Y-84644380D01*
X150939714Y-84596761D01*
X150987333Y-84549142D01*
X151034952Y-84453904D01*
X151034952Y-84358666D01*
X150987333Y-84263428D01*
X150939714Y-84215809D01*
X150844476Y-84168190D01*
X150654000Y-84120571D01*
X150558761Y-84072952D01*
X150511142Y-84025333D01*
X150463523Y-83930095D01*
X150463523Y-83834857D01*
X150511142Y-83739619D01*
X150558761Y-83692000D01*
X150654000Y-83644380D01*
X150892095Y-83644380D01*
X151034952Y-83692000D01*
X151511142Y-84644380D02*
X151701619Y-84644380D01*
X151796857Y-84596761D01*
X151844476Y-84549142D01*
X151939714Y-84406285D01*
X151987333Y-84215809D01*
X151987333Y-83834857D01*
X151939714Y-83739619D01*
X151892095Y-83692000D01*
X151796857Y-83644380D01*
X151606380Y-83644380D01*
X151511142Y-83692000D01*
X151463523Y-83739619D01*
X151415904Y-83834857D01*
X151415904Y-84072952D01*
X151463523Y-84168190D01*
X151511142Y-84215809D01*
X151606380Y-84263428D01*
X151796857Y-84263428D01*
X151892095Y-84215809D01*
X151939714Y-84168190D01*
X151987333Y-84072952D01*
X152606380Y-83644380D02*
X152701619Y-83644380D01*
X152796857Y-83692000D01*
X152844476Y-83739619D01*
X152892095Y-83834857D01*
X152939714Y-84025333D01*
X152939714Y-84263428D01*
X152892095Y-84453904D01*
X152844476Y-84549142D01*
X152796857Y-84596761D01*
X152701619Y-84644380D01*
X152606380Y-84644380D01*
X152511142Y-84596761D01*
X152463523Y-84549142D01*
X152415904Y-84453904D01*
X152368285Y-84263428D01*
X152368285Y-84025333D01*
X152415904Y-83834857D01*
X152463523Y-83739619D01*
X152511142Y-83692000D01*
X152606380Y-83644380D01*
X153892095Y-84644380D02*
X153320666Y-84644380D01*
X153606380Y-84644380D02*
X153606380Y-83644380D01*
X153511142Y-83787238D01*
X153415904Y-83882476D01*
X153320666Y-83930095D01*
X154749238Y-83977714D02*
X154749238Y-84644380D01*
X154511142Y-83596761D02*
X154273047Y-84311047D01*
X154892095Y-84311047D01*
X152558761Y-80049619D02*
X152463523Y-80002000D01*
X152368285Y-79906761D01*
X152225428Y-79763904D01*
X152130190Y-79716285D01*
X152034952Y-79716285D01*
X152082571Y-79954380D02*
X151987333Y-79906761D01*
X151892095Y-79811523D01*
X151844476Y-79621047D01*
X151844476Y-79287714D01*
X151892095Y-79097238D01*
X151987333Y-79002000D01*
X152082571Y-78954380D01*
X152273047Y-78954380D01*
X152368285Y-79002000D01*
X152463523Y-79097238D01*
X152511142Y-79287714D01*
X152511142Y-79621047D01*
X152463523Y-79811523D01*
X152368285Y-79906761D01*
X152273047Y-79954380D01*
X152082571Y-79954380D01*
X153463523Y-79954380D02*
X152892095Y-79954380D01*
X153177809Y-79954380D02*
X153177809Y-78954380D01*
X153082571Y-79097238D01*
X152987333Y-79192476D01*
X152892095Y-79240095D01*
%TO.C,R2*%
X150868285Y-73424380D02*
X150296857Y-73424380D01*
X150582571Y-73424380D02*
X150582571Y-72424380D01*
X150487333Y-72567238D01*
X150392095Y-72662476D01*
X150296857Y-72710095D01*
X151487333Y-72424380D02*
X151582571Y-72424380D01*
X151677809Y-72472000D01*
X151725428Y-72519619D01*
X151773047Y-72614857D01*
X151820666Y-72805333D01*
X151820666Y-73043428D01*
X151773047Y-73233904D01*
X151725428Y-73329142D01*
X151677809Y-73376761D01*
X151582571Y-73424380D01*
X151487333Y-73424380D01*
X151392095Y-73376761D01*
X151344476Y-73329142D01*
X151296857Y-73233904D01*
X151249238Y-73043428D01*
X151249238Y-72805333D01*
X151296857Y-72614857D01*
X151344476Y-72519619D01*
X151392095Y-72472000D01*
X151487333Y-72424380D01*
X152249238Y-73424380D02*
X152249238Y-72424380D01*
X152344476Y-73043428D02*
X152630190Y-73424380D01*
X152630190Y-72757714D02*
X152249238Y-73138666D01*
X153249238Y-72424380D02*
X153439714Y-72424380D01*
X153534952Y-72472000D01*
X153630190Y-72567238D01*
X153677809Y-72757714D01*
X153677809Y-73091047D01*
X153630190Y-73281523D01*
X153534952Y-73376761D01*
X153439714Y-73424380D01*
X153249238Y-73424380D01*
X153154000Y-73376761D01*
X153058761Y-73281523D01*
X153011142Y-73091047D01*
X153011142Y-72757714D01*
X153058761Y-72567238D01*
X153154000Y-72472000D01*
X153249238Y-72424380D01*
X154106380Y-73424380D02*
X154106380Y-72757714D01*
X154106380Y-72852952D02*
X154154000Y-72805333D01*
X154249238Y-72757714D01*
X154392095Y-72757714D01*
X154487333Y-72805333D01*
X154534952Y-72900571D01*
X154534952Y-73424380D01*
X154534952Y-72900571D02*
X154582571Y-72805333D01*
X154677809Y-72757714D01*
X154820666Y-72757714D01*
X154915904Y-72805333D01*
X154963523Y-72900571D01*
X154963523Y-73424380D01*
X152487333Y-78864380D02*
X152154000Y-78388190D01*
X151915904Y-78864380D02*
X151915904Y-77864380D01*
X152296857Y-77864380D01*
X152392095Y-77912000D01*
X152439714Y-77959619D01*
X152487333Y-78054857D01*
X152487333Y-78197714D01*
X152439714Y-78292952D01*
X152392095Y-78340571D01*
X152296857Y-78388190D01*
X151915904Y-78388190D01*
X152868285Y-77959619D02*
X152915904Y-77912000D01*
X153011142Y-77864380D01*
X153249238Y-77864380D01*
X153344476Y-77912000D01*
X153392095Y-77959619D01*
X153439714Y-78054857D01*
X153439714Y-78150095D01*
X153392095Y-78292952D01*
X152820666Y-78864380D01*
X153439714Y-78864380D01*
%TD*%
M02*
