M48
; DRILL file {KiCad (5.1.6)-1} date 08/18/20 16:34:16
; FORMAT={-:-/ absolute / metric / decimal}
; #@! TF.CreationDate,2020-08-18T16:34:16+05:00
; #@! TF.GenerationSoftware,Kicad,Pcbnew,(5.1.6)-1
; #@! TF.FileFunction,Plated,1,2,PTH
FMAT,2
METRIC
T1C0.800
%
G90
G05
T1
X150.368Y-82.042
X152.654Y-82.042
X154.94Y-82.042
X179.65Y-84.836
X179.65Y-91.336
X184.15Y-84.836
X184.15Y-91.336
X132.334Y-90.932
X134.874Y-88.392
X137.414Y-90.932
X150.114Y-75.692
X155.194Y-75.692
X179.65Y-96.266
X179.65Y-102.766
X184.15Y-96.266
X184.15Y-102.766
X109.22Y-82.296
X109.22Y-84.836
X109.22Y-87.376
X109.22Y-89.916
X166.624Y-82.296
X166.624Y-84.836
X166.624Y-87.376
X166.624Y-89.916
X146.304Y-90.932
X153.904Y-90.932
X108.204Y-76.962
X113.284Y-76.962
X122.174Y-74.422
X122.174Y-82.042
X124.714Y-74.422
X124.714Y-82.042
X127.254Y-74.422
X127.254Y-82.042
X129.794Y-74.422
X129.794Y-82.042
X132.334Y-74.422
X132.334Y-82.042
X134.874Y-74.422
X134.874Y-82.042
X137.414Y-74.422
X137.414Y-82.042
X139.954Y-74.422
X139.954Y-82.042
X142.494Y-74.422
X142.494Y-82.042
X145.034Y-74.422
X145.034Y-82.042
X179.65Y-73.406
X179.65Y-79.906
X184.15Y-73.406
X184.15Y-79.906
X114.554Y-90.932
X117.094Y-90.932
X162.814Y-75.692
X166.624Y-75.692
X161.036Y-83.312
X161.036Y-87.122
X119.634Y-87.122
X119.634Y-89.662
X119.634Y-92.202
X119.634Y-94.742
X127.254Y-87.122
X127.254Y-89.662
X127.254Y-92.202
X127.254Y-94.742
T0
M30
