M48
; DRILL file {KiCad (5.1.6)-1} date 10/12/20 23:34:49
; FORMAT={-:-/ absolute / inch / decimal}
; #@! TF.CreationDate,2020-10-12T23:34:49+05:00
; #@! TF.GenerationSoftware,Kicad,Pcbnew,(5.1.6)-1
; #@! TF.FileFunction,Plated,1,2,PTH
FMAT,2
INCH
T1C0.0197
T2C0.0276
T3C0.0295
T4C0.0315
T5C0.0433
T6C0.0787
%
G90
G05
T1
X4.52Y-2.88
X4.5948Y-2.88
T2
X5.15Y-3.025
X5.15Y-3.225
X4.3Y-3.4
X4.3Y-3.6
T3
X5.56Y-3.44
X5.61Y-3.44
X5.66Y-3.44
T4
X4.42Y-3.38
X4.42Y-3.68
X4.52Y-3.38
X4.52Y-3.68
X4.62Y-3.38
X4.62Y-3.68
X4.72Y-3.38
X4.72Y-3.68
X4.82Y-3.38
X4.82Y-3.68
X4.92Y-3.38
X4.92Y-3.68
X5.02Y-3.38
X5.02Y-3.68
X5.12Y-3.38
X5.12Y-3.68
X5.22Y-3.38
X5.22Y-3.68
X5.32Y-3.38
X5.32Y-3.68
X5.45Y-2.94
X5.45Y-3.14
X5.55Y-3.04
X5.7758Y-3.075
X6.075Y-3.075
X4.72Y-2.96
X4.72Y-3.26
X4.82Y-2.96
X4.82Y-3.26
X4.92Y-2.96
X4.92Y-3.26
X5.02Y-2.96
X5.02Y-3.26
T5
X6.5478Y-2.8941
X6.5478Y-3.15
X6.725Y-2.8941
X6.725Y-3.15
X6.5478Y-3.3941
X6.5478Y-3.65
X6.725Y-3.3941
X6.725Y-3.65
T6
X4.175Y-2.875
X4.2Y-3.7
X6.075Y-3.7
X6.15Y-2.85
X6.39Y-2.86
X6.63Y-3.74
X6.64Y-3.27
T0
M30
