%TF.GenerationSoftware,KiCad,Pcbnew,(5.1.6)-1*%
%TF.CreationDate,2020-10-12T23:34:44+05:00*%
%TF.ProjectId,attiny2313_tm1637_ds1302,61747469-6e79-4323-9331-335f746d3136,1*%
%TF.SameCoordinates,Original*%
%TF.FileFunction,Legend,Top*%
%TF.FilePolarity,Positive*%
%FSLAX46Y46*%
G04 Gerber Fmt 4.6, Leading zero omitted, Abs format (unit mm)*
G04 Created by KiCad (PCBNEW (5.1.6)-1) date 2020-10-12 23:34:44*
%MOMM*%
%LPD*%
G01*
G04 APERTURE LIST*
%ADD10C,0.100000*%
%ADD11C,0.150000*%
%ADD12C,0.300000*%
%ADD13C,0.400000*%
%ADD14C,0.120000*%
G04 APERTURE END LIST*
D10*
D11*
X177002200Y-166007200D02*
X177002200Y-198007200D01*
X285002200Y-198007200D01*
X285002200Y-166007200D01*
X177002200Y-166007200D01*
D10*
D11*
X10000000Y-10000000D02*
X10000000Y-200007200D01*
X287002200Y-200007200D01*
X287002200Y-10000000D01*
X10000000Y-10000000D01*
D10*
D11*
X12000000Y-12000000D02*
X12000000Y-198007200D01*
X285002200Y-198007200D01*
X285002200Y-12000000D01*
X12000000Y-12000000D01*
D10*
D11*
X60000000Y-12000000D02*
X60000000Y-10000000D01*
D10*
D11*
X110000000Y-12000000D02*
X110000000Y-10000000D01*
D10*
D11*
X160000000Y-12000000D02*
X160000000Y-10000000D01*
D10*
D11*
X210000000Y-12000000D02*
X210000000Y-10000000D01*
D10*
D11*
X260000000Y-12000000D02*
X260000000Y-10000000D01*
D10*
D11*
X36065476Y-11588095D02*
X35322619Y-11588095D01*
X35694047Y-11588095D02*
X35694047Y-10288095D01*
X35570238Y-10473809D01*
X35446428Y-10597619D01*
X35322619Y-10659523D01*
D10*
D11*
X85322619Y-10411904D02*
X85384523Y-10350000D01*
X85508333Y-10288095D01*
X85817857Y-10288095D01*
X85941666Y-10350000D01*
X86003571Y-10411904D01*
X86065476Y-10535714D01*
X86065476Y-10659523D01*
X86003571Y-10845238D01*
X85260714Y-11588095D01*
X86065476Y-11588095D01*
D10*
D11*
X135260714Y-10288095D02*
X136065476Y-10288095D01*
X135632142Y-10783333D01*
X135817857Y-10783333D01*
X135941666Y-10845238D01*
X136003571Y-10907142D01*
X136065476Y-11030952D01*
X136065476Y-11340476D01*
X136003571Y-11464285D01*
X135941666Y-11526190D01*
X135817857Y-11588095D01*
X135446428Y-11588095D01*
X135322619Y-11526190D01*
X135260714Y-11464285D01*
D10*
D11*
X185941666Y-10721428D02*
X185941666Y-11588095D01*
X185632142Y-10226190D02*
X185322619Y-11154761D01*
X186127380Y-11154761D01*
D10*
D11*
X236003571Y-10288095D02*
X235384523Y-10288095D01*
X235322619Y-10907142D01*
X235384523Y-10845238D01*
X235508333Y-10783333D01*
X235817857Y-10783333D01*
X235941666Y-10845238D01*
X236003571Y-10907142D01*
X236065476Y-11030952D01*
X236065476Y-11340476D01*
X236003571Y-11464285D01*
X235941666Y-11526190D01*
X235817857Y-11588095D01*
X235508333Y-11588095D01*
X235384523Y-11526190D01*
X235322619Y-11464285D01*
D10*
D11*
X285941666Y-10288095D02*
X285694047Y-10288095D01*
X285570238Y-10350000D01*
X285508333Y-10411904D01*
X285384523Y-10597619D01*
X285322619Y-10845238D01*
X285322619Y-11340476D01*
X285384523Y-11464285D01*
X285446428Y-11526190D01*
X285570238Y-11588095D01*
X285817857Y-11588095D01*
X285941666Y-11526190D01*
X286003571Y-11464285D01*
X286065476Y-11340476D01*
X286065476Y-11030952D01*
X286003571Y-10907142D01*
X285941666Y-10845238D01*
X285817857Y-10783333D01*
X285570238Y-10783333D01*
X285446428Y-10845238D01*
X285384523Y-10907142D01*
X285322619Y-11030952D01*
D10*
D11*
X60000000Y-198007200D02*
X60000000Y-200007200D01*
D10*
D11*
X110000000Y-198007200D02*
X110000000Y-200007200D01*
D10*
D11*
X160000000Y-198007200D02*
X160000000Y-200007200D01*
D10*
D11*
X210000000Y-198007200D02*
X210000000Y-200007200D01*
D10*
D11*
X260000000Y-198007200D02*
X260000000Y-200007200D01*
D10*
D11*
X36065476Y-199595295D02*
X35322619Y-199595295D01*
X35694047Y-199595295D02*
X35694047Y-198295295D01*
X35570238Y-198481009D01*
X35446428Y-198604819D01*
X35322619Y-198666723D01*
D10*
D11*
X85322619Y-198419104D02*
X85384523Y-198357200D01*
X85508333Y-198295295D01*
X85817857Y-198295295D01*
X85941666Y-198357200D01*
X86003571Y-198419104D01*
X86065476Y-198542914D01*
X86065476Y-198666723D01*
X86003571Y-198852438D01*
X85260714Y-199595295D01*
X86065476Y-199595295D01*
D10*
D11*
X135260714Y-198295295D02*
X136065476Y-198295295D01*
X135632142Y-198790533D01*
X135817857Y-198790533D01*
X135941666Y-198852438D01*
X136003571Y-198914342D01*
X136065476Y-199038152D01*
X136065476Y-199347676D01*
X136003571Y-199471485D01*
X135941666Y-199533390D01*
X135817857Y-199595295D01*
X135446428Y-199595295D01*
X135322619Y-199533390D01*
X135260714Y-199471485D01*
D10*
D11*
X185941666Y-198728628D02*
X185941666Y-199595295D01*
X185632142Y-198233390D02*
X185322619Y-199161961D01*
X186127380Y-199161961D01*
D10*
D11*
X236003571Y-198295295D02*
X235384523Y-198295295D01*
X235322619Y-198914342D01*
X235384523Y-198852438D01*
X235508333Y-198790533D01*
X235817857Y-198790533D01*
X235941666Y-198852438D01*
X236003571Y-198914342D01*
X236065476Y-199038152D01*
X236065476Y-199347676D01*
X236003571Y-199471485D01*
X235941666Y-199533390D01*
X235817857Y-199595295D01*
X235508333Y-199595295D01*
X235384523Y-199533390D01*
X235322619Y-199471485D01*
D10*
D11*
X285941666Y-198295295D02*
X285694047Y-198295295D01*
X285570238Y-198357200D01*
X285508333Y-198419104D01*
X285384523Y-198604819D01*
X285322619Y-198852438D01*
X285322619Y-199347676D01*
X285384523Y-199471485D01*
X285446428Y-199533390D01*
X285570238Y-199595295D01*
X285817857Y-199595295D01*
X285941666Y-199533390D01*
X286003571Y-199471485D01*
X286065476Y-199347676D01*
X286065476Y-199038152D01*
X286003571Y-198914342D01*
X285941666Y-198852438D01*
X285817857Y-198790533D01*
X285570238Y-198790533D01*
X285446428Y-198852438D01*
X285384523Y-198914342D01*
X285322619Y-199038152D01*
D10*
D11*
X10000000Y-60000000D02*
X12000000Y-60000000D01*
D10*
D11*
X10000000Y-110000000D02*
X12000000Y-110000000D01*
D10*
D11*
X10000000Y-160000000D02*
X12000000Y-160000000D01*
D10*
D11*
X10690476Y-35216666D02*
X11309523Y-35216666D01*
X10566666Y-35588095D02*
X11000000Y-34288095D01*
X11433333Y-35588095D01*
D10*
D11*
X11092857Y-84907142D02*
X11278571Y-84969047D01*
X11340476Y-85030952D01*
X11402380Y-85154761D01*
X11402380Y-85340476D01*
X11340476Y-85464285D01*
X11278571Y-85526190D01*
X11154761Y-85588095D01*
X10659523Y-85588095D01*
X10659523Y-84288095D01*
X11092857Y-84288095D01*
X11216666Y-84350000D01*
X11278571Y-84411904D01*
X11340476Y-84535714D01*
X11340476Y-84659523D01*
X11278571Y-84783333D01*
X11216666Y-84845238D01*
X11092857Y-84907142D01*
X10659523Y-84907142D01*
D10*
D11*
X11402380Y-135464285D02*
X11340476Y-135526190D01*
X11154761Y-135588095D01*
X11030952Y-135588095D01*
X10845238Y-135526190D01*
X10721428Y-135402380D01*
X10659523Y-135278571D01*
X10597619Y-135030952D01*
X10597619Y-134845238D01*
X10659523Y-134597619D01*
X10721428Y-134473809D01*
X10845238Y-134350000D01*
X11030952Y-134288095D01*
X11154761Y-134288095D01*
X11340476Y-134350000D01*
X11402380Y-134411904D01*
D10*
D11*
X10659523Y-185588095D02*
X10659523Y-184288095D01*
X10969047Y-184288095D01*
X11154761Y-184350000D01*
X11278571Y-184473809D01*
X11340476Y-184597619D01*
X11402380Y-184845238D01*
X11402380Y-185030952D01*
X11340476Y-185278571D01*
X11278571Y-185402380D01*
X11154761Y-185526190D01*
X10969047Y-185588095D01*
X10659523Y-185588095D01*
D10*
D11*
X287002200Y-60000000D02*
X285002200Y-60000000D01*
D10*
D11*
X287002200Y-110000000D02*
X285002200Y-110000000D01*
D10*
D11*
X287002200Y-160000000D02*
X285002200Y-160000000D01*
D10*
D11*
X285692676Y-35216666D02*
X286311723Y-35216666D01*
X285568866Y-35588095D02*
X286002200Y-34288095D01*
X286435533Y-35588095D01*
D10*
D11*
X286095057Y-84907142D02*
X286280771Y-84969047D01*
X286342676Y-85030952D01*
X286404580Y-85154761D01*
X286404580Y-85340476D01*
X286342676Y-85464285D01*
X286280771Y-85526190D01*
X286156961Y-85588095D01*
X285661723Y-85588095D01*
X285661723Y-84288095D01*
X286095057Y-84288095D01*
X286218866Y-84350000D01*
X286280771Y-84411904D01*
X286342676Y-84535714D01*
X286342676Y-84659523D01*
X286280771Y-84783333D01*
X286218866Y-84845238D01*
X286095057Y-84907142D01*
X285661723Y-84907142D01*
D10*
D11*
X286404580Y-135464285D02*
X286342676Y-135526190D01*
X286156961Y-135588095D01*
X286033152Y-135588095D01*
X285847438Y-135526190D01*
X285723628Y-135402380D01*
X285661723Y-135278571D01*
X285599819Y-135030952D01*
X285599819Y-134845238D01*
X285661723Y-134597619D01*
X285723628Y-134473809D01*
X285847438Y-134350000D01*
X286033152Y-134288095D01*
X286156961Y-134288095D01*
X286342676Y-134350000D01*
X286404580Y-134411904D01*
D10*
D11*
X285661723Y-185588095D02*
X285661723Y-184288095D01*
X285971247Y-184288095D01*
X286156961Y-184350000D01*
X286280771Y-184473809D01*
X286342676Y-184597619D01*
X286404580Y-184845238D01*
X286404580Y-185030952D01*
X286342676Y-185278571D01*
X286280771Y-185402380D01*
X286156961Y-185526190D01*
X285971247Y-185588095D01*
X285661723Y-185588095D01*
D10*
D11*
X200434342Y-193785771D02*
X200434342Y-192285771D01*
X200791485Y-192285771D01*
X201005771Y-192357200D01*
X201148628Y-192500057D01*
X201220057Y-192642914D01*
X201291485Y-192928628D01*
X201291485Y-193142914D01*
X201220057Y-193428628D01*
X201148628Y-193571485D01*
X201005771Y-193714342D01*
X200791485Y-193785771D01*
X200434342Y-193785771D01*
X202577200Y-193785771D02*
X202577200Y-193000057D01*
X202505771Y-192857200D01*
X202362914Y-192785771D01*
X202077200Y-192785771D01*
X201934342Y-192857200D01*
X202577200Y-193714342D02*
X202434342Y-193785771D01*
X202077200Y-193785771D01*
X201934342Y-193714342D01*
X201862914Y-193571485D01*
X201862914Y-193428628D01*
X201934342Y-193285771D01*
X202077200Y-193214342D01*
X202434342Y-193214342D01*
X202577200Y-193142914D01*
X203077200Y-192785771D02*
X203648628Y-192785771D01*
X203291485Y-192285771D02*
X203291485Y-193571485D01*
X203362914Y-193714342D01*
X203505771Y-193785771D01*
X203648628Y-193785771D01*
X204720057Y-193714342D02*
X204577200Y-193785771D01*
X204291485Y-193785771D01*
X204148628Y-193714342D01*
X204077200Y-193571485D01*
X204077200Y-193000057D01*
X204148628Y-192857200D01*
X204291485Y-192785771D01*
X204577200Y-192785771D01*
X204720057Y-192857200D01*
X204791485Y-193000057D01*
X204791485Y-193142914D01*
X204077200Y-193285771D01*
X205434342Y-193642914D02*
X205505771Y-193714342D01*
X205434342Y-193785771D01*
X205362914Y-193714342D01*
X205434342Y-193642914D01*
X205434342Y-193785771D01*
X205434342Y-192857200D02*
X205505771Y-192928628D01*
X205434342Y-193000057D01*
X205362914Y-192928628D01*
X205434342Y-192857200D01*
X205434342Y-193000057D01*
X207220057Y-192428628D02*
X207291485Y-192357200D01*
X207434342Y-192285771D01*
X207791485Y-192285771D01*
X207934342Y-192357200D01*
X208005771Y-192428628D01*
X208077200Y-192571485D01*
X208077200Y-192714342D01*
X208005771Y-192928628D01*
X207148628Y-193785771D01*
X208077200Y-193785771D01*
X209005771Y-192285771D02*
X209148628Y-192285771D01*
X209291485Y-192357200D01*
X209362914Y-192428628D01*
X209434342Y-192571485D01*
X209505771Y-192857200D01*
X209505771Y-193214342D01*
X209434342Y-193500057D01*
X209362914Y-193642914D01*
X209291485Y-193714342D01*
X209148628Y-193785771D01*
X209005771Y-193785771D01*
X208862914Y-193714342D01*
X208791485Y-193642914D01*
X208720057Y-193500057D01*
X208648628Y-193214342D01*
X208648628Y-192857200D01*
X208720057Y-192571485D01*
X208791485Y-192428628D01*
X208862914Y-192357200D01*
X209005771Y-192285771D01*
X210077200Y-192428628D02*
X210148628Y-192357200D01*
X210291485Y-192285771D01*
X210648628Y-192285771D01*
X210791485Y-192357200D01*
X210862914Y-192428628D01*
X210934342Y-192571485D01*
X210934342Y-192714342D01*
X210862914Y-192928628D01*
X210005771Y-193785771D01*
X210934342Y-193785771D01*
X211862914Y-192285771D02*
X212005771Y-192285771D01*
X212148628Y-192357200D01*
X212220057Y-192428628D01*
X212291485Y-192571485D01*
X212362914Y-192857200D01*
X212362914Y-193214342D01*
X212291485Y-193500057D01*
X212220057Y-193642914D01*
X212148628Y-193714342D01*
X212005771Y-193785771D01*
X211862914Y-193785771D01*
X211720057Y-193714342D01*
X211648628Y-193642914D01*
X211577200Y-193500057D01*
X211505771Y-193214342D01*
X211505771Y-192857200D01*
X211577200Y-192571485D01*
X211648628Y-192428628D01*
X211720057Y-192357200D01*
X211862914Y-192285771D01*
X213005771Y-193214342D02*
X214148628Y-193214342D01*
X215148628Y-192285771D02*
X215291485Y-192285771D01*
X215434342Y-192357200D01*
X215505771Y-192428628D01*
X215577200Y-192571485D01*
X215648628Y-192857200D01*
X215648628Y-193214342D01*
X215577200Y-193500057D01*
X215505771Y-193642914D01*
X215434342Y-193714342D01*
X215291485Y-193785771D01*
X215148628Y-193785771D01*
X215005771Y-193714342D01*
X214934342Y-193642914D01*
X214862914Y-193500057D01*
X214791485Y-193214342D01*
X214791485Y-192857200D01*
X214862914Y-192571485D01*
X214934342Y-192428628D01*
X215005771Y-192357200D01*
X215148628Y-192285771D01*
X216505771Y-192928628D02*
X216362914Y-192857200D01*
X216291485Y-192785771D01*
X216220057Y-192642914D01*
X216220057Y-192571485D01*
X216291485Y-192428628D01*
X216362914Y-192357200D01*
X216505771Y-192285771D01*
X216791485Y-192285771D01*
X216934342Y-192357200D01*
X217005771Y-192428628D01*
X217077200Y-192571485D01*
X217077200Y-192642914D01*
X217005771Y-192785771D01*
X216934342Y-192857200D01*
X216791485Y-192928628D01*
X216505771Y-192928628D01*
X216362914Y-193000057D01*
X216291485Y-193071485D01*
X216220057Y-193214342D01*
X216220057Y-193500057D01*
X216291485Y-193642914D01*
X216362914Y-193714342D01*
X216505771Y-193785771D01*
X216791485Y-193785771D01*
X216934342Y-193714342D01*
X217005771Y-193642914D01*
X217077200Y-193500057D01*
X217077200Y-193214342D01*
X217005771Y-193071485D01*
X216934342Y-193000057D01*
X216791485Y-192928628D01*
X217720057Y-193214342D02*
X218862914Y-193214342D01*
X220362914Y-193785771D02*
X219505771Y-193785771D01*
X219934342Y-193785771D02*
X219934342Y-192285771D01*
X219791485Y-192500057D01*
X219648628Y-192642914D01*
X219505771Y-192714342D01*
X221220057Y-192928628D02*
X221077200Y-192857200D01*
X221005771Y-192785771D01*
X220934342Y-192642914D01*
X220934342Y-192571485D01*
X221005771Y-192428628D01*
X221077200Y-192357200D01*
X221220057Y-192285771D01*
X221505771Y-192285771D01*
X221648628Y-192357200D01*
X221720057Y-192428628D01*
X221791485Y-192571485D01*
X221791485Y-192642914D01*
X221720057Y-192785771D01*
X221648628Y-192857200D01*
X221505771Y-192928628D01*
X221220057Y-192928628D01*
X221077200Y-193000057D01*
X221005771Y-193071485D01*
X220934342Y-193214342D01*
X220934342Y-193500057D01*
X221005771Y-193642914D01*
X221077200Y-193714342D01*
X221220057Y-193785771D01*
X221505771Y-193785771D01*
X221648628Y-193714342D01*
X221720057Y-193642914D01*
X221791485Y-193500057D01*
X221791485Y-193214342D01*
X221720057Y-193071485D01*
X221648628Y-193000057D01*
X221505771Y-192928628D01*
D10*
D11*
X177002200Y-194507200D02*
X285002200Y-194507200D01*
D10*
D11*
X178434342Y-196585771D02*
X178434342Y-195085771D01*
X179291485Y-196585771D02*
X178648628Y-195728628D01*
X179291485Y-195085771D02*
X178434342Y-195942914D01*
X179934342Y-196585771D02*
X179934342Y-195585771D01*
X179934342Y-195085771D02*
X179862914Y-195157200D01*
X179934342Y-195228628D01*
X180005771Y-195157200D01*
X179934342Y-195085771D01*
X179934342Y-195228628D01*
X181505771Y-196442914D02*
X181434342Y-196514342D01*
X181220057Y-196585771D01*
X181077200Y-196585771D01*
X180862914Y-196514342D01*
X180720057Y-196371485D01*
X180648628Y-196228628D01*
X180577200Y-195942914D01*
X180577200Y-195728628D01*
X180648628Y-195442914D01*
X180720057Y-195300057D01*
X180862914Y-195157200D01*
X181077200Y-195085771D01*
X181220057Y-195085771D01*
X181434342Y-195157200D01*
X181505771Y-195228628D01*
X182791485Y-196585771D02*
X182791485Y-195800057D01*
X182720057Y-195657200D01*
X182577200Y-195585771D01*
X182291485Y-195585771D01*
X182148628Y-195657200D01*
X182791485Y-196514342D02*
X182648628Y-196585771D01*
X182291485Y-196585771D01*
X182148628Y-196514342D01*
X182077200Y-196371485D01*
X182077200Y-196228628D01*
X182148628Y-196085771D01*
X182291485Y-196014342D01*
X182648628Y-196014342D01*
X182791485Y-195942914D01*
X184148628Y-196585771D02*
X184148628Y-195085771D01*
X184148628Y-196514342D02*
X184005771Y-196585771D01*
X183720057Y-196585771D01*
X183577200Y-196514342D01*
X183505771Y-196442914D01*
X183434342Y-196300057D01*
X183434342Y-195871485D01*
X183505771Y-195728628D01*
X183577200Y-195657200D01*
X183720057Y-195585771D01*
X184005771Y-195585771D01*
X184148628Y-195657200D01*
X186005771Y-195800057D02*
X186505771Y-195800057D01*
X186720057Y-196585771D02*
X186005771Y-196585771D01*
X186005771Y-195085771D01*
X186720057Y-195085771D01*
X187362914Y-196442914D02*
X187434342Y-196514342D01*
X187362914Y-196585771D01*
X187291485Y-196514342D01*
X187362914Y-196442914D01*
X187362914Y-196585771D01*
X188077200Y-196585771D02*
X188077200Y-195085771D01*
X188434342Y-195085771D01*
X188648628Y-195157200D01*
X188791485Y-195300057D01*
X188862914Y-195442914D01*
X188934342Y-195728628D01*
X188934342Y-195942914D01*
X188862914Y-196228628D01*
X188791485Y-196371485D01*
X188648628Y-196514342D01*
X188434342Y-196585771D01*
X188077200Y-196585771D01*
X189577200Y-196442914D02*
X189648628Y-196514342D01*
X189577200Y-196585771D01*
X189505771Y-196514342D01*
X189577200Y-196442914D01*
X189577200Y-196585771D01*
X190220057Y-196157200D02*
X190934342Y-196157200D01*
X190077200Y-196585771D02*
X190577200Y-195085771D01*
X191077200Y-196585771D01*
X191577200Y-196442914D02*
X191648628Y-196514342D01*
X191577200Y-196585771D01*
X191505771Y-196514342D01*
X191577200Y-196442914D01*
X191577200Y-196585771D01*
X194577200Y-196585771D02*
X194577200Y-195085771D01*
X194720057Y-196014342D02*
X195148628Y-196585771D01*
X195148628Y-195585771D02*
X194577200Y-196157200D01*
X195791485Y-196585771D02*
X195791485Y-195585771D01*
X195791485Y-195085771D02*
X195720057Y-195157200D01*
X195791485Y-195228628D01*
X195862914Y-195157200D01*
X195791485Y-195085771D01*
X195791485Y-195228628D01*
X197148628Y-196514342D02*
X197005771Y-196585771D01*
X196720057Y-196585771D01*
X196577200Y-196514342D01*
X196505771Y-196442914D01*
X196434342Y-196300057D01*
X196434342Y-195871485D01*
X196505771Y-195728628D01*
X196577200Y-195657200D01*
X196720057Y-195585771D01*
X197005771Y-195585771D01*
X197148628Y-195657200D01*
X198434342Y-196585771D02*
X198434342Y-195800057D01*
X198362914Y-195657200D01*
X198220057Y-195585771D01*
X197934342Y-195585771D01*
X197791485Y-195657200D01*
X198434342Y-196514342D02*
X198291485Y-196585771D01*
X197934342Y-196585771D01*
X197791485Y-196514342D01*
X197720057Y-196371485D01*
X197720057Y-196228628D01*
X197791485Y-196085771D01*
X197934342Y-196014342D01*
X198291485Y-196014342D01*
X198434342Y-195942914D01*
X199791485Y-196585771D02*
X199791485Y-195085771D01*
X199791485Y-196514342D02*
X199648628Y-196585771D01*
X199362914Y-196585771D01*
X199220057Y-196514342D01*
X199148628Y-196442914D01*
X199077200Y-196300057D01*
X199077200Y-195871485D01*
X199148628Y-195728628D01*
X199220057Y-195657200D01*
X199362914Y-195585771D01*
X199648628Y-195585771D01*
X199791485Y-195657200D01*
X202077200Y-197157200D02*
X202005771Y-197085771D01*
X201862914Y-196871485D01*
X201791485Y-196728628D01*
X201720057Y-196514342D01*
X201648628Y-196157200D01*
X201648628Y-195871485D01*
X201720057Y-195514342D01*
X201791485Y-195300057D01*
X201862914Y-195157200D01*
X202005771Y-194942914D01*
X202077200Y-194871485D01*
X203362914Y-195085771D02*
X202648628Y-195085771D01*
X202577200Y-195800057D01*
X202648628Y-195728628D01*
X202791485Y-195657200D01*
X203148628Y-195657200D01*
X203291485Y-195728628D01*
X203362914Y-195800057D01*
X203434342Y-195942914D01*
X203434342Y-196300057D01*
X203362914Y-196442914D01*
X203291485Y-196514342D01*
X203148628Y-196585771D01*
X202791485Y-196585771D01*
X202648628Y-196514342D01*
X202577200Y-196442914D01*
X204077200Y-196442914D02*
X204148628Y-196514342D01*
X204077200Y-196585771D01*
X204005771Y-196514342D01*
X204077200Y-196442914D01*
X204077200Y-196585771D01*
X205577200Y-196585771D02*
X204720057Y-196585771D01*
X205148628Y-196585771D02*
X205148628Y-195085771D01*
X205005771Y-195300057D01*
X204862914Y-195442914D01*
X204720057Y-195514342D01*
X206220057Y-196442914D02*
X206291485Y-196514342D01*
X206220057Y-196585771D01*
X206148628Y-196514342D01*
X206220057Y-196442914D01*
X206220057Y-196585771D01*
X207577200Y-195085771D02*
X207291485Y-195085771D01*
X207148628Y-195157200D01*
X207077200Y-195228628D01*
X206934342Y-195442914D01*
X206862914Y-195728628D01*
X206862914Y-196300057D01*
X206934342Y-196442914D01*
X207005771Y-196514342D01*
X207148628Y-196585771D01*
X207434342Y-196585771D01*
X207577200Y-196514342D01*
X207648628Y-196442914D01*
X207720057Y-196300057D01*
X207720057Y-195942914D01*
X207648628Y-195800057D01*
X207577200Y-195728628D01*
X207434342Y-195657200D01*
X207148628Y-195657200D01*
X207005771Y-195728628D01*
X206934342Y-195800057D01*
X206862914Y-195942914D01*
X208220057Y-197157200D02*
X208291485Y-197085771D01*
X208434342Y-196871485D01*
X208505771Y-196728628D01*
X208577200Y-196514342D01*
X208648628Y-196157200D01*
X208648628Y-195871485D01*
X208577200Y-195514342D01*
X208505771Y-195300057D01*
X208434342Y-195157200D01*
X208291485Y-194942914D01*
X208220057Y-194871485D01*
X209362914Y-196014342D02*
X210505771Y-196014342D01*
X212005771Y-196585771D02*
X211148628Y-196585771D01*
X211577200Y-196585771D02*
X211577200Y-195085771D01*
X211434342Y-195300057D01*
X211291485Y-195442914D01*
X211148628Y-195514342D01*
D10*
D11*
X177002200Y-191507200D02*
X285002200Y-191507200D01*
D10*
D12*
X264411485Y-193785771D02*
X263911485Y-193071485D01*
X263554342Y-193785771D02*
X263554342Y-192285771D01*
X264125771Y-192285771D01*
X264268628Y-192357200D01*
X264340057Y-192428628D01*
X264411485Y-192571485D01*
X264411485Y-192785771D01*
X264340057Y-192928628D01*
X264268628Y-193000057D01*
X264125771Y-193071485D01*
X263554342Y-193071485D01*
X265625771Y-193714342D02*
X265482914Y-193785771D01*
X265197200Y-193785771D01*
X265054342Y-193714342D01*
X264982914Y-193571485D01*
X264982914Y-193000057D01*
X265054342Y-192857200D01*
X265197200Y-192785771D01*
X265482914Y-192785771D01*
X265625771Y-192857200D01*
X265697200Y-193000057D01*
X265697200Y-193142914D01*
X264982914Y-193285771D01*
X266197200Y-192785771D02*
X266554342Y-193785771D01*
X266911485Y-192785771D01*
X267482914Y-193642914D02*
X267554342Y-193714342D01*
X267482914Y-193785771D01*
X267411485Y-193714342D01*
X267482914Y-193642914D01*
X267482914Y-193785771D01*
X267482914Y-192857200D02*
X267554342Y-192928628D01*
X267482914Y-193000057D01*
X267411485Y-192928628D01*
X267482914Y-192857200D01*
X267482914Y-193000057D01*
X270125771Y-193785771D02*
X269268628Y-193785771D01*
X269697200Y-193785771D02*
X269697200Y-192285771D01*
X269554342Y-192500057D01*
X269411485Y-192642914D01*
X269268628Y-192714342D01*
D10*
D11*
X178362914Y-193714342D02*
X178577200Y-193785771D01*
X178934342Y-193785771D01*
X179077200Y-193714342D01*
X179148628Y-193642914D01*
X179220057Y-193500057D01*
X179220057Y-193357200D01*
X179148628Y-193214342D01*
X179077200Y-193142914D01*
X178934342Y-193071485D01*
X178648628Y-193000057D01*
X178505771Y-192928628D01*
X178434342Y-192857200D01*
X178362914Y-192714342D01*
X178362914Y-192571485D01*
X178434342Y-192428628D01*
X178505771Y-192357200D01*
X178648628Y-192285771D01*
X179005771Y-192285771D01*
X179220057Y-192357200D01*
X179862914Y-193785771D02*
X179862914Y-192785771D01*
X179862914Y-192285771D02*
X179791485Y-192357200D01*
X179862914Y-192428628D01*
X179934342Y-192357200D01*
X179862914Y-192285771D01*
X179862914Y-192428628D01*
X180434342Y-192785771D02*
X181220057Y-192785771D01*
X180434342Y-193785771D01*
X181220057Y-193785771D01*
X182362914Y-193714342D02*
X182220057Y-193785771D01*
X181934342Y-193785771D01*
X181791485Y-193714342D01*
X181720057Y-193571485D01*
X181720057Y-193000057D01*
X181791485Y-192857200D01*
X181934342Y-192785771D01*
X182220057Y-192785771D01*
X182362914Y-192857200D01*
X182434342Y-193000057D01*
X182434342Y-193142914D01*
X181720057Y-193285771D01*
X183077200Y-193642914D02*
X183148628Y-193714342D01*
X183077200Y-193785771D01*
X183005771Y-193714342D01*
X183077200Y-193642914D01*
X183077200Y-193785771D01*
X183077200Y-192857200D02*
X183148628Y-192928628D01*
X183077200Y-193000057D01*
X183005771Y-192928628D01*
X183077200Y-192857200D01*
X183077200Y-193000057D01*
X184862914Y-193357200D02*
X185577200Y-193357200D01*
X184720057Y-193785771D02*
X185220057Y-192285771D01*
X185720057Y-193785771D01*
X186862914Y-192785771D02*
X186862914Y-193785771D01*
X186505771Y-192214342D02*
X186148628Y-193285771D01*
X187077200Y-193285771D01*
D10*
D11*
X263434342Y-196585771D02*
X263434342Y-195085771D01*
X264791485Y-196585771D02*
X264791485Y-195085771D01*
X264791485Y-196514342D02*
X264648628Y-196585771D01*
X264362914Y-196585771D01*
X264220057Y-196514342D01*
X264148628Y-196442914D01*
X264077200Y-196300057D01*
X264077200Y-195871485D01*
X264148628Y-195728628D01*
X264220057Y-195657200D01*
X264362914Y-195585771D01*
X264648628Y-195585771D01*
X264791485Y-195657200D01*
X265505771Y-196442914D02*
X265577200Y-196514342D01*
X265505771Y-196585771D01*
X265434342Y-196514342D01*
X265505771Y-196442914D01*
X265505771Y-196585771D01*
X265505771Y-195657200D02*
X265577200Y-195728628D01*
X265505771Y-195800057D01*
X265434342Y-195728628D01*
X265505771Y-195657200D01*
X265505771Y-195800057D01*
X268148628Y-196585771D02*
X267291485Y-196585771D01*
X267720057Y-196585771D02*
X267720057Y-195085771D01*
X267577200Y-195300057D01*
X267434342Y-195442914D01*
X267291485Y-195514342D01*
X269862914Y-195014342D02*
X268577200Y-196942914D01*
X271148628Y-196585771D02*
X270291485Y-196585771D01*
X270720057Y-196585771D02*
X270720057Y-195085771D01*
X270577200Y-195300057D01*
X270434342Y-195442914D01*
X270291485Y-195514342D01*
D10*
D11*
X177002200Y-187507200D02*
X285002200Y-187507200D01*
D10*
D13*
X178714580Y-188211961D02*
X179857438Y-188211961D01*
X179036009Y-190211961D02*
X179286009Y-188211961D01*
X180274104Y-190211961D02*
X180440771Y-188878628D01*
X180524104Y-188211961D02*
X180416961Y-188307200D01*
X180500295Y-188402438D01*
X180607438Y-188307200D01*
X180524104Y-188211961D01*
X180500295Y-188402438D01*
X181107438Y-188878628D02*
X181869342Y-188878628D01*
X181476485Y-188211961D02*
X181262200Y-189926247D01*
X181333628Y-190116723D01*
X181512200Y-190211961D01*
X181702676Y-190211961D01*
X182655057Y-190211961D02*
X182476485Y-190116723D01*
X182405057Y-189926247D01*
X182619342Y-188211961D01*
X184190771Y-190116723D02*
X183988390Y-190211961D01*
X183607438Y-190211961D01*
X183428866Y-190116723D01*
X183357438Y-189926247D01*
X183452676Y-189164342D01*
X183571723Y-188973866D01*
X183774104Y-188878628D01*
X184155057Y-188878628D01*
X184333628Y-188973866D01*
X184405057Y-189164342D01*
X184381247Y-189354819D01*
X183405057Y-189545295D01*
X185155057Y-190021485D02*
X185238390Y-190116723D01*
X185131247Y-190211961D01*
X185047914Y-190116723D01*
X185155057Y-190021485D01*
X185131247Y-190211961D01*
X185286009Y-188973866D02*
X185369342Y-189069104D01*
X185262200Y-189164342D01*
X185178866Y-189069104D01*
X185286009Y-188973866D01*
X185262200Y-189164342D01*
X189000295Y-188211961D02*
X188750295Y-190211961D01*
X187857438Y-188211961D02*
X187607438Y-190211961D01*
X188940771Y-190211961D01*
X188881247Y-190688152D01*
X189869342Y-188878628D02*
X189702676Y-190211961D01*
X190821723Y-188878628D01*
X190655057Y-190211961D01*
X192428866Y-188211961D02*
X192095533Y-190878628D01*
X192155057Y-188878628D02*
X192536009Y-188878628D01*
X192714580Y-188973866D01*
X192881247Y-189164342D01*
X192952676Y-189354819D01*
X192905057Y-189735771D01*
X192786009Y-189926247D01*
X192571723Y-190116723D01*
X192369342Y-190211961D01*
X191988390Y-190211961D01*
X191809819Y-190116723D01*
X191643152Y-189926247D01*
X191571723Y-189735771D01*
X191619342Y-189354819D01*
X191738390Y-189164342D01*
X191952676Y-188973866D01*
X192155057Y-188878628D01*
X193869342Y-188878628D02*
X193619342Y-190878628D01*
X193857438Y-188973866D02*
X194059819Y-188878628D01*
X194440771Y-188878628D01*
X194619342Y-188973866D01*
X194702676Y-189069104D01*
X194774104Y-189259580D01*
X194702676Y-189831009D01*
X194583628Y-190021485D01*
X194476485Y-190116723D01*
X194274104Y-190211961D01*
X193893152Y-190211961D01*
X193714580Y-190116723D01*
X195797914Y-190211961D02*
X195619342Y-190116723D01*
X195536009Y-190021485D01*
X195464580Y-189831009D01*
X195536009Y-189259580D01*
X195655057Y-189069104D01*
X195762200Y-188973866D01*
X195964580Y-188878628D01*
X196250295Y-188878628D01*
X196428866Y-188973866D01*
X196512200Y-189069104D01*
X196583628Y-189259580D01*
X196512200Y-189831009D01*
X196393152Y-190021485D01*
X196286009Y-190116723D01*
X196083628Y-190211961D01*
X195797914Y-190211961D01*
X197881247Y-189545295D02*
X198155057Y-189640533D01*
X198226485Y-189831009D01*
X198214580Y-189926247D01*
X198095533Y-190116723D01*
X197893152Y-190211961D01*
X197321723Y-190211961D01*
X197488390Y-188878628D01*
X197964580Y-188878628D01*
X198143152Y-188973866D01*
X198214580Y-189164342D01*
X198202676Y-189259580D01*
X198083628Y-189450057D01*
X197881247Y-189545295D01*
X197405057Y-189545295D01*
X199893152Y-190211961D02*
X200024104Y-189164342D01*
X199952676Y-188973866D01*
X199774104Y-188878628D01*
X199393152Y-188878628D01*
X199190771Y-188973866D01*
X199905057Y-190116723D02*
X199702676Y-190211961D01*
X199226485Y-190211961D01*
X199047914Y-190116723D01*
X198976485Y-189926247D01*
X199000295Y-189735771D01*
X199119342Y-189545295D01*
X199321723Y-189450057D01*
X199797914Y-189450057D01*
X200000295Y-189354819D01*
X201619342Y-190116723D02*
X201416961Y-190211961D01*
X201036009Y-190211961D01*
X200857438Y-190116723D01*
X200786009Y-189926247D01*
X200881247Y-189164342D01*
X201000295Y-188973866D01*
X201202676Y-188878628D01*
X201583628Y-188878628D01*
X201762200Y-188973866D01*
X201833628Y-189164342D01*
X201809819Y-189354819D01*
X200833628Y-189545295D01*
X204916961Y-188878628D02*
X204750295Y-190211961D01*
X204155057Y-188878628D02*
X204095533Y-189354819D01*
X204166961Y-189545295D01*
X204345533Y-189640533D01*
X204821723Y-189640533D01*
X206655057Y-190211961D02*
X206786009Y-189164342D01*
X206714580Y-188973866D01*
X206536009Y-188878628D01*
X206155057Y-188878628D01*
X205952676Y-188973866D01*
X206666961Y-190116723D02*
X206464580Y-190211961D01*
X205988390Y-190211961D01*
X205809819Y-190116723D01*
X205738390Y-189926247D01*
X205762200Y-189735771D01*
X205881247Y-189545295D01*
X206083628Y-189450057D01*
X206559819Y-189450057D01*
X206762200Y-189354819D01*
X208476485Y-190116723D02*
X208274104Y-190211961D01*
X207893152Y-190211961D01*
X207714580Y-190116723D01*
X207631247Y-190021485D01*
X207559819Y-189831009D01*
X207631247Y-189259580D01*
X207750295Y-189069104D01*
X207857438Y-188973866D01*
X208059819Y-188878628D01*
X208440771Y-188878628D01*
X208619342Y-188973866D01*
X210821723Y-188878628D02*
X210655057Y-190211961D01*
X209488390Y-188878628D02*
X209321723Y-190211961D01*
X209797914Y-190211961D01*
X210000295Y-190116723D01*
X210119342Y-189926247D01*
X210155057Y-189640533D01*
X210083628Y-189450057D01*
X209905057Y-189354819D01*
X209428866Y-189354819D01*
X214000295Y-190116723D02*
X213797914Y-190211961D01*
X213416961Y-190211961D01*
X213238390Y-190116723D01*
X213155057Y-190021485D01*
X213083628Y-189831009D01*
X213155057Y-189259580D01*
X213274104Y-189069104D01*
X213381247Y-188973866D01*
X213583628Y-188878628D01*
X213964580Y-188878628D01*
X214143152Y-188973866D01*
X217583628Y-188116723D02*
X217476485Y-188211961D01*
X217274104Y-188307200D01*
X216893152Y-188307200D01*
X216690771Y-188402438D01*
X216583628Y-188497676D01*
X216464580Y-188688152D01*
X216321723Y-189831009D01*
X216393152Y-190021485D01*
X216476485Y-190116723D01*
X216655057Y-190211961D01*
X216940771Y-190211961D01*
X217143152Y-190116723D01*
X217250295Y-190021485D01*
X217369342Y-189831009D01*
X217440771Y-189259580D01*
X217369342Y-189069104D01*
X217286009Y-188973866D01*
X217107438Y-188878628D01*
X216726485Y-188878628D01*
X216524104Y-188973866D01*
X216416961Y-189069104D01*
X218155057Y-188878628D02*
X218464580Y-190211961D01*
X219107438Y-188878628D02*
X218464580Y-190211961D01*
X218214580Y-190688152D01*
X218107438Y-190783390D01*
X217905057Y-190878628D01*
X220797914Y-189069104D02*
X220714580Y-188973866D01*
X220536009Y-188878628D01*
X220155057Y-188878628D01*
X219952676Y-188973866D01*
X219845533Y-189069104D01*
X219726485Y-189259580D01*
X219655057Y-189831009D01*
X219726485Y-190021485D01*
X219809819Y-190116723D01*
X219988390Y-190211961D01*
X220274104Y-190211961D01*
X220476485Y-190116723D01*
X220583628Y-190021485D01*
X220702676Y-189831009D01*
X220857438Y-188592914D01*
X220786009Y-188402438D01*
X220702676Y-188307200D01*
X220524104Y-188211961D01*
X220143152Y-188211961D01*
X219940771Y-188307200D01*
X221678866Y-188878628D02*
X221512200Y-190211961D01*
X222631247Y-188878628D01*
X222464580Y-190211961D01*
X224178866Y-190211961D02*
X224345533Y-188878628D01*
X224059819Y-188878628D01*
X223857438Y-188973866D01*
X223738390Y-189164342D01*
X223547914Y-189926247D01*
X223428866Y-190116723D01*
X223226485Y-190211961D01*
X225297914Y-188878628D02*
X225131247Y-190211961D01*
X225607438Y-190211961D01*
X225809819Y-190116723D01*
X225928866Y-189926247D01*
X225964580Y-189640533D01*
X225893152Y-189450057D01*
X225714580Y-189354819D01*
X225238390Y-189354819D01*
X226833628Y-189545295D02*
X227690771Y-189545295D01*
X226916961Y-188878628D02*
X226750295Y-190211961D01*
X227774104Y-188878628D02*
X227607438Y-190211961D01*
X228726485Y-188878628D02*
X228559819Y-190211961D01*
X229678866Y-188878628D01*
X229512199Y-190211961D01*
X230631247Y-188878628D02*
X230464580Y-190211961D01*
X230750295Y-189450057D02*
X231226485Y-190211961D01*
X231393152Y-188878628D02*
X230536009Y-189640533D01*
X232369342Y-190211961D02*
X232190771Y-190116723D01*
X232107438Y-190021485D01*
X232036009Y-189831009D01*
X232107438Y-189259580D01*
X232226485Y-189069104D01*
X232333628Y-188973866D01*
X232536009Y-188878628D01*
X232821723Y-188878628D01*
X233000295Y-188973866D01*
X233083628Y-189069104D01*
X233155057Y-189259580D01*
X233083628Y-189831009D01*
X232964580Y-190021485D01*
X232857438Y-190116723D01*
X232655057Y-190211961D01*
X232369342Y-190211961D01*
X233893152Y-190211961D02*
X234059819Y-188878628D01*
X234500295Y-189926247D01*
X235202676Y-188878628D01*
X235036009Y-190211961D01*
D10*
D11*
X178934342Y-185600057D02*
X178434342Y-185600057D01*
X178434342Y-186385771D02*
X178434342Y-184885771D01*
X179148628Y-184885771D01*
X179720057Y-186385771D02*
X179720057Y-185385771D01*
X179720057Y-184885771D02*
X179648628Y-184957200D01*
X179720057Y-185028628D01*
X179791485Y-184957200D01*
X179720057Y-184885771D01*
X179720057Y-185028628D01*
X180648628Y-186385771D02*
X180505771Y-186314342D01*
X180434342Y-186171485D01*
X180434342Y-184885771D01*
X181791485Y-186314342D02*
X181648628Y-186385771D01*
X181362914Y-186385771D01*
X181220057Y-186314342D01*
X181148628Y-186171485D01*
X181148628Y-185600057D01*
X181220057Y-185457200D01*
X181362914Y-185385771D01*
X181648628Y-185385771D01*
X181791485Y-185457200D01*
X181862914Y-185600057D01*
X181862914Y-185742914D01*
X181148628Y-185885771D01*
X182505771Y-186242914D02*
X182577200Y-186314342D01*
X182505771Y-186385771D01*
X182434342Y-186314342D01*
X182505771Y-186242914D01*
X182505771Y-186385771D01*
X182505771Y-185457200D02*
X182577200Y-185528628D01*
X182505771Y-185600057D01*
X182434342Y-185528628D01*
X182505771Y-185457200D01*
X182505771Y-185600057D01*
X185005771Y-186385771D02*
X185005771Y-185600057D01*
X184934342Y-185457200D01*
X184791485Y-185385771D01*
X184505771Y-185385771D01*
X184362914Y-185457200D01*
X185005771Y-186314342D02*
X184862914Y-186385771D01*
X184505771Y-186385771D01*
X184362914Y-186314342D01*
X184291485Y-186171485D01*
X184291485Y-186028628D01*
X184362914Y-185885771D01*
X184505771Y-185814342D01*
X184862914Y-185814342D01*
X185005771Y-185742914D01*
X185505771Y-185385771D02*
X186077200Y-185385771D01*
X185720057Y-184885771D02*
X185720057Y-186171485D01*
X185791485Y-186314342D01*
X185934342Y-186385771D01*
X186077200Y-186385771D01*
X186362914Y-185385771D02*
X186934342Y-185385771D01*
X186577200Y-184885771D02*
X186577200Y-186171485D01*
X186648628Y-186314342D01*
X186791485Y-186385771D01*
X186934342Y-186385771D01*
X187434342Y-186385771D02*
X187434342Y-185385771D01*
X187434342Y-184885771D02*
X187362914Y-184957200D01*
X187434342Y-185028628D01*
X187505771Y-184957200D01*
X187434342Y-184885771D01*
X187434342Y-185028628D01*
X188148628Y-185385771D02*
X188148628Y-186385771D01*
X188148628Y-185528628D02*
X188220057Y-185457200D01*
X188362914Y-185385771D01*
X188577200Y-185385771D01*
X188720057Y-185457200D01*
X188791485Y-185600057D01*
X188791485Y-186385771D01*
X189362914Y-185385771D02*
X189720057Y-186385771D01*
X190077200Y-185385771D02*
X189720057Y-186385771D01*
X189577200Y-186742914D01*
X189505771Y-186814342D01*
X189362914Y-186885771D01*
X190577200Y-185028628D02*
X190648628Y-184957200D01*
X190791485Y-184885771D01*
X191148628Y-184885771D01*
X191291485Y-184957200D01*
X191362914Y-185028628D01*
X191434342Y-185171485D01*
X191434342Y-185314342D01*
X191362914Y-185528628D01*
X190505771Y-186385771D01*
X191434342Y-186385771D01*
X191934342Y-184885771D02*
X192862914Y-184885771D01*
X192362914Y-185457200D01*
X192577200Y-185457200D01*
X192720057Y-185528628D01*
X192791485Y-185600057D01*
X192862914Y-185742914D01*
X192862914Y-186100057D01*
X192791485Y-186242914D01*
X192720057Y-186314342D01*
X192577200Y-186385771D01*
X192148628Y-186385771D01*
X192005771Y-186314342D01*
X191934342Y-186242914D01*
X194291485Y-186385771D02*
X193434342Y-186385771D01*
X193862914Y-186385771D02*
X193862914Y-184885771D01*
X193720057Y-185100057D01*
X193577200Y-185242914D01*
X193434342Y-185314342D01*
X194791485Y-184885771D02*
X195720057Y-184885771D01*
X195220057Y-185457200D01*
X195434342Y-185457200D01*
X195577200Y-185528628D01*
X195648628Y-185600057D01*
X195720057Y-185742914D01*
X195720057Y-186100057D01*
X195648628Y-186242914D01*
X195577200Y-186314342D01*
X195434342Y-186385771D01*
X195005771Y-186385771D01*
X194862914Y-186314342D01*
X194791485Y-186242914D01*
X196005771Y-186528628D02*
X197148628Y-186528628D01*
X197291485Y-185385771D02*
X197862914Y-185385771D01*
X197505771Y-184885771D02*
X197505771Y-186171485D01*
X197577200Y-186314342D01*
X197720057Y-186385771D01*
X197862914Y-186385771D01*
X198362914Y-186385771D02*
X198362914Y-185385771D01*
X198362914Y-185528628D02*
X198434342Y-185457200D01*
X198577200Y-185385771D01*
X198791485Y-185385771D01*
X198934342Y-185457200D01*
X199005771Y-185600057D01*
X199005771Y-186385771D01*
X199005771Y-185600057D02*
X199077200Y-185457200D01*
X199220057Y-185385771D01*
X199434342Y-185385771D01*
X199577200Y-185457200D01*
X199648628Y-185600057D01*
X199648628Y-186385771D01*
X201148628Y-186385771D02*
X200291485Y-186385771D01*
X200720057Y-186385771D02*
X200720057Y-184885771D01*
X200577200Y-185100057D01*
X200434342Y-185242914D01*
X200291485Y-185314342D01*
X202434342Y-184885771D02*
X202148628Y-184885771D01*
X202005771Y-184957200D01*
X201934342Y-185028628D01*
X201791485Y-185242914D01*
X201720057Y-185528628D01*
X201720057Y-186100057D01*
X201791485Y-186242914D01*
X201862914Y-186314342D01*
X202005771Y-186385771D01*
X202291485Y-186385771D01*
X202434342Y-186314342D01*
X202505771Y-186242914D01*
X202577200Y-186100057D01*
X202577200Y-185742914D01*
X202505771Y-185600057D01*
X202434342Y-185528628D01*
X202291485Y-185457200D01*
X202005771Y-185457200D01*
X201862914Y-185528628D01*
X201791485Y-185600057D01*
X201720057Y-185742914D01*
X203077200Y-184885771D02*
X204005771Y-184885771D01*
X203505771Y-185457200D01*
X203720057Y-185457200D01*
X203862914Y-185528628D01*
X203934342Y-185600057D01*
X204005771Y-185742914D01*
X204005771Y-186100057D01*
X203934342Y-186242914D01*
X203862914Y-186314342D01*
X203720057Y-186385771D01*
X203291485Y-186385771D01*
X203148628Y-186314342D01*
X203077200Y-186242914D01*
X204505771Y-184885771D02*
X205505771Y-184885771D01*
X204862914Y-186385771D01*
X205720057Y-186528628D02*
X206862914Y-186528628D01*
X207862914Y-186385771D02*
X207862914Y-184885771D01*
X207862914Y-186314342D02*
X207720057Y-186385771D01*
X207434342Y-186385771D01*
X207291485Y-186314342D01*
X207220057Y-186242914D01*
X207148628Y-186100057D01*
X207148628Y-185671485D01*
X207220057Y-185528628D01*
X207291485Y-185457200D01*
X207434342Y-185385771D01*
X207720057Y-185385771D01*
X207862914Y-185457200D01*
X208505771Y-186314342D02*
X208648628Y-186385771D01*
X208934342Y-186385771D01*
X209077200Y-186314342D01*
X209148628Y-186171485D01*
X209148628Y-186100057D01*
X209077200Y-185957200D01*
X208934342Y-185885771D01*
X208720057Y-185885771D01*
X208577200Y-185814342D01*
X208505771Y-185671485D01*
X208505771Y-185600057D01*
X208577200Y-185457200D01*
X208720057Y-185385771D01*
X208934342Y-185385771D01*
X209077200Y-185457200D01*
X210577200Y-186385771D02*
X209720057Y-186385771D01*
X210148628Y-186385771D02*
X210148628Y-184885771D01*
X210005771Y-185100057D01*
X209862914Y-185242914D01*
X209720057Y-185314342D01*
X211077200Y-184885771D02*
X212005771Y-184885771D01*
X211505771Y-185457200D01*
X211720057Y-185457200D01*
X211862914Y-185528628D01*
X211934342Y-185600057D01*
X212005771Y-185742914D01*
X212005771Y-186100057D01*
X211934342Y-186242914D01*
X211862914Y-186314342D01*
X211720057Y-186385771D01*
X211291485Y-186385771D01*
X211148628Y-186314342D01*
X211077200Y-186242914D01*
X212934342Y-184885771D02*
X213077200Y-184885771D01*
X213220057Y-184957200D01*
X213291485Y-185028628D01*
X213362914Y-185171485D01*
X213434342Y-185457200D01*
X213434342Y-185814342D01*
X213362914Y-186100057D01*
X213291485Y-186242914D01*
X213220057Y-186314342D01*
X213077200Y-186385771D01*
X212934342Y-186385771D01*
X212791485Y-186314342D01*
X212720057Y-186242914D01*
X212648628Y-186100057D01*
X212577200Y-185814342D01*
X212577200Y-185457200D01*
X212648628Y-185171485D01*
X212720057Y-185028628D01*
X212791485Y-184957200D01*
X212934342Y-184885771D01*
X214005771Y-185028628D02*
X214077200Y-184957200D01*
X214220057Y-184885771D01*
X214577200Y-184885771D01*
X214720057Y-184957200D01*
X214791485Y-185028628D01*
X214862914Y-185171485D01*
X214862914Y-185314342D01*
X214791485Y-185528628D01*
X213934342Y-186385771D01*
X214862914Y-186385771D01*
X215505771Y-186242914D02*
X215577200Y-186314342D01*
X215505771Y-186385771D01*
X215434342Y-186314342D01*
X215505771Y-186242914D01*
X215505771Y-186385771D01*
X216220057Y-186385771D02*
X216220057Y-184885771D01*
X216362914Y-185814342D02*
X216791485Y-186385771D01*
X216791485Y-185385771D02*
X216220057Y-185957200D01*
X217434342Y-186385771D02*
X217434342Y-185385771D01*
X217434342Y-184885771D02*
X217362914Y-184957200D01*
X217434342Y-185028628D01*
X217505771Y-184957200D01*
X217434342Y-184885771D01*
X217434342Y-185028628D01*
X218791485Y-186314342D02*
X218648628Y-186385771D01*
X218362914Y-186385771D01*
X218220057Y-186314342D01*
X218148628Y-186242914D01*
X218077200Y-186100057D01*
X218077200Y-185671485D01*
X218148628Y-185528628D01*
X218220057Y-185457200D01*
X218362914Y-185385771D01*
X218648628Y-185385771D01*
X218791485Y-185457200D01*
X220077200Y-186385771D02*
X220077200Y-185600057D01*
X220005771Y-185457200D01*
X219862914Y-185385771D01*
X219577200Y-185385771D01*
X219434342Y-185457200D01*
X220077200Y-186314342D02*
X219934342Y-186385771D01*
X219577200Y-186385771D01*
X219434342Y-186314342D01*
X219362914Y-186171485D01*
X219362914Y-186028628D01*
X219434342Y-185885771D01*
X219577200Y-185814342D01*
X219934342Y-185814342D01*
X220077200Y-185742914D01*
X221434342Y-186385771D02*
X221434342Y-184885771D01*
X221434342Y-186314342D02*
X221291485Y-186385771D01*
X221005771Y-186385771D01*
X220862914Y-186314342D01*
X220791485Y-186242914D01*
X220720057Y-186100057D01*
X220720057Y-185671485D01*
X220791485Y-185528628D01*
X220862914Y-185457200D01*
X221005771Y-185385771D01*
X221291485Y-185385771D01*
X221434342Y-185457200D01*
X221791485Y-186528628D02*
X222934342Y-186528628D01*
X223291485Y-185385771D02*
X223291485Y-186885771D01*
X223291485Y-185457200D02*
X223434342Y-185385771D01*
X223720057Y-185385771D01*
X223862914Y-185457200D01*
X223934342Y-185528628D01*
X224005771Y-185671485D01*
X224005771Y-186100057D01*
X223934342Y-186242914D01*
X223862914Y-186314342D01*
X223720057Y-186385771D01*
X223434342Y-186385771D01*
X223291485Y-186314342D01*
X225291485Y-186314342D02*
X225148628Y-186385771D01*
X224862914Y-186385771D01*
X224720057Y-186314342D01*
X224648628Y-186242914D01*
X224577200Y-186100057D01*
X224577200Y-185671485D01*
X224648628Y-185528628D01*
X224720057Y-185457200D01*
X224862914Y-185385771D01*
X225148628Y-185385771D01*
X225291485Y-185457200D01*
X225934342Y-186385771D02*
X225934342Y-184885771D01*
X225934342Y-185457200D02*
X226077200Y-185385771D01*
X226362914Y-185385771D01*
X226505771Y-185457200D01*
X226577200Y-185528628D01*
X226648628Y-185671485D01*
X226648628Y-186100057D01*
X226577200Y-186242914D01*
X226505771Y-186314342D01*
X226362914Y-186385771D01*
X226077200Y-186385771D01*
X225934342Y-186314342D01*
D10*
D11*
X177002200Y-181507200D02*
X285002200Y-181507200D01*
D10*
D11*
X178362914Y-183614342D02*
X178577200Y-183685771D01*
X178934342Y-183685771D01*
X179077200Y-183614342D01*
X179148628Y-183542914D01*
X179220057Y-183400057D01*
X179220057Y-183257200D01*
X179148628Y-183114342D01*
X179077200Y-183042914D01*
X178934342Y-182971485D01*
X178648628Y-182900057D01*
X178505771Y-182828628D01*
X178434342Y-182757200D01*
X178362914Y-182614342D01*
X178362914Y-182471485D01*
X178434342Y-182328628D01*
X178505771Y-182257200D01*
X178648628Y-182185771D01*
X179005771Y-182185771D01*
X179220057Y-182257200D01*
X179862914Y-183685771D02*
X179862914Y-182185771D01*
X180505771Y-183685771D02*
X180505771Y-182900057D01*
X180434342Y-182757200D01*
X180291485Y-182685771D01*
X180077200Y-182685771D01*
X179934342Y-182757200D01*
X179862914Y-182828628D01*
X181791485Y-183614342D02*
X181648628Y-183685771D01*
X181362914Y-183685771D01*
X181220057Y-183614342D01*
X181148628Y-183471485D01*
X181148628Y-182900057D01*
X181220057Y-182757200D01*
X181362914Y-182685771D01*
X181648628Y-182685771D01*
X181791485Y-182757200D01*
X181862914Y-182900057D01*
X181862914Y-183042914D01*
X181148628Y-183185771D01*
X183077200Y-183614342D02*
X182934342Y-183685771D01*
X182648628Y-183685771D01*
X182505771Y-183614342D01*
X182434342Y-183471485D01*
X182434342Y-182900057D01*
X182505771Y-182757200D01*
X182648628Y-182685771D01*
X182934342Y-182685771D01*
X183077200Y-182757200D01*
X183148628Y-182900057D01*
X183148628Y-183042914D01*
X182434342Y-183185771D01*
X183577200Y-182685771D02*
X184148628Y-182685771D01*
X183791485Y-182185771D02*
X183791485Y-183471485D01*
X183862914Y-183614342D01*
X184005771Y-183685771D01*
X184148628Y-183685771D01*
X184648628Y-183542914D02*
X184720057Y-183614342D01*
X184648628Y-183685771D01*
X184577200Y-183614342D01*
X184648628Y-183542914D01*
X184648628Y-183685771D01*
X184648628Y-182757200D02*
X184720057Y-182828628D01*
X184648628Y-182900057D01*
X184577200Y-182828628D01*
X184648628Y-182757200D01*
X184648628Y-182900057D01*
D10*
D11*
X178934342Y-173900057D02*
X179148628Y-173971485D01*
X179220057Y-174042914D01*
X179291485Y-174185771D01*
X179291485Y-174400057D01*
X179220057Y-174542914D01*
X179148628Y-174614342D01*
X179005771Y-174685771D01*
X178434342Y-174685771D01*
X178434342Y-173185771D01*
X178934342Y-173185771D01*
X179077200Y-173257200D01*
X179148628Y-173328628D01*
X179220057Y-173471485D01*
X179220057Y-173614342D01*
X179148628Y-173757200D01*
X179077200Y-173828628D01*
X178934342Y-173900057D01*
X178434342Y-173900057D01*
X180505771Y-174614342D02*
X180362914Y-174685771D01*
X180077200Y-174685771D01*
X179934342Y-174614342D01*
X179862914Y-174471485D01*
X179862914Y-173900057D01*
X179934342Y-173757200D01*
X180077200Y-173685771D01*
X180362914Y-173685771D01*
X180505771Y-173757200D01*
X180577200Y-173900057D01*
X180577200Y-174042914D01*
X179862914Y-174185771D01*
X181220057Y-173685771D02*
X181220057Y-175185771D01*
X181220057Y-173757200D02*
X181362914Y-173685771D01*
X181648628Y-173685771D01*
X181791485Y-173757200D01*
X181862914Y-173828628D01*
X181934342Y-173971485D01*
X181934342Y-174400057D01*
X181862914Y-174542914D01*
X181791485Y-174614342D01*
X181648628Y-174685771D01*
X181362914Y-174685771D01*
X181220057Y-174614342D01*
X183291485Y-173114342D02*
X183220057Y-173185771D01*
X183077200Y-173257200D01*
X182791485Y-173257200D01*
X182648628Y-173328628D01*
X182577200Y-173400057D01*
X182505771Y-173542914D01*
X182505771Y-174400057D01*
X182577200Y-174542914D01*
X182648628Y-174614342D01*
X182791485Y-174685771D01*
X183005771Y-174685771D01*
X183148628Y-174614342D01*
X183220057Y-174542914D01*
X183291485Y-174400057D01*
X183291485Y-173971485D01*
X183220057Y-173828628D01*
X183148628Y-173757200D01*
X183005771Y-173685771D01*
X182720057Y-173685771D01*
X182577200Y-173757200D01*
X182505771Y-173828628D01*
X183934342Y-173685771D02*
X183934342Y-174685771D01*
X184077200Y-174114342D02*
X184505771Y-174685771D01*
X184505771Y-173685771D02*
X183934342Y-174257200D01*
X185148628Y-173685771D02*
X185148628Y-174685771D01*
X185862914Y-173685771D01*
X185862914Y-174685771D01*
X186577200Y-174185771D02*
X187220057Y-174185771D01*
X186577200Y-173685771D02*
X186577200Y-174685771D01*
X187220057Y-173685771D02*
X187220057Y-174685771D01*
X189077200Y-174685771D02*
X189077200Y-173185771D01*
X189577200Y-174257200D01*
X190077200Y-173185771D01*
X190077200Y-174685771D01*
X190791485Y-174542914D02*
X190862914Y-174614342D01*
X190791485Y-174685771D01*
X190720057Y-174614342D01*
X190791485Y-174542914D01*
X190791485Y-174685771D01*
X192362914Y-174542914D02*
X192291485Y-174614342D01*
X192077200Y-174685771D01*
X191934342Y-174685771D01*
X191720057Y-174614342D01*
X191577200Y-174471485D01*
X191505771Y-174328628D01*
X191434342Y-174042914D01*
X191434342Y-173828628D01*
X191505771Y-173542914D01*
X191577200Y-173400057D01*
X191720057Y-173257200D01*
X191934342Y-173185771D01*
X192077200Y-173185771D01*
X192291485Y-173257200D01*
X192362914Y-173328628D01*
X193005771Y-174542914D02*
X193077200Y-174614342D01*
X193005771Y-174685771D01*
X192934342Y-174614342D01*
X193005771Y-174542914D01*
X193005771Y-174685771D01*
D10*
D11*
X197002200Y-191507200D02*
X197002200Y-194507200D01*
D10*
D11*
X261002200Y-191507200D02*
X261002200Y-198007200D01*
X111799761Y-84177142D02*
X111752142Y-84224761D01*
X111609285Y-84272380D01*
X111514047Y-84272380D01*
X111371190Y-84224761D01*
X111275952Y-84129523D01*
X111228333Y-84034285D01*
X111180714Y-83843809D01*
X111180714Y-83700952D01*
X111228333Y-83510476D01*
X111275952Y-83415238D01*
X111371190Y-83320000D01*
X111514047Y-83272380D01*
X111609285Y-83272380D01*
X111752142Y-83320000D01*
X111799761Y-83367619D01*
X112704523Y-84272380D02*
X112228333Y-84272380D01*
X112228333Y-83272380D01*
X113037857Y-84272380D02*
X113037857Y-83272380D01*
X113609285Y-84272380D02*
X113180714Y-83700952D01*
X113609285Y-83272380D02*
X113037857Y-83843809D01*
X111371190Y-81732380D02*
X111371190Y-80732380D01*
X111609285Y-80732380D01*
X111752142Y-80780000D01*
X111847380Y-80875238D01*
X111895000Y-80970476D01*
X111942619Y-81160952D01*
X111942619Y-81303809D01*
X111895000Y-81494285D01*
X111847380Y-81589523D01*
X111752142Y-81684761D01*
X111609285Y-81732380D01*
X111371190Y-81732380D01*
X112371190Y-81732380D02*
X112371190Y-80732380D01*
X113037857Y-80732380D02*
X113228333Y-80732380D01*
X113323571Y-80780000D01*
X113418809Y-80875238D01*
X113466428Y-81065714D01*
X113466428Y-81399047D01*
X113418809Y-81589523D01*
X113323571Y-81684761D01*
X113228333Y-81732380D01*
X113037857Y-81732380D01*
X112942619Y-81684761D01*
X112847380Y-81589523D01*
X112799761Y-81399047D01*
X112799761Y-81065714D01*
X112847380Y-80875238D01*
X112942619Y-80780000D01*
X113037857Y-80732380D01*
X111633095Y-78240000D02*
X111537857Y-78192380D01*
X111395000Y-78192380D01*
X111252142Y-78240000D01*
X111156904Y-78335238D01*
X111109285Y-78430476D01*
X111061666Y-78620952D01*
X111061666Y-78763809D01*
X111109285Y-78954285D01*
X111156904Y-79049523D01*
X111252142Y-79144761D01*
X111395000Y-79192380D01*
X111490238Y-79192380D01*
X111633095Y-79144761D01*
X111680714Y-79097142D01*
X111680714Y-78763809D01*
X111490238Y-78763809D01*
X112109285Y-79192380D02*
X112109285Y-78192380D01*
X112680714Y-79192380D01*
X112680714Y-78192380D01*
X113156904Y-79192380D02*
X113156904Y-78192380D01*
X113395000Y-78192380D01*
X113537857Y-78240000D01*
X113633095Y-78335238D01*
X113680714Y-78430476D01*
X113728333Y-78620952D01*
X113728333Y-78763809D01*
X113680714Y-78954285D01*
X113633095Y-79049523D01*
X113537857Y-79144761D01*
X113395000Y-79192380D01*
X113156904Y-79192380D01*
X107886666Y-73112380D02*
X108220000Y-74112380D01*
X108553333Y-73112380D01*
X109458095Y-74017142D02*
X109410476Y-74064761D01*
X109267619Y-74112380D01*
X109172380Y-74112380D01*
X109029523Y-74064761D01*
X108934285Y-73969523D01*
X108886666Y-73874285D01*
X108839047Y-73683809D01*
X108839047Y-73540952D01*
X108886666Y-73350476D01*
X108934285Y-73255238D01*
X109029523Y-73160000D01*
X109172380Y-73112380D01*
X109267619Y-73112380D01*
X109410476Y-73160000D01*
X109458095Y-73207619D01*
X110458095Y-74017142D02*
X110410476Y-74064761D01*
X110267619Y-74112380D01*
X110172380Y-74112380D01*
X110029523Y-74064761D01*
X109934285Y-73969523D01*
X109886666Y-73874285D01*
X109839047Y-73683809D01*
X109839047Y-73540952D01*
X109886666Y-73350476D01*
X109934285Y-73255238D01*
X110029523Y-73160000D01*
X110172380Y-73112380D01*
X110267619Y-73112380D01*
X110410476Y-73160000D01*
X110458095Y-73207619D01*
X162885380Y-83026285D02*
X162885380Y-83597714D01*
X162885380Y-83312000D02*
X161885380Y-83312000D01*
X162028238Y-83407238D01*
X162123476Y-83502476D01*
X162171095Y-83597714D01*
X162218714Y-94805523D02*
X162885380Y-94805523D01*
X161837761Y-95043619D02*
X162552047Y-95281714D01*
X162552047Y-94662666D01*
X148621714Y-93416380D02*
X148050285Y-93416380D01*
X148336000Y-93416380D02*
X148336000Y-92416380D01*
X148240761Y-92559238D01*
X148145523Y-92654476D01*
X148050285Y-92702095D01*
X137096476Y-93003714D02*
X137096476Y-93670380D01*
X136858380Y-92622761D02*
X136620285Y-93337047D01*
X137239333Y-93337047D01*
X161980571Y-81327238D02*
X162028190Y-81184380D01*
X162075809Y-81136761D01*
X162171047Y-81089142D01*
X162313904Y-81089142D01*
X162409142Y-81136761D01*
X162456761Y-81184380D01*
X162504380Y-81279619D01*
X162504380Y-81660571D01*
X161504380Y-81660571D01*
X161504380Y-81327238D01*
X161552000Y-81232000D01*
X161599619Y-81184380D01*
X161694857Y-81136761D01*
X161790095Y-81136761D01*
X161885333Y-81184380D01*
X161932952Y-81232000D01*
X161980571Y-81327238D01*
X161980571Y-81660571D01*
X161837714Y-80803428D02*
X161837714Y-80422476D01*
X161504380Y-80660571D02*
X162361523Y-80660571D01*
X162456761Y-80612952D01*
X162504380Y-80517714D01*
X162504380Y-80422476D01*
X161837714Y-80089142D02*
X162504380Y-80089142D01*
X161932952Y-80089142D02*
X161885333Y-80041523D01*
X161837714Y-79946285D01*
X161837714Y-79803428D01*
X161885333Y-79708190D01*
X161980571Y-79660571D01*
X162504380Y-79660571D01*
X161837714Y-78422476D02*
X162837714Y-78422476D01*
X161885333Y-78422476D02*
X161837714Y-78327238D01*
X161837714Y-78136761D01*
X161885333Y-78041523D01*
X161932952Y-77993904D01*
X162028190Y-77946285D01*
X162313904Y-77946285D01*
X162409142Y-77993904D01*
X162456761Y-78041523D01*
X162504380Y-78136761D01*
X162504380Y-78327238D01*
X162456761Y-78422476D01*
X162504380Y-77089142D02*
X161980571Y-77089142D01*
X161885333Y-77136761D01*
X161837714Y-77232000D01*
X161837714Y-77422476D01*
X161885333Y-77517714D01*
X162456761Y-77089142D02*
X162504380Y-77184380D01*
X162504380Y-77422476D01*
X162456761Y-77517714D01*
X162361523Y-77565333D01*
X162266285Y-77565333D01*
X162171047Y-77517714D01*
X162123428Y-77422476D01*
X162123428Y-77184380D01*
X162075809Y-77089142D01*
X161837714Y-76612952D02*
X162504380Y-76612952D01*
X161932952Y-76612952D02*
X161885333Y-76565333D01*
X161837714Y-76470095D01*
X161837714Y-76327238D01*
X161885333Y-76232000D01*
X161980571Y-76184380D01*
X162504380Y-76184380D01*
X162456761Y-75327238D02*
X162504380Y-75422476D01*
X162504380Y-75612952D01*
X162456761Y-75708190D01*
X162361523Y-75755809D01*
X161980571Y-75755809D01*
X161885333Y-75708190D01*
X161837714Y-75612952D01*
X161837714Y-75422476D01*
X161885333Y-75327238D01*
X161980571Y-75279619D01*
X162075809Y-75279619D01*
X162171047Y-75755809D01*
X162504380Y-74708190D02*
X162456761Y-74803428D01*
X162361523Y-74851047D01*
X161504380Y-74851047D01*
X149693619Y-89352380D02*
X149693619Y-88685714D01*
X149693619Y-88876190D02*
X149741238Y-88780952D01*
X149788857Y-88733333D01*
X149884095Y-88685714D01*
X149979333Y-88685714D01*
X150693619Y-89304761D02*
X150598380Y-89352380D01*
X150407904Y-89352380D01*
X150312666Y-89304761D01*
X150265047Y-89209523D01*
X150265047Y-88828571D01*
X150312666Y-88733333D01*
X150407904Y-88685714D01*
X150598380Y-88685714D01*
X150693619Y-88733333D01*
X150741238Y-88828571D01*
X150741238Y-88923809D01*
X150265047Y-89019047D01*
X151074571Y-88685714D02*
X151312666Y-89352380D01*
X151550761Y-88685714D01*
X153217428Y-89352380D02*
X152646000Y-89352380D01*
X152931714Y-89352380D02*
X152931714Y-88352380D01*
X152836476Y-88495238D01*
X152741238Y-88590476D01*
X152646000Y-88638095D01*
X153646000Y-89257142D02*
X153693619Y-89304761D01*
X153646000Y-89352380D01*
X153598380Y-89304761D01*
X153646000Y-89257142D01*
X153646000Y-89352380D01*
X154312666Y-88352380D02*
X154407904Y-88352380D01*
X154503142Y-88400000D01*
X154550761Y-88447619D01*
X154598380Y-88542857D01*
X154646000Y-88733333D01*
X154646000Y-88971428D01*
X154598380Y-89161904D01*
X154550761Y-89257142D01*
X154503142Y-89304761D01*
X154407904Y-89352380D01*
X154312666Y-89352380D01*
X154217428Y-89304761D01*
X154169809Y-89257142D01*
X154122190Y-89161904D01*
X154074571Y-88971428D01*
X154074571Y-88733333D01*
X154122190Y-88542857D01*
X154169809Y-88447619D01*
X154217428Y-88400000D01*
X154312666Y-88352380D01*
D14*
%TO.C,R1*%
X108300000Y-86980000D02*
X108300000Y-90820000D01*
X110140000Y-86980000D02*
X110140000Y-90820000D01*
%TO.C,BZ1*%
X156605000Y-78105000D02*
G75*
G03*
X156605000Y-78105000I-6100000J0D01*
G01*
%TO.C,R2*%
X129890000Y-77455000D02*
X129890000Y-81295000D01*
X131730000Y-77455000D02*
X131730000Y-81295000D01*
%TO.C,J4*%
X110490000Y-85090000D02*
X107950000Y-85090000D01*
X110490000Y-74930000D02*
X110490000Y-85090000D01*
X107950000Y-74930000D02*
X110490000Y-74930000D01*
X107950000Y-85090000D02*
X107950000Y-74930000D01*
%TO.C,Q1*%
X140694000Y-89226000D02*
X144294000Y-89226000D01*
X144332478Y-89214478D02*
G75*
G03*
X142494000Y-84776000I-1838478J1838478D01*
G01*
X140655522Y-89214478D02*
G75*
G02*
X142494000Y-84776000I1838478J1838478D01*
G01*
%TO.C,RV1*%
X143300000Y-72331000D02*
X143300000Y-82101000D01*
X133530000Y-72331000D02*
X133530000Y-82101000D01*
X133530000Y-82101000D02*
X143300000Y-82101000D01*
X133530000Y-72331000D02*
X143300000Y-72331000D01*
%TO.C,U2*%
X128838000Y-77994000D02*
X128838000Y-76344000D01*
X128838000Y-76344000D02*
X118558000Y-76344000D01*
X118558000Y-76344000D02*
X118558000Y-81644000D01*
X118558000Y-81644000D02*
X128838000Y-81644000D01*
X128838000Y-81644000D02*
X128838000Y-79994000D01*
X128838000Y-79994000D02*
G75*
G02*
X128838000Y-77994000I0J1000000D01*
G01*
%TO.C,U1*%
X110938000Y-90662000D02*
X110938000Y-92312000D01*
X110938000Y-92312000D02*
X136458000Y-92312000D01*
X136458000Y-92312000D02*
X136458000Y-87012000D01*
X136458000Y-87012000D02*
X110938000Y-87012000D01*
X110938000Y-87012000D02*
X110938000Y-88662000D01*
X110938000Y-88662000D02*
G75*
G02*
X110938000Y-90662000I0J-1000000D01*
G01*
%TO.C,Y1*%
X116708000Y-74052000D02*
X116708000Y-73852000D01*
X116108000Y-74952000D02*
X116708000Y-74052000D01*
X114808000Y-74052000D02*
X114808000Y-73852000D01*
X115408000Y-74952000D02*
X114808000Y-74052000D01*
X116988000Y-74952000D02*
X114528000Y-74952000D01*
X116988000Y-81852000D02*
X116988000Y-74952000D01*
X114528000Y-81852000D02*
X116988000Y-81852000D01*
X114528000Y-74952000D02*
X114528000Y-81852000D01*
%TO.C,J2*%
X147574000Y-91694000D02*
X147574000Y-94234000D01*
X137414000Y-91694000D02*
X147574000Y-91694000D01*
X137414000Y-94234000D02*
X137414000Y-91694000D01*
X147574000Y-94234000D02*
X137414000Y-94234000D01*
%TO.C,J1*%
X111125000Y-72390000D02*
X113665000Y-72390000D01*
X111125000Y-77470000D02*
X111125000Y-72390000D01*
X113665000Y-77470000D02*
X111125000Y-77470000D01*
X113665000Y-72390000D02*
X113665000Y-77470000D01*
%TO.C,J3*%
X161163000Y-84074000D02*
X163703000Y-84074000D01*
X161163000Y-94234000D02*
X161163000Y-84074000D01*
X163703000Y-94234000D02*
X161163000Y-94234000D01*
X163703000Y-84074000D02*
X163703000Y-94234000D01*
%TO.C,SW_2*%
X169315000Y-85960000D02*
X167815000Y-85960000D01*
X165315000Y-87210000D02*
X165315000Y-91710000D01*
X167815000Y-92960000D02*
X169315000Y-92960000D01*
X171815000Y-91710000D02*
X171815000Y-87210000D01*
%TO.C,SW_1*%
X169315000Y-73260000D02*
X167815000Y-73260000D01*
X165315000Y-74510000D02*
X165315000Y-79010000D01*
X167815000Y-80260000D02*
X169315000Y-80260000D01*
X171815000Y-79010000D02*
X171815000Y-74510000D01*
%TO.C,R1*%
D11*
X111592380Y-89066666D02*
X111116190Y-89400000D01*
X111592380Y-89638095D02*
X110592380Y-89638095D01*
X110592380Y-89257142D01*
X110640000Y-89161904D01*
X110687619Y-89114285D01*
X110782857Y-89066666D01*
X110925714Y-89066666D01*
X111020952Y-89114285D01*
X111068571Y-89161904D01*
X111116190Y-89257142D01*
X111116190Y-89638095D01*
X111592380Y-88114285D02*
X111592380Y-88685714D01*
X111592380Y-88400000D02*
X110592380Y-88400000D01*
X110735238Y-88495238D01*
X110830476Y-88590476D01*
X110878095Y-88685714D01*
%TO.C,BZ1*%
X149624047Y-78033571D02*
X149766904Y-78081190D01*
X149814523Y-78128809D01*
X149862142Y-78224047D01*
X149862142Y-78366904D01*
X149814523Y-78462142D01*
X149766904Y-78509761D01*
X149671666Y-78557380D01*
X149290714Y-78557380D01*
X149290714Y-77557380D01*
X149624047Y-77557380D01*
X149719285Y-77605000D01*
X149766904Y-77652619D01*
X149814523Y-77747857D01*
X149814523Y-77843095D01*
X149766904Y-77938333D01*
X149719285Y-77985952D01*
X149624047Y-78033571D01*
X149290714Y-78033571D01*
X150195476Y-77557380D02*
X150862142Y-77557380D01*
X150195476Y-78557380D01*
X150862142Y-78557380D01*
X151766904Y-78557380D02*
X151195476Y-78557380D01*
X151481190Y-78557380D02*
X151481190Y-77557380D01*
X151385952Y-77700238D01*
X151290714Y-77795476D01*
X151195476Y-77843095D01*
X150876047Y-81732428D02*
X151637952Y-81732428D01*
X151257000Y-82113380D02*
X151257000Y-81351476D01*
%TO.C,R2*%
X133182380Y-79541666D02*
X132706190Y-79875000D01*
X133182380Y-80113095D02*
X132182380Y-80113095D01*
X132182380Y-79732142D01*
X132230000Y-79636904D01*
X132277619Y-79589285D01*
X132372857Y-79541666D01*
X132515714Y-79541666D01*
X132610952Y-79589285D01*
X132658571Y-79636904D01*
X132706190Y-79732142D01*
X132706190Y-80113095D01*
X132277619Y-79160714D02*
X132230000Y-79113095D01*
X132182380Y-79017857D01*
X132182380Y-78779761D01*
X132230000Y-78684523D01*
X132277619Y-78636904D01*
X132372857Y-78589285D01*
X132468095Y-78589285D01*
X132610952Y-78636904D01*
X133182380Y-79208333D01*
X133182380Y-78589285D01*
%TO.C,J4*%
X106132380Y-76533333D02*
X106846666Y-76533333D01*
X106989523Y-76580952D01*
X107084761Y-76676190D01*
X107132380Y-76819047D01*
X107132380Y-76914285D01*
X106465714Y-75628571D02*
X107132380Y-75628571D01*
X106084761Y-75866666D02*
X106799047Y-76104761D01*
X106799047Y-75485714D01*
%TO.C,Q1*%
X142398761Y-84363619D02*
X142303523Y-84316000D01*
X142208285Y-84220761D01*
X142065428Y-84077904D01*
X141970190Y-84030285D01*
X141874952Y-84030285D01*
X141922571Y-84268380D02*
X141827333Y-84220761D01*
X141732095Y-84125523D01*
X141684476Y-83935047D01*
X141684476Y-83601714D01*
X141732095Y-83411238D01*
X141827333Y-83316000D01*
X141922571Y-83268380D01*
X142113047Y-83268380D01*
X142208285Y-83316000D01*
X142303523Y-83411238D01*
X142351142Y-83601714D01*
X142351142Y-83935047D01*
X142303523Y-84125523D01*
X142208285Y-84220761D01*
X142113047Y-84268380D01*
X141922571Y-84268380D01*
X143303523Y-84268380D02*
X142732095Y-84268380D01*
X143017809Y-84268380D02*
X143017809Y-83268380D01*
X142922571Y-83411238D01*
X142827333Y-83506476D01*
X142732095Y-83554095D01*
%TO.C,RV1*%
X137199761Y-77287380D02*
X136866428Y-76811190D01*
X136628333Y-77287380D02*
X136628333Y-76287380D01*
X137009285Y-76287380D01*
X137104523Y-76335000D01*
X137152142Y-76382619D01*
X137199761Y-76477857D01*
X137199761Y-76620714D01*
X137152142Y-76715952D01*
X137104523Y-76763571D01*
X137009285Y-76811190D01*
X136628333Y-76811190D01*
X137485476Y-76287380D02*
X137818809Y-77287380D01*
X138152142Y-76287380D01*
X139009285Y-77287380D02*
X138437857Y-77287380D01*
X138723571Y-77287380D02*
X138723571Y-76287380D01*
X138628333Y-76430238D01*
X138533095Y-76525476D01*
X138437857Y-76573095D01*
%TO.C,U2*%
X125222095Y-79716380D02*
X125222095Y-80525904D01*
X125269714Y-80621142D01*
X125317333Y-80668761D01*
X125412571Y-80716380D01*
X125603047Y-80716380D01*
X125698285Y-80668761D01*
X125745904Y-80621142D01*
X125793523Y-80525904D01*
X125793523Y-79716380D01*
X126222095Y-79811619D02*
X126269714Y-79764000D01*
X126364952Y-79716380D01*
X126603047Y-79716380D01*
X126698285Y-79764000D01*
X126745904Y-79811619D01*
X126793523Y-79906857D01*
X126793523Y-80002095D01*
X126745904Y-80144952D01*
X126174476Y-80716380D01*
X126793523Y-80716380D01*
%TO.C,U1*%
X122936095Y-90384380D02*
X122936095Y-91193904D01*
X122983714Y-91289142D01*
X123031333Y-91336761D01*
X123126571Y-91384380D01*
X123317047Y-91384380D01*
X123412285Y-91336761D01*
X123459904Y-91289142D01*
X123507523Y-91193904D01*
X123507523Y-90384380D01*
X124507523Y-91384380D02*
X123936095Y-91384380D01*
X124221809Y-91384380D02*
X124221809Y-90384380D01*
X124126571Y-90527238D01*
X124031333Y-90622476D01*
X123936095Y-90670095D01*
%TO.C,Y1*%
X115800190Y-78708190D02*
X116276380Y-78708190D01*
X115276380Y-79041523D02*
X115800190Y-78708190D01*
X115276380Y-78374857D01*
X116276380Y-77517714D02*
X116276380Y-78089142D01*
X116276380Y-77803428D02*
X115276380Y-77803428D01*
X115419238Y-77898666D01*
X115514476Y-77993904D01*
X115562095Y-78089142D01*
%TO.C,J2*%
X146224666Y-88606380D02*
X146224666Y-89320666D01*
X146177047Y-89463523D01*
X146081809Y-89558761D01*
X145938952Y-89606380D01*
X145843714Y-89606380D01*
X146653238Y-88701619D02*
X146700857Y-88654000D01*
X146796095Y-88606380D01*
X147034190Y-88606380D01*
X147129428Y-88654000D01*
X147177047Y-88701619D01*
X147224666Y-88796857D01*
X147224666Y-88892095D01*
X147177047Y-89034952D01*
X146605619Y-89606380D01*
X147224666Y-89606380D01*
%TO.C,J1*%
X109942380Y-75263333D02*
X110656666Y-75263333D01*
X110799523Y-75310952D01*
X110894761Y-75406190D01*
X110942380Y-75549047D01*
X110942380Y-75644285D01*
X110942380Y-74263333D02*
X110942380Y-74834761D01*
X110942380Y-74549047D02*
X109942380Y-74549047D01*
X110085238Y-74644285D01*
X110180476Y-74739523D01*
X110228095Y-74834761D01*
%TO.C,J3*%
X159853380Y-89233333D02*
X160567666Y-89233333D01*
X160710523Y-89280952D01*
X160805761Y-89376190D01*
X160853380Y-89519047D01*
X160853380Y-89614285D01*
X159853380Y-88852380D02*
X159853380Y-88233333D01*
X160234333Y-88566666D01*
X160234333Y-88423809D01*
X160281952Y-88328571D01*
X160329571Y-88280952D01*
X160424809Y-88233333D01*
X160662904Y-88233333D01*
X160758142Y-88280952D01*
X160805761Y-88328571D01*
X160853380Y-88423809D01*
X160853380Y-88709523D01*
X160805761Y-88804761D01*
X160758142Y-88852380D01*
%TO.C,SW_2*%
X164719761Y-91174285D02*
X164767380Y-91031428D01*
X164767380Y-90793333D01*
X164719761Y-90698095D01*
X164672142Y-90650476D01*
X164576904Y-90602857D01*
X164481666Y-90602857D01*
X164386428Y-90650476D01*
X164338809Y-90698095D01*
X164291190Y-90793333D01*
X164243571Y-90983809D01*
X164195952Y-91079047D01*
X164148333Y-91126666D01*
X164053095Y-91174285D01*
X163957857Y-91174285D01*
X163862619Y-91126666D01*
X163815000Y-91079047D01*
X163767380Y-90983809D01*
X163767380Y-90745714D01*
X163815000Y-90602857D01*
X163767380Y-90269523D02*
X164767380Y-90031428D01*
X164053095Y-89840952D01*
X164767380Y-89650476D01*
X163767380Y-89412380D01*
X164862619Y-89269523D02*
X164862619Y-88507619D01*
X163862619Y-88317142D02*
X163815000Y-88269523D01*
X163767380Y-88174285D01*
X163767380Y-87936190D01*
X163815000Y-87840952D01*
X163862619Y-87793333D01*
X163957857Y-87745714D01*
X164053095Y-87745714D01*
X164195952Y-87793333D01*
X164767380Y-88364761D01*
X164767380Y-87745714D01*
%TO.C,SW_1*%
X164719761Y-78474285D02*
X164767380Y-78331428D01*
X164767380Y-78093333D01*
X164719761Y-77998095D01*
X164672142Y-77950476D01*
X164576904Y-77902857D01*
X164481666Y-77902857D01*
X164386428Y-77950476D01*
X164338809Y-77998095D01*
X164291190Y-78093333D01*
X164243571Y-78283809D01*
X164195952Y-78379047D01*
X164148333Y-78426666D01*
X164053095Y-78474285D01*
X163957857Y-78474285D01*
X163862619Y-78426666D01*
X163815000Y-78379047D01*
X163767380Y-78283809D01*
X163767380Y-78045714D01*
X163815000Y-77902857D01*
X163767380Y-77569523D02*
X164767380Y-77331428D01*
X164053095Y-77140952D01*
X164767380Y-76950476D01*
X163767380Y-76712380D01*
X164862619Y-76569523D02*
X164862619Y-75807619D01*
X164767380Y-75045714D02*
X164767380Y-75617142D01*
X164767380Y-75331428D02*
X163767380Y-75331428D01*
X163910238Y-75426666D01*
X164005476Y-75521904D01*
X164053095Y-75617142D01*
%TD*%
M02*
